<?xml version="1.0" encoding="utf-8" standalone="no"?>
<!DOCTYPE svg PUBLIC "-//W3C//DTD SVG 1.1//EN"
  "http://www.w3.org/Graphics/SVG/1.1/DTD/svg11.dtd">
<svg xmlns:xlink="http://www.w3.org/1999/xlink" width="433.16625pt" height="199.32692pt" viewBox="0 0 433.16625 199.32692" xmlns="http://www.w3.org/2000/svg" version="1.1">
 <metadata>
  <rdf:RDF xmlns:dc="http://purl.org/dc/elements/1.1/" xmlns:cc="http://creativecommons.org/ns#" xmlns:rdf="http://www.w3.org/1999/02/22-rdf-syntax-ns#">
   <cc:Work>
    <dc:type rdf:resource="http://purl.org/dc/dcmitype/StillImage"/>
    <dc:date>2023-06-03T05:59:41.721958</dc:date>
    <dc:format>image/svg+xml</dc:format>
    <dc:creator>
     <cc:Agent>
      <dc:title>Matplotlib v3.7.1, https://matplotlib.org/</dc:title>
     </cc:Agent>
    </dc:creator>
   </cc:Work>
  </rdf:RDF>
 </metadata>
 <defs>
  <style type="text/css">*{stroke-linejoin: round; stroke-linecap: butt}</style>
 </defs>
 <g id="figure_1">
  <g id="patch_1">
   <path d="M 0 199.32692
L 433.16625 199.32692
L 433.16625 0
L 0 0
z
" style="fill: #ffffff"/>
  </g>
  <g id="axes_1">
   <g id="patch_2">
    <path d="M 54.583125 163.8
L 200.148342 163.8
L 200.148342 25.2
L 54.583125 25.2
z
" style="fill: #ffffff"/>
   </g>
   <g id="PolyCollection_1">
    <defs>
     <path id="m7537f8fad0" d="M 98.059503 -59.04809
L 89.270718 -59.04809
L 87.600552 -59.962977
L 85.528893 -60.877864
L 83.053804 -61.792751
L 80.211521 -62.707638
L 77.083355 -63.622525
L 73.797492 -64.537412
L 70.524005 -65.452299
L 67.462449 -66.367186
L 64.822823 -67.282073
L 62.802192 -68.19696
L 61.56051 -69.111847
L 61.199726 -70.026734
L 61.749965 -70.941621
L 63.165374 -71.856508
L 65.330428 -72.771395
L 68.075504 -73.686282
L 71.198794 -74.601169
L 74.490652 -75.516056
L 77.756313 -76.430943
L 80.833694 -77.34583
L 83.604257 -78.260717
L 85.996476 -79.175604
L 87.982809 -80.090491
L 89.572 -81.005378
L 90.798916 -81.920265
L 91.714004 -82.835152
L 92.373953 -83.750039
L 92.834494 -84.664926
L 93.145659 -85.579813
L 93.349311 -86.4947
L 93.478472 -87.409587
L 93.557881 -88.324474
L 93.605221 -89.239361
L 93.632593 -90.154248
L 93.647947 -91.069135
L 93.656304 -91.984022
L 93.660718 -92.898909
L 93.66298 -93.813797
L 93.664106 -94.728684
L 93.66465 -95.643571
L 93.664905 -96.558458
L 93.665022 -97.473345
L 93.665073 -98.388232
L 93.665095 -99.303119
L 93.665104 -100.218006
L 93.665108 -101.132893
L 93.665109 -102.04778
L 93.66511 -102.962667
L 93.66511 -103.877554
L 93.66511 -104.792441
L 93.66511 -105.707328
L 93.66511 -106.622215
L 93.665109 -107.537102
L 93.665108 -108.451989
L 93.665105 -109.366876
L 93.665096 -110.281763
L 93.665077 -111.19665
L 93.665034 -112.111537
L 93.664938 -113.026424
L 93.664734 -113.941311
L 93.664313 -114.856198
L 93.663466 -115.771085
L 93.661813 -116.685972
L 93.658685 -117.600859
L 93.652936 -118.515746
L 93.642688 -119.430633
L 93.624964 -120.34552
L 93.595234 -121.260407
L 93.546877 -122.175294
L 93.470632 -123.090181
L 93.354134 -124.005068
L 93.181711 -124.919955
L 92.934631 -125.834842
L 92.592028 -126.749729
L 92.13268 -127.664616
L 91.537699 -128.579503
L 90.79403 -129.49439
L 89.898401 -130.409277
L 88.861123 -131.324164
L 87.708974 -132.239051
L 86.486335 -133.153938
L 85.253888 -134.068825
L 84.084551 -134.983712
L 83.056814 -135.898599
L 82.246234 -136.813486
L 81.716316 -137.728373
L 81.51031 -138.64326
L 81.645385 -139.558147
L 82.110262 -140.473034
L 82.866771 -141.387921
L 83.855027 -142.302808
L 85.001251 -143.217695
L 86.226821 -144.132582
L 87.457024 -145.047469
L 88.628186 -145.962356
L 89.692316 -146.877243
L 90.618971 -147.79213
L 91.394584 -148.707017
L 92.019882 -149.621904
L 95.310338 -149.621904
L 95.310338 -149.621904
L 95.935636 -148.707017
L 96.71125 -147.79213
L 97.637905 -146.877243
L 98.702035 -145.962356
L 99.873197 -145.047469
L 101.1034 -144.132582
L 102.328969 -143.217695
L 103.475193 -142.302808
L 104.46345 -141.387921
L 105.219959 -140.473034
L 105.684836 -139.558147
L 105.819911 -138.64326
L 105.613905 -137.728373
L 105.083987 -136.813486
L 104.273406 -135.898599
L 103.24567 -134.983712
L 102.076333 -134.068825
L 100.843886 -133.153938
L 99.621247 -132.239051
L 98.469098 -131.324164
L 97.431819 -130.409277
L 96.53619 -129.49439
L 95.792522 -128.579503
L 95.197541 -127.664616
L 94.738192 -126.749729
L 94.39559 -125.834842
L 94.14851 -124.919955
L 93.976087 -124.005068
L 93.859589 -123.090181
L 93.783343 -122.175294
L 93.734986 -121.260407
L 93.705256 -120.34552
L 93.687533 -119.430633
L 93.677284 -118.515746
L 93.671536 -117.600859
L 93.668407 -116.685972
L 93.666755 -115.771085
L 93.665908 -114.856198
L 93.665486 -113.941311
L 93.665283 -113.026424
L 93.665187 -112.111537
L 93.665144 -111.19665
L 93.665124 -110.281763
L 93.665116 -109.366876
L 93.665113 -108.451989
L 93.665111 -107.537102
L 93.665111 -106.622215
L 93.66511 -105.707328
L 93.66511 -104.792441
L 93.66511 -103.877554
L 93.665111 -102.962667
L 93.665111 -102.04778
L 93.665113 -101.132893
L 93.665116 -100.218006
L 93.665126 -99.303119
L 93.665148 -98.388232
L 93.665199 -97.473345
L 93.665315 -96.558458
L 93.66557 -95.643571
L 93.666114 -94.728684
L 93.66724 -93.813797
L 93.669503 -92.898909
L 93.673917 -91.984022
L 93.682273 -91.069135
L 93.697627 -90.154248
L 93.725 -89.239361
L 93.77234 -88.324474
L 93.851749 -87.409587
L 93.98091 -86.4947
L 94.184561 -85.579813
L 94.495726 -84.664926
L 94.956267 -83.750039
L 95.616216 -82.835152
L 96.531305 -81.920265
L 97.758221 -81.005378
L 99.347412 -80.090491
L 101.333745 -79.175604
L 103.725964 -78.260717
L 106.496526 -77.34583
L 109.573908 -76.430943
L 112.839569 -75.516056
L 116.131426 -74.601169
L 119.254717 -73.686282
L 121.999793 -72.771395
L 124.164847 -71.856508
L 125.580255 -70.941621
L 126.130495 -70.026734
L 125.769711 -69.111847
L 124.528029 -68.19696
L 122.507398 -67.282073
L 119.867772 -66.367186
L 116.806216 -65.452299
L 113.532728 -64.537412
L 110.246865 -63.622525
L 107.1187 -62.707638
L 104.276417 -61.792751
L 101.801327 -60.877864
L 99.729669 -59.962977
L 98.059503 -59.04809
z
" style="stroke: #3c3c3c; stroke-width: 1.5"/>
    </defs>
    <g clip-path="url(#pd5a65ebcff)">
     <use xlink:href="#m7537f8fad0" x="0" y="199.32692" style="fill: #af5619; stroke: #3c3c3c; stroke-width: 1.5"/>
    </g>
   </g>
   <g id="PolyCollection_2">
    <defs>
     <path id="m9e089f6d2d" d="M 177.360341 -50.594158
L 172.296802 -50.594158
L 171.679223 -51.679831
L 170.960084 -52.765505
L 170.136274 -53.851178
L 169.208346 -54.936852
L 168.181263 -56.022525
L 167.064996 -57.108199
L 165.874891 -58.193872
L 164.631739 -59.279546
L 163.361491 -60.365219
L 162.094588 -61.450893
L 160.864901 -62.536566
L 159.708328 -63.62224
L 158.66111 -64.707913
L 157.757972 -65.793587
L 157.030228 -66.879261
L 156.503982 -67.964934
L 156.198574 -69.050608
L 156.125402 -70.136281
L 156.287215 -71.221955
L 156.677943 -72.307628
L 157.283073 -73.393302
L 158.080546 -74.478975
L 159.042088 -75.564649
L 160.134875 -76.650322
L 161.323385 -77.735996
L 162.571295 -78.821669
L 163.843288 -79.907343
L 165.106643 -80.993016
L 166.332514 -82.07869
L 167.496844 -83.164363
L 168.580886 -84.250037
L 169.571355 -85.33571
L 170.460231 -86.421384
L 171.244297 -87.507058
L 171.92448 -88.592731
L 172.505064 -89.678405
L 172.992863 -90.764078
L 173.39641 -91.849752
L 173.725219 -92.935425
L 173.989144 -94.021099
L 174.197866 -95.106772
L 174.360507 -96.192446
L 174.485362 -97.278119
L 174.57975 -98.363793
L 174.649937 -99.449466
L 174.701146 -100.53514
L 174.737603 -101.620813
L 174.76261 -102.706487
L 174.778643 -103.79216
L 174.787435 -104.877834
L 174.79006 -105.963507
L 174.787 -107.049181
L 174.778197 -108.134855
L 174.763088 -109.220528
L 174.74063 -110.306202
L 174.709314 -111.391875
L 174.667186 -112.477549
L 174.611872 -113.563222
L 174.540616 -114.648896
L 174.45035 -115.734569
L 174.337795 -116.820243
L 174.199597 -117.905916
L 174.032513 -118.99159
L 173.833628 -120.077263
L 173.600613 -121.162937
L 173.332003 -122.24861
L 173.027484 -123.334284
L 172.688159 -124.419957
L 172.316775 -125.505631
L 171.917885 -126.591304
L 171.497911 -127.676978
L 171.065095 -128.762652
L 170.629319 -129.848325
L 170.201795 -130.933999
L 169.79462 -132.019672
L 169.420239 -133.105346
L 169.090822 -134.191019
L 168.817614 -135.276693
L 168.610301 -136.362366
L 168.47644 -137.44804
L 168.421004 -138.533713
L 168.446072 -139.619387
L 168.550703 -140.70506
L 168.730991 -141.790734
L 168.980311 -142.876407
L 169.289719 -143.962081
L 169.648488 -145.047754
L 170.044721 -146.133428
L 170.466003 -147.219101
L 170.900035 -148.304775
L 171.335212 -149.390449
L 171.761107 -150.476122
L 172.168828 -151.561796
L 172.551253 -152.647469
L 172.903124 -153.733143
L 173.221025 -154.818816
L 173.503256 -155.90449
L 173.749628 -156.990163
L 173.961206 -158.075837
L 175.695937 -158.075837
L 175.695937 -158.075837
L 175.907515 -156.990163
L 176.153887 -155.90449
L 176.436118 -154.818816
L 176.754019 -153.733143
L 177.10589 -152.647469
L 177.488315 -151.561796
L 177.896036 -150.476122
L 178.321931 -149.390449
L 178.757108 -148.304775
L 179.19114 -147.219101
L 179.612422 -146.133428
L 180.008655 -145.047754
L 180.367424 -143.962081
L 180.676833 -142.876407
L 180.926152 -141.790734
L 181.10644 -140.70506
L 181.211071 -139.619387
L 181.236139 -138.533713
L 181.180703 -137.44804
L 181.046843 -136.362366
L 180.83953 -135.276693
L 180.566321 -134.191019
L 180.236904 -133.105346
L 179.862523 -132.019672
L 179.455349 -130.933999
L 179.027824 -129.848325
L 178.592049 -128.762652
L 178.159233 -127.676978
L 177.739259 -126.591304
L 177.340368 -125.505631
L 176.968984 -124.419957
L 176.629659 -123.334284
L 176.32514 -122.24861
L 176.056531 -121.162937
L 175.823516 -120.077263
L 175.62463 -118.99159
L 175.457546 -117.905916
L 175.319349 -116.820243
L 175.206793 -115.734569
L 175.116527 -114.648896
L 175.045271 -113.563222
L 174.989957 -112.477549
L 174.94783 -111.391875
L 174.916514 -110.306202
L 174.894055 -109.220528
L 174.878946 -108.134855
L 174.870143 -107.049181
L 174.867083 -105.963507
L 174.869708 -104.877834
L 174.8785 -103.79216
L 174.894533 -102.706487
L 174.919541 -101.620813
L 174.955997 -100.53514
L 175.007207 -99.449466
L 175.077394 -98.363793
L 175.171781 -97.278119
L 175.296637 -96.192446
L 175.459277 -95.106772
L 175.667999 -94.021099
L 175.931924 -92.935425
L 176.260733 -91.849752
L 176.664281 -90.764078
L 177.152079 -89.678405
L 177.732663 -88.592731
L 178.412846 -87.507058
L 179.196912 -86.421384
L 180.085788 -85.33571
L 181.076257 -84.250037
L 182.1603 -83.164363
L 183.324629 -82.07869
L 184.5505 -80.993016
L 185.813855 -79.907343
L 187.085848 -78.821669
L 188.333758 -77.735996
L 189.522268 -76.650322
L 190.615055 -75.564649
L 191.576598 -74.478975
L 192.37407 -73.393302
L 192.979201 -72.307628
L 193.369929 -71.221955
L 193.531742 -70.136281
L 193.458569 -69.050608
L 193.153161 -67.964934
L 192.626915 -66.879261
L 191.899171 -65.793587
L 190.996034 -64.707913
L 189.948815 -63.62224
L 188.792243 -62.536566
L 187.562556 -61.450893
L 186.295652 -60.365219
L 185.025404 -59.279546
L 183.782252 -58.193872
L 182.592147 -57.108199
L 181.47588 -56.022525
L 180.448797 -54.936852
L 179.520869 -53.851178
L 178.697059 -52.765505
L 177.977921 -51.679831
L 177.360341 -50.594158
z
" style="stroke: #3c3c3c; stroke-width: 1.5"/>
    </defs>
    <g clip-path="url(#pd5a65ebcff)">
     <use xlink:href="#m9e089f6d2d" x="0" y="199.32692" style="fill: #ababab; stroke: #3c3c3c; stroke-width: 1.5"/>
    </g>
   </g>
   <g id="matplotlib.axis_1">
    <g id="xtick_1">
     <g id="line2d_1">
      <defs>
       <path id="m212164a679" d="M 0 0
L 0 3.5
" style="stroke: #000000; stroke-width: 0.8"/>
      </defs>
      <g>
       <use xlink:href="#m212164a679" x="93.66511" y="163.8" style="stroke: #000000; stroke-width: 0.8"/>
      </g>
     </g>
     <g id="text_1">
      <!-- Indeed -->
      <g transform="translate(82.333056 176.584144) scale(0.0833 -0.0833)">
       <defs>
        <path id="TimesNewRomanPSMT-49" d="M 1975 116
L 1975 0
L 159 0
L 159 116
L 309 116
Q 572 116 691 269
Q 766 369 766 750
L 766 3488
Q 766 3809 725 3913
Q 694 3991 597 4047
Q 459 4122 309 4122
L 159 4122
L 159 4238
L 1975 4238
L 1975 4122
L 1822 4122
Q 1563 4122 1444 3969
Q 1366 3869 1366 3488
L 1366 750
Q 1366 428 1406 325
Q 1438 247 1538 191
Q 1672 116 1822 116
L 1975 116
z
" transform="scale(0.015625)"/>
        <path id="TimesNewRomanPSMT-6e" d="M 1034 2341
Q 1538 2947 1994 2947
Q 2228 2947 2397 2830
Q 2566 2713 2666 2444
Q 2734 2256 2734 1869
L 2734 647
Q 2734 375 2778 278
Q 2813 200 2889 156
Q 2966 113 3172 113
L 3172 0
L 1756 0
L 1756 113
L 1816 113
Q 2016 113 2095 173
Q 2175 234 2206 353
Q 2219 400 2219 647
L 2219 1819
Q 2219 2209 2117 2386
Q 2016 2563 1775 2563
Q 1403 2563 1034 2156
L 1034 647
Q 1034 356 1069 288
Q 1113 197 1189 155
Q 1266 113 1500 113
L 1500 0
L 84 0
L 84 113
L 147 113
Q 366 113 442 223
Q 519 334 519 647
L 519 1709
Q 519 2225 495 2337
Q 472 2450 423 2490
Q 375 2531 294 2531
Q 206 2531 84 2484
L 38 2597
L 900 2947
L 1034 2947
L 1034 2341
z
" transform="scale(0.015625)"/>
        <path id="TimesNewRomanPSMT-64" d="M 2222 322
Q 2013 103 1813 7
Q 1613 -88 1381 -88
Q 913 -88 563 304
Q 213 697 213 1313
Q 213 1928 600 2439
Q 988 2950 1597 2950
Q 1975 2950 2222 2709
L 2222 3238
Q 2222 3728 2198 3840
Q 2175 3953 2125 3993
Q 2075 4034 2000 4034
Q 1919 4034 1784 3984
L 1744 4094
L 2597 4444
L 2738 4444
L 2738 1134
Q 2738 631 2761 520
Q 2784 409 2836 365
Q 2888 322 2956 322
Q 3041 322 3181 375
L 3216 266
L 2366 -88
L 2222 -88
L 2222 322
z
M 2222 541
L 2222 2016
Q 2203 2228 2109 2403
Q 2016 2578 1861 2667
Q 1706 2756 1559 2756
Q 1284 2756 1069 2509
Q 784 2184 784 1559
Q 784 928 1059 592
Q 1334 256 1672 256
Q 1956 256 2222 541
z
" transform="scale(0.015625)"/>
        <path id="TimesNewRomanPSMT-65" d="M 681 1784
Q 678 1147 991 784
Q 1303 422 1725 422
Q 2006 422 2214 576
Q 2422 731 2563 1106
L 2659 1044
Q 2594 616 2278 264
Q 1963 -88 1488 -88
Q 972 -88 605 314
Q 238 716 238 1394
Q 238 2128 614 2539
Q 991 2950 1559 2950
Q 2041 2950 2350 2633
Q 2659 2316 2659 1784
L 681 1784
z
M 681 1966
L 2006 1966
Q 1991 2241 1941 2353
Q 1863 2528 1708 2628
Q 1553 2728 1384 2728
Q 1125 2728 920 2526
Q 716 2325 681 1966
z
" transform="scale(0.015625)"/>
       </defs>
       <use xlink:href="#TimesNewRomanPSMT-49"/>
       <use xlink:href="#TimesNewRomanPSMT-6e" x="33.300781"/>
       <use xlink:href="#TimesNewRomanPSMT-64" x="83.300781"/>
       <use xlink:href="#TimesNewRomanPSMT-65" x="133.300781"/>
       <use xlink:href="#TimesNewRomanPSMT-65" x="177.685547"/>
       <use xlink:href="#TimesNewRomanPSMT-64" x="222.070312"/>
      </g>
     </g>
    </g>
    <g id="xtick_2">
     <g id="line2d_2">
      <g>
       <use xlink:href="#m212164a679" x="174.828572" y="163.8" style="stroke: #000000; stroke-width: 0.8"/>
      </g>
     </g>
     <g id="text_2">
      <!-- Glassdoor -->
      <g transform="translate(157.938195 176.584144) scale(0.0833 -0.0833)">
       <defs>
        <path id="TimesNewRomanPSMT-47" d="M 3928 4334
L 4038 2997
L 3928 2997
Q 3763 3497 3500 3750
Q 3122 4116 2528 4116
Q 1719 4116 1297 3475
Q 944 2934 944 2188
Q 944 1581 1178 1081
Q 1413 581 1792 348
Q 2172 116 2572 116
Q 2806 116 3025 175
Q 3244 234 3447 350
L 3447 1575
Q 3447 1894 3398 1992
Q 3350 2091 3248 2142
Q 3147 2194 2891 2194
L 2891 2313
L 4531 2313
L 4531 2194
L 4453 2194
Q 4209 2194 4119 2031
Q 4056 1916 4056 1575
L 4056 278
Q 3697 84 3347 -6
Q 2997 -97 2569 -97
Q 1341 -97 703 691
Q 225 1281 225 2053
Q 225 2613 494 3125
Q 813 3734 1369 4063
Q 1834 4334 2469 4334
Q 2700 4334 2889 4296
Q 3078 4259 3425 4131
Q 3600 4066 3659 4066
Q 3719 4066 3761 4120
Q 3803 4175 3813 4334
L 3928 4334
z
" transform="scale(0.015625)"/>
        <path id="TimesNewRomanPSMT-6c" d="M 1184 4444
L 1184 647
Q 1184 378 1223 290
Q 1263 203 1344 158
Q 1425 113 1647 113
L 1647 0
L 244 0
L 244 113
Q 441 113 512 153
Q 584 194 625 287
Q 666 381 666 647
L 666 3247
Q 666 3731 644 3842
Q 622 3953 573 3993
Q 525 4034 450 4034
Q 369 4034 244 3984
L 191 4094
L 1044 4444
L 1184 4444
z
" transform="scale(0.015625)"/>
        <path id="TimesNewRomanPSMT-61" d="M 1822 413
Q 1381 72 1269 19
Q 1100 -59 909 -59
Q 613 -59 420 144
Q 228 347 228 678
Q 228 888 322 1041
Q 450 1253 767 1440
Q 1084 1628 1822 1897
L 1822 2009
Q 1822 2438 1686 2597
Q 1550 2756 1291 2756
Q 1094 2756 978 2650
Q 859 2544 859 2406
L 866 2225
Q 866 2081 792 2003
Q 719 1925 600 1925
Q 484 1925 411 2006
Q 338 2088 338 2228
Q 338 2497 613 2722
Q 888 2947 1384 2947
Q 1766 2947 2009 2819
Q 2194 2722 2281 2516
Q 2338 2381 2338 1966
L 2338 994
Q 2338 584 2353 492
Q 2369 400 2405 369
Q 2441 338 2488 338
Q 2538 338 2575 359
Q 2641 400 2828 588
L 2828 413
Q 2478 -56 2159 -56
Q 2006 -56 1915 50
Q 1825 156 1822 413
z
M 1822 616
L 1822 1706
Q 1350 1519 1213 1441
Q 966 1303 859 1153
Q 753 1003 753 825
Q 753 600 887 451
Q 1022 303 1197 303
Q 1434 303 1822 616
z
" transform="scale(0.015625)"/>
        <path id="TimesNewRomanPSMT-73" d="M 2050 2947
L 2050 1972
L 1947 1972
Q 1828 2431 1642 2597
Q 1456 2763 1169 2763
Q 950 2763 815 2647
Q 681 2531 681 2391
Q 681 2216 781 2091
Q 878 1963 1175 1819
L 1631 1597
Q 2266 1288 2266 781
Q 2266 391 1970 151
Q 1675 -88 1309 -88
Q 1047 -88 709 6
Q 606 38 541 38
Q 469 38 428 -44
L 325 -44
L 325 978
L 428 978
Q 516 541 762 319
Q 1009 97 1316 97
Q 1531 97 1667 223
Q 1803 350 1803 528
Q 1803 744 1651 891
Q 1500 1038 1047 1263
Q 594 1488 453 1669
Q 313 1847 313 2119
Q 313 2472 555 2709
Q 797 2947 1181 2947
Q 1350 2947 1591 2875
Q 1750 2828 1803 2828
Q 1853 2828 1881 2850
Q 1909 2872 1947 2947
L 2050 2947
z
" transform="scale(0.015625)"/>
        <path id="TimesNewRomanPSMT-6f" d="M 1600 2947
Q 2250 2947 2644 2453
Q 2978 2031 2978 1484
Q 2978 1100 2793 706
Q 2609 313 2286 112
Q 1963 -88 1566 -88
Q 919 -88 538 428
Q 216 863 216 1403
Q 216 1797 411 2186
Q 606 2575 925 2761
Q 1244 2947 1600 2947
z
M 1503 2744
Q 1338 2744 1170 2645
Q 1003 2547 900 2300
Q 797 2053 797 1666
Q 797 1041 1045 587
Q 1294 134 1700 134
Q 2003 134 2200 384
Q 2397 634 2397 1244
Q 2397 2006 2069 2444
Q 1847 2744 1503 2744
z
" transform="scale(0.015625)"/>
        <path id="TimesNewRomanPSMT-72" d="M 1038 2947
L 1038 2303
Q 1397 2947 1775 2947
Q 1947 2947 2059 2842
Q 2172 2738 2172 2600
Q 2172 2478 2090 2393
Q 2009 2309 1897 2309
Q 1788 2309 1652 2417
Q 1516 2525 1450 2525
Q 1394 2525 1328 2463
Q 1188 2334 1038 2041
L 1038 669
Q 1038 431 1097 309
Q 1138 225 1241 169
Q 1344 113 1538 113
L 1538 0
L 72 0
L 72 113
Q 291 113 397 181
Q 475 231 506 341
Q 522 394 522 644
L 522 1753
Q 522 2253 501 2348
Q 481 2444 426 2487
Q 372 2531 291 2531
Q 194 2531 72 2484
L 41 2597
L 906 2947
L 1038 2947
z
" transform="scale(0.015625)"/>
       </defs>
       <use xlink:href="#TimesNewRomanPSMT-47"/>
       <use xlink:href="#TimesNewRomanPSMT-6c" x="72.216797"/>
       <use xlink:href="#TimesNewRomanPSMT-61" x="100"/>
       <use xlink:href="#TimesNewRomanPSMT-73" x="144.384766"/>
       <use xlink:href="#TimesNewRomanPSMT-73" x="183.300781"/>
       <use xlink:href="#TimesNewRomanPSMT-64" x="222.216797"/>
       <use xlink:href="#TimesNewRomanPSMT-6f" x="272.216797"/>
       <use xlink:href="#TimesNewRomanPSMT-6f" x="322.216797"/>
       <use xlink:href="#TimesNewRomanPSMT-72" x="372.216797"/>
      </g>
     </g>
    </g>
    <g id="text_3">
     <!-- Platform -->
     <g transform="translate(108.208702 189.987858) scale(0.1 -0.1)">
      <defs>
       <path id="TimesNewRomanPS-BoldMT-50" d="M 1728 1919
L 1728 744
Q 1728 400 1770 311
Q 1813 222 1920 169
Q 2028 116 2316 116
L 2316 0
L 163 0
L 163 116
Q 456 116 561 170
Q 666 225 708 312
Q 750 400 750 744
L 750 3494
Q 750 3838 708 3927
Q 666 4016 559 4069
Q 453 4122 163 4122
L 163 4238
L 2009 4238
Q 2922 4238 3319 3913
Q 3716 3588 3716 3100
Q 3716 2688 3459 2394
Q 3203 2100 2753 1994
Q 2450 1919 1728 1919
z
M 1728 3994
L 1728 2163
Q 1831 2156 1884 2156
Q 2266 2156 2472 2382
Q 2678 2609 2678 3084
Q 2678 3556 2472 3775
Q 2266 3994 1856 3994
L 1728 3994
z
" transform="scale(0.015625)"/>
       <path id="TimesNewRomanPS-BoldMT-6c" d="M 1359 4238
L 1359 606
Q 1359 297 1431 211
Q 1503 125 1713 113
L 1713 0
L 134 0
L 134 113
Q 328 119 422 225
Q 484 297 484 606
L 484 3631
Q 484 3938 412 4023
Q 341 4109 134 4122
L 134 4238
L 1359 4238
z
" transform="scale(0.015625)"/>
       <path id="TimesNewRomanPS-BoldMT-61" d="M 1828 431
Q 1294 -41 869 -41
Q 619 -41 453 123
Q 288 288 288 534
Q 288 869 575 1136
Q 863 1403 1828 1847
L 1828 2141
Q 1828 2472 1792 2558
Q 1756 2644 1656 2708
Q 1556 2772 1431 2772
Q 1228 2772 1097 2681
Q 1016 2625 1016 2550
Q 1016 2484 1103 2388
Q 1222 2253 1222 2128
Q 1222 1975 1108 1867
Q 994 1759 809 1759
Q 613 1759 480 1878
Q 347 1997 347 2156
Q 347 2381 525 2586
Q 703 2791 1022 2900
Q 1341 3009 1684 3009
Q 2100 3009 2342 2832
Q 2584 2656 2656 2450
Q 2700 2319 2700 1847
L 2700 713
Q 2700 513 2715 461
Q 2731 409 2762 384
Q 2794 359 2834 359
Q 2916 359 3000 475
L 3094 400
Q 2938 169 2770 64
Q 2603 -41 2391 -41
Q 2141 -41 2000 76
Q 1859 194 1828 431
z
M 1828 659
L 1828 1638
Q 1450 1416 1266 1163
Q 1144 994 1144 822
Q 1144 678 1247 569
Q 1325 484 1466 484
Q 1622 484 1828 659
z
" transform="scale(0.015625)"/>
       <path id="TimesNewRomanPS-BoldMT-74" d="M 1375 3991
L 1375 2922
L 2069 2922
L 2069 2613
L 1375 2613
L 1375 809
Q 1375 556 1398 482
Q 1422 409 1481 364
Q 1541 319 1591 319
Q 1794 319 1975 628
L 2069 559
Q 1816 -41 1247 -41
Q 969 -41 776 114
Q 584 269 531 459
Q 500 566 500 1034
L 500 2613
L 119 2613
L 119 2722
Q 513 3000 789 3306
Q 1066 3613 1272 3991
L 1375 3991
z
" transform="scale(0.015625)"/>
       <path id="TimesNewRomanPS-BoldMT-66" d="M 1497 2616
L 1497 588
Q 1497 294 1559 219
Q 1659 103 1928 113
L 1928 0
L 206 0
L 206 113
Q 403 116 486 158
Q 569 200 600 275
Q 631 350 631 588
L 631 2616
L 206 2616
L 206 2922
L 631 2922
L 631 3138
L 628 3284
Q 628 3734 958 4034
Q 1288 4334 1850 4334
Q 2234 4334 2420 4190
Q 2606 4047 2606 3872
Q 2606 3731 2490 3628
Q 2375 3525 2184 3525
Q 2022 3525 1926 3609
Q 1831 3694 1831 3797
Q 1831 3825 1850 3913
Q 1863 3966 1863 4013
Q 1863 4078 1825 4109
Q 1775 4156 1703 4156
Q 1613 4156 1552 4081
Q 1491 4006 1491 3841
L 1497 3294
L 1497 2922
L 1928 2922
L 1928 2616
L 1497 2616
z
" transform="scale(0.015625)"/>
       <path id="TimesNewRomanPS-BoldMT-6f" d="M 1594 3009
Q 1975 3009 2303 2812
Q 2631 2616 2801 2253
Q 2972 1891 2972 1459
Q 2972 838 2656 419
Q 2275 -88 1603 -88
Q 944 -88 587 375
Q 231 838 231 1447
Q 231 2075 595 2542
Q 959 3009 1594 3009
z
M 1606 2788
Q 1447 2788 1333 2667
Q 1219 2547 1183 2192
Q 1147 1838 1147 1206
Q 1147 872 1191 581
Q 1225 359 1337 243
Q 1450 128 1594 128
Q 1734 128 1828 206
Q 1950 313 1991 503
Q 2053 800 2053 1703
Q 2053 2234 1993 2432
Q 1934 2631 1819 2722
Q 1738 2788 1606 2788
z
" transform="scale(0.015625)"/>
       <path id="TimesNewRomanPS-BoldMT-72" d="M 1428 2922
L 1428 2259
Q 1719 2713 1937 2861
Q 2156 3009 2359 3009
Q 2534 3009 2639 2901
Q 2744 2794 2744 2597
Q 2744 2388 2642 2272
Q 2541 2156 2397 2156
Q 2231 2156 2109 2262
Q 1988 2369 1966 2381
Q 1934 2400 1894 2400
Q 1803 2400 1722 2331
Q 1594 2225 1528 2028
Q 1428 1725 1428 1359
L 1428 688
L 1431 513
Q 1431 334 1453 284
Q 1491 200 1564 161
Q 1638 122 1813 113
L 1813 0
L 234 0
L 234 113
Q 425 128 492 217
Q 559 306 559 688
L 559 2303
Q 559 2553 534 2622
Q 503 2709 443 2750
Q 384 2791 234 2806
L 234 2922
L 1428 2922
z
" transform="scale(0.015625)"/>
       <path id="TimesNewRomanPS-BoldMT-6d" d="M 1428 2922
L 1428 2538
Q 1669 2800 1873 2904
Q 2078 3009 2322 3009
Q 2603 3009 2793 2878
Q 2984 2747 3088 2478
Q 3338 2759 3567 2884
Q 3797 3009 4047 3009
Q 4350 3009 4529 2870
Q 4709 2731 4779 2517
Q 4850 2303 4850 1834
L 4850 638
Q 4850 300 4911 219
Q 4972 138 5166 113
L 5166 0
L 3656 0
L 3656 113
Q 3834 128 3919 250
Q 3975 334 3975 638
L 3975 1894
Q 3975 2284 3944 2390
Q 3913 2497 3845 2548
Q 3778 2600 3688 2600
Q 3553 2600 3415 2501
Q 3278 2403 3138 2206
L 3138 638
Q 3138 322 3191 241
Q 3263 125 3466 113
L 3466 0
L 1953 0
L 1953 113
Q 2075 119 2145 173
Q 2216 228 2239 304
Q 2263 381 2263 638
L 2263 1894
Q 2263 2291 2231 2391
Q 2200 2491 2126 2547
Q 2053 2603 1969 2603
Q 1844 2603 1741 2538
Q 1594 2441 1428 2206
L 1428 638
Q 1428 328 1489 229
Q 1550 131 1744 113
L 1744 0
L 238 0
L 238 113
Q 422 131 500 231
Q 553 300 553 638
L 553 2288
Q 553 2619 492 2700
Q 431 2781 238 2806
L 238 2922
L 1428 2922
z
" transform="scale(0.015625)"/>
      </defs>
      <use xlink:href="#TimesNewRomanPS-BoldMT-50"/>
      <use xlink:href="#TimesNewRomanPS-BoldMT-6c" x="61.083984"/>
      <use xlink:href="#TimesNewRomanPS-BoldMT-61" x="88.867188"/>
      <use xlink:href="#TimesNewRomanPS-BoldMT-74" x="138.867188"/>
      <use xlink:href="#TimesNewRomanPS-BoldMT-66" x="172.167969"/>
      <use xlink:href="#TimesNewRomanPS-BoldMT-6f" x="205.46875"/>
      <use xlink:href="#TimesNewRomanPS-BoldMT-72" x="255.46875"/>
      <use xlink:href="#TimesNewRomanPS-BoldMT-6d" x="299.853516"/>
     </g>
    </g>
   </g>
   <g id="matplotlib.axis_2">
    <g id="ytick_1">
     <g id="line2d_3">
      <defs>
       <path id="mcae4ae6292" d="M 0 0
L -3.5 0
" style="stroke: #000000; stroke-width: 0.8"/>
      </defs>
      <g>
       <use xlink:href="#mcae4ae6292" x="54.583125" y="163.8" style="stroke: #000000; stroke-width: 0.8"/>
      </g>
     </g>
     <g id="text_4">
      <!-- −0.5 -->
      <g transform="translate(32.473286 166.692072) scale(0.0833 -0.0833)">
       <defs>
        <path id="TimesNewRomanPSMT-2212" d="M 3484 2000
L 116 2000
L 116 2256
L 3484 2256
L 3484 2000
z
" transform="scale(0.015625)"/>
        <path id="TimesNewRomanPSMT-30" d="M 231 2094
Q 231 2819 450 3342
Q 669 3866 1031 4122
Q 1313 4325 1613 4325
Q 2100 4325 2488 3828
Q 2972 3213 2972 2159
Q 2972 1422 2759 906
Q 2547 391 2217 158
Q 1888 -75 1581 -75
Q 975 -75 572 641
Q 231 1244 231 2094
z
M 844 2016
Q 844 1141 1059 588
Q 1238 122 1591 122
Q 1759 122 1940 273
Q 2122 425 2216 781
Q 2359 1319 2359 2297
Q 2359 3022 2209 3506
Q 2097 3866 1919 4016
Q 1791 4119 1609 4119
Q 1397 4119 1231 3928
Q 1006 3669 925 3112
Q 844 2556 844 2016
z
" transform="scale(0.015625)"/>
        <path id="TimesNewRomanPSMT-2e" d="M 800 606
Q 947 606 1047 504
Q 1147 403 1147 259
Q 1147 116 1045 14
Q 944 -88 800 -88
Q 656 -88 554 14
Q 453 116 453 259
Q 453 406 554 506
Q 656 606 800 606
z
" transform="scale(0.015625)"/>
        <path id="TimesNewRomanPSMT-35" d="M 2778 4238
L 2534 3706
L 1259 3706
L 981 3138
Q 1809 3016 2294 2522
Q 2709 2097 2709 1522
Q 2709 1188 2573 903
Q 2438 619 2231 419
Q 2025 219 1772 97
Q 1413 -75 1034 -75
Q 653 -75 479 54
Q 306 184 306 341
Q 306 428 378 495
Q 450 563 559 563
Q 641 563 702 538
Q 763 513 909 409
Q 1144 247 1384 247
Q 1750 247 2026 523
Q 2303 800 2303 1197
Q 2303 1581 2056 1914
Q 1809 2247 1375 2428
Q 1034 2569 447 2591
L 1259 4238
L 2778 4238
z
" transform="scale(0.015625)"/>
       </defs>
       <use xlink:href="#TimesNewRomanPSMT-2212"/>
       <use xlink:href="#TimesNewRomanPSMT-30" x="56.396484"/>
       <use xlink:href="#TimesNewRomanPSMT-2e" x="106.396484"/>
       <use xlink:href="#TimesNewRomanPSMT-35" x="131.396484"/>
      </g>
     </g>
    </g>
    <g id="ytick_2">
     <g id="line2d_4">
      <g>
       <use xlink:href="#mcae4ae6292" x="54.583125" y="129.395962" style="stroke: #000000; stroke-width: 0.8"/>
      </g>
     </g>
     <g id="text_5">
      <!-- 0.0 -->
      <g transform="translate(37.170625 132.288033) scale(0.0833 -0.0833)">
       <use xlink:href="#TimesNewRomanPSMT-30"/>
       <use xlink:href="#TimesNewRomanPSMT-2e" x="50"/>
       <use xlink:href="#TimesNewRomanPSMT-30" x="75"/>
      </g>
     </g>
    </g>
    <g id="ytick_3">
     <g id="line2d_5">
      <g>
       <use xlink:href="#mcae4ae6292" x="54.583125" y="94.991923" style="stroke: #000000; stroke-width: 0.8"/>
      </g>
     </g>
     <g id="text_6">
      <!-- 0.5 -->
      <g transform="translate(37.170625 97.883995) scale(0.0833 -0.0833)">
       <use xlink:href="#TimesNewRomanPSMT-30"/>
       <use xlink:href="#TimesNewRomanPSMT-2e" x="50"/>
       <use xlink:href="#TimesNewRomanPSMT-35" x="75"/>
      </g>
     </g>
    </g>
    <g id="ytick_4">
     <g id="line2d_6">
      <g>
       <use xlink:href="#mcae4ae6292" x="54.583125" y="60.587885" style="stroke: #000000; stroke-width: 0.8"/>
      </g>
     </g>
     <g id="text_7">
      <!-- 1.0 -->
      <g transform="translate(37.170625 63.479957) scale(0.0833 -0.0833)">
       <defs>
        <path id="TimesNewRomanPSMT-31" d="M 750 3822
L 1781 4325
L 1884 4325
L 1884 747
Q 1884 391 1914 303
Q 1944 216 2037 169
Q 2131 122 2419 116
L 2419 0
L 825 0
L 825 116
Q 1125 122 1212 167
Q 1300 213 1334 289
Q 1369 366 1369 747
L 1369 3034
Q 1369 3497 1338 3628
Q 1316 3728 1258 3775
Q 1200 3822 1119 3822
Q 1003 3822 797 3725
L 750 3822
z
" transform="scale(0.015625)"/>
       </defs>
       <use xlink:href="#TimesNewRomanPSMT-31"/>
       <use xlink:href="#TimesNewRomanPSMT-2e" x="50"/>
       <use xlink:href="#TimesNewRomanPSMT-30" x="75"/>
      </g>
     </g>
    </g>
    <g id="ytick_5">
     <g id="line2d_7">
      <g>
       <use xlink:href="#mcae4ae6292" x="54.583125" y="26.183846" style="stroke: #000000; stroke-width: 0.8"/>
      </g>
     </g>
     <g id="text_8">
      <!-- 1.5 -->
      <g transform="translate(37.170625 29.075918) scale(0.0833 -0.0833)">
       <use xlink:href="#TimesNewRomanPSMT-31"/>
       <use xlink:href="#TimesNewRomanPSMT-2e" x="50"/>
       <use xlink:href="#TimesNewRomanPSMT-35" x="75"/>
      </g>
     </g>
    </g>
    <g id="text_9">
     <!-- Warmth -->
     <g transform="translate(25.334223 112.554687) rotate(-90) scale(0.1 -0.1)">
      <defs>
       <path id="TimesNewRomanPS-BoldMT-57" d="M 6344 4238
L 6344 4122
Q 6225 4113 6144 4056
Q 6063 4000 6000 3884
Q 5981 3847 5803 3400
L 4475 -97
L 4353 -97
L 3303 2634
L 2147 -97
L 2031 -97
L 638 3363
Q 425 3884 340 3993
Q 256 4103 56 4122
L 56 4238
L 1894 4238
L 1894 4122
Q 1672 4116 1598 4055
Q 1525 3994 1525 3903
Q 1525 3784 1678 3400
L 2509 1344
L 3175 2950
L 3000 3400
Q 2856 3769 2778 3892
Q 2700 4016 2598 4069
Q 2497 4122 2300 4122
L 2300 4238
L 4353 4238
L 4353 4122
Q 4138 4119 4044 4088
Q 3978 4066 3940 4014
Q 3903 3963 3903 3897
Q 3903 3825 4044 3456
L 4816 1450
L 5506 3266
Q 5616 3547 5641 3650
Q 5666 3753 5666 3841
Q 5666 3969 5578 4042
Q 5491 4116 5244 4122
L 5244 4238
L 6344 4238
z
" transform="scale(0.015625)"/>
       <path id="TimesNewRomanPS-BoldMT-68" d="M 1409 4238
L 1409 2547
Q 1650 2800 1850 2904
Q 2050 3009 2266 3009
Q 2541 3009 2736 2853
Q 2931 2697 2995 2486
Q 3059 2275 3059 1775
L 3059 634
Q 3059 300 3121 217
Q 3184 134 3375 113
L 3375 0
L 1894 0
L 1894 113
Q 2050 134 2128 238
Q 2184 319 2184 634
L 2184 1938
Q 2184 2300 2156 2392
Q 2128 2484 2061 2536
Q 1994 2588 1909 2588
Q 1784 2588 1665 2502
Q 1547 2416 1409 2200
L 1409 634
Q 1409 322 1456 244
Q 1516 138 1700 113
L 1700 0
L 219 0
L 219 113
Q 403 131 481 231
Q 534 300 534 634
L 534 3603
Q 534 3934 473 4015
Q 413 4097 219 4122
L 219 4238
L 1409 4238
z
" transform="scale(0.015625)"/>
      </defs>
      <use xlink:href="#TimesNewRomanPS-BoldMT-57"/>
      <use xlink:href="#TimesNewRomanPS-BoldMT-61" x="94.5"/>
      <use xlink:href="#TimesNewRomanPS-BoldMT-72" x="144.5"/>
      <use xlink:href="#TimesNewRomanPS-BoldMT-6d" x="188.884766"/>
      <use xlink:href="#TimesNewRomanPS-BoldMT-74" x="272.185547"/>
      <use xlink:href="#TimesNewRomanPS-BoldMT-68" x="305.486328"/>
     </g>
    </g>
   </g>
   <g id="line2d_8">
    <path d="M 61.52438 129.395962
L 125.805841 129.395962
" clip-path="url(#pd5a65ebcff)" style="fill: none; stroke-dasharray: 3.375,3.375; stroke-dashoffset: 0; stroke: #3c3c3c; stroke-width: 1.5"/>
   </g>
   <g id="line2d_9">
    <path d="M 61.52438 129.395962
L 125.805841 129.395962
" clip-path="url(#pd5a65ebcff)" style="fill: none; stroke-dasharray: 6.75,6.75; stroke-dashoffset: 0; stroke: #3c3c3c; stroke-width: 1.5"/>
   </g>
   <g id="line2d_10">
    <path d="M 81.631858 60.587885
L 105.698363 60.587885
" clip-path="url(#pd5a65ebcff)" style="fill: none; stroke-dasharray: 3.375,3.375; stroke-dashoffset: 0; stroke: #3c3c3c; stroke-width: 1.5"/>
   </g>
   <g id="line2d_11">
    <path d="M 156.312433 129.395962
L 193.34471 129.395962
" clip-path="url(#pd5a65ebcff)" style="fill: none; stroke-dasharray: 3.375,3.375; stroke-dashoffset: 0; stroke: #3c3c3c; stroke-width: 1.5"/>
   </g>
   <g id="line2d_12">
    <path d="M 156.312433 129.395962
L 193.34471 129.395962
" clip-path="url(#pd5a65ebcff)" style="fill: none; stroke-dasharray: 6.75,6.75; stroke-dashoffset: 0; stroke: #3c3c3c; stroke-width: 1.5"/>
   </g>
   <g id="line2d_13">
    <path d="M 168.48508 60.587885
L 181.172063 60.587885
" clip-path="url(#pd5a65ebcff)" style="fill: none; stroke-dasharray: 3.375,3.375; stroke-dashoffset: 0; stroke: #3c3c3c; stroke-width: 1.5"/>
   </g>
   <g id="line2d_14">
    <path d="M 93.66511 52.330915
L 93.66511 44.073946
L 174.828572 44.073946
L 174.828572 52.330915
" clip-path="url(#pd5a65ebcff)" style="fill: none; stroke: #333333; stroke-width: 1.5; stroke-linecap: square"/>
   </g>
   <g id="patch_3">
    <path d="M 54.583125 163.8
L 54.583125 25.2
" style="fill: none; stroke: #000000; stroke-width: 0.8; stroke-linejoin: miter; stroke-linecap: square"/>
   </g>
   <g id="patch_4">
    <path d="M 54.583125 163.8
L 200.148342 163.8
" style="fill: none; stroke: #000000; stroke-width: 0.8; stroke-linejoin: miter; stroke-linecap: square"/>
   </g>
   <g id="text_10">
    <!-- t-test_welch p = 0.51 -->
    <g transform="translate(99.047385 37.276488) scale(0.0833 -0.0833)">
     <defs>
      <path id="TimesNewRomanPSMT-74" d="M 1031 3803
L 1031 2863
L 1700 2863
L 1700 2644
L 1031 2644
L 1031 788
Q 1031 509 1111 412
Q 1191 316 1316 316
Q 1419 316 1516 380
Q 1613 444 1666 569
L 1788 569
Q 1678 263 1478 108
Q 1278 -47 1066 -47
Q 922 -47 784 33
Q 647 113 581 261
Q 516 409 516 719
L 516 2644
L 63 2644
L 63 2747
Q 234 2816 414 2980
Q 594 3144 734 3369
Q 806 3488 934 3803
L 1031 3803
z
" transform="scale(0.015625)"/>
      <path id="TimesNewRomanPSMT-2d" d="M 259 1672
L 1875 1672
L 1875 1200
L 259 1200
L 259 1672
z
" transform="scale(0.015625)"/>
      <path id="TimesNewRomanPSMT-5f" d="M 3256 -1381
L -53 -1381
L -53 -1119
L 3256 -1119
L 3256 -1381
z
" transform="scale(0.015625)"/>
      <path id="TimesNewRomanPSMT-77" d="M 41 2863
L 1241 2863
L 1241 2747
Q 1075 2734 1023 2687
Q 972 2641 972 2553
Q 972 2456 1025 2319
L 1638 672
L 2253 2013
L 2091 2434
Q 2016 2622 1894 2694
Q 1825 2738 1638 2747
L 1638 2863
L 3000 2863
L 3000 2747
Q 2775 2738 2681 2666
Q 2619 2616 2619 2506
Q 2619 2444 2644 2378
L 3294 734
L 3897 2319
Q 3959 2488 3959 2588
Q 3959 2647 3898 2694
Q 3838 2741 3659 2747
L 3659 2863
L 4563 2863
L 4563 2747
Q 4291 2706 4163 2378
L 3206 -88
L 3078 -88
L 2363 1741
L 1528 -88
L 1413 -88
L 494 2319
Q 403 2547 315 2626
Q 228 2706 41 2747
L 41 2863
z
" transform="scale(0.015625)"/>
      <path id="TimesNewRomanPSMT-63" d="M 2631 1088
Q 2516 522 2178 217
Q 1841 -88 1431 -88
Q 944 -88 581 321
Q 219 731 219 1428
Q 219 2103 620 2525
Q 1022 2947 1584 2947
Q 2006 2947 2278 2723
Q 2550 2500 2550 2259
Q 2550 2141 2473 2067
Q 2397 1994 2259 1994
Q 2075 1994 1981 2113
Q 1928 2178 1911 2362
Q 1894 2547 1784 2644
Q 1675 2738 1481 2738
Q 1169 2738 978 2506
Q 725 2200 725 1697
Q 725 1184 976 792
Q 1228 400 1656 400
Q 1963 400 2206 609
Q 2378 753 2541 1131
L 2631 1088
z
" transform="scale(0.015625)"/>
      <path id="TimesNewRomanPSMT-68" d="M 1041 4444
L 1041 2350
Q 1388 2731 1591 2839
Q 1794 2947 1997 2947
Q 2241 2947 2416 2812
Q 2591 2678 2675 2391
Q 2734 2191 2734 1659
L 2734 647
Q 2734 375 2778 275
Q 2809 200 2884 156
Q 2959 113 3159 113
L 3159 0
L 1753 0
L 1753 113
L 1819 113
Q 2019 113 2097 173
Q 2175 234 2206 353
Q 2216 403 2216 647
L 2216 1659
Q 2216 2128 2167 2275
Q 2119 2422 2012 2495
Q 1906 2569 1756 2569
Q 1603 2569 1437 2487
Q 1272 2406 1041 2159
L 1041 647
Q 1041 353 1073 281
Q 1106 209 1195 161
Q 1284 113 1503 113
L 1503 0
L 84 0
L 84 113
Q 275 113 384 172
Q 447 203 484 290
Q 522 378 522 647
L 522 3238
Q 522 3728 498 3840
Q 475 3953 426 3993
Q 378 4034 297 4034
Q 231 4034 84 3984
L 41 4094
L 897 4444
L 1041 4444
z
" transform="scale(0.015625)"/>
      <path id="TimesNewRomanPSMT-20" transform="scale(0.015625)"/>
      <path id="TimesNewRomanPSMT-70" d="M -6 2578
L 875 2934
L 994 2934
L 994 2266
Q 1216 2644 1439 2795
Q 1663 2947 1909 2947
Q 2341 2947 2628 2609
Q 2981 2197 2981 1534
Q 2981 794 2556 309
Q 2206 -88 1675 -88
Q 1444 -88 1275 -22
Q 1150 25 994 166
L 994 -706
Q 994 -1000 1030 -1079
Q 1066 -1159 1155 -1206
Q 1244 -1253 1478 -1253
L 1478 -1369
L -22 -1369
L -22 -1253
L 56 -1253
Q 228 -1256 350 -1188
Q 409 -1153 442 -1076
Q 475 -1000 475 -688
L 475 2019
Q 475 2297 450 2372
Q 425 2447 370 2484
Q 316 2522 222 2522
Q 147 2522 31 2478
L -6 2578
z
M 994 2081
L 994 1013
Q 994 666 1022 556
Q 1066 375 1236 237
Q 1406 100 1666 100
Q 1978 100 2172 344
Q 2425 663 2425 1241
Q 2425 1897 2138 2250
Q 1938 2494 1663 2494
Q 1513 2494 1366 2419
Q 1253 2363 994 2081
z
" transform="scale(0.015625)"/>
      <path id="TimesNewRomanPSMT-3d" d="M 116 2759
L 3488 2759
L 3488 2503
L 116 2503
L 116 2759
z
M 116 1741
L 3488 1741
L 3488 1484
L 116 1484
L 116 1741
z
" transform="scale(0.015625)"/>
     </defs>
     <use xlink:href="#TimesNewRomanPSMT-74"/>
     <use xlink:href="#TimesNewRomanPSMT-2d" x="27.783203"/>
     <use xlink:href="#TimesNewRomanPSMT-74" x="61.083984"/>
     <use xlink:href="#TimesNewRomanPSMT-65" x="88.867188"/>
     <use xlink:href="#TimesNewRomanPSMT-73" x="133.251953"/>
     <use xlink:href="#TimesNewRomanPSMT-74" x="172.167969"/>
     <use xlink:href="#TimesNewRomanPSMT-5f" x="199.951172"/>
     <use xlink:href="#TimesNewRomanPSMT-77" x="249.951172"/>
     <use xlink:href="#TimesNewRomanPSMT-65" x="322.167969"/>
     <use xlink:href="#TimesNewRomanPSMT-6c" x="366.552734"/>
     <use xlink:href="#TimesNewRomanPSMT-63" x="394.335938"/>
     <use xlink:href="#TimesNewRomanPSMT-68" x="438.720703"/>
     <use xlink:href="#TimesNewRomanPSMT-20" x="488.720703"/>
     <use xlink:href="#TimesNewRomanPSMT-70" x="513.720703"/>
     <use xlink:href="#TimesNewRomanPSMT-20" x="563.720703"/>
     <use xlink:href="#TimesNewRomanPSMT-3d" x="588.720703"/>
     <use xlink:href="#TimesNewRomanPSMT-20" x="645.117188"/>
     <use xlink:href="#TimesNewRomanPSMT-30" x="670.117188"/>
     <use xlink:href="#TimesNewRomanPSMT-2e" x="720.117188"/>
     <use xlink:href="#TimesNewRomanPSMT-35" x="745.117188"/>
     <use xlink:href="#TimesNewRomanPSMT-31" x="795.117188"/>
    </g>
   </g>
  </g>
  <g id="axes_2">
   <g id="patch_5">
    <path d="M 243.817908 163.8
L 389.383125 163.8
L 389.383125 25.2
L 243.817908 25.2
z
" style="fill: #ffffff"/>
   </g>
   <g id="PolyCollection_3">
    <defs>
     <path id="m112f91f934" d="M 287.672555 -57.73919
L 278.794569 -57.73919
L 277.259987 -58.68052
L 275.384311 -59.621849
L 273.162714 -60.563179
L 270.616804 -61.504508
L 267.79974 -62.445837
L 264.798562 -63.387167
L 261.732657 -64.328496
L 258.747762 -65.269826
L 256.005558 -66.211155
L 253.669694 -67.152485
L 251.889833 -68.093814
L 250.785855 -69.035143
L 250.434508 -69.976473
L 250.860591 -70.917802
L 252.034053 -71.859132
L 253.873504 -72.800461
L 256.255546 -73.741791
L 259.028452 -74.68312
L 262.028085 -75.624449
L 265.093741 -76.565779
L 268.081843 -77.507108
L 270.875945 -78.448438
L 273.392283 -79.389767
L 275.580905 -80.331097
L 277.423016 -81.272426
L 278.925662 -82.213756
L 280.114973 -83.155085
L 281.02914 -84.096414
L 281.712051 -85.037744
L 282.208147 -85.979073
L 282.558773 -86.920403
L 282.799971 -87.861732
L 282.96152 -88.803062
L 283.0669 -89.744391
L 283.133865 -90.68572
L 283.175329 -91.62705
L 283.20035 -92.568379
L 283.215066 -93.509709
L 283.223505 -94.451038
L 283.228222 -95.392368
L 283.230794 -96.333697
L 283.232161 -97.275026
L 283.232869 -98.216356
L 283.233228 -99.157685
L 283.233405 -100.099015
L 283.23349 -101.040344
L 283.233529 -101.981674
L 283.233547 -102.923003
L 283.233554 -103.864332
L 283.233554 -104.805662
L 283.233549 -105.746991
L 283.233534 -106.688321
L 283.233499 -107.62965
L 283.233425 -108.57098
L 283.233272 -109.512309
L 283.232961 -110.453638
L 283.232346 -111.394968
L 283.23116 -112.336297
L 283.228929 -113.277627
L 283.224836 -114.218956
L 283.217515 -115.160286
L 283.204747 -116.101615
L 283.183038 -117.042945
L 283.147064 -117.984274
L 283.088964 -118.925603
L 282.997535 -119.866933
L 282.857373 -120.808262
L 282.648106 -121.749592
L 282.343899 -122.690921
L 281.913479 -123.632251
L 281.320977 -124.57358
L 280.527833 -125.514909
L 279.495972 -126.456239
L 278.192256 -127.397568
L 276.594016 -128.338898
L 274.69514 -129.280227
L 272.511932 -130.221557
L 270.087733 -131.162886
L 267.495216 -132.104215
L 264.835413 -133.045545
L 262.232892 -133.986874
L 259.827083 -134.928204
L 257.760392 -135.869533
L 256.16446 -136.810863
L 255.146349 -137.752192
L 254.776674 -138.693521
L 255.081507 -139.634851
L 256.039333 -140.57618
L 257.583563 -141.51751
L 259.61019 -142.458839
L 261.989362 -143.400169
L 264.579095 -144.341498
L 267.239115 -145.282827
L 269.842976 -146.224157
L 272.287098 -147.165486
L 274.495963 -148.106816
L 276.423449 -149.048145
L 278.05081 -149.989475
L 279.382234 -150.930804
L 287.084891 -150.930804
L 287.084891 -150.930804
L 288.416315 -149.989475
L 290.043675 -149.048145
L 291.971161 -148.106816
L 294.180027 -147.165486
L 296.624148 -146.224157
L 299.228009 -145.282827
L 301.888029 -144.341498
L 304.477763 -143.400169
L 306.856935 -142.458839
L 308.883561 -141.51751
L 310.427791 -140.57618
L 311.385617 -139.634851
L 311.69045 -138.693521
L 311.320776 -137.752192
L 310.302664 -136.810863
L 308.706733 -135.869533
L 306.640042 -134.928204
L 304.234232 -133.986874
L 301.631712 -133.045545
L 298.971908 -132.104215
L 296.379391 -131.162886
L 293.955193 -130.221557
L 291.771984 -129.280227
L 289.873108 -128.338898
L 288.274868 -127.397568
L 286.971153 -126.456239
L 285.939291 -125.514909
L 285.146148 -124.57358
L 284.553645 -123.632251
L 284.123226 -122.690921
L 283.819018 -121.749592
L 283.609752 -120.808262
L 283.46959 -119.866933
L 283.37816 -118.925603
L 283.32006 -117.984274
L 283.284086 -117.042945
L 283.262378 -116.101615
L 283.24961 -115.160286
L 283.242288 -114.218956
L 283.238195 -113.277627
L 283.235964 -112.336297
L 283.234778 -111.394968
L 283.234163 -110.453638
L 283.233852 -109.512309
L 283.233699 -108.57098
L 283.233625 -107.62965
L 283.233591 -106.688321
L 283.233576 -105.746991
L 283.23357 -104.805662
L 283.233571 -103.864332
L 283.233577 -102.923003
L 283.233595 -101.981674
L 283.233635 -101.040344
L 283.23372 -100.099015
L 283.233897 -99.157685
L 283.234255 -98.216356
L 283.234964 -97.275026
L 283.236331 -96.333697
L 283.238902 -95.392368
L 283.24362 -94.451038
L 283.252058 -93.509709
L 283.266775 -92.568379
L 283.291795 -91.62705
L 283.333259 -90.68572
L 283.400224 -89.744391
L 283.505605 -88.803062
L 283.667153 -87.861732
L 283.908351 -86.920403
L 284.258977 -85.979073
L 284.755074 -85.037744
L 285.437984 -84.096414
L 286.352152 -83.155085
L 287.541462 -82.213756
L 289.044109 -81.272426
L 290.88622 -80.331097
L 293.074841 -79.389767
L 295.59118 -78.448438
L 298.385281 -77.507108
L 301.373383 -76.565779
L 304.43904 -75.624449
L 307.438672 -74.68312
L 310.211578 -73.741791
L 312.593621 -72.800461
L 314.433072 -71.859132
L 315.606534 -70.917802
L 316.032616 -69.976473
L 315.681269 -69.035143
L 314.577291 -68.093814
L 312.797431 -67.152485
L 310.461566 -66.211155
L 307.719363 -65.269826
L 304.734468 -64.328496
L 301.668562 -63.387167
L 298.667384 -62.445837
L 295.850321 -61.504508
L 293.30441 -60.563179
L 291.082813 -59.621849
L 289.207138 -58.68052
L 287.672555 -57.73919
z
" style="stroke: #3c3c3c; stroke-width: 1.5"/>
    </defs>
    <g clip-path="url(#p49376ce545)">
     <use xlink:href="#m112f91f934" x="0" y="199.32692" style="fill: #af5619; stroke: #3c3c3c; stroke-width: 1.5"/>
    </g>
   </g>
   <g id="PolyCollection_4">
    <defs>
     <path id="mbb96a9b053" d="M 367.606282 -47.772591
L 362.856111 -47.772591
L 362.327487 -48.915266
L 361.71877 -50.057941
L 361.027399 -51.200615
L 360.253177 -52.34329
L 359.398738 -53.485965
L 358.469946 -54.62864
L 357.47618 -55.771315
L 356.430467 -56.91399
L 355.349422 -58.056665
L 354.252987 -59.19934
L 353.163945 -60.342014
L 352.107218 -61.484689
L 351.108977 -62.627364
L 350.195599 -63.770039
L 349.392525 -64.912714
L 348.723097 -66.055389
L 348.207428 -67.198064
L 347.861403 -68.340739
L 347.695869 -69.483413
L 347.716065 -70.626088
L 347.92135 -71.768763
L 348.305235 -72.911438
L 348.855727 -74.054113
L 349.555946 -75.196788
L 350.384989 -76.339463
L 351.318963 -77.482138
L 352.332122 -78.624812
L 353.398039 -79.767487
L 354.490728 -80.910162
L 355.585659 -82.052837
L 356.66061 -83.195512
L 357.696319 -84.338187
L 358.676925 -85.480862
L 359.590181 -86.623537
L 360.427465 -87.766211
L 361.183609 -88.908886
L 361.856585 -90.051561
L 362.447075 -91.194236
L 362.957985 -92.336911
L 363.393917 -93.479586
L 363.760662 -94.622261
L 364.064703 -95.764936
L 364.312784 -96.90761
L 364.51153 -98.050285
L 364.667135 -99.19296
L 364.785116 -100.335635
L 364.870127 -101.47831
L 364.925821 -102.620985
L 364.954762 -103.76366
L 364.958371 -104.906335
L 364.936902 -106.049009
L 364.88945 -107.191684
L 364.813976 -108.334359
L 364.707376 -109.477034
L 364.565566 -110.619709
L 364.383621 -111.762384
L 364.155956 -112.905059
L 363.87656 -114.047734
L 363.539289 -115.190408
L 363.138221 -116.333083
L 362.668062 -117.475758
L 362.124595 -118.618433
L 361.505163 -119.761108
L 360.80915 -120.903783
L 360.038431 -122.046458
L 359.197769 -123.189133
L 358.295102 -124.331808
L 357.341707 -125.474482
L 356.352187 -126.617157
L 355.344272 -127.759832
L 354.33842 -128.902507
L 353.357212 -130.045182
L 352.42457 -131.187857
L 351.56482 -132.330532
L 350.801661 -133.473207
L 350.157089 -134.615881
L 349.650345 -135.758556
L 349.296967 -136.901231
L 349.107996 -138.043906
L 349.089405 -139.186581
L 349.241784 -140.329256
L 349.56031 -141.471931
L 350.034999 -142.614606
L 350.651228 -143.75728
L 351.390481 -144.899955
L 352.231273 -146.04263
L 353.150183 -147.185305
L 354.122932 -148.32798
L 355.125428 -149.470655
L 356.134729 -150.61333
L 357.129863 -151.756005
L 358.092473 -152.898679
L 359.007264 -154.041354
L 359.862245 -155.184029
L 360.648781 -156.326704
L 361.361476 -157.469379
L 361.997903 -158.612054
L 362.558246 -159.754729
L 363.04486 -160.897404
L 367.417534 -160.897404
L 367.417534 -160.897404
L 367.904148 -159.754729
L 368.464491 -158.612054
L 369.100918 -157.469379
L 369.813612 -156.326704
L 370.600149 -155.184029
L 371.45513 -154.041354
L 372.36992 -152.898679
L 373.332531 -151.756005
L 374.327665 -150.61333
L 375.336966 -149.470655
L 376.339461 -148.32798
L 377.31221 -147.185305
L 378.231121 -146.04263
L 379.071913 -144.899955
L 379.811166 -143.75728
L 380.427395 -142.614606
L 380.902084 -141.471931
L 381.220609 -140.329256
L 381.372988 -139.186581
L 381.354397 -138.043906
L 381.165427 -136.901231
L 380.812049 -135.758556
L 380.305305 -134.615881
L 379.660732 -133.473207
L 378.897573 -132.330532
L 378.037823 -131.187857
L 377.105181 -130.045182
L 376.123973 -128.902507
L 375.118121 -127.759832
L 374.110207 -126.617157
L 373.120687 -125.474482
L 372.167292 -124.331808
L 371.264625 -123.189133
L 370.423962 -122.046458
L 369.653243 -120.903783
L 368.95723 -119.761108
L 368.337799 -118.618433
L 367.794332 -117.475758
L 367.324172 -116.333083
L 366.923104 -115.190408
L 366.585833 -114.047734
L 366.306437 -112.905059
L 366.078772 -111.762384
L 365.896827 -110.619709
L 365.755017 -109.477034
L 365.648417 -108.334359
L 365.572944 -107.191684
L 365.525491 -106.049009
L 365.504023 -104.906335
L 365.507631 -103.76366
L 365.536572 -102.620985
L 365.592266 -101.47831
L 365.677277 -100.335635
L 365.795259 -99.19296
L 365.950864 -98.050285
L 366.149609 -96.90761
L 366.39769 -95.764936
L 366.701731 -94.622261
L 367.068476 -93.479586
L 367.504409 -92.336911
L 368.015318 -91.194236
L 368.605808 -90.051561
L 369.278784 -88.908886
L 370.034929 -87.766211
L 370.872213 -86.623537
L 371.785468 -85.480862
L 372.766074 -84.338187
L 373.801784 -83.195512
L 374.876734 -82.052837
L 375.971665 -80.910162
L 377.064355 -79.767487
L 378.130272 -78.624812
L 379.143431 -77.482138
L 380.077404 -76.339463
L 380.906447 -75.196788
L 381.606666 -74.054113
L 382.157158 -72.911438
L 382.541044 -71.768763
L 382.746328 -70.626088
L 382.766524 -69.483413
L 382.60099 -68.340739
L 382.254966 -67.198064
L 381.739297 -66.055389
L 381.069868 -64.912714
L 380.266795 -63.770039
L 379.353417 -62.627364
L 378.355175 -61.484689
L 377.298448 -60.342014
L 376.209406 -59.19934
L 375.112972 -58.056665
L 374.031927 -56.91399
L 372.986213 -55.771315
L 371.992448 -54.62864
L 371.063655 -53.485965
L 370.209216 -52.34329
L 369.434995 -51.200615
L 368.743624 -50.057941
L 368.134906 -48.915266
L 367.606282 -47.772591
z
" style="stroke: #3c3c3c; stroke-width: 1.5"/>
    </defs>
    <g clip-path="url(#p49376ce545)">
     <use xlink:href="#mbb96a9b053" x="0" y="199.32692" style="fill: #ababab; stroke: #3c3c3c; stroke-width: 1.5"/>
    </g>
   </g>
   <g id="matplotlib.axis_3">
    <g id="xtick_3">
     <g id="line2d_15">
      <g>
       <use xlink:href="#m212164a679" x="283.233562" y="163.8" style="stroke: #000000; stroke-width: 0.8"/>
      </g>
     </g>
     <g id="text_11">
      <!-- Indeed -->
      <g transform="translate(271.901508 176.584144) scale(0.0833 -0.0833)">
       <use xlink:href="#TimesNewRomanPSMT-49"/>
       <use xlink:href="#TimesNewRomanPSMT-6e" x="33.300781"/>
       <use xlink:href="#TimesNewRomanPSMT-64" x="83.300781"/>
       <use xlink:href="#TimesNewRomanPSMT-65" x="133.300781"/>
       <use xlink:href="#TimesNewRomanPSMT-65" x="177.685547"/>
       <use xlink:href="#TimesNewRomanPSMT-64" x="222.070312"/>
      </g>
     </g>
    </g>
    <g id="xtick_4">
     <g id="line2d_16">
      <g>
       <use xlink:href="#m212164a679" x="365.231197" y="163.8" style="stroke: #000000; stroke-width: 0.8"/>
      </g>
     </g>
     <g id="text_12">
      <!-- Glassdoor -->
      <g transform="translate(348.34082 176.584144) scale(0.0833 -0.0833)">
       <use xlink:href="#TimesNewRomanPSMT-47"/>
       <use xlink:href="#TimesNewRomanPSMT-6c" x="72.216797"/>
       <use xlink:href="#TimesNewRomanPSMT-61" x="100"/>
       <use xlink:href="#TimesNewRomanPSMT-73" x="144.384766"/>
       <use xlink:href="#TimesNewRomanPSMT-73" x="183.300781"/>
       <use xlink:href="#TimesNewRomanPSMT-64" x="222.216797"/>
       <use xlink:href="#TimesNewRomanPSMT-6f" x="272.216797"/>
       <use xlink:href="#TimesNewRomanPSMT-6f" x="322.216797"/>
       <use xlink:href="#TimesNewRomanPSMT-72" x="372.216797"/>
      </g>
     </g>
    </g>
    <g id="text_13">
     <!-- Platform -->
     <g transform="translate(297.443485 189.987858) scale(0.1 -0.1)">
      <use xlink:href="#TimesNewRomanPS-BoldMT-50"/>
      <use xlink:href="#TimesNewRomanPS-BoldMT-6c" x="61.083984"/>
      <use xlink:href="#TimesNewRomanPS-BoldMT-61" x="88.867188"/>
      <use xlink:href="#TimesNewRomanPS-BoldMT-74" x="138.867188"/>
      <use xlink:href="#TimesNewRomanPS-BoldMT-66" x="172.167969"/>
      <use xlink:href="#TimesNewRomanPS-BoldMT-6f" x="205.46875"/>
      <use xlink:href="#TimesNewRomanPS-BoldMT-72" x="255.46875"/>
      <use xlink:href="#TimesNewRomanPS-BoldMT-6d" x="299.853516"/>
     </g>
    </g>
   </g>
   <g id="matplotlib.axis_4">
    <g id="ytick_6">
     <g id="line2d_17">
      <g>
       <use xlink:href="#mcae4ae6292" x="243.817908" y="163.8" style="stroke: #000000; stroke-width: 0.8"/>
      </g>
     </g>
     <g id="text_14">
      <!-- −0.5 -->
      <g transform="translate(221.708069 166.692072) scale(0.0833 -0.0833)">
       <use xlink:href="#TimesNewRomanPSMT-2212"/>
       <use xlink:href="#TimesNewRomanPSMT-30" x="56.396484"/>
       <use xlink:href="#TimesNewRomanPSMT-2e" x="106.396484"/>
       <use xlink:href="#TimesNewRomanPSMT-35" x="131.396484"/>
      </g>
     </g>
    </g>
    <g id="ytick_7">
     <g id="line2d_18">
      <g>
       <use xlink:href="#mcae4ae6292" x="243.817908" y="129.395962" style="stroke: #000000; stroke-width: 0.8"/>
      </g>
     </g>
     <g id="text_15">
      <!-- 0.0 -->
      <g transform="translate(226.405408 132.288033) scale(0.0833 -0.0833)">
       <use xlink:href="#TimesNewRomanPSMT-30"/>
       <use xlink:href="#TimesNewRomanPSMT-2e" x="50"/>
       <use xlink:href="#TimesNewRomanPSMT-30" x="75"/>
      </g>
     </g>
    </g>
    <g id="ytick_8">
     <g id="line2d_19">
      <g>
       <use xlink:href="#mcae4ae6292" x="243.817908" y="94.991923" style="stroke: #000000; stroke-width: 0.8"/>
      </g>
     </g>
     <g id="text_16">
      <!-- 0.5 -->
      <g transform="translate(226.405408 97.883995) scale(0.0833 -0.0833)">
       <use xlink:href="#TimesNewRomanPSMT-30"/>
       <use xlink:href="#TimesNewRomanPSMT-2e" x="50"/>
       <use xlink:href="#TimesNewRomanPSMT-35" x="75"/>
      </g>
     </g>
    </g>
    <g id="ytick_9">
     <g id="line2d_20">
      <g>
       <use xlink:href="#mcae4ae6292" x="243.817908" y="60.587885" style="stroke: #000000; stroke-width: 0.8"/>
      </g>
     </g>
     <g id="text_17">
      <!-- 1.0 -->
      <g transform="translate(226.405408 63.479957) scale(0.0833 -0.0833)">
       <use xlink:href="#TimesNewRomanPSMT-31"/>
       <use xlink:href="#TimesNewRomanPSMT-2e" x="50"/>
       <use xlink:href="#TimesNewRomanPSMT-30" x="75"/>
      </g>
     </g>
    </g>
    <g id="ytick_10">
     <g id="line2d_21">
      <g>
       <use xlink:href="#mcae4ae6292" x="243.817908" y="26.183846" style="stroke: #000000; stroke-width: 0.8"/>
      </g>
     </g>
     <g id="text_18">
      <!-- 1.5 -->
      <g transform="translate(226.405408 29.075918) scale(0.0833 -0.0833)">
       <use xlink:href="#TimesNewRomanPSMT-31"/>
       <use xlink:href="#TimesNewRomanPSMT-2e" x="50"/>
       <use xlink:href="#TimesNewRomanPSMT-35" x="75"/>
      </g>
     </g>
    </g>
    <g id="text_19">
     <!-- Competence -->
     <g transform="translate(214.569006 120.879687) rotate(-90) scale(0.1 -0.1)">
      <defs>
       <path id="TimesNewRomanPS-BoldMT-43" d="M 4272 4334
L 4272 2866
L 4150 2866
Q 4013 3441 3638 3747
Q 3263 4053 2788 4053
Q 2391 4053 2059 3825
Q 1728 3597 1575 3228
Q 1378 2756 1378 2178
Q 1378 1609 1522 1142
Q 1666 675 1972 436
Q 2278 197 2766 197
Q 3166 197 3498 372
Q 3831 547 4200 975
L 4200 609
Q 3844 238 3458 70
Q 3072 -97 2556 -97
Q 1878 -97 1351 175
Q 825 447 539 956
Q 253 1466 253 2041
Q 253 2647 570 3190
Q 888 3734 1427 4034
Q 1966 4334 2572 4334
Q 3019 4334 3516 4141
Q 3803 4028 3881 4028
Q 3981 4028 4054 4101
Q 4128 4175 4150 4334
L 4272 4334
z
" transform="scale(0.015625)"/>
       <path id="TimesNewRomanPS-BoldMT-70" d="M 1347 297
L 1347 -791
Q 1347 -1016 1383 -1097
Q 1419 -1178 1494 -1215
Q 1569 -1253 1788 -1253
L 1788 -1369
L 122 -1369
L 122 -1253
Q 316 -1247 409 -1144
Q 472 -1072 472 -772
L 472 2313
Q 472 2622 400 2708
Q 328 2794 122 2806
L 122 2922
L 1347 2922
L 1347 2538
Q 1500 2763 1659 2863
Q 1888 3009 2156 3009
Q 2478 3009 2742 2806
Q 3006 2603 3143 2245
Q 3281 1888 3281 1475
Q 3281 1031 3139 664
Q 2997 297 2726 104
Q 2456 -88 2125 -88
Q 1884 -88 1675 19
Q 1519 100 1347 297
z
M 1347 613
Q 1616 231 1922 231
Q 2091 231 2200 409
Q 2363 672 2363 1409
Q 2363 2166 2184 2444
Q 2066 2628 1866 2628
Q 1550 2628 1347 2172
L 1347 613
z
" transform="scale(0.015625)"/>
       <path id="TimesNewRomanPS-BoldMT-65" d="M 2691 1566
L 1088 1566
Q 1116 984 1397 647
Q 1613 388 1916 388
Q 2103 388 2256 492
Q 2409 597 2584 869
L 2691 800
Q 2453 316 2165 114
Q 1878 -88 1500 -88
Q 850 -88 516 413
Q 247 816 247 1413
Q 247 2144 642 2576
Q 1038 3009 1569 3009
Q 2013 3009 2339 2645
Q 2666 2281 2691 1566
z
M 1922 1775
Q 1922 2278 1867 2465
Q 1813 2653 1697 2750
Q 1631 2806 1522 2806
Q 1359 2806 1256 2647
Q 1072 2369 1072 1884
L 1072 1775
L 1922 1775
z
" transform="scale(0.015625)"/>
       <path id="TimesNewRomanPS-BoldMT-6e" d="M 1409 2922
L 1409 2544
Q 1634 2788 1840 2898
Q 2047 3009 2284 3009
Q 2569 3009 2756 2851
Q 2944 2694 3006 2459
Q 3056 2281 3056 1775
L 3056 638
Q 3056 300 3117 217
Q 3178 134 3372 113
L 3372 0
L 1894 0
L 1894 113
Q 2059 134 2131 250
Q 2181 328 2181 638
L 2181 1938
Q 2181 2297 2153 2390
Q 2125 2484 2058 2536
Q 1991 2588 1909 2588
Q 1641 2588 1409 2203
L 1409 638
Q 1409 309 1470 221
Q 1531 134 1697 113
L 1697 0
L 219 0
L 219 113
Q 403 131 481 231
Q 534 300 534 638
L 534 2288
Q 534 2619 473 2700
Q 413 2781 219 2806
L 219 2922
L 1409 2922
z
" transform="scale(0.015625)"/>
       <path id="TimesNewRomanPS-BoldMT-63" d="M 2600 753
L 2697 678
Q 2491 291 2183 101
Q 1875 -88 1528 -88
Q 944 -88 594 353
Q 244 794 244 1413
Q 244 2009 563 2463
Q 947 3009 1622 3009
Q 2075 3009 2342 2781
Q 2609 2553 2609 2272
Q 2609 2094 2501 1987
Q 2394 1881 2219 1881
Q 2034 1881 1914 2003
Q 1794 2125 1766 2438
Q 1747 2634 1675 2713
Q 1603 2791 1506 2791
Q 1356 2791 1250 2631
Q 1088 2391 1088 1894
Q 1088 1481 1219 1104
Q 1350 728 1578 544
Q 1750 409 1984 409
Q 2138 409 2275 481
Q 2413 553 2600 753
z
" transform="scale(0.015625)"/>
      </defs>
      <use xlink:href="#TimesNewRomanPS-BoldMT-43"/>
      <use xlink:href="#TimesNewRomanPS-BoldMT-6f" x="72.216797"/>
      <use xlink:href="#TimesNewRomanPS-BoldMT-6d" x="122.216797"/>
      <use xlink:href="#TimesNewRomanPS-BoldMT-70" x="205.517578"/>
      <use xlink:href="#TimesNewRomanPS-BoldMT-65" x="261.132812"/>
      <use xlink:href="#TimesNewRomanPS-BoldMT-74" x="305.517578"/>
      <use xlink:href="#TimesNewRomanPS-BoldMT-65" x="338.818359"/>
      <use xlink:href="#TimesNewRomanPS-BoldMT-6e" x="383.203125"/>
      <use xlink:href="#TimesNewRomanPS-BoldMT-63" x="438.818359"/>
      <use xlink:href="#TimesNewRomanPS-BoldMT-65" x="483.203125"/>
     </g>
    </g>
   </g>
   <g id="line2d_22">
    <path d="M 250.762499 129.395962
L 315.704625 129.395962
" clip-path="url(#p49376ce545)" style="fill: none; stroke-dasharray: 3.375,3.375; stroke-dashoffset: 0; stroke: #3c3c3c; stroke-width: 1.5"/>
   </g>
   <g id="line2d_23">
    <path d="M 250.762499 129.395962
L 315.704625 129.395962
" clip-path="url(#p49376ce545)" style="fill: none; stroke-dasharray: 6.75,6.75; stroke-dashoffset: 0; stroke: #3c3c3c; stroke-width: 1.5"/>
   </g>
   <g id="line2d_24">
    <path d="M 255.061243 60.587885
L 311.405881 60.587885
" clip-path="url(#p49376ce545)" style="fill: none; stroke-dasharray: 3.375,3.375; stroke-dashoffset: 0; stroke: #3c3c3c; stroke-width: 1.5"/>
   </g>
   <g id="line2d_25">
    <path d="M 347.871223 129.395962
L 382.591171 129.395962
" clip-path="url(#p49376ce545)" style="fill: none; stroke-dasharray: 3.375,3.375; stroke-dashoffset: 0; stroke: #3c3c3c; stroke-width: 1.5"/>
   </g>
   <g id="line2d_26">
    <path d="M 347.871223 129.395962
L 382.591171 129.395962
" clip-path="url(#p49376ce545)" style="fill: none; stroke-dasharray: 6.75,6.75; stroke-dashoffset: 0; stroke: #3c3c3c; stroke-width: 1.5"/>
   </g>
   <g id="line2d_27">
    <path d="M 349.250823 60.587885
L 381.21157 60.587885
" clip-path="url(#p49376ce545)" style="fill: none; stroke-dasharray: 3.375,3.375; stroke-dashoffset: 0; stroke: #3c3c3c; stroke-width: 1.5"/>
   </g>
   <g id="line2d_28">
    <path d="M 283.233562 52.330915
L 283.233562 44.073946
L 365.231197 44.073946
L 365.231197 52.330915
" clip-path="url(#p49376ce545)" style="fill: none; stroke: #333333; stroke-width: 1.5; stroke-linecap: square"/>
   </g>
   <g id="patch_6">
    <path d="M 243.817908 163.8
L 243.817908 25.2
" style="fill: none; stroke: #000000; stroke-width: 0.8; stroke-linejoin: miter; stroke-linecap: square"/>
   </g>
   <g id="patch_7">
    <path d="M 243.817908 163.8
L 389.383125 163.8
" style="fill: none; stroke: #000000; stroke-width: 0.8; stroke-linejoin: miter; stroke-linecap: square"/>
   </g>
   <g id="text_20">
    <!-- t-test_welch p = 0.62 -->
    <g transform="translate(289.032923 37.276488) scale(0.0833 -0.0833)">
     <defs>
      <path id="TimesNewRomanPSMT-36" d="M 2869 4325
L 2869 4209
Q 2456 4169 2195 4045
Q 1934 3922 1679 3669
Q 1425 3416 1258 3105
Q 1091 2794 978 2366
Q 1428 2675 1881 2675
Q 2316 2675 2634 2325
Q 2953 1975 2953 1425
Q 2953 894 2631 456
Q 2244 -75 1606 -75
Q 1172 -75 869 213
Q 275 772 275 1663
Q 275 2231 503 2743
Q 731 3256 1154 3653
Q 1578 4050 1965 4187
Q 2353 4325 2688 4325
L 2869 4325
z
M 925 2138
Q 869 1716 869 1456
Q 869 1156 980 804
Q 1091 453 1309 247
Q 1469 100 1697 100
Q 1969 100 2183 356
Q 2397 613 2397 1088
Q 2397 1622 2184 2012
Q 1972 2403 1581 2403
Q 1463 2403 1327 2353
Q 1191 2303 925 2138
z
" transform="scale(0.015625)"/>
      <path id="TimesNewRomanPSMT-32" d="M 2934 816
L 2638 0
L 138 0
L 138 116
Q 1241 1122 1691 1759
Q 2141 2397 2141 2925
Q 2141 3328 1894 3587
Q 1647 3847 1303 3847
Q 991 3847 742 3664
Q 494 3481 375 3128
L 259 3128
Q 338 3706 661 4015
Q 984 4325 1469 4325
Q 1984 4325 2329 3994
Q 2675 3663 2675 3213
Q 2675 2891 2525 2569
Q 2294 2063 1775 1497
Q 997 647 803 472
L 1909 472
Q 2247 472 2383 497
Q 2519 522 2628 598
Q 2738 675 2819 816
L 2934 816
z
" transform="scale(0.015625)"/>
     </defs>
     <use xlink:href="#TimesNewRomanPSMT-74"/>
     <use xlink:href="#TimesNewRomanPSMT-2d" x="27.783203"/>
     <use xlink:href="#TimesNewRomanPSMT-74" x="61.083984"/>
     <use xlink:href="#TimesNewRomanPSMT-65" x="88.867188"/>
     <use xlink:href="#TimesNewRomanPSMT-73" x="133.251953"/>
     <use xlink:href="#TimesNewRomanPSMT-74" x="172.167969"/>
     <use xlink:href="#TimesNewRomanPSMT-5f" x="199.951172"/>
     <use xlink:href="#TimesNewRomanPSMT-77" x="249.951172"/>
     <use xlink:href="#TimesNewRomanPSMT-65" x="322.167969"/>
     <use xlink:href="#TimesNewRomanPSMT-6c" x="366.552734"/>
     <use xlink:href="#TimesNewRomanPSMT-63" x="394.335938"/>
     <use xlink:href="#TimesNewRomanPSMT-68" x="438.720703"/>
     <use xlink:href="#TimesNewRomanPSMT-20" x="488.720703"/>
     <use xlink:href="#TimesNewRomanPSMT-70" x="513.720703"/>
     <use xlink:href="#TimesNewRomanPSMT-20" x="563.720703"/>
     <use xlink:href="#TimesNewRomanPSMT-3d" x="588.720703"/>
     <use xlink:href="#TimesNewRomanPSMT-20" x="645.117188"/>
     <use xlink:href="#TimesNewRomanPSMT-30" x="670.117188"/>
     <use xlink:href="#TimesNewRomanPSMT-2e" x="720.117188"/>
     <use xlink:href="#TimesNewRomanPSMT-36" x="745.117188"/>
     <use xlink:href="#TimesNewRomanPSMT-32" x="795.117188"/>
    </g>
   </g>
  </g>
  <g id="text_21">
   <!-- Manually Annotated Dataset Distribution of Warmth and Competence x Platform -->
   <g transform="translate(7.2 15.33375) scale(0.12 -0.12)">
    <defs>
     <path id="TimesNewRomanPS-BoldMT-4d" d="M 3050 1444
L 4200 4238
L 5925 4238
L 5925 4122
L 5788 4122
Q 5600 4122 5488 4056
Q 5409 4013 5363 3909
Q 5328 3834 5328 3519
L 5328 725
Q 5328 400 5362 319
Q 5397 238 5503 177
Q 5609 116 5788 116
L 5925 116
L 5925 0
L 3713 0
L 3713 116
L 3850 116
Q 4038 116 4150 181
Q 4228 225 4275 331
Q 4309 406 4309 725
L 4309 3866
L 2684 0
L 2609 0
L 959 3838
L 959 853
Q 959 541 975 469
Q 1016 313 1152 214
Q 1288 116 1578 116
L 1578 0
L 128 0
L 128 116
L 172 116
Q 313 113 434 161
Q 556 209 618 290
Q 681 372 716 519
Q 722 553 722 838
L 722 3519
Q 722 3841 687 3920
Q 653 4000 547 4061
Q 441 4122 263 4122
L 128 4122
L 128 4238
L 1859 4238
L 3050 1444
z
" transform="scale(0.015625)"/>
     <path id="TimesNewRomanPS-BoldMT-75" d="M 3038 2922
L 3038 634
Q 3038 300 3100 217
Q 3163 134 3353 113
L 3353 0
L 2163 0
L 2163 391
Q 1953 141 1743 26
Q 1534 -88 1275 -88
Q 1028 -88 836 64
Q 644 216 578 419
Q 513 622 513 1128
L 513 2288
Q 513 2619 452 2700
Q 391 2781 197 2806
L 197 2922
L 1388 2922
L 1388 925
Q 1388 613 1417 522
Q 1447 431 1511 384
Q 1575 338 1659 338
Q 1772 338 1863 397
Q 1988 478 2163 725
L 2163 2288
Q 2163 2619 2102 2700
Q 2041 2781 1847 2806
L 1847 2922
L 3038 2922
z
" transform="scale(0.015625)"/>
     <path id="TimesNewRomanPS-BoldMT-79" d="M 1556 -119
L 613 2047
Q 400 2538 298 2650
Q 197 2763 53 2806
L 53 2922
L 1606 2922
L 1606 2806
Q 1453 2800 1390 2747
Q 1328 2694 1328 2619
Q 1328 2500 1484 2150
L 1984 1006
L 2325 1891
Q 2509 2363 2509 2547
Q 2509 2663 2432 2731
Q 2356 2800 2163 2806
L 2163 2922
L 3141 2922
L 3141 2806
Q 2997 2791 2906 2695
Q 2816 2600 2603 2047
L 1769 -119
Q 1453 -931 1300 -1119
Q 1084 -1381 759 -1381
Q 500 -1381 339 -1232
Q 178 -1084 178 -875
Q 178 -694 289 -575
Q 400 -456 563 -456
Q 719 -456 814 -556
Q 909 -656 913 -866
Q 916 -984 941 -1019
Q 966 -1053 1013 -1053
Q 1088 -1053 1172 -963
Q 1297 -831 1466 -363
L 1556 -119
z
" transform="scale(0.015625)"/>
     <path id="TimesNewRomanPS-BoldMT-20" transform="scale(0.015625)"/>
     <path id="TimesNewRomanPS-BoldMT-41" d="M 2663 1206
L 1166 1206
L 988 794
Q 900 588 900 453
Q 900 275 1044 191
Q 1128 141 1459 116
L 1459 0
L 50 0
L 50 116
Q 278 150 425 304
Q 572 459 788 944
L 2303 4325
L 2363 4325
L 3891 850
Q 4109 356 4250 228
Q 4356 131 4550 116
L 4550 0
L 2500 0
L 2500 116
L 2584 116
Q 2831 116 2931 184
Q 3000 234 3000 328
Q 3000 384 2981 444
Q 2975 472 2888 678
L 2663 1206
z
M 2556 1438
L 1925 2897
L 1275 1438
L 2556 1438
z
" transform="scale(0.015625)"/>
     <path id="TimesNewRomanPS-BoldMT-64" d="M 3056 4238
L 3056 875
Q 3056 534 3075 472
Q 3100 369 3170 319
Q 3241 269 3416 256
L 3416 153
L 2181 -88
L 2181 375
Q 1959 106 1786 9
Q 1613 -88 1394 -88
Q 834 -88 509 413
Q 247 819 247 1409
Q 247 1881 409 2254
Q 572 2628 855 2818
Q 1138 3009 1463 3009
Q 1672 3009 1834 2928
Q 1997 2847 2181 2644
L 2181 3525
Q 2181 3859 2153 3928
Q 2116 4019 2041 4062
Q 1966 4106 1759 4106
L 1759 4238
L 3056 4238
z
M 2181 2256
Q 1950 2700 1616 2700
Q 1500 2700 1425 2638
Q 1309 2541 1236 2297
Q 1163 2053 1163 1550
Q 1163 997 1244 731
Q 1325 466 1466 347
Q 1538 288 1663 288
Q 1938 288 2181 719
L 2181 2256
z
" transform="scale(0.015625)"/>
     <path id="TimesNewRomanPS-BoldMT-44" d="M 84 0
L 84 116
L 225 116
Q 409 116 507 173
Q 606 231 653 331
Q 681 397 681 725
L 681 3513
Q 681 3838 647 3919
Q 613 4000 508 4061
Q 403 4122 225 4122
L 84 4122
L 84 4238
L 1981 4238
Q 2741 4238 3203 4031
Q 3769 3778 4061 3265
Q 4353 2753 4353 2106
Q 4353 1659 4209 1282
Q 4066 906 3837 661
Q 3609 416 3311 267
Q 3013 119 2581 38
Q 2391 0 1981 0
L 84 0
z
M 1700 3997
L 1700 691
Q 1700 428 1725 368
Q 1750 309 1809 278
Q 1894 231 2053 231
Q 2575 231 2850 588
Q 3225 1069 3225 2081
Q 3225 2897 2969 3384
Q 2766 3766 2447 3903
Q 2222 4000 1700 3997
z
" transform="scale(0.015625)"/>
     <path id="TimesNewRomanPS-BoldMT-73" d="M 2063 3003
L 2109 2006
L 2003 2006
Q 1813 2450 1608 2612
Q 1403 2775 1200 2775
Q 1072 2775 981 2689
Q 891 2603 891 2491
Q 891 2406 953 2328
Q 1053 2200 1512 1889
Q 1972 1578 2117 1361
Q 2263 1144 2263 875
Q 2263 631 2141 397
Q 2019 163 1797 37
Q 1575 -88 1306 -88
Q 1097 -88 747 44
Q 653 78 619 78
Q 516 78 447 -78
L 344 -78
L 294 972
L 400 972
Q 541 559 786 353
Q 1031 147 1250 147
Q 1400 147 1495 239
Q 1591 331 1591 463
Q 1591 613 1497 722
Q 1403 831 1078 1053
Q 600 1384 459 1559
Q 253 1816 253 2125
Q 253 2463 486 2736
Q 719 3009 1159 3009
Q 1397 3009 1619 2894
Q 1703 2847 1756 2847
Q 1813 2847 1847 2870
Q 1881 2894 1956 3003
L 2063 3003
z
" transform="scale(0.015625)"/>
     <path id="TimesNewRomanPS-BoldMT-69" d="M 919 4338
Q 1122 4338 1262 4195
Q 1403 4053 1403 3853
Q 1403 3653 1261 3512
Q 1119 3372 919 3372
Q 719 3372 578 3512
Q 438 3653 438 3853
Q 438 4053 578 4195
Q 719 4338 919 4338
z
M 1356 2922
L 1356 606
Q 1356 297 1428 211
Q 1500 125 1709 113
L 1709 0
L 131 0
L 131 113
Q 325 119 419 225
Q 481 297 481 606
L 481 2313
Q 481 2622 409 2708
Q 338 2794 131 2806
L 131 2922
L 1356 2922
z
" transform="scale(0.015625)"/>
     <path id="TimesNewRomanPS-BoldMT-62" d="M 1347 4238
L 1347 2628
Q 1716 3009 2153 3009
Q 2453 3009 2718 2832
Q 2984 2656 3134 2331
Q 3284 2006 3284 1581
Q 3284 1103 3093 712
Q 2903 322 2584 117
Q 2266 -88 1856 -88
Q 1619 -88 1434 -12
Q 1250 63 1072 231
L 588 -84
L 481 -84
L 481 3631
Q 481 3884 459 3944
Q 428 4031 361 4073
Q 294 4116 134 4122
L 134 4238
L 1347 4238
z
M 1347 2350
L 1347 1050
Q 1347 653 1366 544
Q 1397 359 1515 245
Q 1634 131 1819 131
Q 1978 131 2092 222
Q 2206 313 2282 581
Q 2359 850 2359 1550
Q 2359 2222 2191 2472
Q 2069 2653 1863 2653
Q 1594 2653 1347 2350
z
" transform="scale(0.015625)"/>
     <path id="TimesNewRomanPS-BoldMT-78" d="M 1944 1791
L 2450 828
Q 2713 325 2866 191
Q 2950 119 3097 113
L 3097 0
L 1469 0
L 1469 113
Q 1659 128 1704 162
Q 1750 197 1750 256
Q 1750 344 1650 531
L 1397 1006
L 1181 691
Q 1034 475 1016 434
Q 991 375 991 328
Q 991 256 1020 207
Q 1050 159 1101 136
Q 1153 113 1291 113
L 1291 0
L 147 0
L 147 113
Q 359 113 536 230
Q 713 347 1050 844
L 1291 1200
L 788 2131
Q 541 2588 419 2691
Q 297 2794 147 2806
L 147 2922
L 1766 2922
L 1766 2806
L 1681 2803
L 1519 2747
Q 1494 2725 1494 2675
Q 1494 2628 1509 2578
Q 1519 2556 1597 2409
L 1825 1984
L 1944 2153
Q 2194 2497 2194 2634
Q 2194 2700 2139 2745
Q 2084 2791 1944 2806
L 1944 2922
L 2978 2922
L 2978 2806
Q 2788 2800 2622 2689
Q 2456 2578 2250 2259
L 1944 1791
z
" transform="scale(0.015625)"/>
    </defs>
    <use xlink:href="#TimesNewRomanPS-BoldMT-4d"/>
    <use xlink:href="#TimesNewRomanPS-BoldMT-61" x="94.384766"/>
    <use xlink:href="#TimesNewRomanPS-BoldMT-6e" x="144.384766"/>
    <use xlink:href="#TimesNewRomanPS-BoldMT-75" x="200"/>
    <use xlink:href="#TimesNewRomanPS-BoldMT-61" x="255.615234"/>
    <use xlink:href="#TimesNewRomanPS-BoldMT-6c" x="305.615234"/>
    <use xlink:href="#TimesNewRomanPS-BoldMT-6c" x="333.398438"/>
    <use xlink:href="#TimesNewRomanPS-BoldMT-79" x="361.181641"/>
    <use xlink:href="#TimesNewRomanPS-BoldMT-20" x="411.181641"/>
    <use xlink:href="#TimesNewRomanPS-BoldMT-41" x="430.681641"/>
    <use xlink:href="#TimesNewRomanPS-BoldMT-6e" x="502.898438"/>
    <use xlink:href="#TimesNewRomanPS-BoldMT-6e" x="558.513672"/>
    <use xlink:href="#TimesNewRomanPS-BoldMT-6f" x="614.128906"/>
    <use xlink:href="#TimesNewRomanPS-BoldMT-74" x="664.128906"/>
    <use xlink:href="#TimesNewRomanPS-BoldMT-61" x="697.429688"/>
    <use xlink:href="#TimesNewRomanPS-BoldMT-74" x="747.429688"/>
    <use xlink:href="#TimesNewRomanPS-BoldMT-65" x="780.730469"/>
    <use xlink:href="#TimesNewRomanPS-BoldMT-64" x="825.115234"/>
    <use xlink:href="#TimesNewRomanPS-BoldMT-20" x="880.730469"/>
    <use xlink:href="#TimesNewRomanPS-BoldMT-44" x="905.730469"/>
    <use xlink:href="#TimesNewRomanPS-BoldMT-61" x="977.947266"/>
    <use xlink:href="#TimesNewRomanPS-BoldMT-74" x="1027.947266"/>
    <use xlink:href="#TimesNewRomanPS-BoldMT-61" x="1061.248047"/>
    <use xlink:href="#TimesNewRomanPS-BoldMT-73" x="1111.248047"/>
    <use xlink:href="#TimesNewRomanPS-BoldMT-65" x="1150.164062"/>
    <use xlink:href="#TimesNewRomanPS-BoldMT-74" x="1194.548828"/>
    <use xlink:href="#TimesNewRomanPS-BoldMT-20" x="1227.849609"/>
    <use xlink:href="#TimesNewRomanPS-BoldMT-44" x="1252.849609"/>
    <use xlink:href="#TimesNewRomanPS-BoldMT-69" x="1325.066406"/>
    <use xlink:href="#TimesNewRomanPS-BoldMT-73" x="1352.849609"/>
    <use xlink:href="#TimesNewRomanPS-BoldMT-74" x="1391.765625"/>
    <use xlink:href="#TimesNewRomanPS-BoldMT-72" x="1425.066406"/>
    <use xlink:href="#TimesNewRomanPS-BoldMT-69" x="1469.451172"/>
    <use xlink:href="#TimesNewRomanPS-BoldMT-62" x="1497.234375"/>
    <use xlink:href="#TimesNewRomanPS-BoldMT-75" x="1552.849609"/>
    <use xlink:href="#TimesNewRomanPS-BoldMT-74" x="1608.464844"/>
    <use xlink:href="#TimesNewRomanPS-BoldMT-69" x="1641.765625"/>
    <use xlink:href="#TimesNewRomanPS-BoldMT-6f" x="1669.548828"/>
    <use xlink:href="#TimesNewRomanPS-BoldMT-6e" x="1719.548828"/>
    <use xlink:href="#TimesNewRomanPS-BoldMT-20" x="1775.164062"/>
    <use xlink:href="#TimesNewRomanPS-BoldMT-6f" x="1800.164062"/>
    <use xlink:href="#TimesNewRomanPS-BoldMT-66" x="1850.164062"/>
    <use xlink:href="#TimesNewRomanPS-BoldMT-20" x="1883.464844"/>
    <use xlink:href="#TimesNewRomanPS-BoldMT-57" x="1906.714844"/>
    <use xlink:href="#TimesNewRomanPS-BoldMT-61" x="2001.214844"/>
    <use xlink:href="#TimesNewRomanPS-BoldMT-72" x="2051.214844"/>
    <use xlink:href="#TimesNewRomanPS-BoldMT-6d" x="2095.599609"/>
    <use xlink:href="#TimesNewRomanPS-BoldMT-74" x="2178.900391"/>
    <use xlink:href="#TimesNewRomanPS-BoldMT-68" x="2212.201172"/>
    <use xlink:href="#TimesNewRomanPS-BoldMT-20" x="2267.816406"/>
    <use xlink:href="#TimesNewRomanPS-BoldMT-61" x="2292.816406"/>
    <use xlink:href="#TimesNewRomanPS-BoldMT-6e" x="2342.816406"/>
    <use xlink:href="#TimesNewRomanPS-BoldMT-64" x="2398.431641"/>
    <use xlink:href="#TimesNewRomanPS-BoldMT-20" x="2454.046875"/>
    <use xlink:href="#TimesNewRomanPS-BoldMT-43" x="2479.046875"/>
    <use xlink:href="#TimesNewRomanPS-BoldMT-6f" x="2551.263672"/>
    <use xlink:href="#TimesNewRomanPS-BoldMT-6d" x="2601.263672"/>
    <use xlink:href="#TimesNewRomanPS-BoldMT-70" x="2684.564453"/>
    <use xlink:href="#TimesNewRomanPS-BoldMT-65" x="2740.179688"/>
    <use xlink:href="#TimesNewRomanPS-BoldMT-74" x="2784.564453"/>
    <use xlink:href="#TimesNewRomanPS-BoldMT-65" x="2817.865234"/>
    <use xlink:href="#TimesNewRomanPS-BoldMT-6e" x="2862.25"/>
    <use xlink:href="#TimesNewRomanPS-BoldMT-63" x="2917.865234"/>
    <use xlink:href="#TimesNewRomanPS-BoldMT-65" x="2962.25"/>
    <use xlink:href="#TimesNewRomanPS-BoldMT-20" x="3006.634766"/>
    <use xlink:href="#TimesNewRomanPS-BoldMT-78" x="3031.634766"/>
    <use xlink:href="#TimesNewRomanPS-BoldMT-20" x="3081.634766"/>
    <use xlink:href="#TimesNewRomanPS-BoldMT-50" x="3106.634766"/>
    <use xlink:href="#TimesNewRomanPS-BoldMT-6c" x="3167.71875"/>
    <use xlink:href="#TimesNewRomanPS-BoldMT-61" x="3195.501953"/>
    <use xlink:href="#TimesNewRomanPS-BoldMT-74" x="3245.501953"/>
    <use xlink:href="#TimesNewRomanPS-BoldMT-66" x="3278.802734"/>
    <use xlink:href="#TimesNewRomanPS-BoldMT-6f" x="3312.103516"/>
    <use xlink:href="#TimesNewRomanPS-BoldMT-72" x="3362.103516"/>
    <use xlink:href="#TimesNewRomanPS-BoldMT-6d" x="3406.488281"/>
   </g>
  </g>
 </g>
 <defs>
  <clipPath id="pd5a65ebcff">
   <rect x="54.583125" y="25.2" width="145.565217" height="138.6"/>
  </clipPath>
  <clipPath id="p49376ce545">
   <rect x="243.817908" y="25.2" width="145.565217" height="138.6"/>
  </clipPath>
 </defs>
</svg>
