<?xml version="1.0" encoding="utf-8" standalone="no"?>
<!DOCTYPE svg PUBLIC "-//W3C//DTD SVG 1.1//EN"
  "http://www.w3.org/Graphics/SVG/1.1/DTD/svg11.dtd">
<svg xmlns:xlink="http://www.w3.org/1999/xlink" width="389.855pt" height="199.32692pt" viewBox="0 0 389.855 199.32692" xmlns="http://www.w3.org/2000/svg" version="1.1">
 <metadata>
  <rdf:RDF xmlns:dc="http://purl.org/dc/elements/1.1/" xmlns:cc="http://creativecommons.org/ns#" xmlns:rdf="http://www.w3.org/1999/02/22-rdf-syntax-ns#">
   <cc:Work>
    <dc:type rdf:resource="http://purl.org/dc/dcmitype/StillImage"/>
    <dc:date>2023-06-03T05:59:57.710118</dc:date>
    <dc:format>image/svg+xml</dc:format>
    <dc:creator>
     <cc:Agent>
      <dc:title>Matplotlib v3.7.1, https://matplotlib.org/</dc:title>
     </cc:Agent>
    </dc:creator>
   </cc:Work>
  </rdf:RDF>
 </metadata>
 <defs>
  <style type="text/css">*{stroke-linejoin: round; stroke-linecap: butt}</style>
 </defs>
 <g id="figure_1">
  <g id="patch_1">
   <path d="M 0 199.32692
L 389.855 199.32692
L 389.855 0
L 0 0
z
" style="fill: #ffffff"/>
  </g>
  <g id="axes_1">
   <g id="patch_2">
    <path d="M 38.548438 163.8
L 184.113655 163.8
L 184.113655 25.2
L 38.548438 25.2
z
" style="fill: #ffffff"/>
   </g>
   <g id="PolyCollection_1">
    <defs>
     <path id="m9b9c4a4935" d="M 65.732334 -44.389321
L 63.403542 -44.389321
L 62.285534 -45.124367
L 60.500635 -45.859414
L 57.970917 -46.594461
L 54.814325 -47.329508
L 51.397349 -48.064554
L 48.283058 -48.799601
L 46.066773 -49.534648
L 45.165038 -50.269694
L 45.665601 -51.004741
L 47.317466 -51.739788
L 49.65732 -52.474835
L 52.193469 -53.209881
L 54.552515 -53.944928
L 56.537115 -54.679975
L 58.102787 -55.415022
L 59.296256 -56.150068
L 60.196546 -56.885115
L 60.878915 -57.620162
L 61.401631 -58.355208
L 61.806359 -59.090255
L 62.123118 -59.825302
L 62.374722 -60.560349
L 62.57917 -61.295395
L 62.750366 -62.030442
L 62.898144 -62.765489
L 63.028447 -63.500535
L 63.14406 -64.235582
L 63.245821 -64.970629
L 63.333905 -65.705676
L 63.408771 -66.440722
L 63.471608 -67.175769
L 63.524279 -67.910816
L 63.568959 -68.645862
L 63.607631 -69.380909
L 63.641671 -70.115956
L 63.671666 -70.851003
L 63.697573 -71.586049
L 63.719142 -72.321096
L 63.736409 -73.056143
L 63.749971 -73.791189
L 63.760938 -74.526236
L 63.77059 -75.261283
L 63.779989 -75.99633
L 63.789755 -76.731376
L 63.80008 -77.466423
L 63.810887 -78.20147
L 63.821957 -78.936516
L 63.832958 -79.671563
L 63.843425 -80.40661
L 63.852782 -81.141657
L 63.860437 -81.876703
L 63.865902 -82.61175
L 63.868881 -83.346797
L 63.869348 -84.081844
L 63.867574 -84.81689
L 63.864079 -85.551937
L 63.85941 -86.286984
L 63.853845 -87.02203
L 63.847182 -87.757077
L 63.83883 -88.492124
L 63.828164 -89.227171
L 63.814952 -89.962217
L 63.799574 -90.697264
L 63.782925 -91.432311
L 63.766064 -92.167357
L 63.749794 -92.902404
L 63.734282 -93.637451
L 63.71878 -94.372498
L 63.701462 -95.107544
L 63.679481 -95.842591
L 63.649305 -96.577638
L 63.607331 -97.312684
L 63.550506 -98.047731
L 63.47661 -98.782778
L 63.383903 -99.517825
L 63.270118 -100.252871
L 63.131082 -100.987918
L 62.959384 -101.722965
L 62.743471 -102.458011
L 62.467484 -103.193058
L 62.112263 -103.928105
L 61.658248 -104.663152
L 61.091319 -105.398198
L 60.412239 -106.133245
L 59.648756 -106.868292
L 58.866325 -107.603339
L 58.170243 -108.338385
L 57.691599 -109.073432
L 57.554797 -109.808479
L 57.834991 -110.543525
L 58.523726 -111.278572
L 59.521931 -112.013619
L 60.667543 -112.748666
L 61.786511 -113.483712
L 62.743349 -114.218759
L 63.469501 -114.953806
L 63.96224 -115.688852
L 64.262507 -116.423899
L 64.427279 -117.158946
L 64.708597 -117.158946
L 64.708597 -117.158946
L 64.873369 -116.423899
L 65.173636 -115.688852
L 65.666375 -114.953806
L 66.392527 -114.218759
L 67.349365 -113.483712
L 68.468333 -112.748666
L 69.613944 -112.013619
L 70.61215 -111.278572
L 71.300885 -110.543525
L 71.581079 -109.808479
L 71.444276 -109.073432
L 70.965633 -108.338385
L 70.269551 -107.603339
L 69.487119 -106.868292
L 68.723636 -106.133245
L 68.044557 -105.398198
L 67.477627 -104.663152
L 67.023613 -103.928105
L 66.668391 -103.193058
L 66.392405 -102.458011
L 66.176492 -101.722965
L 66.004794 -100.987918
L 65.865758 -100.252871
L 65.751973 -99.517825
L 65.659266 -98.782778
L 65.58537 -98.047731
L 65.528545 -97.312684
L 65.486571 -96.577638
L 65.456395 -95.842591
L 65.434413 -95.107544
L 65.417096 -94.372498
L 65.401594 -93.637451
L 65.386082 -92.902404
L 65.369811 -92.167357
L 65.352951 -91.432311
L 65.336302 -90.697264
L 65.320924 -89.962217
L 65.307712 -89.227171
L 65.297046 -88.492124
L 65.288694 -87.757077
L 65.282031 -87.02203
L 65.276465 -86.286984
L 65.271797 -85.551937
L 65.268301 -84.81689
L 65.266528 -84.081844
L 65.266994 -83.346797
L 65.269974 -82.61175
L 65.275438 -81.876703
L 65.283094 -81.141657
L 65.292451 -80.40661
L 65.302918 -79.671563
L 65.313919 -78.936516
L 65.324989 -78.20147
L 65.335796 -77.466423
L 65.346121 -76.731376
L 65.355887 -75.99633
L 65.365286 -75.261283
L 65.374938 -74.526236
L 65.385905 -73.791189
L 65.399467 -73.056143
L 65.416733 -72.321096
L 65.438303 -71.586049
L 65.464209 -70.851003
L 65.494205 -70.115956
L 65.528245 -69.380909
L 65.566917 -68.645862
L 65.611596 -67.910816
L 65.664268 -67.175769
L 65.727105 -66.440722
L 65.801971 -65.705676
L 65.890054 -64.970629
L 65.991816 -64.235582
L 66.107429 -63.500535
L 66.237732 -62.765489
L 66.38551 -62.030442
L 66.556706 -61.295395
L 66.761154 -60.560349
L 67.012758 -59.825302
L 67.329517 -59.090255
L 67.734245 -58.355208
L 68.256961 -57.620162
L 68.93933 -56.885115
L 69.83962 -56.150068
L 71.033089 -55.415022
L 72.598761 -54.679975
L 74.583361 -53.944928
L 76.942407 -53.209881
L 79.478555 -52.474835
L 81.81841 -51.739788
L 83.470275 -51.004741
L 83.970837 -50.269694
L 83.069103 -49.534648
L 80.852818 -48.799601
L 77.738526 -48.064554
L 74.321551 -47.329508
L 71.164958 -46.594461
L 68.63524 -45.859414
L 66.850342 -45.124367
L 65.732334 -44.389321
z
" style="stroke: #313131; stroke-width: 1.5"/>
    </defs>
    <g clip-path="url(#pa367ccb236)">
     <use xlink:href="#m9b9c4a4935" x="0" y="199.32692" style="fill: #af5619; stroke: #313131; stroke-width: 1.5"/>
    </g>
   </g>
   <g id="PolyCollection_2">
    <defs>
     <path id="mabd93f353f" d="M 114.290514 -44.313096
L 111.85986 -44.313096
L 110.722744 -45.049301
L 108.926451 -45.785505
L 106.401967 -46.52171
L 103.272273 -47.257914
L 99.901027 -47.994119
L 96.841368 -48.730323
L 94.677838 -49.466528
L 93.822819 -50.202732
L 94.368956 -50.938937
L 96.074149 -51.675141
L 98.479347 -52.411346
L 101.087226 -53.14755
L 103.510831 -53.883755
L 105.538567 -54.619959
L 107.118169 -55.356164
L 108.29798 -56.092368
L 109.166104 -56.828573
L 109.809695 -57.564777
L 110.297162 -58.300982
L 110.675814 -59.037186
L 110.976284 -59.773391
L 111.218083 -60.509595
L 111.413913 -61.2458
L 111.572429 -61.982004
L 111.699905 -62.718209
L 111.80138 -63.454413
L 111.881523 -64.190617
L 111.945117 -64.926822
L 111.996992 -65.663026
L 112.041384 -66.399231
L 112.081087 -67.135435
L 112.116962 -67.87164
L 112.148208 -68.607844
L 112.173399 -69.344049
L 112.191781 -70.080253
L 112.204116 -70.816458
L 112.212604 -71.552662
L 112.219929 -72.288867
L 112.228089 -73.025071
L 112.237773 -73.761276
L 112.248636 -74.49748
L 112.26016 -75.233685
L 112.272357 -75.969889
L 112.285792 -76.706094
L 112.301008 -77.442298
L 112.317896 -78.178503
L 112.335504 -78.914707
L 112.352386 -79.650912
L 112.367146 -80.387116
L 112.37881 -81.123321
L 112.386893 -81.859525
L 112.391244 -82.59573
L 112.391884 -83.331934
L 112.388925 -84.068139
L 112.382589 -84.804343
L 112.373236 -85.540548
L 112.36135 -86.276752
L 112.34744 -87.012957
L 112.331919 -87.749161
L 112.315023 -88.485366
L 112.296839 -89.22157
L 112.277413 -89.957775
L 112.256847 -90.693979
L 112.235232 -91.430184
L 112.212387 -92.166388
L 112.187479 -92.902592
L 112.158711 -93.638797
L 112.123292 -94.375001
L 112.077835 -95.111206
L 112.019211 -95.84741
L 111.945684 -96.583615
L 111.857858 -97.319819
L 111.758818 -98.056024
L 111.653013 -98.792228
L 111.543963 -99.528433
L 111.431519 -100.264637
L 111.30957 -101.000842
L 111.164861 -101.737046
L 110.97705 -102.473251
L 110.719998 -103.209455
L 110.364623 -103.94566
L 109.884228 -104.681864
L 109.26336 -105.418069
L 108.510227 -106.154273
L 107.670115 -106.890478
L 106.833698 -107.626682
L 106.131897 -108.362887
L 105.711328 -109.099091
L 105.692953 -109.835296
L 106.12799 -110.5715
L 106.971828 -111.307705
L 108.091515 -112.043909
L 109.306247 -112.780114
L 110.442818 -113.516318
L 111.381103 -114.252523
L 112.072496 -114.988727
L 112.530221 -115.724932
L 112.803559 -116.461136
L 112.951163 -117.197341
L 113.199211 -117.197341
L 113.199211 -117.197341
L 113.346815 -116.461136
L 113.620152 -115.724932
L 114.077878 -114.988727
L 114.76927 -114.252523
L 115.707556 -113.516318
L 116.844127 -112.780114
L 118.058859 -112.043909
L 119.178546 -111.307705
L 120.022383 -110.5715
L 120.457421 -109.835296
L 120.439046 -109.099091
L 120.018477 -108.362887
L 119.316675 -107.626682
L 118.480259 -106.890478
L 117.640147 -106.154273
L 116.887014 -105.418069
L 116.266146 -104.681864
L 115.785751 -103.94566
L 115.430376 -103.209455
L 115.173324 -102.473251
L 114.985513 -101.737046
L 114.840804 -101.000842
L 114.718855 -100.264637
L 114.606411 -99.528433
L 114.497361 -98.792228
L 114.391556 -98.056024
L 114.292516 -97.319819
L 114.20469 -96.583615
L 114.131163 -95.84741
L 114.072539 -95.111206
L 114.027082 -94.375001
L 113.991663 -93.638797
L 113.962895 -92.902592
L 113.937987 -92.166388
L 113.915142 -91.430184
L 113.893527 -90.693979
L 113.872961 -89.957775
L 113.853535 -89.22157
L 113.835351 -88.485366
L 113.818455 -87.749161
L 113.802934 -87.012957
L 113.789024 -86.276752
L 113.777137 -85.540548
L 113.767785 -84.804343
L 113.761448 -84.068139
L 113.75849 -83.331934
L 113.75913 -82.59573
L 113.763481 -81.859525
L 113.771564 -81.123321
L 113.783228 -80.387116
L 113.797988 -79.650912
L 113.81487 -78.914707
L 113.832478 -78.178503
L 113.849365 -77.442298
L 113.864582 -76.706094
L 113.878017 -75.969889
L 113.890214 -75.233685
L 113.901738 -74.49748
L 113.912601 -73.761276
L 113.922285 -73.025071
L 113.930445 -72.288867
L 113.93777 -71.552662
L 113.946258 -70.816458
L 113.958593 -70.080253
L 113.976974 -69.344049
L 114.002166 -68.607844
L 114.033412 -67.87164
L 114.069287 -67.135435
L 114.10899 -66.399231
L 114.153381 -65.663026
L 114.205257 -64.926822
L 114.268851 -64.190617
L 114.348993 -63.454413
L 114.450469 -62.718209
L 114.577945 -61.982004
L 114.73646 -61.2458
L 114.932291 -60.509595
L 115.17409 -59.773391
L 115.47456 -59.037186
L 115.853212 -58.300982
L 116.340679 -57.564777
L 116.98427 -56.828573
L 117.852393 -56.092368
L 119.032204 -55.356164
L 120.611806 -54.619959
L 122.639543 -53.883755
L 125.063148 -53.14755
L 127.671026 -52.411346
L 130.076225 -51.675141
L 131.781418 -50.938937
L 132.327555 -50.202732
L 131.472535 -49.466528
L 129.309006 -48.730323
L 126.249347 -47.994119
L 122.878101 -47.257914
L 119.748407 -46.52171
L 117.223923 -45.785505
L 115.427629 -45.049301
L 114.290514 -44.313096
z
" style="stroke: #313131; stroke-width: 1.5"/>
    </defs>
    <g clip-path="url(#pa367ccb236)">
     <use xlink:href="#mabd93f353f" x="0" y="199.32692" style="fill: #ababab; stroke: #313131; stroke-width: 1.5"/>
    </g>
   </g>
   <g id="PolyCollection_3">
    <defs>
     <path id="m5a2c91dad6" d="M 162.672175 -42.639821
L 160.492697 -42.639821
L 159.768534 -43.409076
L 158.725513 -44.178331
L 157.322996 -44.947586
L 155.568106 -45.71684
L 153.534951 -46.486095
L 151.370987 -47.25535
L 149.28371 -48.024605
L 147.506847 -48.79386
L 146.253211 -49.563114
L 145.667818 -50.332369
L 145.796228 -51.101624
L 146.578261 -51.870879
L 147.868114 -52.640134
L 149.472726 -53.409388
L 151.195059 -54.178643
L 152.869464 -54.947898
L 154.381494 -55.717153
L 155.67123 -56.486408
L 156.724373 -57.255662
L 157.557554 -58.024917
L 158.203546 -58.794172
L 158.699811 -59.563427
L 159.081427 -60.332682
L 159.377809 -61.101936
L 159.611972 -61.871191
L 159.801131 -62.640446
L 159.957771 -63.409701
L 160.09072 -64.178955
L 160.206041 -64.94821
L 160.307728 -65.717465
L 160.398249 -66.48672
L 160.478999 -67.255975
L 160.550672 -68.025229
L 160.61359 -68.794484
L 160.667947 -69.563739
L 160.714 -70.332994
L 160.752188 -71.102249
L 160.783207 -71.871503
L 160.808027 -72.640758
L 160.827854 -73.410013
L 160.844026 -74.179268
L 160.857848 -74.948523
L 160.870415 -75.717777
L 160.88247 -76.487032
L 160.894341 -77.256287
L 160.905988 -78.025542
L 160.917116 -78.794797
L 160.927318 -79.564051
L 160.936183 -80.333306
L 160.943357 -81.102561
L 160.948546 -81.871816
L 160.951497 -82.641071
L 160.951979 -83.410325
L 160.949783 -84.17958
L 160.944746 -84.948835
L 160.9368 -85.71809
L 160.926036 -86.487345
L 160.912767 -87.256599
L 160.897558 -88.025854
L 160.881194 -88.795109
L 160.864543 -89.564364
L 160.848327 -90.333619
L 160.832847 -91.102873
L 160.817738 -91.872128
L 160.801854 -92.641383
L 160.783348 -93.410638
L 160.759914 -94.179892
L 160.729131 -94.949147
L 160.688758 -95.718402
L 160.636865 -96.487657
L 160.571714 -97.256912
L 160.491385 -98.026166
L 160.393208 -98.795421
L 160.273159 -99.564676
L 160.125398 -100.333931
L 159.942187 -101.103186
L 159.714439 -101.87244
L 159.433076 -102.641695
L 159.09133 -103.41095
L 158.687836 -104.180205
L 158.230099 -104.94946
L 157.737526 -105.718714
L 157.242863 -106.487969
L 156.790894 -107.257224
L 156.433608 -108.026479
L 156.222019 -108.795734
L 156.196058 -109.564988
L 156.375067 -110.334243
L 156.751802 -111.103498
L 157.292175 -111.872753
L 157.941248 -112.642008
L 158.633962 -113.411262
L 159.307507 -114.180517
L 159.911867 -114.949772
L 160.415977 -115.719027
L 160.80864 -116.488282
L 161.095099 -117.257536
L 161.291221 -118.026791
L 161.417411 -118.796046
L 161.747461 -118.796046
L 161.747461 -118.796046
L 161.87365 -118.026791
L 162.069773 -117.257536
L 162.356232 -116.488282
L 162.748895 -115.719027
L 163.253004 -114.949772
L 163.857364 -114.180517
L 164.53091 -113.411262
L 165.223624 -112.642008
L 165.872697 -111.872753
L 166.41307 -111.103498
L 166.789805 -110.334243
L 166.968814 -109.564988
L 166.942853 -108.795734
L 166.731264 -108.026479
L 166.373978 -107.257224
L 165.922009 -106.487969
L 165.427346 -105.718714
L 164.934773 -104.94946
L 164.477036 -104.180205
L 164.073542 -103.41095
L 163.731796 -102.641695
L 163.450433 -101.87244
L 163.222684 -101.103186
L 163.039474 -100.333931
L 162.891713 -99.564676
L 162.771664 -98.795421
L 162.673487 -98.026166
L 162.593157 -97.256912
L 162.528007 -96.487657
L 162.476114 -95.718402
L 162.435741 -94.949147
L 162.404958 -94.179892
L 162.381524 -93.410638
L 162.363017 -92.641383
L 162.347134 -91.872128
L 162.332024 -91.102873
L 162.316545 -90.333619
L 162.300329 -89.564364
L 162.283678 -88.795109
L 162.267314 -88.025854
L 162.252105 -87.256599
L 162.238836 -86.487345
L 162.228072 -85.71809
L 162.220126 -84.948835
L 162.215089 -84.17958
L 162.212893 -83.410325
L 162.213375 -82.641071
L 162.216326 -81.871816
L 162.221515 -81.102561
L 162.228689 -80.333306
L 162.237554 -79.564051
L 162.247756 -78.794797
L 162.258884 -78.025542
L 162.270531 -77.256287
L 162.282402 -76.487032
L 162.294456 -75.717777
L 162.307024 -74.948523
L 162.320846 -74.179268
L 162.337018 -73.410013
L 162.356845 -72.640758
L 162.381664 -71.871503
L 162.412684 -71.102249
L 162.450872 -70.332994
L 162.496925 -69.563739
L 162.551282 -68.794484
L 162.614199 -68.025229
L 162.685873 -67.255975
L 162.766623 -66.48672
L 162.857144 -65.717465
L 162.958831 -64.94821
L 163.074151 -64.178955
L 163.2071 -63.409701
L 163.363741 -62.640446
L 163.5529 -61.871191
L 163.787063 -61.101936
L 164.083444 -60.332682
L 164.465061 -59.563427
L 164.961326 -58.794172
L 165.607318 -58.024917
L 166.440499 -57.255662
L 167.493642 -56.486408
L 168.783377 -55.717153
L 170.295408 -54.947898
L 171.969812 -54.178643
L 173.692146 -53.409388
L 175.296758 -52.640134
L 176.58661 -51.870879
L 177.368644 -51.101624
L 177.497054 -50.332369
L 176.91166 -49.563114
L 175.658025 -48.79386
L 173.881162 -48.024605
L 171.793885 -47.25535
L 169.629921 -46.486095
L 167.596765 -45.71684
L 165.841876 -44.947586
L 164.439359 -44.178331
L 163.396337 -43.409076
L 162.672175 -42.639821
z
" style="stroke: #313131; stroke-width: 1.5"/>
    </defs>
    <g clip-path="url(#pa367ccb236)">
     <use xlink:href="#m5a2c91dad6" x="0" y="199.32692" style="fill: #156590; stroke: #313131; stroke-width: 1.5"/>
    </g>
   </g>
   <g id="matplotlib.axis_1">
    <g id="xtick_1">
     <g id="line2d_1">
      <defs>
       <path id="m4c4e1abd23" d="M 0 0
L 0 3.5
" style="stroke: #000000; stroke-width: 0.8"/>
      </defs>
      <g>
       <use xlink:href="#m4c4e1abd23" x="64.567938" y="163.8" style="stroke: #000000; stroke-width: 0.8"/>
      </g>
     </g>
     <g id="text_1">
      <!-- Indeed -->
      <g transform="translate(53.235884 176.584144) scale(0.0833 -0.0833)">
       <defs>
        <path id="TimesNewRomanPSMT-49" d="M 1975 116
L 1975 0
L 159 0
L 159 116
L 309 116
Q 572 116 691 269
Q 766 369 766 750
L 766 3488
Q 766 3809 725 3913
Q 694 3991 597 4047
Q 459 4122 309 4122
L 159 4122
L 159 4238
L 1975 4238
L 1975 4122
L 1822 4122
Q 1563 4122 1444 3969
Q 1366 3869 1366 3488
L 1366 750
Q 1366 428 1406 325
Q 1438 247 1538 191
Q 1672 116 1822 116
L 1975 116
z
" transform="scale(0.015625)"/>
        <path id="TimesNewRomanPSMT-6e" d="M 1034 2341
Q 1538 2947 1994 2947
Q 2228 2947 2397 2830
Q 2566 2713 2666 2444
Q 2734 2256 2734 1869
L 2734 647
Q 2734 375 2778 278
Q 2813 200 2889 156
Q 2966 113 3172 113
L 3172 0
L 1756 0
L 1756 113
L 1816 113
Q 2016 113 2095 173
Q 2175 234 2206 353
Q 2219 400 2219 647
L 2219 1819
Q 2219 2209 2117 2386
Q 2016 2563 1775 2563
Q 1403 2563 1034 2156
L 1034 647
Q 1034 356 1069 288
Q 1113 197 1189 155
Q 1266 113 1500 113
L 1500 0
L 84 0
L 84 113
L 147 113
Q 366 113 442 223
Q 519 334 519 647
L 519 1709
Q 519 2225 495 2337
Q 472 2450 423 2490
Q 375 2531 294 2531
Q 206 2531 84 2484
L 38 2597
L 900 2947
L 1034 2947
L 1034 2341
z
" transform="scale(0.015625)"/>
        <path id="TimesNewRomanPSMT-64" d="M 2222 322
Q 2013 103 1813 7
Q 1613 -88 1381 -88
Q 913 -88 563 304
Q 213 697 213 1313
Q 213 1928 600 2439
Q 988 2950 1597 2950
Q 1975 2950 2222 2709
L 2222 3238
Q 2222 3728 2198 3840
Q 2175 3953 2125 3993
Q 2075 4034 2000 4034
Q 1919 4034 1784 3984
L 1744 4094
L 2597 4444
L 2738 4444
L 2738 1134
Q 2738 631 2761 520
Q 2784 409 2836 365
Q 2888 322 2956 322
Q 3041 322 3181 375
L 3216 266
L 2366 -88
L 2222 -88
L 2222 322
z
M 2222 541
L 2222 2016
Q 2203 2228 2109 2403
Q 2016 2578 1861 2667
Q 1706 2756 1559 2756
Q 1284 2756 1069 2509
Q 784 2184 784 1559
Q 784 928 1059 592
Q 1334 256 1672 256
Q 1956 256 2222 541
z
" transform="scale(0.015625)"/>
        <path id="TimesNewRomanPSMT-65" d="M 681 1784
Q 678 1147 991 784
Q 1303 422 1725 422
Q 2006 422 2214 576
Q 2422 731 2563 1106
L 2659 1044
Q 2594 616 2278 264
Q 1963 -88 1488 -88
Q 972 -88 605 314
Q 238 716 238 1394
Q 238 2128 614 2539
Q 991 2950 1559 2950
Q 2041 2950 2350 2633
Q 2659 2316 2659 1784
L 681 1784
z
M 681 1966
L 2006 1966
Q 1991 2241 1941 2353
Q 1863 2528 1708 2628
Q 1553 2728 1384 2728
Q 1125 2728 920 2526
Q 716 2325 681 1966
z
" transform="scale(0.015625)"/>
       </defs>
       <use xlink:href="#TimesNewRomanPSMT-49"/>
       <use xlink:href="#TimesNewRomanPSMT-6e" x="33.300781"/>
       <use xlink:href="#TimesNewRomanPSMT-64" x="83.300781"/>
       <use xlink:href="#TimesNewRomanPSMT-65" x="133.300781"/>
       <use xlink:href="#TimesNewRomanPSMT-65" x="177.685547"/>
       <use xlink:href="#TimesNewRomanPSMT-64" x="222.070312"/>
      </g>
     </g>
    </g>
    <g id="xtick_2">
     <g id="line2d_2">
      <g>
       <use xlink:href="#m4c4e1abd23" x="113.075187" y="163.8" style="stroke: #000000; stroke-width: 0.8"/>
      </g>
     </g>
     <g id="text_2">
      <!-- LinkedIn -->
      <g transform="translate(97.80851 176.584144) scale(0.0833 -0.0833)">
       <defs>
        <path id="TimesNewRomanPSMT-4c" d="M 3669 1172
L 3772 1150
L 3409 0
L 128 0
L 128 116
L 288 116
Q 556 116 672 291
Q 738 391 738 753
L 738 3488
Q 738 3884 650 3984
Q 528 4122 288 4122
L 128 4122
L 128 4238
L 2047 4238
L 2047 4122
Q 1709 4125 1573 4059
Q 1438 3994 1388 3894
Q 1338 3794 1338 3416
L 1338 753
Q 1338 494 1388 397
Q 1425 331 1503 300
Q 1581 269 1991 269
L 2300 269
Q 2788 269 2984 341
Q 3181 413 3343 595
Q 3506 778 3669 1172
z
" transform="scale(0.015625)"/>
        <path id="TimesNewRomanPSMT-69" d="M 928 4444
Q 1059 4444 1151 4351
Q 1244 4259 1244 4128
Q 1244 3997 1151 3903
Q 1059 3809 928 3809
Q 797 3809 703 3903
Q 609 3997 609 4128
Q 609 4259 701 4351
Q 794 4444 928 4444
z
M 1188 2947
L 1188 647
Q 1188 378 1227 289
Q 1266 200 1342 156
Q 1419 113 1622 113
L 1622 0
L 231 0
L 231 113
Q 441 113 512 153
Q 584 194 626 287
Q 669 381 669 647
L 669 1750
Q 669 2216 641 2353
Q 619 2453 572 2492
Q 525 2531 444 2531
Q 356 2531 231 2484
L 188 2597
L 1050 2947
L 1188 2947
z
" transform="scale(0.015625)"/>
        <path id="TimesNewRomanPSMT-6b" d="M 1047 4444
L 1047 1594
L 1775 2259
Q 2006 2472 2044 2528
Q 2069 2566 2069 2603
Q 2069 2666 2017 2711
Q 1966 2756 1847 2763
L 1847 2863
L 3091 2863
L 3091 2763
Q 2834 2756 2664 2684
Q 2494 2613 2291 2428
L 1556 1750
L 2291 822
Q 2597 438 2703 334
Q 2853 188 2966 144
Q 3044 113 3238 113
L 3238 0
L 1847 0
L 1847 113
Q 1966 116 2008 148
Q 2050 181 2050 241
Q 2050 313 1925 472
L 1047 1594
L 1047 644
Q 1047 366 1086 278
Q 1125 191 1197 153
Q 1269 116 1509 113
L 1509 0
L 53 0
L 53 113
Q 272 113 381 166
Q 447 200 481 272
Q 528 375 528 628
L 528 3234
Q 528 3731 506 3842
Q 484 3953 434 3995
Q 384 4038 303 4038
Q 238 4038 106 3984
L 53 4094
L 903 4444
L 1047 4444
z
" transform="scale(0.015625)"/>
       </defs>
       <use xlink:href="#TimesNewRomanPSMT-4c"/>
       <use xlink:href="#TimesNewRomanPSMT-69" x="61.083984"/>
       <use xlink:href="#TimesNewRomanPSMT-6e" x="88.867188"/>
       <use xlink:href="#TimesNewRomanPSMT-6b" x="138.867188"/>
       <use xlink:href="#TimesNewRomanPSMT-65" x="188.867188"/>
       <use xlink:href="#TimesNewRomanPSMT-64" x="233.251953"/>
       <use xlink:href="#TimesNewRomanPSMT-49" x="283.251953"/>
       <use xlink:href="#TimesNewRomanPSMT-6e" x="316.552734"/>
      </g>
     </g>
    </g>
    <g id="xtick_3">
     <g id="line2d_3">
      <g>
       <use xlink:href="#m4c4e1abd23" x="161.582436" y="163.8" style="stroke: #000000; stroke-width: 0.8"/>
      </g>
     </g>
     <g id="text_3">
      <!-- Glassdoor -->
      <g transform="translate(144.692059 176.584144) scale(0.0833 -0.0833)">
       <defs>
        <path id="TimesNewRomanPSMT-47" d="M 3928 4334
L 4038 2997
L 3928 2997
Q 3763 3497 3500 3750
Q 3122 4116 2528 4116
Q 1719 4116 1297 3475
Q 944 2934 944 2188
Q 944 1581 1178 1081
Q 1413 581 1792 348
Q 2172 116 2572 116
Q 2806 116 3025 175
Q 3244 234 3447 350
L 3447 1575
Q 3447 1894 3398 1992
Q 3350 2091 3248 2142
Q 3147 2194 2891 2194
L 2891 2313
L 4531 2313
L 4531 2194
L 4453 2194
Q 4209 2194 4119 2031
Q 4056 1916 4056 1575
L 4056 278
Q 3697 84 3347 -6
Q 2997 -97 2569 -97
Q 1341 -97 703 691
Q 225 1281 225 2053
Q 225 2613 494 3125
Q 813 3734 1369 4063
Q 1834 4334 2469 4334
Q 2700 4334 2889 4296
Q 3078 4259 3425 4131
Q 3600 4066 3659 4066
Q 3719 4066 3761 4120
Q 3803 4175 3813 4334
L 3928 4334
z
" transform="scale(0.015625)"/>
        <path id="TimesNewRomanPSMT-6c" d="M 1184 4444
L 1184 647
Q 1184 378 1223 290
Q 1263 203 1344 158
Q 1425 113 1647 113
L 1647 0
L 244 0
L 244 113
Q 441 113 512 153
Q 584 194 625 287
Q 666 381 666 647
L 666 3247
Q 666 3731 644 3842
Q 622 3953 573 3993
Q 525 4034 450 4034
Q 369 4034 244 3984
L 191 4094
L 1044 4444
L 1184 4444
z
" transform="scale(0.015625)"/>
        <path id="TimesNewRomanPSMT-61" d="M 1822 413
Q 1381 72 1269 19
Q 1100 -59 909 -59
Q 613 -59 420 144
Q 228 347 228 678
Q 228 888 322 1041
Q 450 1253 767 1440
Q 1084 1628 1822 1897
L 1822 2009
Q 1822 2438 1686 2597
Q 1550 2756 1291 2756
Q 1094 2756 978 2650
Q 859 2544 859 2406
L 866 2225
Q 866 2081 792 2003
Q 719 1925 600 1925
Q 484 1925 411 2006
Q 338 2088 338 2228
Q 338 2497 613 2722
Q 888 2947 1384 2947
Q 1766 2947 2009 2819
Q 2194 2722 2281 2516
Q 2338 2381 2338 1966
L 2338 994
Q 2338 584 2353 492
Q 2369 400 2405 369
Q 2441 338 2488 338
Q 2538 338 2575 359
Q 2641 400 2828 588
L 2828 413
Q 2478 -56 2159 -56
Q 2006 -56 1915 50
Q 1825 156 1822 413
z
M 1822 616
L 1822 1706
Q 1350 1519 1213 1441
Q 966 1303 859 1153
Q 753 1003 753 825
Q 753 600 887 451
Q 1022 303 1197 303
Q 1434 303 1822 616
z
" transform="scale(0.015625)"/>
        <path id="TimesNewRomanPSMT-73" d="M 2050 2947
L 2050 1972
L 1947 1972
Q 1828 2431 1642 2597
Q 1456 2763 1169 2763
Q 950 2763 815 2647
Q 681 2531 681 2391
Q 681 2216 781 2091
Q 878 1963 1175 1819
L 1631 1597
Q 2266 1288 2266 781
Q 2266 391 1970 151
Q 1675 -88 1309 -88
Q 1047 -88 709 6
Q 606 38 541 38
Q 469 38 428 -44
L 325 -44
L 325 978
L 428 978
Q 516 541 762 319
Q 1009 97 1316 97
Q 1531 97 1667 223
Q 1803 350 1803 528
Q 1803 744 1651 891
Q 1500 1038 1047 1263
Q 594 1488 453 1669
Q 313 1847 313 2119
Q 313 2472 555 2709
Q 797 2947 1181 2947
Q 1350 2947 1591 2875
Q 1750 2828 1803 2828
Q 1853 2828 1881 2850
Q 1909 2872 1947 2947
L 2050 2947
z
" transform="scale(0.015625)"/>
        <path id="TimesNewRomanPSMT-6f" d="M 1600 2947
Q 2250 2947 2644 2453
Q 2978 2031 2978 1484
Q 2978 1100 2793 706
Q 2609 313 2286 112
Q 1963 -88 1566 -88
Q 919 -88 538 428
Q 216 863 216 1403
Q 216 1797 411 2186
Q 606 2575 925 2761
Q 1244 2947 1600 2947
z
M 1503 2744
Q 1338 2744 1170 2645
Q 1003 2547 900 2300
Q 797 2053 797 1666
Q 797 1041 1045 587
Q 1294 134 1700 134
Q 2003 134 2200 384
Q 2397 634 2397 1244
Q 2397 2006 2069 2444
Q 1847 2744 1503 2744
z
" transform="scale(0.015625)"/>
        <path id="TimesNewRomanPSMT-72" d="M 1038 2947
L 1038 2303
Q 1397 2947 1775 2947
Q 1947 2947 2059 2842
Q 2172 2738 2172 2600
Q 2172 2478 2090 2393
Q 2009 2309 1897 2309
Q 1788 2309 1652 2417
Q 1516 2525 1450 2525
Q 1394 2525 1328 2463
Q 1188 2334 1038 2041
L 1038 669
Q 1038 431 1097 309
Q 1138 225 1241 169
Q 1344 113 1538 113
L 1538 0
L 72 0
L 72 113
Q 291 113 397 181
Q 475 231 506 341
Q 522 394 522 644
L 522 1753
Q 522 2253 501 2348
Q 481 2444 426 2487
Q 372 2531 291 2531
Q 194 2531 72 2484
L 41 2597
L 906 2947
L 1038 2947
z
" transform="scale(0.015625)"/>
       </defs>
       <use xlink:href="#TimesNewRomanPSMT-47"/>
       <use xlink:href="#TimesNewRomanPSMT-6c" x="72.216797"/>
       <use xlink:href="#TimesNewRomanPSMT-61" x="100"/>
       <use xlink:href="#TimesNewRomanPSMT-73" x="144.384766"/>
       <use xlink:href="#TimesNewRomanPSMT-73" x="183.300781"/>
       <use xlink:href="#TimesNewRomanPSMT-64" x="222.216797"/>
       <use xlink:href="#TimesNewRomanPSMT-6f" x="272.216797"/>
       <use xlink:href="#TimesNewRomanPSMT-6f" x="322.216797"/>
       <use xlink:href="#TimesNewRomanPSMT-72" x="372.216797"/>
      </g>
     </g>
    </g>
    <g id="text_4">
     <!-- Platform -->
     <g transform="translate(92.174015 189.987858) scale(0.1 -0.1)">
      <defs>
       <path id="TimesNewRomanPS-BoldMT-50" d="M 1728 1919
L 1728 744
Q 1728 400 1770 311
Q 1813 222 1920 169
Q 2028 116 2316 116
L 2316 0
L 163 0
L 163 116
Q 456 116 561 170
Q 666 225 708 312
Q 750 400 750 744
L 750 3494
Q 750 3838 708 3927
Q 666 4016 559 4069
Q 453 4122 163 4122
L 163 4238
L 2009 4238
Q 2922 4238 3319 3913
Q 3716 3588 3716 3100
Q 3716 2688 3459 2394
Q 3203 2100 2753 1994
Q 2450 1919 1728 1919
z
M 1728 3994
L 1728 2163
Q 1831 2156 1884 2156
Q 2266 2156 2472 2382
Q 2678 2609 2678 3084
Q 2678 3556 2472 3775
Q 2266 3994 1856 3994
L 1728 3994
z
" transform="scale(0.015625)"/>
       <path id="TimesNewRomanPS-BoldMT-6c" d="M 1359 4238
L 1359 606
Q 1359 297 1431 211
Q 1503 125 1713 113
L 1713 0
L 134 0
L 134 113
Q 328 119 422 225
Q 484 297 484 606
L 484 3631
Q 484 3938 412 4023
Q 341 4109 134 4122
L 134 4238
L 1359 4238
z
" transform="scale(0.015625)"/>
       <path id="TimesNewRomanPS-BoldMT-61" d="M 1828 431
Q 1294 -41 869 -41
Q 619 -41 453 123
Q 288 288 288 534
Q 288 869 575 1136
Q 863 1403 1828 1847
L 1828 2141
Q 1828 2472 1792 2558
Q 1756 2644 1656 2708
Q 1556 2772 1431 2772
Q 1228 2772 1097 2681
Q 1016 2625 1016 2550
Q 1016 2484 1103 2388
Q 1222 2253 1222 2128
Q 1222 1975 1108 1867
Q 994 1759 809 1759
Q 613 1759 480 1878
Q 347 1997 347 2156
Q 347 2381 525 2586
Q 703 2791 1022 2900
Q 1341 3009 1684 3009
Q 2100 3009 2342 2832
Q 2584 2656 2656 2450
Q 2700 2319 2700 1847
L 2700 713
Q 2700 513 2715 461
Q 2731 409 2762 384
Q 2794 359 2834 359
Q 2916 359 3000 475
L 3094 400
Q 2938 169 2770 64
Q 2603 -41 2391 -41
Q 2141 -41 2000 76
Q 1859 194 1828 431
z
M 1828 659
L 1828 1638
Q 1450 1416 1266 1163
Q 1144 994 1144 822
Q 1144 678 1247 569
Q 1325 484 1466 484
Q 1622 484 1828 659
z
" transform="scale(0.015625)"/>
       <path id="TimesNewRomanPS-BoldMT-74" d="M 1375 3991
L 1375 2922
L 2069 2922
L 2069 2613
L 1375 2613
L 1375 809
Q 1375 556 1398 482
Q 1422 409 1481 364
Q 1541 319 1591 319
Q 1794 319 1975 628
L 2069 559
Q 1816 -41 1247 -41
Q 969 -41 776 114
Q 584 269 531 459
Q 500 566 500 1034
L 500 2613
L 119 2613
L 119 2722
Q 513 3000 789 3306
Q 1066 3613 1272 3991
L 1375 3991
z
" transform="scale(0.015625)"/>
       <path id="TimesNewRomanPS-BoldMT-66" d="M 1497 2616
L 1497 588
Q 1497 294 1559 219
Q 1659 103 1928 113
L 1928 0
L 206 0
L 206 113
Q 403 116 486 158
Q 569 200 600 275
Q 631 350 631 588
L 631 2616
L 206 2616
L 206 2922
L 631 2922
L 631 3138
L 628 3284
Q 628 3734 958 4034
Q 1288 4334 1850 4334
Q 2234 4334 2420 4190
Q 2606 4047 2606 3872
Q 2606 3731 2490 3628
Q 2375 3525 2184 3525
Q 2022 3525 1926 3609
Q 1831 3694 1831 3797
Q 1831 3825 1850 3913
Q 1863 3966 1863 4013
Q 1863 4078 1825 4109
Q 1775 4156 1703 4156
Q 1613 4156 1552 4081
Q 1491 4006 1491 3841
L 1497 3294
L 1497 2922
L 1928 2922
L 1928 2616
L 1497 2616
z
" transform="scale(0.015625)"/>
       <path id="TimesNewRomanPS-BoldMT-6f" d="M 1594 3009
Q 1975 3009 2303 2812
Q 2631 2616 2801 2253
Q 2972 1891 2972 1459
Q 2972 838 2656 419
Q 2275 -88 1603 -88
Q 944 -88 587 375
Q 231 838 231 1447
Q 231 2075 595 2542
Q 959 3009 1594 3009
z
M 1606 2788
Q 1447 2788 1333 2667
Q 1219 2547 1183 2192
Q 1147 1838 1147 1206
Q 1147 872 1191 581
Q 1225 359 1337 243
Q 1450 128 1594 128
Q 1734 128 1828 206
Q 1950 313 1991 503
Q 2053 800 2053 1703
Q 2053 2234 1993 2432
Q 1934 2631 1819 2722
Q 1738 2788 1606 2788
z
" transform="scale(0.015625)"/>
       <path id="TimesNewRomanPS-BoldMT-72" d="M 1428 2922
L 1428 2259
Q 1719 2713 1937 2861
Q 2156 3009 2359 3009
Q 2534 3009 2639 2901
Q 2744 2794 2744 2597
Q 2744 2388 2642 2272
Q 2541 2156 2397 2156
Q 2231 2156 2109 2262
Q 1988 2369 1966 2381
Q 1934 2400 1894 2400
Q 1803 2400 1722 2331
Q 1594 2225 1528 2028
Q 1428 1725 1428 1359
L 1428 688
L 1431 513
Q 1431 334 1453 284
Q 1491 200 1564 161
Q 1638 122 1813 113
L 1813 0
L 234 0
L 234 113
Q 425 128 492 217
Q 559 306 559 688
L 559 2303
Q 559 2553 534 2622
Q 503 2709 443 2750
Q 384 2791 234 2806
L 234 2922
L 1428 2922
z
" transform="scale(0.015625)"/>
       <path id="TimesNewRomanPS-BoldMT-6d" d="M 1428 2922
L 1428 2538
Q 1669 2800 1873 2904
Q 2078 3009 2322 3009
Q 2603 3009 2793 2878
Q 2984 2747 3088 2478
Q 3338 2759 3567 2884
Q 3797 3009 4047 3009
Q 4350 3009 4529 2870
Q 4709 2731 4779 2517
Q 4850 2303 4850 1834
L 4850 638
Q 4850 300 4911 219
Q 4972 138 5166 113
L 5166 0
L 3656 0
L 3656 113
Q 3834 128 3919 250
Q 3975 334 3975 638
L 3975 1894
Q 3975 2284 3944 2390
Q 3913 2497 3845 2548
Q 3778 2600 3688 2600
Q 3553 2600 3415 2501
Q 3278 2403 3138 2206
L 3138 638
Q 3138 322 3191 241
Q 3263 125 3466 113
L 3466 0
L 1953 0
L 1953 113
Q 2075 119 2145 173
Q 2216 228 2239 304
Q 2263 381 2263 638
L 2263 1894
Q 2263 2291 2231 2391
Q 2200 2491 2126 2547
Q 2053 2603 1969 2603
Q 1844 2603 1741 2538
Q 1594 2441 1428 2206
L 1428 638
Q 1428 328 1489 229
Q 1550 131 1744 113
L 1744 0
L 238 0
L 238 113
Q 422 131 500 231
Q 553 300 553 638
L 553 2288
Q 553 2619 492 2700
Q 431 2781 238 2806
L 238 2922
L 1428 2922
z
" transform="scale(0.015625)"/>
      </defs>
      <use xlink:href="#TimesNewRomanPS-BoldMT-50"/>
      <use xlink:href="#TimesNewRomanPS-BoldMT-6c" x="61.083984"/>
      <use xlink:href="#TimesNewRomanPS-BoldMT-61" x="88.867188"/>
      <use xlink:href="#TimesNewRomanPS-BoldMT-74" x="138.867188"/>
      <use xlink:href="#TimesNewRomanPS-BoldMT-66" x="172.167969"/>
      <use xlink:href="#TimesNewRomanPS-BoldMT-6f" x="205.46875"/>
      <use xlink:href="#TimesNewRomanPS-BoldMT-72" x="255.46875"/>
      <use xlink:href="#TimesNewRomanPS-BoldMT-6d" x="299.853516"/>
     </g>
    </g>
   </g>
   <g id="matplotlib.axis_2">
    <g id="ytick_1">
     <g id="line2d_4">
      <defs>
       <path id="m5b39b280c7" d="M 0 0
L -3.5 0
" style="stroke: #000000; stroke-width: 0.8"/>
      </defs>
      <g>
       <use xlink:href="#m5b39b280c7" x="38.548438" y="150.566879" style="stroke: #000000; stroke-width: 0.8"/>
      </g>
     </g>
     <g id="text_5">
      <!-- 0.0 -->
      <g transform="translate(21.135938 153.458951) scale(0.0833 -0.0833)">
       <defs>
        <path id="TimesNewRomanPSMT-30" d="M 231 2094
Q 231 2819 450 3342
Q 669 3866 1031 4122
Q 1313 4325 1613 4325
Q 2100 4325 2488 3828
Q 2972 3213 2972 2159
Q 2972 1422 2759 906
Q 2547 391 2217 158
Q 1888 -75 1581 -75
Q 975 -75 572 641
Q 231 1244 231 2094
z
M 844 2016
Q 844 1141 1059 588
Q 1238 122 1591 122
Q 1759 122 1940 273
Q 2122 425 2216 781
Q 2359 1319 2359 2297
Q 2359 3022 2209 3506
Q 2097 3866 1919 4016
Q 1791 4119 1609 4119
Q 1397 4119 1231 3928
Q 1006 3669 925 3112
Q 844 2556 844 2016
z
" transform="scale(0.015625)"/>
        <path id="TimesNewRomanPSMT-2e" d="M 800 606
Q 947 606 1047 504
Q 1147 403 1147 259
Q 1147 116 1045 14
Q 944 -88 800 -88
Q 656 -88 554 14
Q 453 116 453 259
Q 453 406 554 506
Q 656 606 800 606
z
" transform="scale(0.015625)"/>
       </defs>
       <use xlink:href="#TimesNewRomanPSMT-30"/>
       <use xlink:href="#TimesNewRomanPSMT-2e" x="50"/>
       <use xlink:href="#TimesNewRomanPSMT-30" x="75"/>
      </g>
     </g>
    </g>
    <g id="ytick_2">
     <g id="line2d_5">
      <g>
       <use xlink:href="#m5b39b280c7" x="38.548438" y="117.484077" style="stroke: #000000; stroke-width: 0.8"/>
      </g>
     </g>
     <g id="text_6">
      <!-- 0.5 -->
      <g transform="translate(21.135938 120.376149) scale(0.0833 -0.0833)">
       <defs>
        <path id="TimesNewRomanPSMT-35" d="M 2778 4238
L 2534 3706
L 1259 3706
L 981 3138
Q 1809 3016 2294 2522
Q 2709 2097 2709 1522
Q 2709 1188 2573 903
Q 2438 619 2231 419
Q 2025 219 1772 97
Q 1413 -75 1034 -75
Q 653 -75 479 54
Q 306 184 306 341
Q 306 428 378 495
Q 450 563 559 563
Q 641 563 702 538
Q 763 513 909 409
Q 1144 247 1384 247
Q 1750 247 2026 523
Q 2303 800 2303 1197
Q 2303 1581 2056 1914
Q 1809 2247 1375 2428
Q 1034 2569 447 2591
L 1259 4238
L 2778 4238
z
" transform="scale(0.015625)"/>
       </defs>
       <use xlink:href="#TimesNewRomanPSMT-30"/>
       <use xlink:href="#TimesNewRomanPSMT-2e" x="50"/>
       <use xlink:href="#TimesNewRomanPSMT-35" x="75"/>
      </g>
     </g>
    </g>
    <g id="ytick_3">
     <g id="line2d_6">
      <g>
       <use xlink:href="#m5b39b280c7" x="38.548438" y="84.401274" style="stroke: #000000; stroke-width: 0.8"/>
      </g>
     </g>
     <g id="text_7">
      <!-- 1.0 -->
      <g transform="translate(21.135938 87.293346) scale(0.0833 -0.0833)">
       <defs>
        <path id="TimesNewRomanPSMT-31" d="M 750 3822
L 1781 4325
L 1884 4325
L 1884 747
Q 1884 391 1914 303
Q 1944 216 2037 169
Q 2131 122 2419 116
L 2419 0
L 825 0
L 825 116
Q 1125 122 1212 167
Q 1300 213 1334 289
Q 1369 366 1369 747
L 1369 3034
Q 1369 3497 1338 3628
Q 1316 3728 1258 3775
Q 1200 3822 1119 3822
Q 1003 3822 797 3725
L 750 3822
z
" transform="scale(0.015625)"/>
       </defs>
       <use xlink:href="#TimesNewRomanPSMT-31"/>
       <use xlink:href="#TimesNewRomanPSMT-2e" x="50"/>
       <use xlink:href="#TimesNewRomanPSMT-30" x="75"/>
      </g>
     </g>
    </g>
    <g id="ytick_4">
     <g id="line2d_7">
      <g>
       <use xlink:href="#m5b39b280c7" x="38.548438" y="51.318472" style="stroke: #000000; stroke-width: 0.8"/>
      </g>
     </g>
     <g id="text_8">
      <!-- 1.5 -->
      <g transform="translate(21.135938 54.210544) scale(0.0833 -0.0833)">
       <use xlink:href="#TimesNewRomanPSMT-31"/>
       <use xlink:href="#TimesNewRomanPSMT-2e" x="50"/>
       <use xlink:href="#TimesNewRomanPSMT-35" x="75"/>
      </g>
     </g>
    </g>
    <g id="text_9">
     <!-- Warmth Probability -->
     <g transform="translate(13.978125 137.883594) rotate(-90) scale(0.1 -0.1)">
      <defs>
       <path id="TimesNewRomanPS-BoldMT-57" d="M 6344 4238
L 6344 4122
Q 6225 4113 6144 4056
Q 6063 4000 6000 3884
Q 5981 3847 5803 3400
L 4475 -97
L 4353 -97
L 3303 2634
L 2147 -97
L 2031 -97
L 638 3363
Q 425 3884 340 3993
Q 256 4103 56 4122
L 56 4238
L 1894 4238
L 1894 4122
Q 1672 4116 1598 4055
Q 1525 3994 1525 3903
Q 1525 3784 1678 3400
L 2509 1344
L 3175 2950
L 3000 3400
Q 2856 3769 2778 3892
Q 2700 4016 2598 4069
Q 2497 4122 2300 4122
L 2300 4238
L 4353 4238
L 4353 4122
Q 4138 4119 4044 4088
Q 3978 4066 3940 4014
Q 3903 3963 3903 3897
Q 3903 3825 4044 3456
L 4816 1450
L 5506 3266
Q 5616 3547 5641 3650
Q 5666 3753 5666 3841
Q 5666 3969 5578 4042
Q 5491 4116 5244 4122
L 5244 4238
L 6344 4238
z
" transform="scale(0.015625)"/>
       <path id="TimesNewRomanPS-BoldMT-68" d="M 1409 4238
L 1409 2547
Q 1650 2800 1850 2904
Q 2050 3009 2266 3009
Q 2541 3009 2736 2853
Q 2931 2697 2995 2486
Q 3059 2275 3059 1775
L 3059 634
Q 3059 300 3121 217
Q 3184 134 3375 113
L 3375 0
L 1894 0
L 1894 113
Q 2050 134 2128 238
Q 2184 319 2184 634
L 2184 1938
Q 2184 2300 2156 2392
Q 2128 2484 2061 2536
Q 1994 2588 1909 2588
Q 1784 2588 1665 2502
Q 1547 2416 1409 2200
L 1409 634
Q 1409 322 1456 244
Q 1516 138 1700 113
L 1700 0
L 219 0
L 219 113
Q 403 131 481 231
Q 534 300 534 634
L 534 3603
Q 534 3934 473 4015
Q 413 4097 219 4122
L 219 4238
L 1409 4238
z
" transform="scale(0.015625)"/>
       <path id="TimesNewRomanPS-BoldMT-20" transform="scale(0.015625)"/>
       <path id="TimesNewRomanPS-BoldMT-62" d="M 1347 4238
L 1347 2628
Q 1716 3009 2153 3009
Q 2453 3009 2718 2832
Q 2984 2656 3134 2331
Q 3284 2006 3284 1581
Q 3284 1103 3093 712
Q 2903 322 2584 117
Q 2266 -88 1856 -88
Q 1619 -88 1434 -12
Q 1250 63 1072 231
L 588 -84
L 481 -84
L 481 3631
Q 481 3884 459 3944
Q 428 4031 361 4073
Q 294 4116 134 4122
L 134 4238
L 1347 4238
z
M 1347 2350
L 1347 1050
Q 1347 653 1366 544
Q 1397 359 1515 245
Q 1634 131 1819 131
Q 1978 131 2092 222
Q 2206 313 2282 581
Q 2359 850 2359 1550
Q 2359 2222 2191 2472
Q 2069 2653 1863 2653
Q 1594 2653 1347 2350
z
" transform="scale(0.015625)"/>
       <path id="TimesNewRomanPS-BoldMT-69" d="M 919 4338
Q 1122 4338 1262 4195
Q 1403 4053 1403 3853
Q 1403 3653 1261 3512
Q 1119 3372 919 3372
Q 719 3372 578 3512
Q 438 3653 438 3853
Q 438 4053 578 4195
Q 719 4338 919 4338
z
M 1356 2922
L 1356 606
Q 1356 297 1428 211
Q 1500 125 1709 113
L 1709 0
L 131 0
L 131 113
Q 325 119 419 225
Q 481 297 481 606
L 481 2313
Q 481 2622 409 2708
Q 338 2794 131 2806
L 131 2922
L 1356 2922
z
" transform="scale(0.015625)"/>
       <path id="TimesNewRomanPS-BoldMT-79" d="M 1556 -119
L 613 2047
Q 400 2538 298 2650
Q 197 2763 53 2806
L 53 2922
L 1606 2922
L 1606 2806
Q 1453 2800 1390 2747
Q 1328 2694 1328 2619
Q 1328 2500 1484 2150
L 1984 1006
L 2325 1891
Q 2509 2363 2509 2547
Q 2509 2663 2432 2731
Q 2356 2800 2163 2806
L 2163 2922
L 3141 2922
L 3141 2806
Q 2997 2791 2906 2695
Q 2816 2600 2603 2047
L 1769 -119
Q 1453 -931 1300 -1119
Q 1084 -1381 759 -1381
Q 500 -1381 339 -1232
Q 178 -1084 178 -875
Q 178 -694 289 -575
Q 400 -456 563 -456
Q 719 -456 814 -556
Q 909 -656 913 -866
Q 916 -984 941 -1019
Q 966 -1053 1013 -1053
Q 1088 -1053 1172 -963
Q 1297 -831 1466 -363
L 1556 -119
z
" transform="scale(0.015625)"/>
      </defs>
      <use xlink:href="#TimesNewRomanPS-BoldMT-57"/>
      <use xlink:href="#TimesNewRomanPS-BoldMT-61" x="94.5"/>
      <use xlink:href="#TimesNewRomanPS-BoldMT-72" x="144.5"/>
      <use xlink:href="#TimesNewRomanPS-BoldMT-6d" x="188.884766"/>
      <use xlink:href="#TimesNewRomanPS-BoldMT-74" x="272.185547"/>
      <use xlink:href="#TimesNewRomanPS-BoldMT-68" x="305.486328"/>
      <use xlink:href="#TimesNewRomanPS-BoldMT-20" x="361.101562"/>
      <use xlink:href="#TimesNewRomanPS-BoldMT-50" x="386.101562"/>
      <use xlink:href="#TimesNewRomanPS-BoldMT-72" x="447.185547"/>
      <use xlink:href="#TimesNewRomanPS-BoldMT-6f" x="489.820312"/>
      <use xlink:href="#TimesNewRomanPS-BoldMT-62" x="539.820312"/>
      <use xlink:href="#TimesNewRomanPS-BoldMT-61" x="595.435547"/>
      <use xlink:href="#TimesNewRomanPS-BoldMT-62" x="645.435547"/>
      <use xlink:href="#TimesNewRomanPS-BoldMT-69" x="701.050781"/>
      <use xlink:href="#TimesNewRomanPS-BoldMT-6c" x="728.833984"/>
      <use xlink:href="#TimesNewRomanPS-BoldMT-69" x="756.617188"/>
      <use xlink:href="#TimesNewRomanPS-BoldMT-74" x="784.400391"/>
      <use xlink:href="#TimesNewRomanPS-BoldMT-79" x="817.701172"/>
     </g>
    </g>
   </g>
   <g id="line2d_8">
    <path d="M 45.359067 149.331891
L 83.776809 149.331891
" clip-path="url(#pa367ccb236)" style="fill: none; stroke-dasharray: 3.375,3.375; stroke-dashoffset: 0; stroke: #313131; stroke-width: 1.5"/>
   </g>
   <g id="line2d_9">
    <path d="M 54.652669 145.670392
L 74.483207 145.670392
" clip-path="url(#pa367ccb236)" style="fill: none; stroke-dasharray: 6.75,6.75; stroke-dashoffset: 0; stroke: #313131; stroke-width: 1.5"/>
   </g>
   <g id="line2d_10">
    <path d="M 63.56068 101.056868
L 65.575196 101.056868
" clip-path="url(#pa367ccb236)" style="fill: none; stroke-dasharray: 3.375,3.375; stroke-dashoffset: 0; stroke: #313131; stroke-width: 1.5"/>
   </g>
   <g id="line2d_11">
    <path d="M 94.015343 149.438029
L 132.135031 149.438029
" clip-path="url(#pa367ccb236)" style="fill: none; stroke-dasharray: 3.375,3.375; stroke-dashoffset: 0; stroke: #313131; stroke-width: 1.5"/>
   </g>
   <g id="line2d_12">
    <path d="M 103.606474 145.728667
L 122.543899 145.728667
" clip-path="url(#pa367ccb236)" style="fill: none; stroke-dasharray: 6.75,6.75; stroke-dashoffset: 0; stroke: #313131; stroke-width: 1.5"/>
   </g>
   <g id="line2d_13">
    <path d="M 111.327226 98.343162
L 114.823148 98.343162
" clip-path="url(#pa367ccb236)" style="fill: none; stroke-dasharray: 3.375,3.375; stroke-dashoffset: 0; stroke: #313131; stroke-width: 1.5"/>
   </g>
   <g id="line2d_14">
    <path d="M 146.406504 149.431675
L 176.758368 149.431675
" clip-path="url(#pa367ccb236)" style="fill: none; stroke-dasharray: 3.375,3.375; stroke-dashoffset: 0; stroke: #313131; stroke-width: 1.5"/>
   </g>
   <g id="line2d_15">
    <path d="M 148.005257 146.395639
L 175.159615 146.395639
" clip-path="url(#pa367ccb236)" style="fill: none; stroke-dasharray: 6.75,6.75; stroke-dashoffset: 0; stroke: #313131; stroke-width: 1.5"/>
   </g>
   <g id="line2d_16">
    <path d="M 160.737664 104.497636
L 162.427208 104.497636
" clip-path="url(#pa367ccb236)" style="fill: none; stroke-dasharray: 3.375,3.375; stroke-dashoffset: 0; stroke: #313131; stroke-width: 1.5"/>
   </g>
   <g id="line2d_17">
    <path d="M 64.567938 92.785252
L 64.567938 87.227341
L 113.075187 87.227341
L 113.075187 92.785252
" clip-path="url(#pa367ccb236)" style="fill: none; stroke: #333333; stroke-width: 1.5; stroke-linecap: square"/>
   </g>
   <g id="line2d_18">
    <path d="M 113.075187 68.995041
L 113.075187 63.43713
L 161.582436 63.43713
L 161.582436 68.995041
" clip-path="url(#pa367ccb236)" style="fill: none; stroke: #333333; stroke-width: 1.5; stroke-linecap: square"/>
   </g>
   <g id="line2d_19">
    <path d="M 64.567938 45.20483
L 64.567938 39.646919
L 161.582436 39.646919
L 161.582436 45.20483
" clip-path="url(#pa367ccb236)" style="fill: none; stroke: #333333; stroke-width: 1.5; stroke-linecap: square"/>
   </g>
   <g id="patch_3">
    <path d="M 38.548438 163.8
L 38.548438 25.2
" style="fill: none; stroke: #000000; stroke-width: 0.8; stroke-linejoin: miter; stroke-linecap: square"/>
   </g>
   <g id="patch_4">
    <path d="M 38.548438 163.8
L 184.113655 163.8
" style="fill: none; stroke: #000000; stroke-width: 0.8; stroke-linejoin: miter; stroke-linecap: square"/>
   </g>
   <g id="text_10">
    <!-- t-test_welch p ≤ *** -->
    <g transform="translate(54.725831 80.429883) scale(0.0833 -0.0833)">
     <defs>
      <path id="TimesNewRomanPSMT-74" d="M 1031 3803
L 1031 2863
L 1700 2863
L 1700 2644
L 1031 2644
L 1031 788
Q 1031 509 1111 412
Q 1191 316 1316 316
Q 1419 316 1516 380
Q 1613 444 1666 569
L 1788 569
Q 1678 263 1478 108
Q 1278 -47 1066 -47
Q 922 -47 784 33
Q 647 113 581 261
Q 516 409 516 719
L 516 2644
L 63 2644
L 63 2747
Q 234 2816 414 2980
Q 594 3144 734 3369
Q 806 3488 934 3803
L 1031 3803
z
" transform="scale(0.015625)"/>
      <path id="TimesNewRomanPSMT-2d" d="M 259 1672
L 1875 1672
L 1875 1200
L 259 1200
L 259 1672
z
" transform="scale(0.015625)"/>
      <path id="TimesNewRomanPSMT-5f" d="M 3256 -1381
L -53 -1381
L -53 -1119
L 3256 -1119
L 3256 -1381
z
" transform="scale(0.015625)"/>
      <path id="TimesNewRomanPSMT-77" d="M 41 2863
L 1241 2863
L 1241 2747
Q 1075 2734 1023 2687
Q 972 2641 972 2553
Q 972 2456 1025 2319
L 1638 672
L 2253 2013
L 2091 2434
Q 2016 2622 1894 2694
Q 1825 2738 1638 2747
L 1638 2863
L 3000 2863
L 3000 2747
Q 2775 2738 2681 2666
Q 2619 2616 2619 2506
Q 2619 2444 2644 2378
L 3294 734
L 3897 2319
Q 3959 2488 3959 2588
Q 3959 2647 3898 2694
Q 3838 2741 3659 2747
L 3659 2863
L 4563 2863
L 4563 2747
Q 4291 2706 4163 2378
L 3206 -88
L 3078 -88
L 2363 1741
L 1528 -88
L 1413 -88
L 494 2319
Q 403 2547 315 2626
Q 228 2706 41 2747
L 41 2863
z
" transform="scale(0.015625)"/>
      <path id="TimesNewRomanPSMT-63" d="M 2631 1088
Q 2516 522 2178 217
Q 1841 -88 1431 -88
Q 944 -88 581 321
Q 219 731 219 1428
Q 219 2103 620 2525
Q 1022 2947 1584 2947
Q 2006 2947 2278 2723
Q 2550 2500 2550 2259
Q 2550 2141 2473 2067
Q 2397 1994 2259 1994
Q 2075 1994 1981 2113
Q 1928 2178 1911 2362
Q 1894 2547 1784 2644
Q 1675 2738 1481 2738
Q 1169 2738 978 2506
Q 725 2200 725 1697
Q 725 1184 976 792
Q 1228 400 1656 400
Q 1963 400 2206 609
Q 2378 753 2541 1131
L 2631 1088
z
" transform="scale(0.015625)"/>
      <path id="TimesNewRomanPSMT-68" d="M 1041 4444
L 1041 2350
Q 1388 2731 1591 2839
Q 1794 2947 1997 2947
Q 2241 2947 2416 2812
Q 2591 2678 2675 2391
Q 2734 2191 2734 1659
L 2734 647
Q 2734 375 2778 275
Q 2809 200 2884 156
Q 2959 113 3159 113
L 3159 0
L 1753 0
L 1753 113
L 1819 113
Q 2019 113 2097 173
Q 2175 234 2206 353
Q 2216 403 2216 647
L 2216 1659
Q 2216 2128 2167 2275
Q 2119 2422 2012 2495
Q 1906 2569 1756 2569
Q 1603 2569 1437 2487
Q 1272 2406 1041 2159
L 1041 647
Q 1041 353 1073 281
Q 1106 209 1195 161
Q 1284 113 1503 113
L 1503 0
L 84 0
L 84 113
Q 275 113 384 172
Q 447 203 484 290
Q 522 378 522 647
L 522 3238
Q 522 3728 498 3840
Q 475 3953 426 3993
Q 378 4034 297 4034
Q 231 4034 84 3984
L 41 4094
L 897 4444
L 1041 4444
z
" transform="scale(0.015625)"/>
      <path id="TimesNewRomanPSMT-20" transform="scale(0.015625)"/>
      <path id="TimesNewRomanPSMT-70" d="M -6 2578
L 875 2934
L 994 2934
L 994 2266
Q 1216 2644 1439 2795
Q 1663 2947 1909 2947
Q 2341 2947 2628 2609
Q 2981 2197 2981 1534
Q 2981 794 2556 309
Q 2206 -88 1675 -88
Q 1444 -88 1275 -22
Q 1150 25 994 166
L 994 -706
Q 994 -1000 1030 -1079
Q 1066 -1159 1155 -1206
Q 1244 -1253 1478 -1253
L 1478 -1369
L -22 -1369
L -22 -1253
L 56 -1253
Q 228 -1256 350 -1188
Q 409 -1153 442 -1076
Q 475 -1000 475 -688
L 475 2019
Q 475 2297 450 2372
Q 425 2447 370 2484
Q 316 2522 222 2522
Q 147 2522 31 2478
L -6 2578
z
M 994 2081
L 994 1013
Q 994 666 1022 556
Q 1066 375 1236 237
Q 1406 100 1666 100
Q 1978 100 2172 344
Q 2425 663 2425 1241
Q 2425 1897 2138 2250
Q 1938 2494 1663 2494
Q 1513 2494 1366 2419
Q 1253 2363 994 2081
z
" transform="scale(0.015625)"/>
      <path id="TimesNewRomanPSMT-2264" d="M 3431 769
L 78 2194
L 78 2453
L 3431 3872
L 3431 3553
L 463 2325
L 3431 1088
L 3431 769
z
M 75 -219
L 3438 -219
L 3438 -509
L 75 -509
L 75 -219
z
" transform="scale(0.015625)"/>
      <path id="TimesNewRomanPSMT-2a" d="M 1544 3263
Q 1531 3478 1456 3691
Q 1350 3997 1350 4113
Q 1350 4275 1426 4359
Q 1503 4444 1616 4444
Q 1713 4444 1784 4359
Q 1856 4275 1856 4119
Q 1856 3978 1773 3726
Q 1691 3475 1672 3263
Q 1844 3372 1981 3528
Q 2194 3775 2297 3834
Q 2400 3894 2506 3894
Q 2609 3894 2679 3823
Q 2750 3753 2750 3656
Q 2750 3541 2647 3450
Q 2544 3359 2131 3269
Q 1891 3216 1731 3147
Q 1894 3063 2128 3019
Q 2506 2950 2623 2847
Q 2741 2744 2741 2622
Q 2741 2528 2670 2459
Q 2600 2391 2506 2391
Q 2413 2391 2298 2456
Q 2184 2522 1991 2750
Q 1863 2903 1672 3038
Q 1678 2859 1744 2650
Q 1856 2281 1856 2147
Q 1856 2022 1781 1936
Q 1706 1850 1622 1850
Q 1506 1850 1413 1941
Q 1347 2006 1347 2150
Q 1347 2300 1419 2511
Q 1491 2722 1509 2801
Q 1528 2881 1544 3038
Q 1359 2916 1222 2766
Q 994 2509 878 2441
Q 797 2391 709 2391
Q 603 2391 528 2462
Q 453 2534 453 2622
Q 453 2700 517 2786
Q 581 2872 709 2928
Q 794 2966 1094 3028
Q 1288 3069 1472 3147
Q 1303 3231 1069 3278
Q 684 3359 594 3425
Q 453 3528 453 3675
Q 453 3759 523 3829
Q 594 3900 688 3900
Q 791 3900 906 3834
Q 1022 3769 1194 3570
Q 1366 3372 1544 3263
z
" transform="scale(0.015625)"/>
     </defs>
     <use xlink:href="#TimesNewRomanPSMT-74"/>
     <use xlink:href="#TimesNewRomanPSMT-2d" x="27.783203"/>
     <use xlink:href="#TimesNewRomanPSMT-74" x="61.083984"/>
     <use xlink:href="#TimesNewRomanPSMT-65" x="88.867188"/>
     <use xlink:href="#TimesNewRomanPSMT-73" x="133.251953"/>
     <use xlink:href="#TimesNewRomanPSMT-74" x="172.167969"/>
     <use xlink:href="#TimesNewRomanPSMT-5f" x="199.951172"/>
     <use xlink:href="#TimesNewRomanPSMT-77" x="249.951172"/>
     <use xlink:href="#TimesNewRomanPSMT-65" x="322.167969"/>
     <use xlink:href="#TimesNewRomanPSMT-6c" x="366.552734"/>
     <use xlink:href="#TimesNewRomanPSMT-63" x="394.335938"/>
     <use xlink:href="#TimesNewRomanPSMT-68" x="438.720703"/>
     <use xlink:href="#TimesNewRomanPSMT-20" x="488.720703"/>
     <use xlink:href="#TimesNewRomanPSMT-70" x="513.720703"/>
     <use xlink:href="#TimesNewRomanPSMT-20" x="563.720703"/>
     <use xlink:href="#TimesNewRomanPSMT-2264" x="588.720703"/>
     <use xlink:href="#TimesNewRomanPSMT-20" x="643.603516"/>
     <use xlink:href="#TimesNewRomanPSMT-2a" x="668.603516"/>
     <use xlink:href="#TimesNewRomanPSMT-2a" x="718.603516"/>
     <use xlink:href="#TimesNewRomanPSMT-2a" x="768.603516"/>
    </g>
   </g>
   <g id="text_11">
    <!-- t-test_welch p ≤ *** -->
    <g transform="translate(103.23308 56.639672) scale(0.0833 -0.0833)">
     <use xlink:href="#TimesNewRomanPSMT-74"/>
     <use xlink:href="#TimesNewRomanPSMT-2d" x="27.783203"/>
     <use xlink:href="#TimesNewRomanPSMT-74" x="61.083984"/>
     <use xlink:href="#TimesNewRomanPSMT-65" x="88.867188"/>
     <use xlink:href="#TimesNewRomanPSMT-73" x="133.251953"/>
     <use xlink:href="#TimesNewRomanPSMT-74" x="172.167969"/>
     <use xlink:href="#TimesNewRomanPSMT-5f" x="199.951172"/>
     <use xlink:href="#TimesNewRomanPSMT-77" x="249.951172"/>
     <use xlink:href="#TimesNewRomanPSMT-65" x="322.167969"/>
     <use xlink:href="#TimesNewRomanPSMT-6c" x="366.552734"/>
     <use xlink:href="#TimesNewRomanPSMT-63" x="394.335938"/>
     <use xlink:href="#TimesNewRomanPSMT-68" x="438.720703"/>
     <use xlink:href="#TimesNewRomanPSMT-20" x="488.720703"/>
     <use xlink:href="#TimesNewRomanPSMT-70" x="513.720703"/>
     <use xlink:href="#TimesNewRomanPSMT-20" x="563.720703"/>
     <use xlink:href="#TimesNewRomanPSMT-2264" x="588.720703"/>
     <use xlink:href="#TimesNewRomanPSMT-20" x="643.603516"/>
     <use xlink:href="#TimesNewRomanPSMT-2a" x="668.603516"/>
     <use xlink:href="#TimesNewRomanPSMT-2a" x="718.603516"/>
     <use xlink:href="#TimesNewRomanPSMT-2a" x="768.603516"/>
    </g>
   </g>
   <g id="text_12">
    <!-- t-test_welch p ≤ *** -->
    <g transform="translate(78.979456 32.849461) scale(0.0833 -0.0833)">
     <use xlink:href="#TimesNewRomanPSMT-74"/>
     <use xlink:href="#TimesNewRomanPSMT-2d" x="27.783203"/>
     <use xlink:href="#TimesNewRomanPSMT-74" x="61.083984"/>
     <use xlink:href="#TimesNewRomanPSMT-65" x="88.867188"/>
     <use xlink:href="#TimesNewRomanPSMT-73" x="133.251953"/>
     <use xlink:href="#TimesNewRomanPSMT-74" x="172.167969"/>
     <use xlink:href="#TimesNewRomanPSMT-5f" x="199.951172"/>
     <use xlink:href="#TimesNewRomanPSMT-77" x="249.951172"/>
     <use xlink:href="#TimesNewRomanPSMT-65" x="322.167969"/>
     <use xlink:href="#TimesNewRomanPSMT-6c" x="366.552734"/>
     <use xlink:href="#TimesNewRomanPSMT-63" x="394.335938"/>
     <use xlink:href="#TimesNewRomanPSMT-68" x="438.720703"/>
     <use xlink:href="#TimesNewRomanPSMT-20" x="488.720703"/>
     <use xlink:href="#TimesNewRomanPSMT-70" x="513.720703"/>
     <use xlink:href="#TimesNewRomanPSMT-20" x="563.720703"/>
     <use xlink:href="#TimesNewRomanPSMT-2264" x="588.720703"/>
     <use xlink:href="#TimesNewRomanPSMT-20" x="643.603516"/>
     <use xlink:href="#TimesNewRomanPSMT-2a" x="668.603516"/>
     <use xlink:href="#TimesNewRomanPSMT-2a" x="718.603516"/>
     <use xlink:href="#TimesNewRomanPSMT-2a" x="768.603516"/>
    </g>
   </g>
  </g>
  <g id="axes_2">
   <g id="patch_5">
    <path d="M 227.78322 163.8
L 373.348438 163.8
L 373.348438 25.2
L 227.78322 25.2
z
" style="fill: #ffffff"/>
   </g>
   <g id="PolyCollection_4">
    <defs>
     <path id="m080192266d" d="M 254.261744 -44.555649
L 252.291093 -44.555649
L 251.282945 -45.258392
L 249.629383 -45.961136
L 247.23364 -46.663879
L 244.190239 -47.366623
L 240.844221 -48.069367
L 237.741271 -48.77211
L 235.460154 -49.474854
L 234.399821 -50.177597
L 234.636332 -50.880341
L 235.926637 -51.583084
L 237.843524 -52.285828
L 239.952261 -52.988571
L 241.936355 -53.691315
L 243.634334 -54.394058
L 245.008399 -55.096802
L 246.089641 -55.799546
L 246.933204 -56.502289
L 247.593688 -57.205033
L 248.116039 -57.907776
L 248.5341 -58.61052
L 248.872106 -59.313263
L 249.147344 -60.016007
L 249.373111 -60.71875
L 249.560946 -61.421494
L 249.721401 -62.124237
L 249.863396 -62.826981
L 249.993005 -63.529725
L 250.112685 -64.232468
L 250.221592 -64.935212
L 250.316974 -65.637955
L 250.396048 -66.340699
L 250.457489 -67.043442
L 250.501905 -67.746186
L 250.531352 -68.448929
L 250.548542 -69.151673
L 250.556379 -69.854416
L 250.557884 -70.55716
L 250.556148 -71.259904
L 250.55407 -71.962647
L 250.554068 -72.665391
L 250.557985 -73.368134
L 250.567026 -74.070878
L 250.581379 -74.773621
L 250.599574 -75.476365
L 250.618289 -76.179108
L 250.633218 -76.881852
L 250.640778 -77.584595
L 250.639521 -78.287339
L 250.630164 -78.990083
L 250.614231 -79.692826
L 250.592504 -80.39557
L 250.564565 -81.098313
L 250.529703 -81.801057
L 250.488202 -82.5038
L 250.441818 -83.206544
L 250.393078 -83.909287
L 250.344058 -84.612031
L 250.295478 -85.314774
L 250.24638 -86.017518
L 250.194119 -86.720262
L 250.134423 -87.423005
L 250.061626 -88.125749
L 249.969269 -88.828492
L 249.850967 -89.531236
L 249.701015 -90.233979
L 249.514274 -90.936723
L 249.285262 -91.639466
L 249.007094 -92.34221
L 248.67105 -93.044953
L 248.267158 -93.747697
L 247.785257 -94.450441
L 247.215616 -95.153184
L 246.548594 -95.855928
L 245.773863 -96.558671
L 244.8805 -97.261415
L 243.859082 -97.964158
L 242.706303 -98.666902
L 241.431806 -99.369645
L 240.066156 -100.072389
L 238.667927 -100.775132
L 237.326945 -101.477876
L 236.160773 -102.18062
L 235.303073 -102.883363
L 234.884824 -103.586107
L 235.011577 -104.28885
L 235.741053 -104.991594
L 237.06579 -105.694337
L 238.905331 -106.397081
L 241.111633 -107.099824
L 243.489171 -107.802568
L 245.827518 -108.505311
L 247.939423 -109.208055
L 249.693862 -109.910798
L 251.033675 -110.613542
L 251.972695 -111.316286
L 252.575441 -112.019029
L 252.929034 -112.721773
L 253.118233 -113.424516
L 253.210409 -114.12726
L 253.342429 -114.12726
L 253.342429 -114.12726
L 253.434604 -113.424516
L 253.623804 -112.721773
L 253.977396 -112.019029
L 254.580143 -111.316286
L 255.519163 -110.613542
L 256.858975 -109.910798
L 258.613414 -109.208055
L 260.72532 -108.505311
L 263.063666 -107.802568
L 265.441205 -107.099824
L 267.647506 -106.397081
L 269.487047 -105.694337
L 270.811784 -104.991594
L 271.541261 -104.28885
L 271.668013 -103.586107
L 271.249764 -102.883363
L 270.392064 -102.18062
L 269.225893 -101.477876
L 267.88491 -100.775132
L 266.486682 -100.072389
L 265.121031 -99.369645
L 263.846534 -98.666902
L 262.693756 -97.964158
L 261.672338 -97.261415
L 260.778974 -96.558671
L 260.004244 -95.855928
L 259.337221 -95.153184
L 258.767581 -94.450441
L 258.285679 -93.747697
L 257.881787 -93.044953
L 257.545744 -92.34221
L 257.267575 -91.639466
L 257.038564 -90.936723
L 256.851822 -90.233979
L 256.701871 -89.531236
L 256.583568 -88.828492
L 256.491212 -88.125749
L 256.418414 -87.423005
L 256.358718 -86.720262
L 256.306457 -86.017518
L 256.257359 -85.314774
L 256.208779 -84.612031
L 256.159759 -83.909287
L 256.111019 -83.206544
L 256.064635 -82.5038
L 256.023135 -81.801057
L 255.988272 -81.098313
L 255.960334 -80.39557
L 255.938606 -79.692826
L 255.922674 -78.990083
L 255.913316 -78.287339
L 255.91206 -77.584595
L 255.919619 -76.881852
L 255.934548 -76.179108
L 255.953264 -75.476365
L 255.971459 -74.773621
L 255.985811 -74.070878
L 255.994853 -73.368134
L 255.998769 -72.665391
L 255.998767 -71.962647
L 255.996689 -71.259904
L 255.994953 -70.55716
L 255.996459 -69.854416
L 256.004296 -69.151673
L 256.021486 -68.448929
L 256.050932 -67.746186
L 256.095348 -67.043442
L 256.156789 -66.340699
L 256.235863 -65.637955
L 256.331245 -64.935212
L 256.440152 -64.232468
L 256.559833 -63.529725
L 256.689442 -62.826981
L 256.831436 -62.124237
L 256.991891 -61.421494
L 257.179726 -60.71875
L 257.405493 -60.016007
L 257.680732 -59.313263
L 258.018738 -58.61052
L 258.436799 -57.907776
L 258.959149 -57.205033
L 259.619633 -56.502289
L 260.463196 -55.799546
L 261.544439 -55.096802
L 262.918503 -54.394058
L 264.616483 -53.691315
L 266.600577 -52.988571
L 268.709313 -52.285828
L 270.6262 -51.583084
L 271.916506 -50.880341
L 272.153016 -50.177597
L 271.092684 -49.474854
L 268.811566 -48.77211
L 265.708616 -48.069367
L 262.362599 -47.366623
L 259.319197 -46.663879
L 256.923454 -45.961136
L 255.269893 -45.258392
L 254.261744 -44.555649
z
" style="stroke: #313131; stroke-width: 1.5"/>
    </defs>
    <g clip-path="url(#p9ebd34427d)">
     <use xlink:href="#m080192266d" x="0" y="199.32692" style="fill: #af5619; stroke: #313131; stroke-width: 1.5"/>
    </g>
   </g>
   <g id="PolyCollection_5">
    <defs>
     <path id="mc4e15e52e1" d="M 302.909616 -44.613511
L 301.19298 -44.613511
L 300.270286 -45.31409
L 298.714697 -46.014669
L 296.398054 -46.715248
L 293.369651 -47.415827
L 289.932325 -48.116407
L 286.615367 -48.816986
L 284.0222 -49.517565
L 282.613567 -50.218144
L 282.541346 -50.918723
L 283.622653 -51.619302
L 285.454762 -52.319881
L 287.590226 -53.02046
L 289.676623 -53.721039
L 291.51237 -54.421618
L 293.029309 -55.122197
L 294.242405 -55.822776
L 295.201809 -56.523356
L 295.96251 -57.223935
L 296.570839 -57.924514
L 297.061247 -58.625093
L 297.457719 -59.325672
L 297.776811 -60.026251
L 298.030913 -60.72683
L 298.230757 -61.427409
L 298.386531 -62.127988
L 298.507712 -62.828567
L 298.602573 -63.529146
L 298.678187 -64.229725
L 298.740979 -64.930305
L 298.797197 -65.630884
L 298.852853 -66.331463
L 298.913091 -67.032042
L 298.981175 -67.732621
L 299.057255 -68.4332
L 299.13753 -69.133779
L 299.214804 -69.834358
L 299.281041 -70.534937
L 299.331076 -71.235516
L 299.365282 -71.936095
L 299.389244 -72.636674
L 299.410368 -73.337254
L 299.433408 -74.037833
L 299.457522 -74.738412
L 299.476353 -75.438991
L 299.480845 -76.13957
L 299.463389 -76.840149
L 299.421542 -77.540728
L 299.359806 -78.241307
L 299.288568 -78.941886
L 299.220444 -79.642465
L 299.165664 -80.343044
L 299.128685 -81.043623
L 299.107473 -81.744203
L 299.095189 -82.444782
L 299.08295 -83.145361
L 299.062305 -83.84594
L 299.026723 -84.546519
L 298.971932 -85.247098
L 298.895423 -85.947677
L 298.79578 -86.648256
L 298.672562 -87.348835
L 298.52683 -88.049414
L 298.361585 -88.749993
L 298.181261 -89.450572
L 297.99013 -90.151152
L 297.790171 -90.851731
L 297.579074 -91.55231
L 297.348842 -92.252889
L 297.085402 -92.953468
L 296.769679 -93.654047
L 296.379953 -94.354626
L 295.894475 -95.055205
L 295.293184 -95.755784
L 294.558414 -96.456363
L 293.675843 -97.156942
L 292.637336 -97.857521
L 291.446461 -98.558101
L 290.126068 -99.25868
L 288.726103 -99.959259
L 287.329007 -100.659838
L 286.049469 -101.360417
L 285.025533 -102.060996
L 284.399884 -102.761575
L 284.293759 -103.462154
L 284.779895 -104.162733
L 285.862774 -104.863312
L 287.472631 -105.563891
L 289.475061 -106.26447
L 291.693122 -106.96505
L 293.936111 -107.665629
L 296.02906 -108.366208
L 297.837876 -109.066787
L 299.285655 -109.767366
L 300.356558 -110.467945
L 301.086341 -111.168524
L 301.542992 -111.869103
L 301.804541 -112.569682
L 301.941278 -113.270261
L 302.006375 -113.97084
L 302.096221 -113.97084
L 302.096221 -113.97084
L 302.161319 -113.270261
L 302.298056 -112.569682
L 302.559604 -111.869103
L 303.016255 -111.168524
L 303.746038 -110.467945
L 304.816941 -109.767366
L 306.26472 -109.066787
L 308.073536 -108.366208
L 310.166485 -107.665629
L 312.409474 -106.96505
L 314.627536 -106.26447
L 316.629966 -105.563891
L 318.239822 -104.863312
L 319.322701 -104.162733
L 319.808838 -103.462154
L 319.702712 -102.761575
L 319.077063 -102.060996
L 318.053127 -101.360417
L 316.773589 -100.659838
L 315.376493 -99.959259
L 313.976528 -99.25868
L 312.656135 -98.558101
L 311.46526 -97.857521
L 310.426753 -97.156942
L 309.544182 -96.456363
L 308.809412 -95.755784
L 308.208121 -95.055205
L 307.722644 -94.354626
L 307.332918 -93.654047
L 307.017195 -92.953468
L 306.753754 -92.252889
L 306.523522 -91.55231
L 306.312426 -90.851731
L 306.112466 -90.151152
L 305.921335 -89.450572
L 305.741012 -88.749993
L 305.575766 -88.049414
L 305.430034 -87.348835
L 305.306816 -86.648256
L 305.207173 -85.947677
L 305.130664 -85.247098
L 305.075873 -84.546519
L 305.040291 -83.84594
L 305.019647 -83.145361
L 305.007407 -82.444782
L 304.995123 -81.744203
L 304.973911 -81.043623
L 304.936933 -80.343044
L 304.882152 -79.642465
L 304.814029 -78.941886
L 304.74279 -78.241307
L 304.681055 -77.540728
L 304.639207 -76.840149
L 304.621751 -76.13957
L 304.626243 -75.438991
L 304.645074 -74.738412
L 304.669189 -74.037833
L 304.692228 -73.337254
L 304.713353 -72.636674
L 304.737315 -71.936095
L 304.77152 -71.235516
L 304.821555 -70.534937
L 304.887793 -69.834358
L 304.965066 -69.133779
L 305.045341 -68.4332
L 305.121422 -67.732621
L 305.189505 -67.032042
L 305.249744 -66.331463
L 305.305399 -65.630884
L 305.361618 -64.930305
L 305.424409 -64.229725
L 305.500023 -63.529146
L 305.594884 -62.828567
L 305.716065 -62.127988
L 305.871839 -61.427409
L 306.071684 -60.72683
L 306.325785 -60.026251
L 306.644877 -59.325672
L 307.041349 -58.625093
L 307.531758 -57.924514
L 308.140087 -57.223935
L 308.900787 -56.523356
L 309.860191 -55.822776
L 311.073287 -55.122197
L 312.590227 -54.421618
L 314.425974 -53.721039
L 316.512371 -53.02046
L 318.647835 -52.319881
L 320.479944 -51.619302
L 321.56125 -50.918723
L 321.489029 -50.218144
L 320.080396 -49.517565
L 317.487229 -48.816986
L 314.170271 -48.116407
L 310.732945 -47.415827
L 307.704543 -46.715248
L 305.387899 -46.014669
L 303.83231 -45.31409
L 302.909616 -44.613511
z
" style="stroke: #313131; stroke-width: 1.5"/>
    </defs>
    <g clip-path="url(#p9ebd34427d)">
     <use xlink:href="#mc4e15e52e1" x="0" y="199.32692" style="fill: #ababab; stroke: #313131; stroke-width: 1.5"/>
    </g>
   </g>
   <g id="PolyCollection_6">
    <defs>
     <path id="mca8281c7c9" d="M 351.75044 -42.828864
L 349.901915 -42.828864
L 349.260781 -43.564047
L 348.321629 -44.299231
L 347.038709 -45.034414
L 345.408954 -45.769598
L 343.491592 -46.504782
L 341.415999 -47.239965
L 339.370763 -47.975149
L 337.572716 -48.710333
L 336.222678 -49.445516
L 335.461092 -50.1807
L 335.338054 -50.915884
L 335.807426 -51.651067
L 336.74562 -52.386251
L 337.986887 -53.121434
L 339.362236 -53.856618
L 340.730225 -54.591802
L 341.993134 -55.326985
L 343.0985 -56.062169
L 344.030526 -56.797353
L 344.797408 -57.532536
L 345.419495 -58.26772
L 345.920829 -59.002903
L 346.324419 -59.738087
L 346.650278 -60.473271
L 346.914953 -61.208454
L 347.131579 -61.943638
L 347.310028 -62.678822
L 347.457166 -63.414005
L 347.57735 -64.149189
L 347.673247 -64.884372
L 347.746839 -65.619556
L 347.800359 -66.35474
L 347.836876 -67.089923
L 347.860404 -67.825107
L 347.875559 -68.560291
L 347.886932 -69.295474
L 347.89843 -70.030658
L 347.912772 -70.765842
L 347.931281 -71.501025
L 347.953958 -72.236209
L 347.979799 -72.971392
L 348.007212 -73.706576
L 348.034409 -74.44176
L 348.059707 -75.176943
L 348.081686 -75.912127
L 348.099236 -76.647311
L 348.111541 -77.382494
L 348.118027 -78.117678
L 348.118307 -78.852861
L 348.112122 -79.588045
L 348.099297 -80.323229
L 348.079708 -81.058412
L 348.053268 -81.793596
L 348.019924 -82.52878
L 347.979601 -83.263963
L 347.932099 -83.999147
L 347.876904 -84.73433
L 347.812986 -85.469514
L 347.738641 -86.204698
L 347.651469 -86.939881
L 347.54849 -87.675065
L 347.426312 -88.410249
L 347.281217 -89.145432
L 347.109016 -89.880616
L 346.904647 -90.6158
L 346.661618 -91.350983
L 346.371535 -92.086167
L 346.023997 -92.82135
L 345.607022 -93.556534
L 345.108033 -94.291718
L 344.515281 -95.026901
L 343.819553 -95.762085
L 343.016068 -96.497269
L 342.106561 -97.232452
L 341.101617 -97.967636
L 340.023125 -98.702819
L 338.906505 -99.438003
L 337.80199 -100.173187
L 336.77409 -100.90837
L 335.898378 -101.643554
L 335.255198 -102.378738
L 334.920518 -103.113921
L 334.95504 -103.849105
L 335.39338 -104.584288
L 336.235617 -105.319472
L 337.44341 -106.054656
L 338.94217 -106.789839
L 340.629566 -107.525023
L 342.389096 -108.260207
L 344.106105 -108.99539
L 345.682917 -109.730574
L 347.049919 -110.465758
L 348.170597 -111.200941
L 349.040138 -111.936125
L 349.678922 -112.671308
L 350.123242 -113.406492
L 350.415829 -114.141676
L 350.598191 -114.876859
L 350.705738 -115.612043
L 350.946618 -115.612043
L 350.946618 -115.612043
L 351.054165 -114.876859
L 351.236526 -114.141676
L 351.529113 -113.406492
L 351.973433 -112.671308
L 352.612217 -111.936125
L 353.481759 -111.200941
L 354.602436 -110.465758
L 355.969438 -109.730574
L 357.54625 -108.99539
L 359.263259 -108.260207
L 361.022789 -107.525023
L 362.710185 -106.789839
L 364.208945 -106.054656
L 365.416738 -105.319472
L 366.258976 -104.584288
L 366.697315 -103.849105
L 366.731837 -103.113921
L 366.397157 -102.378738
L 365.753977 -101.643554
L 364.878265 -100.90837
L 363.850365 -100.173187
L 362.745851 -99.438003
L 361.62923 -98.702819
L 360.550738 -97.967636
L 359.545794 -97.232452
L 358.636287 -96.497269
L 357.832802 -95.762085
L 357.137075 -95.026901
L 356.544323 -94.291718
L 356.045333 -93.556534
L 355.628358 -92.82135
L 355.28082 -92.086167
L 354.990737 -91.350983
L 354.747708 -90.6158
L 354.543339 -89.880616
L 354.371138 -89.145432
L 354.226043 -88.410249
L 354.103865 -87.675065
L 354.000886 -86.939881
L 353.913714 -86.204698
L 353.839369 -85.469514
L 353.775451 -84.73433
L 353.720257 -83.999147
L 353.672754 -83.263963
L 353.632432 -82.52878
L 353.599087 -81.793596
L 353.572647 -81.058412
L 353.553058 -80.323229
L 353.540233 -79.588045
L 353.534048 -78.852861
L 353.534328 -78.117678
L 353.540814 -77.382494
L 353.553119 -76.647311
L 353.570669 -75.912127
L 353.592648 -75.176943
L 353.617946 -74.44176
L 353.645143 -73.706576
L 353.672556 -72.971392
L 353.698397 -72.236209
L 353.721075 -71.501025
L 353.739583 -70.765842
L 353.753926 -70.030658
L 353.765423 -69.295474
L 353.776796 -68.560291
L 353.791951 -67.825107
L 353.81548 -67.089923
L 353.851996 -66.35474
L 353.905516 -65.619556
L 353.979108 -64.884372
L 354.075005 -64.149189
L 354.195189 -63.414005
L 354.342327 -62.678822
L 354.520776 -61.943638
L 354.737402 -61.208454
L 355.002077 -60.473271
L 355.327936 -59.738087
L 355.731526 -59.002903
L 356.232861 -58.26772
L 356.854947 -57.532536
L 357.621829 -56.797353
L 358.553855 -56.062169
L 359.659222 -55.326985
L 360.922131 -54.591802
L 362.290119 -53.856618
L 363.665468 -53.121434
L 364.906735 -52.386251
L 365.844929 -51.651067
L 366.314301 -50.915884
L 366.191264 -50.1807
L 365.429677 -49.445516
L 364.07964 -48.710333
L 362.281592 -47.975149
L 360.236356 -47.239965
L 358.160764 -46.504782
L 356.243401 -45.769598
L 354.613646 -45.034414
L 353.330726 -44.299231
L 352.391574 -43.564047
L 351.75044 -42.828864
z
" style="stroke: #313131; stroke-width: 1.5"/>
    </defs>
    <g clip-path="url(#p9ebd34427d)">
     <use xlink:href="#mca8281c7c9" x="0" y="199.32692" style="fill: #156590; stroke: #313131; stroke-width: 1.5"/>
    </g>
   </g>
   <g id="matplotlib.axis_3">
    <g id="xtick_4">
     <g id="line2d_20">
      <g>
       <use xlink:href="#m4c4e1abd23" x="253.276419" y="163.8" style="stroke: #000000; stroke-width: 0.8"/>
      </g>
     </g>
     <g id="text_13">
      <!-- Indeed -->
      <g transform="translate(241.944365 176.584144) scale(0.0833 -0.0833)">
       <use xlink:href="#TimesNewRomanPSMT-49"/>
       <use xlink:href="#TimesNewRomanPSMT-6e" x="33.300781"/>
       <use xlink:href="#TimesNewRomanPSMT-64" x="83.300781"/>
       <use xlink:href="#TimesNewRomanPSMT-65" x="133.300781"/>
       <use xlink:href="#TimesNewRomanPSMT-65" x="177.685547"/>
       <use xlink:href="#TimesNewRomanPSMT-64" x="222.070312"/>
      </g>
     </g>
    </g>
    <g id="xtick_5">
     <g id="line2d_21">
      <g>
       <use xlink:href="#m4c4e1abd23" x="302.051298" y="163.8" style="stroke: #000000; stroke-width: 0.8"/>
      </g>
     </g>
     <g id="text_14">
      <!-- LinkedIn -->
      <g transform="translate(286.784621 176.584144) scale(0.0833 -0.0833)">
       <use xlink:href="#TimesNewRomanPSMT-4c"/>
       <use xlink:href="#TimesNewRomanPSMT-69" x="61.083984"/>
       <use xlink:href="#TimesNewRomanPSMT-6e" x="88.867188"/>
       <use xlink:href="#TimesNewRomanPSMT-6b" x="138.867188"/>
       <use xlink:href="#TimesNewRomanPSMT-65" x="188.867188"/>
       <use xlink:href="#TimesNewRomanPSMT-64" x="233.251953"/>
       <use xlink:href="#TimesNewRomanPSMT-49" x="283.251953"/>
       <use xlink:href="#TimesNewRomanPSMT-6e" x="316.552734"/>
      </g>
     </g>
    </g>
    <g id="xtick_6">
     <g id="line2d_22">
      <g>
       <use xlink:href="#m4c4e1abd23" x="350.826178" y="163.8" style="stroke: #000000; stroke-width: 0.8"/>
      </g>
     </g>
     <g id="text_15">
      <!-- Glassdoor -->
      <g transform="translate(333.935801 176.584144) scale(0.0833 -0.0833)">
       <use xlink:href="#TimesNewRomanPSMT-47"/>
       <use xlink:href="#TimesNewRomanPSMT-6c" x="72.216797"/>
       <use xlink:href="#TimesNewRomanPSMT-61" x="100"/>
       <use xlink:href="#TimesNewRomanPSMT-73" x="144.384766"/>
       <use xlink:href="#TimesNewRomanPSMT-73" x="183.300781"/>
       <use xlink:href="#TimesNewRomanPSMT-64" x="222.216797"/>
       <use xlink:href="#TimesNewRomanPSMT-6f" x="272.216797"/>
       <use xlink:href="#TimesNewRomanPSMT-6f" x="322.216797"/>
       <use xlink:href="#TimesNewRomanPSMT-72" x="372.216797"/>
      </g>
     </g>
    </g>
    <g id="text_16">
     <!-- Platform -->
     <g transform="translate(281.408798 189.987858) scale(0.1 -0.1)">
      <use xlink:href="#TimesNewRomanPS-BoldMT-50"/>
      <use xlink:href="#TimesNewRomanPS-BoldMT-6c" x="61.083984"/>
      <use xlink:href="#TimesNewRomanPS-BoldMT-61" x="88.867188"/>
      <use xlink:href="#TimesNewRomanPS-BoldMT-74" x="138.867188"/>
      <use xlink:href="#TimesNewRomanPS-BoldMT-66" x="172.167969"/>
      <use xlink:href="#TimesNewRomanPS-BoldMT-6f" x="205.46875"/>
      <use xlink:href="#TimesNewRomanPS-BoldMT-72" x="255.46875"/>
      <use xlink:href="#TimesNewRomanPS-BoldMT-6d" x="299.853516"/>
     </g>
    </g>
   </g>
   <g id="matplotlib.axis_4">
    <g id="ytick_5">
     <g id="line2d_23">
      <g>
       <use xlink:href="#m5b39b280c7" x="227.78322" y="150.807184" style="stroke: #000000; stroke-width: 0.8"/>
      </g>
     </g>
     <g id="text_17">
      <!-- 0.0 -->
      <g transform="translate(210.37072 153.699256) scale(0.0833 -0.0833)">
       <use xlink:href="#TimesNewRomanPSMT-30"/>
       <use xlink:href="#TimesNewRomanPSMT-2e" x="50"/>
       <use xlink:href="#TimesNewRomanPSMT-30" x="75"/>
      </g>
     </g>
    </g>
    <g id="ytick_6">
     <g id="line2d_24">
      <g>
       <use xlink:href="#m5b39b280c7" x="227.78322" y="118.325145" style="stroke: #000000; stroke-width: 0.8"/>
      </g>
     </g>
     <g id="text_18">
      <!-- 0.5 -->
      <g transform="translate(210.37072 121.217217) scale(0.0833 -0.0833)">
       <use xlink:href="#TimesNewRomanPSMT-30"/>
       <use xlink:href="#TimesNewRomanPSMT-2e" x="50"/>
       <use xlink:href="#TimesNewRomanPSMT-35" x="75"/>
      </g>
     </g>
    </g>
    <g id="ytick_7">
     <g id="line2d_25">
      <g>
       <use xlink:href="#m5b39b280c7" x="227.78322" y="85.843105" style="stroke: #000000; stroke-width: 0.8"/>
      </g>
     </g>
     <g id="text_19">
      <!-- 1.0 -->
      <g transform="translate(210.37072 88.735177) scale(0.0833 -0.0833)">
       <use xlink:href="#TimesNewRomanPSMT-31"/>
       <use xlink:href="#TimesNewRomanPSMT-2e" x="50"/>
       <use xlink:href="#TimesNewRomanPSMT-30" x="75"/>
      </g>
     </g>
    </g>
    <g id="ytick_8">
     <g id="line2d_26">
      <g>
       <use xlink:href="#m5b39b280c7" x="227.78322" y="53.361066" style="stroke: #000000; stroke-width: 0.8"/>
      </g>
     </g>
     <g id="text_20">
      <!-- 1.5 -->
      <g transform="translate(210.37072 56.253137) scale(0.0833 -0.0833)">
       <use xlink:href="#TimesNewRomanPSMT-31"/>
       <use xlink:href="#TimesNewRomanPSMT-2e" x="50"/>
       <use xlink:href="#TimesNewRomanPSMT-35" x="75"/>
      </g>
     </g>
    </g>
    <g id="text_21">
     <!-- Competence Probability -->
     <g transform="translate(203.212908 146.208594) rotate(-90) scale(0.1 -0.1)">
      <defs>
       <path id="TimesNewRomanPS-BoldMT-43" d="M 4272 4334
L 4272 2866
L 4150 2866
Q 4013 3441 3638 3747
Q 3263 4053 2788 4053
Q 2391 4053 2059 3825
Q 1728 3597 1575 3228
Q 1378 2756 1378 2178
Q 1378 1609 1522 1142
Q 1666 675 1972 436
Q 2278 197 2766 197
Q 3166 197 3498 372
Q 3831 547 4200 975
L 4200 609
Q 3844 238 3458 70
Q 3072 -97 2556 -97
Q 1878 -97 1351 175
Q 825 447 539 956
Q 253 1466 253 2041
Q 253 2647 570 3190
Q 888 3734 1427 4034
Q 1966 4334 2572 4334
Q 3019 4334 3516 4141
Q 3803 4028 3881 4028
Q 3981 4028 4054 4101
Q 4128 4175 4150 4334
L 4272 4334
z
" transform="scale(0.015625)"/>
       <path id="TimesNewRomanPS-BoldMT-70" d="M 1347 297
L 1347 -791
Q 1347 -1016 1383 -1097
Q 1419 -1178 1494 -1215
Q 1569 -1253 1788 -1253
L 1788 -1369
L 122 -1369
L 122 -1253
Q 316 -1247 409 -1144
Q 472 -1072 472 -772
L 472 2313
Q 472 2622 400 2708
Q 328 2794 122 2806
L 122 2922
L 1347 2922
L 1347 2538
Q 1500 2763 1659 2863
Q 1888 3009 2156 3009
Q 2478 3009 2742 2806
Q 3006 2603 3143 2245
Q 3281 1888 3281 1475
Q 3281 1031 3139 664
Q 2997 297 2726 104
Q 2456 -88 2125 -88
Q 1884 -88 1675 19
Q 1519 100 1347 297
z
M 1347 613
Q 1616 231 1922 231
Q 2091 231 2200 409
Q 2363 672 2363 1409
Q 2363 2166 2184 2444
Q 2066 2628 1866 2628
Q 1550 2628 1347 2172
L 1347 613
z
" transform="scale(0.015625)"/>
       <path id="TimesNewRomanPS-BoldMT-65" d="M 2691 1566
L 1088 1566
Q 1116 984 1397 647
Q 1613 388 1916 388
Q 2103 388 2256 492
Q 2409 597 2584 869
L 2691 800
Q 2453 316 2165 114
Q 1878 -88 1500 -88
Q 850 -88 516 413
Q 247 816 247 1413
Q 247 2144 642 2576
Q 1038 3009 1569 3009
Q 2013 3009 2339 2645
Q 2666 2281 2691 1566
z
M 1922 1775
Q 1922 2278 1867 2465
Q 1813 2653 1697 2750
Q 1631 2806 1522 2806
Q 1359 2806 1256 2647
Q 1072 2369 1072 1884
L 1072 1775
L 1922 1775
z
" transform="scale(0.015625)"/>
       <path id="TimesNewRomanPS-BoldMT-6e" d="M 1409 2922
L 1409 2544
Q 1634 2788 1840 2898
Q 2047 3009 2284 3009
Q 2569 3009 2756 2851
Q 2944 2694 3006 2459
Q 3056 2281 3056 1775
L 3056 638
Q 3056 300 3117 217
Q 3178 134 3372 113
L 3372 0
L 1894 0
L 1894 113
Q 2059 134 2131 250
Q 2181 328 2181 638
L 2181 1938
Q 2181 2297 2153 2390
Q 2125 2484 2058 2536
Q 1991 2588 1909 2588
Q 1641 2588 1409 2203
L 1409 638
Q 1409 309 1470 221
Q 1531 134 1697 113
L 1697 0
L 219 0
L 219 113
Q 403 131 481 231
Q 534 300 534 638
L 534 2288
Q 534 2619 473 2700
Q 413 2781 219 2806
L 219 2922
L 1409 2922
z
" transform="scale(0.015625)"/>
       <path id="TimesNewRomanPS-BoldMT-63" d="M 2600 753
L 2697 678
Q 2491 291 2183 101
Q 1875 -88 1528 -88
Q 944 -88 594 353
Q 244 794 244 1413
Q 244 2009 563 2463
Q 947 3009 1622 3009
Q 2075 3009 2342 2781
Q 2609 2553 2609 2272
Q 2609 2094 2501 1987
Q 2394 1881 2219 1881
Q 2034 1881 1914 2003
Q 1794 2125 1766 2438
Q 1747 2634 1675 2713
Q 1603 2791 1506 2791
Q 1356 2791 1250 2631
Q 1088 2391 1088 1894
Q 1088 1481 1219 1104
Q 1350 728 1578 544
Q 1750 409 1984 409
Q 2138 409 2275 481
Q 2413 553 2600 753
z
" transform="scale(0.015625)"/>
      </defs>
      <use xlink:href="#TimesNewRomanPS-BoldMT-43"/>
      <use xlink:href="#TimesNewRomanPS-BoldMT-6f" x="72.216797"/>
      <use xlink:href="#TimesNewRomanPS-BoldMT-6d" x="122.216797"/>
      <use xlink:href="#TimesNewRomanPS-BoldMT-70" x="205.517578"/>
      <use xlink:href="#TimesNewRomanPS-BoldMT-65" x="261.132812"/>
      <use xlink:href="#TimesNewRomanPS-BoldMT-74" x="305.517578"/>
      <use xlink:href="#TimesNewRomanPS-BoldMT-65" x="338.818359"/>
      <use xlink:href="#TimesNewRomanPS-BoldMT-6e" x="383.203125"/>
      <use xlink:href="#TimesNewRomanPS-BoldMT-63" x="438.818359"/>
      <use xlink:href="#TimesNewRomanPS-BoldMT-65" x="483.203125"/>
      <use xlink:href="#TimesNewRomanPS-BoldMT-20" x="527.587891"/>
      <use xlink:href="#TimesNewRomanPS-BoldMT-50" x="552.587891"/>
      <use xlink:href="#TimesNewRomanPS-BoldMT-72" x="613.671875"/>
      <use xlink:href="#TimesNewRomanPS-BoldMT-6f" x="656.306641"/>
      <use xlink:href="#TimesNewRomanPS-BoldMT-62" x="706.306641"/>
      <use xlink:href="#TimesNewRomanPS-BoldMT-61" x="761.921875"/>
      <use xlink:href="#TimesNewRomanPS-BoldMT-62" x="811.921875"/>
      <use xlink:href="#TimesNewRomanPS-BoldMT-69" x="867.537109"/>
      <use xlink:href="#TimesNewRomanPS-BoldMT-6c" x="895.320312"/>
      <use xlink:href="#TimesNewRomanPS-BoldMT-69" x="923.103516"/>
      <use xlink:href="#TimesNewRomanPS-BoldMT-74" x="950.886719"/>
      <use xlink:href="#TimesNewRomanPS-BoldMT-79" x="984.1875"/>
     </g>
    </g>
   </g>
   <g id="line2d_27">
    <path d="M 240.085502 146.040823
L 266.467335 146.040823
" clip-path="url(#p9ebd34427d)" style="fill: none; stroke-dasharray: 3.375,3.375; stroke-dashoffset: 0; stroke: #313131; stroke-width: 1.5"/>
   </g>
   <g id="line2d_28">
    <path d="M 250.325287 114.2138
L 256.22755 114.2138
" clip-path="url(#p9ebd34427d)" style="fill: none; stroke-dasharray: 6.75,6.75; stroke-dashoffset: 0; stroke: #313131; stroke-width: 1.5"/>
   </g>
   <g id="line2d_29">
    <path d="M 236.33193 97.111732
L 270.220908 97.111732
" clip-path="url(#p9ebd34427d)" style="fill: none; stroke-dasharray: 3.375,3.375; stroke-dashoffset: 0; stroke: #313131; stroke-width: 1.5"/>
   </g>
   <g id="line2d_30">
    <path d="M 287.734836 146.224001
L 316.36776 146.224001
" clip-path="url(#p9ebd34427d)" style="fill: none; stroke-dasharray: 3.375,3.375; stroke-dashoffset: 0; stroke: #313131; stroke-width: 1.5"/>
   </g>
   <g id="line2d_31">
    <path d="M 299.12475 116.807552
L 304.977846 116.807552
" clip-path="url(#p9ebd34427d)" style="fill: none; stroke-dasharray: 6.75,6.75; stroke-dashoffset: 0; stroke: #313131; stroke-width: 1.5"/>
   </g>
   <g id="line2d_32">
    <path d="M 286.209487 97.858289
L 317.893109 97.858289
" clip-path="url(#p9ebd34427d)" style="fill: none; stroke-dasharray: 3.375,3.375; stroke-dashoffset: 0; stroke: #313131; stroke-width: 1.5"/>
   </g>
   <g id="line2d_33">
    <path d="M 338.11528 146.257973
L 363.537075 146.257973
" clip-path="url(#p9ebd34427d)" style="fill: none; stroke-dasharray: 3.375,3.375; stroke-dashoffset: 0; stroke: #313131; stroke-width: 1.5"/>
   </g>
   <g id="line2d_34">
    <path d="M 347.961039 115.601815
L 353.691316 115.601815
" clip-path="url(#p9ebd34427d)" style="fill: none; stroke-dasharray: 6.75,6.75; stroke-dashoffset: 0; stroke: #313131; stroke-width: 1.5"/>
   </g>
   <g id="line2d_35">
    <path d="M 335.410907 97.264375
L 366.241448 97.264375
" clip-path="url(#p9ebd34427d)" style="fill: none; stroke-dasharray: 3.375,3.375; stroke-dashoffset: 0; stroke: #313131; stroke-width: 1.5"/>
   </g>
   <g id="line2d_36">
    <path d="M 253.276419 91.654749
L 253.276419 86.197767
L 302.051298 86.197767
L 302.051298 91.654749
" clip-path="url(#p9ebd34427d)" style="fill: none; stroke: #333333; stroke-width: 1.5; stroke-linecap: square"/>
   </g>
   <g id="line2d_37">
    <path d="M 302.051298 68.296554
L 302.051298 62.839571
L 350.826178 62.839571
L 350.826178 68.296554
" clip-path="url(#p9ebd34427d)" style="fill: none; stroke: #333333; stroke-width: 1.5; stroke-linecap: square"/>
   </g>
   <g id="line2d_38">
    <path d="M 253.276419 44.938358
L 253.276419 39.481376
L 350.826178 39.481376
L 350.826178 44.938358
" clip-path="url(#p9ebd34427d)" style="fill: none; stroke: #333333; stroke-width: 1.5; stroke-linecap: square"/>
   </g>
   <g id="patch_6">
    <path d="M 227.78322 163.8
L 227.78322 25.2
" style="fill: none; stroke: #000000; stroke-width: 0.8; stroke-linejoin: miter; stroke-linecap: square"/>
   </g>
   <g id="patch_7">
    <path d="M 227.78322 163.8
L 373.348438 163.8
" style="fill: none; stroke: #000000; stroke-width: 0.8; stroke-linejoin: miter; stroke-linecap: square"/>
   </g>
   <g id="text_22">
    <!-- t-test_welch p ≤ *** -->
    <g transform="translate(243.568127 79.400309) scale(0.0833 -0.0833)">
     <use xlink:href="#TimesNewRomanPSMT-74"/>
     <use xlink:href="#TimesNewRomanPSMT-2d" x="27.783203"/>
     <use xlink:href="#TimesNewRomanPSMT-74" x="61.083984"/>
     <use xlink:href="#TimesNewRomanPSMT-65" x="88.867188"/>
     <use xlink:href="#TimesNewRomanPSMT-73" x="133.251953"/>
     <use xlink:href="#TimesNewRomanPSMT-74" x="172.167969"/>
     <use xlink:href="#TimesNewRomanPSMT-5f" x="199.951172"/>
     <use xlink:href="#TimesNewRomanPSMT-77" x="249.951172"/>
     <use xlink:href="#TimesNewRomanPSMT-65" x="322.167969"/>
     <use xlink:href="#TimesNewRomanPSMT-6c" x="366.552734"/>
     <use xlink:href="#TimesNewRomanPSMT-63" x="394.335938"/>
     <use xlink:href="#TimesNewRomanPSMT-68" x="438.720703"/>
     <use xlink:href="#TimesNewRomanPSMT-20" x="488.720703"/>
     <use xlink:href="#TimesNewRomanPSMT-70" x="513.720703"/>
     <use xlink:href="#TimesNewRomanPSMT-20" x="563.720703"/>
     <use xlink:href="#TimesNewRomanPSMT-2264" x="588.720703"/>
     <use xlink:href="#TimesNewRomanPSMT-20" x="643.603516"/>
     <use xlink:href="#TimesNewRomanPSMT-2a" x="668.603516"/>
     <use xlink:href="#TimesNewRomanPSMT-2a" x="718.603516"/>
     <use xlink:href="#TimesNewRomanPSMT-2a" x="768.603516"/>
    </g>
   </g>
   <g id="text_23">
    <!-- t-test_welch p ≤ ** -->
    <g transform="translate(294.425507 56.042113) scale(0.0833 -0.0833)">
     <use xlink:href="#TimesNewRomanPSMT-74"/>
     <use xlink:href="#TimesNewRomanPSMT-2d" x="27.783203"/>
     <use xlink:href="#TimesNewRomanPSMT-74" x="61.083984"/>
     <use xlink:href="#TimesNewRomanPSMT-65" x="88.867188"/>
     <use xlink:href="#TimesNewRomanPSMT-73" x="133.251953"/>
     <use xlink:href="#TimesNewRomanPSMT-74" x="172.167969"/>
     <use xlink:href="#TimesNewRomanPSMT-5f" x="199.951172"/>
     <use xlink:href="#TimesNewRomanPSMT-77" x="249.951172"/>
     <use xlink:href="#TimesNewRomanPSMT-65" x="322.167969"/>
     <use xlink:href="#TimesNewRomanPSMT-6c" x="366.552734"/>
     <use xlink:href="#TimesNewRomanPSMT-63" x="394.335938"/>
     <use xlink:href="#TimesNewRomanPSMT-68" x="438.720703"/>
     <use xlink:href="#TimesNewRomanPSMT-20" x="488.720703"/>
     <use xlink:href="#TimesNewRomanPSMT-70" x="513.720703"/>
     <use xlink:href="#TimesNewRomanPSMT-20" x="563.720703"/>
     <use xlink:href="#TimesNewRomanPSMT-2264" x="588.720703"/>
     <use xlink:href="#TimesNewRomanPSMT-20" x="643.603516"/>
     <use xlink:href="#TimesNewRomanPSMT-2a" x="668.603516"/>
     <use xlink:href="#TimesNewRomanPSMT-2a" x="718.603516"/>
    </g>
   </g>
   <g id="text_24">
    <!-- t-test_welch p ≤ * -->
    <g transform="translate(272.120567 32.683918) scale(0.0833 -0.0833)">
     <use xlink:href="#TimesNewRomanPSMT-74"/>
     <use xlink:href="#TimesNewRomanPSMT-2d" x="27.783203"/>
     <use xlink:href="#TimesNewRomanPSMT-74" x="61.083984"/>
     <use xlink:href="#TimesNewRomanPSMT-65" x="88.867188"/>
     <use xlink:href="#TimesNewRomanPSMT-73" x="133.251953"/>
     <use xlink:href="#TimesNewRomanPSMT-74" x="172.167969"/>
     <use xlink:href="#TimesNewRomanPSMT-5f" x="199.951172"/>
     <use xlink:href="#TimesNewRomanPSMT-77" x="249.951172"/>
     <use xlink:href="#TimesNewRomanPSMT-65" x="322.167969"/>
     <use xlink:href="#TimesNewRomanPSMT-6c" x="366.552734"/>
     <use xlink:href="#TimesNewRomanPSMT-63" x="394.335938"/>
     <use xlink:href="#TimesNewRomanPSMT-68" x="438.720703"/>
     <use xlink:href="#TimesNewRomanPSMT-20" x="488.720703"/>
     <use xlink:href="#TimesNewRomanPSMT-70" x="513.720703"/>
     <use xlink:href="#TimesNewRomanPSMT-20" x="563.720703"/>
     <use xlink:href="#TimesNewRomanPSMT-2264" x="588.720703"/>
     <use xlink:href="#TimesNewRomanPSMT-20" x="643.603516"/>
     <use xlink:href="#TimesNewRomanPSMT-2a" x="668.603516"/>
    </g>
   </g>
  </g>
  <g id="text_25">
   <!-- Classifier Labeled Distribution of Warmth and Competence x Platform -->
   <g transform="translate(18.441875 15.33375) scale(0.12 -0.12)">
    <defs>
     <path id="TimesNewRomanPS-BoldMT-73" d="M 2063 3003
L 2109 2006
L 2003 2006
Q 1813 2450 1608 2612
Q 1403 2775 1200 2775
Q 1072 2775 981 2689
Q 891 2603 891 2491
Q 891 2406 953 2328
Q 1053 2200 1512 1889
Q 1972 1578 2117 1361
Q 2263 1144 2263 875
Q 2263 631 2141 397
Q 2019 163 1797 37
Q 1575 -88 1306 -88
Q 1097 -88 747 44
Q 653 78 619 78
Q 516 78 447 -78
L 344 -78
L 294 972
L 400 972
Q 541 559 786 353
Q 1031 147 1250 147
Q 1400 147 1495 239
Q 1591 331 1591 463
Q 1591 613 1497 722
Q 1403 831 1078 1053
Q 600 1384 459 1559
Q 253 1816 253 2125
Q 253 2463 486 2736
Q 719 3009 1159 3009
Q 1397 3009 1619 2894
Q 1703 2847 1756 2847
Q 1813 2847 1847 2870
Q 1881 2894 1956 3003
L 2063 3003
z
" transform="scale(0.015625)"/>
     <path id="TimesNewRomanPS-BoldMT-4c" d="M 4041 1488
L 3881 0
L 119 0
L 119 116
L 259 116
Q 444 116 556 181
Q 638 225 681 331
Q 716 406 716 725
L 716 3513
Q 716 3838 681 3919
Q 647 4000 542 4061
Q 438 4122 259 4122
L 119 4122
L 119 4238
L 2378 4238
L 2378 4122
L 2194 4122
Q 2009 4122 1897 4056
Q 1816 4013 1769 3906
Q 1734 3831 1734 3513
L 1734 813
Q 1734 488 1771 398
Q 1809 309 1919 266
Q 1997 238 2297 238
L 2650 238
Q 2988 238 3213 356
Q 3438 475 3602 731
Q 3766 988 3913 1488
L 4041 1488
z
" transform="scale(0.015625)"/>
     <path id="TimesNewRomanPS-BoldMT-64" d="M 3056 4238
L 3056 875
Q 3056 534 3075 472
Q 3100 369 3170 319
Q 3241 269 3416 256
L 3416 153
L 2181 -88
L 2181 375
Q 1959 106 1786 9
Q 1613 -88 1394 -88
Q 834 -88 509 413
Q 247 819 247 1409
Q 247 1881 409 2254
Q 572 2628 855 2818
Q 1138 3009 1463 3009
Q 1672 3009 1834 2928
Q 1997 2847 2181 2644
L 2181 3525
Q 2181 3859 2153 3928
Q 2116 4019 2041 4062
Q 1966 4106 1759 4106
L 1759 4238
L 3056 4238
z
M 2181 2256
Q 1950 2700 1616 2700
Q 1500 2700 1425 2638
Q 1309 2541 1236 2297
Q 1163 2053 1163 1550
Q 1163 997 1244 731
Q 1325 466 1466 347
Q 1538 288 1663 288
Q 1938 288 2181 719
L 2181 2256
z
" transform="scale(0.015625)"/>
     <path id="TimesNewRomanPS-BoldMT-44" d="M 84 0
L 84 116
L 225 116
Q 409 116 507 173
Q 606 231 653 331
Q 681 397 681 725
L 681 3513
Q 681 3838 647 3919
Q 613 4000 508 4061
Q 403 4122 225 4122
L 84 4122
L 84 4238
L 1981 4238
Q 2741 4238 3203 4031
Q 3769 3778 4061 3265
Q 4353 2753 4353 2106
Q 4353 1659 4209 1282
Q 4066 906 3837 661
Q 3609 416 3311 267
Q 3013 119 2581 38
Q 2391 0 1981 0
L 84 0
z
M 1700 3997
L 1700 691
Q 1700 428 1725 368
Q 1750 309 1809 278
Q 1894 231 2053 231
Q 2575 231 2850 588
Q 3225 1069 3225 2081
Q 3225 2897 2969 3384
Q 2766 3766 2447 3903
Q 2222 4000 1700 3997
z
" transform="scale(0.015625)"/>
     <path id="TimesNewRomanPS-BoldMT-75" d="M 3038 2922
L 3038 634
Q 3038 300 3100 217
Q 3163 134 3353 113
L 3353 0
L 2163 0
L 2163 391
Q 1953 141 1743 26
Q 1534 -88 1275 -88
Q 1028 -88 836 64
Q 644 216 578 419
Q 513 622 513 1128
L 513 2288
Q 513 2619 452 2700
Q 391 2781 197 2806
L 197 2922
L 1388 2922
L 1388 925
Q 1388 613 1417 522
Q 1447 431 1511 384
Q 1575 338 1659 338
Q 1772 338 1863 397
Q 1988 478 2163 725
L 2163 2288
Q 2163 2619 2102 2700
Q 2041 2781 1847 2806
L 1847 2922
L 3038 2922
z
" transform="scale(0.015625)"/>
     <path id="TimesNewRomanPS-BoldMT-78" d="M 1944 1791
L 2450 828
Q 2713 325 2866 191
Q 2950 119 3097 113
L 3097 0
L 1469 0
L 1469 113
Q 1659 128 1704 162
Q 1750 197 1750 256
Q 1750 344 1650 531
L 1397 1006
L 1181 691
Q 1034 475 1016 434
Q 991 375 991 328
Q 991 256 1020 207
Q 1050 159 1101 136
Q 1153 113 1291 113
L 1291 0
L 147 0
L 147 113
Q 359 113 536 230
Q 713 347 1050 844
L 1291 1200
L 788 2131
Q 541 2588 419 2691
Q 297 2794 147 2806
L 147 2922
L 1766 2922
L 1766 2806
L 1681 2803
L 1519 2747
Q 1494 2725 1494 2675
Q 1494 2628 1509 2578
Q 1519 2556 1597 2409
L 1825 1984
L 1944 2153
Q 2194 2497 2194 2634
Q 2194 2700 2139 2745
Q 2084 2791 1944 2806
L 1944 2922
L 2978 2922
L 2978 2806
Q 2788 2800 2622 2689
Q 2456 2578 2250 2259
L 1944 1791
z
" transform="scale(0.015625)"/>
    </defs>
    <use xlink:href="#TimesNewRomanPS-BoldMT-43"/>
    <use xlink:href="#TimesNewRomanPS-BoldMT-6c" x="72.216797"/>
    <use xlink:href="#TimesNewRomanPS-BoldMT-61" x="100"/>
    <use xlink:href="#TimesNewRomanPS-BoldMT-73" x="150"/>
    <use xlink:href="#TimesNewRomanPS-BoldMT-73" x="188.916016"/>
    <use xlink:href="#TimesNewRomanPS-BoldMT-69" x="227.832031"/>
    <use xlink:href="#TimesNewRomanPS-BoldMT-66" x="255.615234"/>
    <use xlink:href="#TimesNewRomanPS-BoldMT-69" x="288.916016"/>
    <use xlink:href="#TimesNewRomanPS-BoldMT-65" x="316.699219"/>
    <use xlink:href="#TimesNewRomanPS-BoldMT-72" x="361.083984"/>
    <use xlink:href="#TimesNewRomanPS-BoldMT-20" x="403.71875"/>
    <use xlink:href="#TimesNewRomanPS-BoldMT-4c" x="428.71875"/>
    <use xlink:href="#TimesNewRomanPS-BoldMT-61" x="495.417969"/>
    <use xlink:href="#TimesNewRomanPS-BoldMT-62" x="545.417969"/>
    <use xlink:href="#TimesNewRomanPS-BoldMT-65" x="601.033203"/>
    <use xlink:href="#TimesNewRomanPS-BoldMT-6c" x="645.417969"/>
    <use xlink:href="#TimesNewRomanPS-BoldMT-65" x="673.201172"/>
    <use xlink:href="#TimesNewRomanPS-BoldMT-64" x="717.585938"/>
    <use xlink:href="#TimesNewRomanPS-BoldMT-20" x="773.201172"/>
    <use xlink:href="#TimesNewRomanPS-BoldMT-44" x="798.201172"/>
    <use xlink:href="#TimesNewRomanPS-BoldMT-69" x="870.417969"/>
    <use xlink:href="#TimesNewRomanPS-BoldMT-73" x="898.201172"/>
    <use xlink:href="#TimesNewRomanPS-BoldMT-74" x="937.117188"/>
    <use xlink:href="#TimesNewRomanPS-BoldMT-72" x="970.417969"/>
    <use xlink:href="#TimesNewRomanPS-BoldMT-69" x="1014.802734"/>
    <use xlink:href="#TimesNewRomanPS-BoldMT-62" x="1042.585938"/>
    <use xlink:href="#TimesNewRomanPS-BoldMT-75" x="1098.201172"/>
    <use xlink:href="#TimesNewRomanPS-BoldMT-74" x="1153.816406"/>
    <use xlink:href="#TimesNewRomanPS-BoldMT-69" x="1187.117188"/>
    <use xlink:href="#TimesNewRomanPS-BoldMT-6f" x="1214.900391"/>
    <use xlink:href="#TimesNewRomanPS-BoldMT-6e" x="1264.900391"/>
    <use xlink:href="#TimesNewRomanPS-BoldMT-20" x="1320.515625"/>
    <use xlink:href="#TimesNewRomanPS-BoldMT-6f" x="1345.515625"/>
    <use xlink:href="#TimesNewRomanPS-BoldMT-66" x="1395.515625"/>
    <use xlink:href="#TimesNewRomanPS-BoldMT-20" x="1428.816406"/>
    <use xlink:href="#TimesNewRomanPS-BoldMT-57" x="1452.066406"/>
    <use xlink:href="#TimesNewRomanPS-BoldMT-61" x="1546.566406"/>
    <use xlink:href="#TimesNewRomanPS-BoldMT-72" x="1596.566406"/>
    <use xlink:href="#TimesNewRomanPS-BoldMT-6d" x="1640.951172"/>
    <use xlink:href="#TimesNewRomanPS-BoldMT-74" x="1724.251953"/>
    <use xlink:href="#TimesNewRomanPS-BoldMT-68" x="1757.552734"/>
    <use xlink:href="#TimesNewRomanPS-BoldMT-20" x="1813.167969"/>
    <use xlink:href="#TimesNewRomanPS-BoldMT-61" x="1838.167969"/>
    <use xlink:href="#TimesNewRomanPS-BoldMT-6e" x="1888.167969"/>
    <use xlink:href="#TimesNewRomanPS-BoldMT-64" x="1943.783203"/>
    <use xlink:href="#TimesNewRomanPS-BoldMT-20" x="1999.398438"/>
    <use xlink:href="#TimesNewRomanPS-BoldMT-43" x="2024.398438"/>
    <use xlink:href="#TimesNewRomanPS-BoldMT-6f" x="2096.615234"/>
    <use xlink:href="#TimesNewRomanPS-BoldMT-6d" x="2146.615234"/>
    <use xlink:href="#TimesNewRomanPS-BoldMT-70" x="2229.916016"/>
    <use xlink:href="#TimesNewRomanPS-BoldMT-65" x="2285.53125"/>
    <use xlink:href="#TimesNewRomanPS-BoldMT-74" x="2329.916016"/>
    <use xlink:href="#TimesNewRomanPS-BoldMT-65" x="2363.216797"/>
    <use xlink:href="#TimesNewRomanPS-BoldMT-6e" x="2407.601562"/>
    <use xlink:href="#TimesNewRomanPS-BoldMT-63" x="2463.216797"/>
    <use xlink:href="#TimesNewRomanPS-BoldMT-65" x="2507.601562"/>
    <use xlink:href="#TimesNewRomanPS-BoldMT-20" x="2551.986328"/>
    <use xlink:href="#TimesNewRomanPS-BoldMT-78" x="2576.986328"/>
    <use xlink:href="#TimesNewRomanPS-BoldMT-20" x="2626.986328"/>
    <use xlink:href="#TimesNewRomanPS-BoldMT-50" x="2651.986328"/>
    <use xlink:href="#TimesNewRomanPS-BoldMT-6c" x="2713.070312"/>
    <use xlink:href="#TimesNewRomanPS-BoldMT-61" x="2740.853516"/>
    <use xlink:href="#TimesNewRomanPS-BoldMT-74" x="2790.853516"/>
    <use xlink:href="#TimesNewRomanPS-BoldMT-66" x="2824.154297"/>
    <use xlink:href="#TimesNewRomanPS-BoldMT-6f" x="2857.455078"/>
    <use xlink:href="#TimesNewRomanPS-BoldMT-72" x="2907.455078"/>
    <use xlink:href="#TimesNewRomanPS-BoldMT-6d" x="2951.839844"/>
   </g>
  </g>
 </g>
 <defs>
  <clipPath id="pa367ccb236">
   <rect x="38.548438" y="25.2" width="145.565217" height="138.6"/>
  </clipPath>
  <clipPath id="p9ebd34427d">
   <rect x="227.78322" y="25.2" width="145.565217" height="138.6"/>
  </clipPath>
 </defs>
</svg>
