<?xml version="1.0" encoding="utf-8" standalone="no"?>
<!DOCTYPE svg PUBLIC "-//W3C//DTD SVG 1.1//EN"
  "http://www.w3.org/Graphics/SVG/1.1/DTD/svg11.dtd">
<svg xmlns:xlink="http://www.w3.org/1999/xlink" width="556.890833pt" height="343.56767pt" viewBox="0 0 556.890833 343.56767" xmlns="http://www.w3.org/2000/svg" version="1.1">
 <metadata>
  <rdf:RDF xmlns:dc="http://purl.org/dc/elements/1.1/" xmlns:cc="http://creativecommons.org/ns#" xmlns:rdf="http://www.w3.org/1999/02/22-rdf-syntax-ns#">
   <cc:Work>
    <dc:type rdf:resource="http://purl.org/dc/dcmitype/StillImage"/>
    <dc:date>2023-06-03T05:47:28.822337</dc:date>
    <dc:format>image/svg+xml</dc:format>
    <dc:creator>
     <cc:Agent>
      <dc:title>Matplotlib v3.7.1, https://matplotlib.org/</dc:title>
     </cc:Agent>
    </dc:creator>
   </cc:Work>
  </rdf:RDF>
 </metadata>
 <defs>
  <style type="text/css">*{stroke-linejoin: round; stroke-linecap: butt}</style>
 </defs>
 <g id="figure_1">
  <g id="patch_1">
   <path d="M -0 343.56767
L 556.890833 343.56767
L 556.890833 0
L -0 0
z
" style="fill: #ffffff"/>
  </g>
  <g id="axes_1">
   <g id="patch_2">
    <path d="M 151.740833 307.872
L 508.860833 307.872
L 508.860833 41.76
L 151.740833 41.76
z
" style="fill: #ffffff"/>
   </g>
   <g id="patch_3">
    <path d="M 151.740833 303.714
L 154.409742 303.714
L 154.409742 295.398
L 151.740833 295.398
z
" clip-path="url(#p5cb1b1b0b9)" style="fill: #006ba4"/>
   </g>
   <g id="patch_4">
    <path d="M 151.740833 287.082
L 166.419831 287.082
L 166.419831 278.766
L 151.740833 278.766
z
" clip-path="url(#p5cb1b1b0b9)" style="fill: #006ba4"/>
   </g>
   <g id="patch_5">
    <path d="M 151.740833 270.45
L 341.767132 270.45
L 341.767132 262.134
L 151.740833 262.134
z
" clip-path="url(#p5cb1b1b0b9)" style="fill: #006ba4"/>
   </g>
   <g id="patch_6">
    <path d="M 151.740833 253.818
L 155.34386 253.818
L 155.34386 245.502
L 151.740833 245.502
z
" clip-path="url(#p5cb1b1b0b9)" style="fill: #006ba4"/>
   </g>
   <g id="patch_7">
    <path d="M 151.740833 237.186
L 156.945205 237.186
L 156.945205 228.87
L 151.740833 228.87
z
" clip-path="url(#p5cb1b1b0b9)" style="fill: #006ba4"/>
   </g>
   <g id="patch_8">
    <path d="M 151.740833 220.554
L 170.556639 220.554
L 170.556639 212.238
L 151.740833 212.238
z
" clip-path="url(#p5cb1b1b0b9)" style="fill: #006ba4"/>
   </g>
   <g id="patch_9">
    <path d="M 151.740833 203.922
L 161.082013 203.922
L 161.082013 195.606
L 151.740833 195.606
z
" clip-path="url(#p5cb1b1b0b9)" style="fill: #006ba4"/>
   </g>
   <g id="patch_10">
    <path d="M 151.740833 187.29
L 178.963701 187.29
L 178.963701 178.974
L 151.740833 178.974
z
" clip-path="url(#p5cb1b1b0b9)" style="fill: #006ba4"/>
   </g>
   <g id="patch_11">
    <path d="M 151.740833 170.658
L 160.281341 170.658
L 160.281341 162.342
L 151.740833 162.342
z
" clip-path="url(#p5cb1b1b0b9)" style="fill: #006ba4"/>
   </g>
   <g id="patch_12">
    <path d="M 151.740833 154.026
L 164.818485 154.026
L 164.818485 145.71
L 151.740833 145.71
z
" clip-path="url(#p5cb1b1b0b9)" style="fill: #006ba4"/>
   </g>
   <g id="patch_13">
    <path d="M 151.740833 137.394
L 160.815122 137.394
L 160.815122 129.078
L 151.740833 129.078
z
" clip-path="url(#p5cb1b1b0b9)" style="fill: #006ba4"/>
   </g>
   <g id="patch_14">
    <path d="M 151.740833 120.762
L 168.154621 120.762
L 168.154621 112.446
L 151.740833 112.446
z
" clip-path="url(#p5cb1b1b0b9)" style="fill: #006ba4"/>
   </g>
   <g id="patch_15">
    <path d="M 151.740833 104.13
L 171.891093 104.13
L 171.891093 95.814
L 151.740833 95.814
z
" clip-path="url(#p5cb1b1b0b9)" style="fill: #006ba4"/>
   </g>
   <g id="patch_16">
    <path d="M 151.740833 87.498
L 162.149577 87.498
L 162.149577 79.182
L 151.740833 79.182
z
" clip-path="url(#p5cb1b1b0b9)" style="fill: #006ba4"/>
   </g>
   <g id="patch_17">
    <path d="M 151.740833 70.866
L 163.083695 70.866
L 163.083695 62.55
L 151.740833 62.55
z
" clip-path="url(#p5cb1b1b0b9)" style="fill: #006ba4"/>
   </g>
   <g id="patch_18">
    <path d="M 151.740833 54.234
L 160.414786 54.234
L 160.414786 45.918
L 151.740833 45.918
z
" clip-path="url(#p5cb1b1b0b9)" style="fill: #006ba4"/>
   </g>
   <g id="patch_19">
    <path d="M 154.409742 303.714
L 156.011087 303.714
L 156.011087 295.398
L 154.409742 295.398
z
" clip-path="url(#p5cb1b1b0b9)" style="fill: #c85200"/>
   </g>
   <g id="patch_20">
    <path d="M 166.419831 287.082
L 170.556639 287.082
L 170.556639 278.766
L 166.419831 278.766
z
" clip-path="url(#p5cb1b1b0b9)" style="fill: #c85200"/>
   </g>
   <g id="patch_21">
    <path d="M 341.767132 270.45
L 459.466005 270.45
L 459.466005 262.134
L 341.767132 262.134
z
" clip-path="url(#p5cb1b1b0b9)" style="fill: #c85200"/>
   </g>
   <g id="patch_22">
    <path d="M 155.34386 253.818
L 158.012768 253.818
L 158.012768 245.502
L 155.34386 245.502
z
" clip-path="url(#p5cb1b1b0b9)" style="fill: #c85200"/>
   </g>
   <g id="patch_23">
    <path d="M 156.945205 237.186
L 160.815122 237.186
L 160.815122 228.87
L 156.945205 228.87
z
" clip-path="url(#p5cb1b1b0b9)" style="fill: #c85200"/>
   </g>
   <g id="patch_24">
    <path d="M 170.556639 220.554
L 182.967065 220.554
L 182.967065 212.238
L 170.556639 212.238
z
" clip-path="url(#p5cb1b1b0b9)" style="fill: #c85200"/>
   </g>
   <g id="patch_25">
    <path d="M 161.082013 203.922
L 164.551595 203.922
L 164.551595 195.606
L 161.082013 195.606
z
" clip-path="url(#p5cb1b1b0b9)" style="fill: #c85200"/>
   </g>
   <g id="patch_26">
    <path d="M 178.963701 187.29
L 197.245726 187.29
L 197.245726 178.974
L 178.963701 178.974
z
" clip-path="url(#p5cb1b1b0b9)" style="fill: #c85200"/>
   </g>
   <g id="patch_27">
    <path d="M 160.281341 170.658
L 165.218822 170.658
L 165.218822 162.342
L 160.281341 162.342
z
" clip-path="url(#p5cb1b1b0b9)" style="fill: #c85200"/>
   </g>
   <g id="patch_28">
    <path d="M 164.818485 154.026
L 169.889412 154.026
L 169.889412 145.71
L 164.818485 145.71
z
" clip-path="url(#p5cb1b1b0b9)" style="fill: #c85200"/>
   </g>
   <g id="patch_29">
    <path d="M 160.815122 137.394
L 165.619158 137.394
L 165.619158 129.078
L 160.815122 129.078
z
" clip-path="url(#p5cb1b1b0b9)" style="fill: #c85200"/>
   </g>
   <g id="patch_30">
    <path d="M 168.154621 120.762
L 178.296474 120.762
L 178.296474 112.446
L 168.154621 112.446
z
" clip-path="url(#p5cb1b1b0b9)" style="fill: #c85200"/>
   </g>
   <g id="patch_31">
    <path d="M 171.891093 104.13
L 182.433283 104.13
L 182.433283 95.814
L 171.891093 95.814
z
" clip-path="url(#p5cb1b1b0b9)" style="fill: #c85200"/>
   </g>
   <g id="patch_32">
    <path d="M 162.149577 87.498
L 168.688403 87.498
L 168.688403 79.182
L 162.149577 79.182
z
" clip-path="url(#p5cb1b1b0b9)" style="fill: #c85200"/>
   </g>
   <g id="patch_33">
    <path d="M 163.083695 70.866
L 168.154621 70.866
L 168.154621 62.55
L 163.083695 62.55
z
" clip-path="url(#p5cb1b1b0b9)" style="fill: #c85200"/>
   </g>
   <g id="patch_34">
    <path d="M 160.414786 54.234
L 164.68504 54.234
L 164.68504 45.918
L 160.414786 45.918
z
" clip-path="url(#p5cb1b1b0b9)" style="fill: #c85200"/>
   </g>
   <g id="matplotlib.axis_1">
    <g id="xtick_1">
     <g id="line2d_1">
      <defs>
       <path id="m46811435d0" d="M 0 0
L 0 3.5
" style="stroke: #000000; stroke-width: 0.8"/>
      </defs>
      <g>
       <use xlink:href="#m46811435d0" x="151.740833" y="307.872" style="stroke: #000000; stroke-width: 0.8"/>
      </g>
     </g>
     <g id="text_1">
      <!-- 0 -->
      <g transform="translate(149.658333 320.656144) scale(0.0833 -0.0833)">
       <defs>
        <path id="TimesNewRomanPSMT-30" d="M 231 2094
Q 231 2819 450 3342
Q 669 3866 1031 4122
Q 1313 4325 1613 4325
Q 2100 4325 2488 3828
Q 2972 3213 2972 2159
Q 2972 1422 2759 906
Q 2547 391 2217 158
Q 1888 -75 1581 -75
Q 975 -75 572 641
Q 231 1244 231 2094
z
M 844 2016
Q 844 1141 1059 588
Q 1238 122 1591 122
Q 1759 122 1940 273
Q 2122 425 2216 781
Q 2359 1319 2359 2297
Q 2359 3022 2209 3506
Q 2097 3866 1919 4016
Q 1791 4119 1609 4119
Q 1397 4119 1231 3928
Q 1006 3669 925 3112
Q 844 2556 844 2016
z
" transform="scale(0.015625)"/>
       </defs>
       <use xlink:href="#TimesNewRomanPSMT-30"/>
      </g>
     </g>
    </g>
    <g id="xtick_2">
     <g id="line2d_2">
      <g>
       <use xlink:href="#m46811435d0" x="191.420833" y="307.872" style="stroke: #000000; stroke-width: 0.8"/>
      </g>
     </g>
     <g id="text_2">
      <!-- 5 -->
      <g transform="translate(189.338333 320.656144) scale(0.0833 -0.0833)">
       <defs>
        <path id="TimesNewRomanPSMT-35" d="M 2778 4238
L 2534 3706
L 1259 3706
L 981 3138
Q 1809 3016 2294 2522
Q 2709 2097 2709 1522
Q 2709 1188 2573 903
Q 2438 619 2231 419
Q 2025 219 1772 97
Q 1413 -75 1034 -75
Q 653 -75 479 54
Q 306 184 306 341
Q 306 428 378 495
Q 450 563 559 563
Q 641 563 702 538
Q 763 513 909 409
Q 1144 247 1384 247
Q 1750 247 2026 523
Q 2303 800 2303 1197
Q 2303 1581 2056 1914
Q 1809 2247 1375 2428
Q 1034 2569 447 2591
L 1259 4238
L 2778 4238
z
" transform="scale(0.015625)"/>
       </defs>
       <use xlink:href="#TimesNewRomanPSMT-35"/>
      </g>
     </g>
    </g>
    <g id="xtick_3">
     <g id="line2d_3">
      <g>
       <use xlink:href="#m46811435d0" x="231.100833" y="307.872" style="stroke: #000000; stroke-width: 0.8"/>
      </g>
     </g>
     <g id="text_3">
      <!-- 10 -->
      <g transform="translate(226.935833 320.656144) scale(0.0833 -0.0833)">
       <defs>
        <path id="TimesNewRomanPSMT-31" d="M 750 3822
L 1781 4325
L 1884 4325
L 1884 747
Q 1884 391 1914 303
Q 1944 216 2037 169
Q 2131 122 2419 116
L 2419 0
L 825 0
L 825 116
Q 1125 122 1212 167
Q 1300 213 1334 289
Q 1369 366 1369 747
L 1369 3034
Q 1369 3497 1338 3628
Q 1316 3728 1258 3775
Q 1200 3822 1119 3822
Q 1003 3822 797 3725
L 750 3822
z
" transform="scale(0.015625)"/>
       </defs>
       <use xlink:href="#TimesNewRomanPSMT-31"/>
       <use xlink:href="#TimesNewRomanPSMT-30" x="50"/>
      </g>
     </g>
    </g>
    <g id="xtick_4">
     <g id="line2d_4">
      <g>
       <use xlink:href="#m46811435d0" x="270.780833" y="307.872" style="stroke: #000000; stroke-width: 0.8"/>
      </g>
     </g>
     <g id="text_4">
      <!-- 15 -->
      <g transform="translate(266.615833 320.656144) scale(0.0833 -0.0833)">
       <use xlink:href="#TimesNewRomanPSMT-31"/>
       <use xlink:href="#TimesNewRomanPSMT-35" x="50"/>
      </g>
     </g>
    </g>
    <g id="xtick_5">
     <g id="line2d_5">
      <g>
       <use xlink:href="#m46811435d0" x="310.460833" y="307.872" style="stroke: #000000; stroke-width: 0.8"/>
      </g>
     </g>
     <g id="text_5">
      <!-- 20 -->
      <g transform="translate(306.295833 320.656144) scale(0.0833 -0.0833)">
       <defs>
        <path id="TimesNewRomanPSMT-32" d="M 2934 816
L 2638 0
L 138 0
L 138 116
Q 1241 1122 1691 1759
Q 2141 2397 2141 2925
Q 2141 3328 1894 3587
Q 1647 3847 1303 3847
Q 991 3847 742 3664
Q 494 3481 375 3128
L 259 3128
Q 338 3706 661 4015
Q 984 4325 1469 4325
Q 1984 4325 2329 3994
Q 2675 3663 2675 3213
Q 2675 2891 2525 2569
Q 2294 2063 1775 1497
Q 997 647 803 472
L 1909 472
Q 2247 472 2383 497
Q 2519 522 2628 598
Q 2738 675 2819 816
L 2934 816
z
" transform="scale(0.015625)"/>
       </defs>
       <use xlink:href="#TimesNewRomanPSMT-32"/>
       <use xlink:href="#TimesNewRomanPSMT-30" x="50"/>
      </g>
     </g>
    </g>
    <g id="xtick_6">
     <g id="line2d_6">
      <g>
       <use xlink:href="#m46811435d0" x="350.140833" y="307.872" style="stroke: #000000; stroke-width: 0.8"/>
      </g>
     </g>
     <g id="text_6">
      <!-- 25 -->
      <g transform="translate(345.975833 320.656144) scale(0.0833 -0.0833)">
       <use xlink:href="#TimesNewRomanPSMT-32"/>
       <use xlink:href="#TimesNewRomanPSMT-35" x="50"/>
      </g>
     </g>
    </g>
    <g id="xtick_7">
     <g id="line2d_7">
      <g>
       <use xlink:href="#m46811435d0" x="389.820833" y="307.872" style="stroke: #000000; stroke-width: 0.8"/>
      </g>
     </g>
     <g id="text_7">
      <!-- 30 -->
      <g transform="translate(385.655833 320.656144) scale(0.0833 -0.0833)">
       <defs>
        <path id="TimesNewRomanPSMT-33" d="M 325 3431
Q 506 3859 782 4092
Q 1059 4325 1472 4325
Q 1981 4325 2253 3994
Q 2459 3747 2459 3466
Q 2459 3003 1878 2509
Q 2269 2356 2469 2072
Q 2669 1788 2669 1403
Q 2669 853 2319 450
Q 1863 -75 997 -75
Q 569 -75 414 31
Q 259 138 259 259
Q 259 350 332 419
Q 406 488 509 488
Q 588 488 669 463
Q 722 447 909 348
Q 1097 250 1169 231
Q 1284 197 1416 197
Q 1734 197 1970 444
Q 2206 691 2206 1028
Q 2206 1275 2097 1509
Q 2016 1684 1919 1775
Q 1784 1900 1550 2001
Q 1316 2103 1072 2103
L 972 2103
L 972 2197
Q 1219 2228 1467 2375
Q 1716 2522 1828 2728
Q 1941 2934 1941 3181
Q 1941 3503 1739 3701
Q 1538 3900 1238 3900
Q 753 3900 428 3381
L 325 3431
z
" transform="scale(0.015625)"/>
       </defs>
       <use xlink:href="#TimesNewRomanPSMT-33"/>
       <use xlink:href="#TimesNewRomanPSMT-30" x="50"/>
      </g>
     </g>
    </g>
    <g id="xtick_8">
     <g id="line2d_8">
      <g>
       <use xlink:href="#m46811435d0" x="429.500833" y="307.872" style="stroke: #000000; stroke-width: 0.8"/>
      </g>
     </g>
     <g id="text_8">
      <!-- 35 -->
      <g transform="translate(425.335833 320.656144) scale(0.0833 -0.0833)">
       <use xlink:href="#TimesNewRomanPSMT-33"/>
       <use xlink:href="#TimesNewRomanPSMT-35" x="50"/>
      </g>
     </g>
    </g>
    <g id="xtick_9">
     <g id="line2d_9">
      <g>
       <use xlink:href="#m46811435d0" x="469.180833" y="307.872" style="stroke: #000000; stroke-width: 0.8"/>
      </g>
     </g>
     <g id="text_9">
      <!-- 40 -->
      <g transform="translate(465.015833 320.656144) scale(0.0833 -0.0833)">
       <defs>
        <path id="TimesNewRomanPSMT-34" d="M 2978 1563
L 2978 1119
L 2409 1119
L 2409 0
L 1894 0
L 1894 1119
L 100 1119
L 100 1519
L 2066 4325
L 2409 4325
L 2409 1563
L 2978 1563
z
M 1894 1563
L 1894 3666
L 406 1563
L 1894 1563
z
" transform="scale(0.015625)"/>
       </defs>
       <use xlink:href="#TimesNewRomanPSMT-34"/>
       <use xlink:href="#TimesNewRomanPSMT-30" x="50"/>
      </g>
     </g>
    </g>
    <g id="xtick_10">
     <g id="line2d_10">
      <g>
       <use xlink:href="#m46811435d0" x="508.860833" y="307.872" style="stroke: #000000; stroke-width: 0.8"/>
      </g>
     </g>
     <g id="text_10">
      <!-- 45 -->
      <g transform="translate(504.695833 320.656144) scale(0.0833 -0.0833)">
       <use xlink:href="#TimesNewRomanPSMT-34"/>
       <use xlink:href="#TimesNewRomanPSMT-35" x="50"/>
      </g>
     </g>
    </g>
    <g id="text_11">
     <!-- Job Ad Sentences Percentages (%) -->
     <g transform="translate(256.788333 334.209858) scale(0.1 -0.1)">
      <defs>
       <path id="TimesNewRomanPS-BoldMT-4a" d="M 909 4122
L 909 4238
L 3163 4238
L 3163 4122
L 3025 4122
Q 2838 4122 2725 4056
Q 2647 4013 2600 3906
Q 2566 3831 2566 3513
L 2566 1438
Q 2566 828 2444 551
Q 2322 275 2011 89
Q 1700 -97 1263 -97
Q 728 -97 398 184
Q 69 466 69 806
Q 69 1025 203 1161
Q 338 1297 531 1297
Q 722 1297 851 1175
Q 981 1053 981 875
Q 981 788 959 722
Q 947 691 861 564
Q 775 438 775 384
Q 775 303 856 244
Q 975 156 1166 156
Q 1300 156 1387 225
Q 1475 294 1511 439
Q 1547 584 1547 1247
L 1547 3513
Q 1547 3838 1511 3919
Q 1475 4000 1370 4061
Q 1266 4122 1088 4122
L 909 4122
z
" transform="scale(0.015625)"/>
       <path id="TimesNewRomanPS-BoldMT-6f" d="M 1594 3009
Q 1975 3009 2303 2812
Q 2631 2616 2801 2253
Q 2972 1891 2972 1459
Q 2972 838 2656 419
Q 2275 -88 1603 -88
Q 944 -88 587 375
Q 231 838 231 1447
Q 231 2075 595 2542
Q 959 3009 1594 3009
z
M 1606 2788
Q 1447 2788 1333 2667
Q 1219 2547 1183 2192
Q 1147 1838 1147 1206
Q 1147 872 1191 581
Q 1225 359 1337 243
Q 1450 128 1594 128
Q 1734 128 1828 206
Q 1950 313 1991 503
Q 2053 800 2053 1703
Q 2053 2234 1993 2432
Q 1934 2631 1819 2722
Q 1738 2788 1606 2788
z
" transform="scale(0.015625)"/>
       <path id="TimesNewRomanPS-BoldMT-62" d="M 1347 4238
L 1347 2628
Q 1716 3009 2153 3009
Q 2453 3009 2718 2832
Q 2984 2656 3134 2331
Q 3284 2006 3284 1581
Q 3284 1103 3093 712
Q 2903 322 2584 117
Q 2266 -88 1856 -88
Q 1619 -88 1434 -12
Q 1250 63 1072 231
L 588 -84
L 481 -84
L 481 3631
Q 481 3884 459 3944
Q 428 4031 361 4073
Q 294 4116 134 4122
L 134 4238
L 1347 4238
z
M 1347 2350
L 1347 1050
Q 1347 653 1366 544
Q 1397 359 1515 245
Q 1634 131 1819 131
Q 1978 131 2092 222
Q 2206 313 2282 581
Q 2359 850 2359 1550
Q 2359 2222 2191 2472
Q 2069 2653 1863 2653
Q 1594 2653 1347 2350
z
" transform="scale(0.015625)"/>
       <path id="TimesNewRomanPS-BoldMT-20" transform="scale(0.015625)"/>
       <path id="TimesNewRomanPS-BoldMT-41" d="M 2663 1206
L 1166 1206
L 988 794
Q 900 588 900 453
Q 900 275 1044 191
Q 1128 141 1459 116
L 1459 0
L 50 0
L 50 116
Q 278 150 425 304
Q 572 459 788 944
L 2303 4325
L 2363 4325
L 3891 850
Q 4109 356 4250 228
Q 4356 131 4550 116
L 4550 0
L 2500 0
L 2500 116
L 2584 116
Q 2831 116 2931 184
Q 3000 234 3000 328
Q 3000 384 2981 444
Q 2975 472 2888 678
L 2663 1206
z
M 2556 1438
L 1925 2897
L 1275 1438
L 2556 1438
z
" transform="scale(0.015625)"/>
       <path id="TimesNewRomanPS-BoldMT-64" d="M 3056 4238
L 3056 875
Q 3056 534 3075 472
Q 3100 369 3170 319
Q 3241 269 3416 256
L 3416 153
L 2181 -88
L 2181 375
Q 1959 106 1786 9
Q 1613 -88 1394 -88
Q 834 -88 509 413
Q 247 819 247 1409
Q 247 1881 409 2254
Q 572 2628 855 2818
Q 1138 3009 1463 3009
Q 1672 3009 1834 2928
Q 1997 2847 2181 2644
L 2181 3525
Q 2181 3859 2153 3928
Q 2116 4019 2041 4062
Q 1966 4106 1759 4106
L 1759 4238
L 3056 4238
z
M 2181 2256
Q 1950 2700 1616 2700
Q 1500 2700 1425 2638
Q 1309 2541 1236 2297
Q 1163 2053 1163 1550
Q 1163 997 1244 731
Q 1325 466 1466 347
Q 1538 288 1663 288
Q 1938 288 2181 719
L 2181 2256
z
" transform="scale(0.015625)"/>
       <path id="TimesNewRomanPS-BoldMT-53" d="M 3006 4334
L 3041 2922
L 2913 2922
Q 2822 3453 2467 3776
Q 2113 4100 1700 4100
Q 1381 4100 1195 3929
Q 1009 3759 1009 3538
Q 1009 3397 1075 3288
Q 1166 3141 1366 2997
Q 1513 2894 2044 2631
Q 2788 2266 3047 1941
Q 3303 1616 3303 1197
Q 3303 666 2889 283
Q 2475 -100 1838 -100
Q 1638 -100 1459 -59
Q 1281 -19 1013 94
Q 863 156 766 156
Q 684 156 593 93
Q 503 31 447 -97
L 331 -97
L 331 1503
L 447 1503
Q 584 828 976 473
Q 1369 119 1822 119
Q 2172 119 2380 309
Q 2588 500 2588 753
Q 2588 903 2508 1043
Q 2428 1184 2265 1311
Q 2103 1438 1691 1641
Q 1113 1925 859 2125
Q 606 2325 470 2572
Q 334 2819 334 3116
Q 334 3622 706 3978
Q 1078 4334 1644 4334
Q 1850 4334 2044 4284
Q 2191 4247 2402 4145
Q 2613 4044 2697 4044
Q 2778 4044 2825 4094
Q 2872 4144 2913 4334
L 3006 4334
z
" transform="scale(0.015625)"/>
       <path id="TimesNewRomanPS-BoldMT-65" d="M 2691 1566
L 1088 1566
Q 1116 984 1397 647
Q 1613 388 1916 388
Q 2103 388 2256 492
Q 2409 597 2584 869
L 2691 800
Q 2453 316 2165 114
Q 1878 -88 1500 -88
Q 850 -88 516 413
Q 247 816 247 1413
Q 247 2144 642 2576
Q 1038 3009 1569 3009
Q 2013 3009 2339 2645
Q 2666 2281 2691 1566
z
M 1922 1775
Q 1922 2278 1867 2465
Q 1813 2653 1697 2750
Q 1631 2806 1522 2806
Q 1359 2806 1256 2647
Q 1072 2369 1072 1884
L 1072 1775
L 1922 1775
z
" transform="scale(0.015625)"/>
       <path id="TimesNewRomanPS-BoldMT-6e" d="M 1409 2922
L 1409 2544
Q 1634 2788 1840 2898
Q 2047 3009 2284 3009
Q 2569 3009 2756 2851
Q 2944 2694 3006 2459
Q 3056 2281 3056 1775
L 3056 638
Q 3056 300 3117 217
Q 3178 134 3372 113
L 3372 0
L 1894 0
L 1894 113
Q 2059 134 2131 250
Q 2181 328 2181 638
L 2181 1938
Q 2181 2297 2153 2390
Q 2125 2484 2058 2536
Q 1991 2588 1909 2588
Q 1641 2588 1409 2203
L 1409 638
Q 1409 309 1470 221
Q 1531 134 1697 113
L 1697 0
L 219 0
L 219 113
Q 403 131 481 231
Q 534 300 534 638
L 534 2288
Q 534 2619 473 2700
Q 413 2781 219 2806
L 219 2922
L 1409 2922
z
" transform="scale(0.015625)"/>
       <path id="TimesNewRomanPS-BoldMT-74" d="M 1375 3991
L 1375 2922
L 2069 2922
L 2069 2613
L 1375 2613
L 1375 809
Q 1375 556 1398 482
Q 1422 409 1481 364
Q 1541 319 1591 319
Q 1794 319 1975 628
L 2069 559
Q 1816 -41 1247 -41
Q 969 -41 776 114
Q 584 269 531 459
Q 500 566 500 1034
L 500 2613
L 119 2613
L 119 2722
Q 513 3000 789 3306
Q 1066 3613 1272 3991
L 1375 3991
z
" transform="scale(0.015625)"/>
       <path id="TimesNewRomanPS-BoldMT-63" d="M 2600 753
L 2697 678
Q 2491 291 2183 101
Q 1875 -88 1528 -88
Q 944 -88 594 353
Q 244 794 244 1413
Q 244 2009 563 2463
Q 947 3009 1622 3009
Q 2075 3009 2342 2781
Q 2609 2553 2609 2272
Q 2609 2094 2501 1987
Q 2394 1881 2219 1881
Q 2034 1881 1914 2003
Q 1794 2125 1766 2438
Q 1747 2634 1675 2713
Q 1603 2791 1506 2791
Q 1356 2791 1250 2631
Q 1088 2391 1088 1894
Q 1088 1481 1219 1104
Q 1350 728 1578 544
Q 1750 409 1984 409
Q 2138 409 2275 481
Q 2413 553 2600 753
z
" transform="scale(0.015625)"/>
       <path id="TimesNewRomanPS-BoldMT-73" d="M 2063 3003
L 2109 2006
L 2003 2006
Q 1813 2450 1608 2612
Q 1403 2775 1200 2775
Q 1072 2775 981 2689
Q 891 2603 891 2491
Q 891 2406 953 2328
Q 1053 2200 1512 1889
Q 1972 1578 2117 1361
Q 2263 1144 2263 875
Q 2263 631 2141 397
Q 2019 163 1797 37
Q 1575 -88 1306 -88
Q 1097 -88 747 44
Q 653 78 619 78
Q 516 78 447 -78
L 344 -78
L 294 972
L 400 972
Q 541 559 786 353
Q 1031 147 1250 147
Q 1400 147 1495 239
Q 1591 331 1591 463
Q 1591 613 1497 722
Q 1403 831 1078 1053
Q 600 1384 459 1559
Q 253 1816 253 2125
Q 253 2463 486 2736
Q 719 3009 1159 3009
Q 1397 3009 1619 2894
Q 1703 2847 1756 2847
Q 1813 2847 1847 2870
Q 1881 2894 1956 3003
L 2063 3003
z
" transform="scale(0.015625)"/>
       <path id="TimesNewRomanPS-BoldMT-50" d="M 1728 1919
L 1728 744
Q 1728 400 1770 311
Q 1813 222 1920 169
Q 2028 116 2316 116
L 2316 0
L 163 0
L 163 116
Q 456 116 561 170
Q 666 225 708 312
Q 750 400 750 744
L 750 3494
Q 750 3838 708 3927
Q 666 4016 559 4069
Q 453 4122 163 4122
L 163 4238
L 2009 4238
Q 2922 4238 3319 3913
Q 3716 3588 3716 3100
Q 3716 2688 3459 2394
Q 3203 2100 2753 1994
Q 2450 1919 1728 1919
z
M 1728 3994
L 1728 2163
Q 1831 2156 1884 2156
Q 2266 2156 2472 2382
Q 2678 2609 2678 3084
Q 2678 3556 2472 3775
Q 2266 3994 1856 3994
L 1728 3994
z
" transform="scale(0.015625)"/>
       <path id="TimesNewRomanPS-BoldMT-72" d="M 1428 2922
L 1428 2259
Q 1719 2713 1937 2861
Q 2156 3009 2359 3009
Q 2534 3009 2639 2901
Q 2744 2794 2744 2597
Q 2744 2388 2642 2272
Q 2541 2156 2397 2156
Q 2231 2156 2109 2262
Q 1988 2369 1966 2381
Q 1934 2400 1894 2400
Q 1803 2400 1722 2331
Q 1594 2225 1528 2028
Q 1428 1725 1428 1359
L 1428 688
L 1431 513
Q 1431 334 1453 284
Q 1491 200 1564 161
Q 1638 122 1813 113
L 1813 0
L 234 0
L 234 113
Q 425 128 492 217
Q 559 306 559 688
L 559 2303
Q 559 2553 534 2622
Q 503 2709 443 2750
Q 384 2791 234 2806
L 234 2922
L 1428 2922
z
" transform="scale(0.015625)"/>
       <path id="TimesNewRomanPS-BoldMT-61" d="M 1828 431
Q 1294 -41 869 -41
Q 619 -41 453 123
Q 288 288 288 534
Q 288 869 575 1136
Q 863 1403 1828 1847
L 1828 2141
Q 1828 2472 1792 2558
Q 1756 2644 1656 2708
Q 1556 2772 1431 2772
Q 1228 2772 1097 2681
Q 1016 2625 1016 2550
Q 1016 2484 1103 2388
Q 1222 2253 1222 2128
Q 1222 1975 1108 1867
Q 994 1759 809 1759
Q 613 1759 480 1878
Q 347 1997 347 2156
Q 347 2381 525 2586
Q 703 2791 1022 2900
Q 1341 3009 1684 3009
Q 2100 3009 2342 2832
Q 2584 2656 2656 2450
Q 2700 2319 2700 1847
L 2700 713
Q 2700 513 2715 461
Q 2731 409 2762 384
Q 2794 359 2834 359
Q 2916 359 3000 475
L 3094 400
Q 2938 169 2770 64
Q 2603 -41 2391 -41
Q 2141 -41 2000 76
Q 1859 194 1828 431
z
M 1828 659
L 1828 1638
Q 1450 1416 1266 1163
Q 1144 994 1144 822
Q 1144 678 1247 569
Q 1325 484 1466 484
Q 1622 484 1828 659
z
" transform="scale(0.015625)"/>
       <path id="TimesNewRomanPS-BoldMT-67" d="M 2091 2888
L 3075 2888
L 3075 2544
L 2516 2544
Q 2669 2391 2728 2266
Q 2803 2097 2803 1913
Q 2803 1600 2629 1370
Q 2456 1141 2157 1011
Q 1859 881 1628 881
Q 1609 881 1253 897
Q 1113 897 1017 805
Q 922 713 922 584
Q 922 472 1008 400
Q 1094 328 1288 328
L 1828 334
Q 2484 334 2731 191
Q 3084 -9 3084 -425
Q 3084 -691 2921 -908
Q 2759 -1125 2494 -1228
Q 2091 -1381 1566 -1381
Q 1172 -1381 847 -1304
Q 522 -1228 381 -1092
Q 241 -956 241 -806
Q 241 -663 348 -548
Q 456 -434 750 -356
Q 344 -156 344 200
Q 344 416 509 619
Q 675 822 1034 972
Q 616 1125 428 1375
Q 241 1625 241 1953
Q 241 2381 591 2695
Q 941 3009 1491 3009
Q 1781 3009 2091 2888
z
M 1550 2816
Q 1369 2816 1244 2633
Q 1119 2450 1119 1875
Q 1119 1409 1242 1236
Q 1366 1063 1534 1063
Q 1722 1063 1847 1234
Q 1972 1406 1972 1903
Q 1972 2463 1831 2666
Q 1731 2816 1550 2816
z
M 1366 -431
Q 1047 -431 944 -484
Q 766 -581 766 -747
Q 766 -906 950 -1036
Q 1134 -1166 1644 -1166
Q 2078 -1166 2326 -1050
Q 2575 -934 2575 -725
Q 2575 -647 2528 -594
Q 2444 -500 2273 -465
Q 2103 -431 1366 -431
z
" transform="scale(0.015625)"/>
       <path id="TimesNewRomanPS-BoldMT-28" d="M 2056 4334
L 2056 4191
Q 1731 3978 1578 3775
Q 1366 3494 1247 3053
Q 1097 2506 1097 1525
Q 1097 600 1233 87
Q 1369 -425 1603 -741
Q 1766 -959 2056 -1125
L 2056 -1281
Q 1303 -1028 779 -248
Q 256 531 256 1544
Q 256 2544 778 3314
Q 1300 4084 2056 4334
z
" transform="scale(0.015625)"/>
       <path id="TimesNewRomanPS-BoldMT-25" d="M 4916 4334
L 1906 -178
L 1488 -178
L 4494 4334
L 4916 4334
z
M 1494 4334
Q 1938 4334 2242 4020
Q 2547 3706 2547 3209
Q 2547 2700 2240 2383
Q 1934 2066 1481 2066
Q 1034 2066 739 2372
Q 444 2678 444 3178
Q 444 3694 747 4014
Q 1050 4334 1494 4334
z
M 1494 4169
Q 1425 4169 1381 4128
Q 1303 4056 1264 3879
Q 1225 3703 1225 3150
Q 1225 2709 1278 2469
Q 1309 2331 1384 2263
Q 1431 2222 1494 2222
Q 1563 2222 1603 2259
Q 1675 2325 1709 2472
Q 1763 2709 1763 3138
Q 1763 3663 1713 3897
Q 1678 4059 1600 4134
Q 1563 4169 1494 4169
z
M 4894 2097
Q 5347 2097 5651 1786
Q 5956 1475 5956 972
Q 5956 463 5647 144
Q 5338 -175 4900 -175
Q 4466 -175 4161 144
Q 3856 463 3856 963
Q 3856 1466 4153 1781
Q 4450 2097 4894 2097
z
M 4903 1934
Q 4841 1934 4797 1897
Q 4722 1828 4681 1658
Q 4641 1488 4641 1006
Q 4641 494 4688 269
Q 4722 109 4803 38
Q 4844 0 4909 0
Q 4969 0 5006 34
Q 5084 106 5122 269
Q 5175 497 5175 959
Q 5175 1447 5125 1672
Q 5088 1834 5013 1900
Q 4975 1934 4903 1934
z
" transform="scale(0.015625)"/>
       <path id="TimesNewRomanPS-BoldMT-29" d="M 78 -1281
L 78 -1138
Q 403 -922 556 -719
Q 766 -438 888 0
Q 1038 550 1038 1531
Q 1038 2456 902 2967
Q 766 3478 531 3794
Q 369 4013 78 4178
L 78 4334
Q 831 4081 1354 3301
Q 1878 2522 1878 1509
Q 1878 513 1354 -257
Q 831 -1028 78 -1281
z
" transform="scale(0.015625)"/>
      </defs>
      <use xlink:href="#TimesNewRomanPS-BoldMT-4a"/>
      <use xlink:href="#TimesNewRomanPS-BoldMT-6f" x="50"/>
      <use xlink:href="#TimesNewRomanPS-BoldMT-62" x="100"/>
      <use xlink:href="#TimesNewRomanPS-BoldMT-20" x="155.615234"/>
      <use xlink:href="#TimesNewRomanPS-BoldMT-41" x="175.115234"/>
      <use xlink:href="#TimesNewRomanPS-BoldMT-64" x="247.332031"/>
      <use xlink:href="#TimesNewRomanPS-BoldMT-20" x="302.947266"/>
      <use xlink:href="#TimesNewRomanPS-BoldMT-53" x="327.947266"/>
      <use xlink:href="#TimesNewRomanPS-BoldMT-65" x="383.5625"/>
      <use xlink:href="#TimesNewRomanPS-BoldMT-6e" x="427.947266"/>
      <use xlink:href="#TimesNewRomanPS-BoldMT-74" x="483.5625"/>
      <use xlink:href="#TimesNewRomanPS-BoldMT-65" x="516.863281"/>
      <use xlink:href="#TimesNewRomanPS-BoldMT-6e" x="561.248047"/>
      <use xlink:href="#TimesNewRomanPS-BoldMT-63" x="616.863281"/>
      <use xlink:href="#TimesNewRomanPS-BoldMT-65" x="661.248047"/>
      <use xlink:href="#TimesNewRomanPS-BoldMT-73" x="705.632812"/>
      <use xlink:href="#TimesNewRomanPS-BoldMT-20" x="744.548828"/>
      <use xlink:href="#TimesNewRomanPS-BoldMT-50" x="769.548828"/>
      <use xlink:href="#TimesNewRomanPS-BoldMT-65" x="830.632812"/>
      <use xlink:href="#TimesNewRomanPS-BoldMT-72" x="875.017578"/>
      <use xlink:href="#TimesNewRomanPS-BoldMT-63" x="917.652344"/>
      <use xlink:href="#TimesNewRomanPS-BoldMT-65" x="962.037109"/>
      <use xlink:href="#TimesNewRomanPS-BoldMT-6e" x="1006.421875"/>
      <use xlink:href="#TimesNewRomanPS-BoldMT-74" x="1062.037109"/>
      <use xlink:href="#TimesNewRomanPS-BoldMT-61" x="1095.337891"/>
      <use xlink:href="#TimesNewRomanPS-BoldMT-67" x="1145.337891"/>
      <use xlink:href="#TimesNewRomanPS-BoldMT-65" x="1195.337891"/>
      <use xlink:href="#TimesNewRomanPS-BoldMT-73" x="1239.722656"/>
      <use xlink:href="#TimesNewRomanPS-BoldMT-20" x="1278.638672"/>
      <use xlink:href="#TimesNewRomanPS-BoldMT-28" x="1303.638672"/>
      <use xlink:href="#TimesNewRomanPS-BoldMT-25" x="1336.939453"/>
      <use xlink:href="#TimesNewRomanPS-BoldMT-29" x="1436.939453"/>
     </g>
    </g>
   </g>
   <g id="matplotlib.axis_2">
    <g id="ytick_1">
     <g id="line2d_11">
      <defs>
       <path id="mc4f3b09b9e" d="M 0 0
L -3.5 0
" style="stroke: #000000; stroke-width: 0.8"/>
      </defs>
      <g>
       <use xlink:href="#mc4f3b09b9e" x="151.740833" y="299.556" style="stroke: #000000; stroke-width: 0.8"/>
      </g>
     </g>
     <g id="text_12">
      <!-- Water supply and waste management -->
      <g transform="translate(20.960938 302.448072) scale(0.0833 -0.0833)">
       <defs>
        <path id="TimesNewRomanPSMT-57" d="M 5991 4238
L 5991 4122
Q 5825 4122 5722 4062
Q 5619 4003 5525 3841
Q 5463 3731 5328 3319
L 4147 -97
L 4022 -97
L 3056 2613
L 2097 -97
L 1984 -97
L 725 3422
Q 584 3816 547 3888
Q 484 4006 376 4064
Q 269 4122 84 4122
L 84 4238
L 1653 4238
L 1653 4122
L 1578 4122
Q 1413 4122 1325 4047
Q 1238 3972 1238 3866
Q 1238 3756 1375 3363
L 2209 984
L 2913 3006
L 2788 3363
L 2688 3647
Q 2622 3803 2541 3922
Q 2500 3981 2441 4022
Q 2363 4078 2284 4103
Q 2225 4122 2097 4122
L 2097 4238
L 3747 4238
L 3747 4122
L 3634 4122
Q 3459 4122 3378 4047
Q 3297 3972 3297 3844
Q 3297 3684 3438 3288
L 4250 984
L 5056 3319
Q 5194 3706 5194 3856
Q 5194 3928 5148 3990
Q 5103 4053 5034 4078
Q 4916 4122 4725 4122
L 4725 4238
L 5991 4238
z
" transform="scale(0.015625)"/>
        <path id="TimesNewRomanPSMT-61" d="M 1822 413
Q 1381 72 1269 19
Q 1100 -59 909 -59
Q 613 -59 420 144
Q 228 347 228 678
Q 228 888 322 1041
Q 450 1253 767 1440
Q 1084 1628 1822 1897
L 1822 2009
Q 1822 2438 1686 2597
Q 1550 2756 1291 2756
Q 1094 2756 978 2650
Q 859 2544 859 2406
L 866 2225
Q 866 2081 792 2003
Q 719 1925 600 1925
Q 484 1925 411 2006
Q 338 2088 338 2228
Q 338 2497 613 2722
Q 888 2947 1384 2947
Q 1766 2947 2009 2819
Q 2194 2722 2281 2516
Q 2338 2381 2338 1966
L 2338 994
Q 2338 584 2353 492
Q 2369 400 2405 369
Q 2441 338 2488 338
Q 2538 338 2575 359
Q 2641 400 2828 588
L 2828 413
Q 2478 -56 2159 -56
Q 2006 -56 1915 50
Q 1825 156 1822 413
z
M 1822 616
L 1822 1706
Q 1350 1519 1213 1441
Q 966 1303 859 1153
Q 753 1003 753 825
Q 753 600 887 451
Q 1022 303 1197 303
Q 1434 303 1822 616
z
" transform="scale(0.015625)"/>
        <path id="TimesNewRomanPSMT-74" d="M 1031 3803
L 1031 2863
L 1700 2863
L 1700 2644
L 1031 2644
L 1031 788
Q 1031 509 1111 412
Q 1191 316 1316 316
Q 1419 316 1516 380
Q 1613 444 1666 569
L 1788 569
Q 1678 263 1478 108
Q 1278 -47 1066 -47
Q 922 -47 784 33
Q 647 113 581 261
Q 516 409 516 719
L 516 2644
L 63 2644
L 63 2747
Q 234 2816 414 2980
Q 594 3144 734 3369
Q 806 3488 934 3803
L 1031 3803
z
" transform="scale(0.015625)"/>
        <path id="TimesNewRomanPSMT-65" d="M 681 1784
Q 678 1147 991 784
Q 1303 422 1725 422
Q 2006 422 2214 576
Q 2422 731 2563 1106
L 2659 1044
Q 2594 616 2278 264
Q 1963 -88 1488 -88
Q 972 -88 605 314
Q 238 716 238 1394
Q 238 2128 614 2539
Q 991 2950 1559 2950
Q 2041 2950 2350 2633
Q 2659 2316 2659 1784
L 681 1784
z
M 681 1966
L 2006 1966
Q 1991 2241 1941 2353
Q 1863 2528 1708 2628
Q 1553 2728 1384 2728
Q 1125 2728 920 2526
Q 716 2325 681 1966
z
" transform="scale(0.015625)"/>
        <path id="TimesNewRomanPSMT-72" d="M 1038 2947
L 1038 2303
Q 1397 2947 1775 2947
Q 1947 2947 2059 2842
Q 2172 2738 2172 2600
Q 2172 2478 2090 2393
Q 2009 2309 1897 2309
Q 1788 2309 1652 2417
Q 1516 2525 1450 2525
Q 1394 2525 1328 2463
Q 1188 2334 1038 2041
L 1038 669
Q 1038 431 1097 309
Q 1138 225 1241 169
Q 1344 113 1538 113
L 1538 0
L 72 0
L 72 113
Q 291 113 397 181
Q 475 231 506 341
Q 522 394 522 644
L 522 1753
Q 522 2253 501 2348
Q 481 2444 426 2487
Q 372 2531 291 2531
Q 194 2531 72 2484
L 41 2597
L 906 2947
L 1038 2947
z
" transform="scale(0.015625)"/>
        <path id="TimesNewRomanPSMT-20" transform="scale(0.015625)"/>
        <path id="TimesNewRomanPSMT-73" d="M 2050 2947
L 2050 1972
L 1947 1972
Q 1828 2431 1642 2597
Q 1456 2763 1169 2763
Q 950 2763 815 2647
Q 681 2531 681 2391
Q 681 2216 781 2091
Q 878 1963 1175 1819
L 1631 1597
Q 2266 1288 2266 781
Q 2266 391 1970 151
Q 1675 -88 1309 -88
Q 1047 -88 709 6
Q 606 38 541 38
Q 469 38 428 -44
L 325 -44
L 325 978
L 428 978
Q 516 541 762 319
Q 1009 97 1316 97
Q 1531 97 1667 223
Q 1803 350 1803 528
Q 1803 744 1651 891
Q 1500 1038 1047 1263
Q 594 1488 453 1669
Q 313 1847 313 2119
Q 313 2472 555 2709
Q 797 2947 1181 2947
Q 1350 2947 1591 2875
Q 1750 2828 1803 2828
Q 1853 2828 1881 2850
Q 1909 2872 1947 2947
L 2050 2947
z
" transform="scale(0.015625)"/>
        <path id="TimesNewRomanPSMT-75" d="M 2709 2863
L 2709 1128
Q 2709 631 2732 520
Q 2756 409 2807 365
Q 2859 322 2928 322
Q 3025 322 3147 375
L 3191 266
L 2334 -88
L 2194 -88
L 2194 519
Q 1825 119 1631 15
Q 1438 -88 1222 -88
Q 981 -88 804 51
Q 628 191 559 409
Q 491 628 491 1028
L 491 2306
Q 491 2509 447 2587
Q 403 2666 317 2708
Q 231 2750 6 2747
L 6 2863
L 1009 2863
L 1009 947
Q 1009 547 1148 422
Q 1288 297 1484 297
Q 1619 297 1789 381
Q 1959 466 2194 703
L 2194 2325
Q 2194 2569 2105 2655
Q 2016 2741 1734 2747
L 1734 2863
L 2709 2863
z
" transform="scale(0.015625)"/>
        <path id="TimesNewRomanPSMT-70" d="M -6 2578
L 875 2934
L 994 2934
L 994 2266
Q 1216 2644 1439 2795
Q 1663 2947 1909 2947
Q 2341 2947 2628 2609
Q 2981 2197 2981 1534
Q 2981 794 2556 309
Q 2206 -88 1675 -88
Q 1444 -88 1275 -22
Q 1150 25 994 166
L 994 -706
Q 994 -1000 1030 -1079
Q 1066 -1159 1155 -1206
Q 1244 -1253 1478 -1253
L 1478 -1369
L -22 -1369
L -22 -1253
L 56 -1253
Q 228 -1256 350 -1188
Q 409 -1153 442 -1076
Q 475 -1000 475 -688
L 475 2019
Q 475 2297 450 2372
Q 425 2447 370 2484
Q 316 2522 222 2522
Q 147 2522 31 2478
L -6 2578
z
M 994 2081
L 994 1013
Q 994 666 1022 556
Q 1066 375 1236 237
Q 1406 100 1666 100
Q 1978 100 2172 344
Q 2425 663 2425 1241
Q 2425 1897 2138 2250
Q 1938 2494 1663 2494
Q 1513 2494 1366 2419
Q 1253 2363 994 2081
z
" transform="scale(0.015625)"/>
        <path id="TimesNewRomanPSMT-6c" d="M 1184 4444
L 1184 647
Q 1184 378 1223 290
Q 1263 203 1344 158
Q 1425 113 1647 113
L 1647 0
L 244 0
L 244 113
Q 441 113 512 153
Q 584 194 625 287
Q 666 381 666 647
L 666 3247
Q 666 3731 644 3842
Q 622 3953 573 3993
Q 525 4034 450 4034
Q 369 4034 244 3984
L 191 4094
L 1044 4444
L 1184 4444
z
" transform="scale(0.015625)"/>
        <path id="TimesNewRomanPSMT-79" d="M 38 2863
L 1372 2863
L 1372 2747
L 1306 2747
Q 1166 2747 1095 2686
Q 1025 2625 1025 2534
Q 1025 2413 1128 2197
L 1825 753
L 2466 2334
Q 2519 2463 2519 2588
Q 2519 2644 2497 2672
Q 2472 2706 2419 2726
Q 2366 2747 2231 2747
L 2231 2863
L 3163 2863
L 3163 2747
Q 3047 2734 2984 2696
Q 2922 2659 2847 2556
Q 2819 2513 2741 2316
L 1575 -541
Q 1406 -956 1132 -1168
Q 859 -1381 606 -1381
Q 422 -1381 303 -1275
Q 184 -1169 184 -1031
Q 184 -900 270 -820
Q 356 -741 506 -741
Q 609 -741 788 -809
Q 913 -856 944 -856
Q 1038 -856 1148 -759
Q 1259 -663 1372 -384
L 1575 113
L 547 2272
Q 500 2369 397 2513
Q 319 2622 269 2659
Q 197 2709 38 2747
L 38 2863
z
" transform="scale(0.015625)"/>
        <path id="TimesNewRomanPSMT-6e" d="M 1034 2341
Q 1538 2947 1994 2947
Q 2228 2947 2397 2830
Q 2566 2713 2666 2444
Q 2734 2256 2734 1869
L 2734 647
Q 2734 375 2778 278
Q 2813 200 2889 156
Q 2966 113 3172 113
L 3172 0
L 1756 0
L 1756 113
L 1816 113
Q 2016 113 2095 173
Q 2175 234 2206 353
Q 2219 400 2219 647
L 2219 1819
Q 2219 2209 2117 2386
Q 2016 2563 1775 2563
Q 1403 2563 1034 2156
L 1034 647
Q 1034 356 1069 288
Q 1113 197 1189 155
Q 1266 113 1500 113
L 1500 0
L 84 0
L 84 113
L 147 113
Q 366 113 442 223
Q 519 334 519 647
L 519 1709
Q 519 2225 495 2337
Q 472 2450 423 2490
Q 375 2531 294 2531
Q 206 2531 84 2484
L 38 2597
L 900 2947
L 1034 2947
L 1034 2341
z
" transform="scale(0.015625)"/>
        <path id="TimesNewRomanPSMT-64" d="M 2222 322
Q 2013 103 1813 7
Q 1613 -88 1381 -88
Q 913 -88 563 304
Q 213 697 213 1313
Q 213 1928 600 2439
Q 988 2950 1597 2950
Q 1975 2950 2222 2709
L 2222 3238
Q 2222 3728 2198 3840
Q 2175 3953 2125 3993
Q 2075 4034 2000 4034
Q 1919 4034 1784 3984
L 1744 4094
L 2597 4444
L 2738 4444
L 2738 1134
Q 2738 631 2761 520
Q 2784 409 2836 365
Q 2888 322 2956 322
Q 3041 322 3181 375
L 3216 266
L 2366 -88
L 2222 -88
L 2222 322
z
M 2222 541
L 2222 2016
Q 2203 2228 2109 2403
Q 2016 2578 1861 2667
Q 1706 2756 1559 2756
Q 1284 2756 1069 2509
Q 784 2184 784 1559
Q 784 928 1059 592
Q 1334 256 1672 256
Q 1956 256 2222 541
z
" transform="scale(0.015625)"/>
        <path id="TimesNewRomanPSMT-77" d="M 41 2863
L 1241 2863
L 1241 2747
Q 1075 2734 1023 2687
Q 972 2641 972 2553
Q 972 2456 1025 2319
L 1638 672
L 2253 2013
L 2091 2434
Q 2016 2622 1894 2694
Q 1825 2738 1638 2747
L 1638 2863
L 3000 2863
L 3000 2747
Q 2775 2738 2681 2666
Q 2619 2616 2619 2506
Q 2619 2444 2644 2378
L 3294 734
L 3897 2319
Q 3959 2488 3959 2588
Q 3959 2647 3898 2694
Q 3838 2741 3659 2747
L 3659 2863
L 4563 2863
L 4563 2747
Q 4291 2706 4163 2378
L 3206 -88
L 3078 -88
L 2363 1741
L 1528 -88
L 1413 -88
L 494 2319
Q 403 2547 315 2626
Q 228 2706 41 2747
L 41 2863
z
" transform="scale(0.015625)"/>
        <path id="TimesNewRomanPSMT-6d" d="M 1050 2338
Q 1363 2650 1419 2697
Q 1559 2816 1721 2881
Q 1884 2947 2044 2947
Q 2313 2947 2506 2790
Q 2700 2634 2766 2338
Q 3088 2713 3309 2830
Q 3531 2947 3766 2947
Q 3994 2947 4170 2830
Q 4347 2713 4450 2447
Q 4519 2266 4519 1878
L 4519 647
Q 4519 378 4559 278
Q 4591 209 4675 161
Q 4759 113 4950 113
L 4950 0
L 3538 0
L 3538 113
L 3597 113
Q 3781 113 3884 184
Q 3956 234 3988 344
Q 4000 397 4000 647
L 4000 1878
Q 4000 2228 3916 2372
Q 3794 2572 3525 2572
Q 3359 2572 3192 2489
Q 3025 2406 2788 2181
L 2781 2147
L 2788 2013
L 2788 647
Q 2788 353 2820 281
Q 2853 209 2943 161
Q 3034 113 3253 113
L 3253 0
L 1806 0
L 1806 113
Q 2044 113 2133 169
Q 2222 225 2256 338
Q 2272 391 2272 647
L 2272 1878
Q 2272 2228 2169 2381
Q 2031 2581 1784 2581
Q 1616 2581 1450 2491
Q 1191 2353 1050 2181
L 1050 647
Q 1050 366 1089 281
Q 1128 197 1204 155
Q 1281 113 1516 113
L 1516 0
L 100 0
L 100 113
Q 297 113 375 155
Q 453 197 493 289
Q 534 381 534 647
L 534 1741
Q 534 2213 506 2350
Q 484 2453 437 2492
Q 391 2531 309 2531
Q 222 2531 100 2484
L 53 2597
L 916 2947
L 1050 2947
L 1050 2338
z
" transform="scale(0.015625)"/>
        <path id="TimesNewRomanPSMT-67" d="M 966 1044
Q 703 1172 562 1401
Q 422 1631 422 1909
Q 422 2334 742 2640
Q 1063 2947 1563 2947
Q 1972 2947 2272 2747
L 2878 2747
Q 3013 2747 3034 2739
Q 3056 2731 3066 2713
Q 3084 2684 3084 2613
Q 3084 2531 3069 2500
Q 3059 2484 3036 2475
Q 3013 2466 2878 2466
L 2506 2466
Q 2681 2241 2681 1891
Q 2681 1491 2375 1206
Q 2069 922 1553 922
Q 1341 922 1119 984
Q 981 866 932 777
Q 884 688 884 625
Q 884 572 936 522
Q 988 472 1138 450
Q 1225 438 1575 428
Q 2219 413 2409 384
Q 2700 344 2873 169
Q 3047 -6 3047 -263
Q 3047 -616 2716 -925
Q 2228 -1381 1444 -1381
Q 841 -1381 425 -1109
Q 191 -953 191 -784
Q 191 -709 225 -634
Q 278 -519 444 -313
Q 466 -284 763 25
Q 600 122 533 198
Q 466 275 466 372
Q 466 481 555 628
Q 644 775 966 1044
z
M 1509 2797
Q 1278 2797 1122 2612
Q 966 2428 966 2047
Q 966 1553 1178 1281
Q 1341 1075 1591 1075
Q 1828 1075 1981 1253
Q 2134 1431 2134 1813
Q 2134 2309 1919 2591
Q 1759 2797 1509 2797
z
M 934 0
Q 788 -159 713 -296
Q 638 -434 638 -550
Q 638 -700 819 -813
Q 1131 -1006 1722 -1006
Q 2284 -1006 2551 -807
Q 2819 -609 2819 -384
Q 2819 -222 2659 -153
Q 2497 -84 2016 -72
Q 1313 -53 934 0
z
" transform="scale(0.015625)"/>
       </defs>
       <use xlink:href="#TimesNewRomanPSMT-57"/>
       <use xlink:href="#TimesNewRomanPSMT-61" x="86.384766"/>
       <use xlink:href="#TimesNewRomanPSMT-74" x="130.769531"/>
       <use xlink:href="#TimesNewRomanPSMT-65" x="158.552734"/>
       <use xlink:href="#TimesNewRomanPSMT-72" x="202.9375"/>
       <use xlink:href="#TimesNewRomanPSMT-20" x="236.238281"/>
       <use xlink:href="#TimesNewRomanPSMT-73" x="261.238281"/>
       <use xlink:href="#TimesNewRomanPSMT-75" x="300.154297"/>
       <use xlink:href="#TimesNewRomanPSMT-70" x="350.154297"/>
       <use xlink:href="#TimesNewRomanPSMT-70" x="400.154297"/>
       <use xlink:href="#TimesNewRomanPSMT-6c" x="450.154297"/>
       <use xlink:href="#TimesNewRomanPSMT-79" x="477.9375"/>
       <use xlink:href="#TimesNewRomanPSMT-20" x="527.9375"/>
       <use xlink:href="#TimesNewRomanPSMT-61" x="552.9375"/>
       <use xlink:href="#TimesNewRomanPSMT-6e" x="597.322266"/>
       <use xlink:href="#TimesNewRomanPSMT-64" x="647.322266"/>
       <use xlink:href="#TimesNewRomanPSMT-20" x="697.322266"/>
       <use xlink:href="#TimesNewRomanPSMT-77" x="722.322266"/>
       <use xlink:href="#TimesNewRomanPSMT-61" x="794.539062"/>
       <use xlink:href="#TimesNewRomanPSMT-73" x="838.923828"/>
       <use xlink:href="#TimesNewRomanPSMT-74" x="877.839844"/>
       <use xlink:href="#TimesNewRomanPSMT-65" x="905.623047"/>
       <use xlink:href="#TimesNewRomanPSMT-20" x="950.007812"/>
       <use xlink:href="#TimesNewRomanPSMT-6d" x="975.007812"/>
       <use xlink:href="#TimesNewRomanPSMT-61" x="1052.791016"/>
       <use xlink:href="#TimesNewRomanPSMT-6e" x="1097.175781"/>
       <use xlink:href="#TimesNewRomanPSMT-61" x="1147.175781"/>
       <use xlink:href="#TimesNewRomanPSMT-67" x="1191.560547"/>
       <use xlink:href="#TimesNewRomanPSMT-65" x="1241.560547"/>
       <use xlink:href="#TimesNewRomanPSMT-6d" x="1285.945312"/>
       <use xlink:href="#TimesNewRomanPSMT-65" x="1363.728516"/>
       <use xlink:href="#TimesNewRomanPSMT-6e" x="1408.113281"/>
       <use xlink:href="#TimesNewRomanPSMT-74" x="1458.113281"/>
      </g>
     </g>
    </g>
    <g id="ytick_2">
     <g id="line2d_12">
      <g>
       <use xlink:href="#mc4f3b09b9e" x="151.740833" y="282.924" style="stroke: #000000; stroke-width: 0.8"/>
      </g>
     </g>
     <g id="text_13">
      <!-- Transportation and storage -->
      <g transform="translate(55.743894 285.816072) scale(0.0833 -0.0833)">
       <defs>
        <path id="TimesNewRomanPSMT-54" d="M 3703 4238
L 3750 3244
L 3631 3244
Q 3597 3506 3538 3619
Q 3441 3800 3280 3886
Q 3119 3972 2856 3972
L 2259 3972
L 2259 734
Q 2259 344 2344 247
Q 2463 116 2709 116
L 2856 116
L 2856 0
L 1059 0
L 1059 116
L 1209 116
Q 1478 116 1591 278
Q 1659 378 1659 734
L 1659 3972
L 1150 3972
Q 853 3972 728 3928
Q 566 3869 450 3700
Q 334 3531 313 3244
L 194 3244
L 244 4238
L 3703 4238
z
" transform="scale(0.015625)"/>
        <path id="TimesNewRomanPSMT-6f" d="M 1600 2947
Q 2250 2947 2644 2453
Q 2978 2031 2978 1484
Q 2978 1100 2793 706
Q 2609 313 2286 112
Q 1963 -88 1566 -88
Q 919 -88 538 428
Q 216 863 216 1403
Q 216 1797 411 2186
Q 606 2575 925 2761
Q 1244 2947 1600 2947
z
M 1503 2744
Q 1338 2744 1170 2645
Q 1003 2547 900 2300
Q 797 2053 797 1666
Q 797 1041 1045 587
Q 1294 134 1700 134
Q 2003 134 2200 384
Q 2397 634 2397 1244
Q 2397 2006 2069 2444
Q 1847 2744 1503 2744
z
" transform="scale(0.015625)"/>
        <path id="TimesNewRomanPSMT-69" d="M 928 4444
Q 1059 4444 1151 4351
Q 1244 4259 1244 4128
Q 1244 3997 1151 3903
Q 1059 3809 928 3809
Q 797 3809 703 3903
Q 609 3997 609 4128
Q 609 4259 701 4351
Q 794 4444 928 4444
z
M 1188 2947
L 1188 647
Q 1188 378 1227 289
Q 1266 200 1342 156
Q 1419 113 1622 113
L 1622 0
L 231 0
L 231 113
Q 441 113 512 153
Q 584 194 626 287
Q 669 381 669 647
L 669 1750
Q 669 2216 641 2353
Q 619 2453 572 2492
Q 525 2531 444 2531
Q 356 2531 231 2484
L 188 2597
L 1050 2947
L 1188 2947
z
" transform="scale(0.015625)"/>
       </defs>
       <use xlink:href="#TimesNewRomanPSMT-54"/>
       <use xlink:href="#TimesNewRomanPSMT-72" x="57.583984"/>
       <use xlink:href="#TimesNewRomanPSMT-61" x="90.884766"/>
       <use xlink:href="#TimesNewRomanPSMT-6e" x="135.269531"/>
       <use xlink:href="#TimesNewRomanPSMT-73" x="185.269531"/>
       <use xlink:href="#TimesNewRomanPSMT-70" x="224.185547"/>
       <use xlink:href="#TimesNewRomanPSMT-6f" x="274.185547"/>
       <use xlink:href="#TimesNewRomanPSMT-72" x="324.185547"/>
       <use xlink:href="#TimesNewRomanPSMT-74" x="357.486328"/>
       <use xlink:href="#TimesNewRomanPSMT-61" x="385.269531"/>
       <use xlink:href="#TimesNewRomanPSMT-74" x="429.654297"/>
       <use xlink:href="#TimesNewRomanPSMT-69" x="457.4375"/>
       <use xlink:href="#TimesNewRomanPSMT-6f" x="485.220703"/>
       <use xlink:href="#TimesNewRomanPSMT-6e" x="535.220703"/>
       <use xlink:href="#TimesNewRomanPSMT-20" x="585.220703"/>
       <use xlink:href="#TimesNewRomanPSMT-61" x="610.220703"/>
       <use xlink:href="#TimesNewRomanPSMT-6e" x="654.605469"/>
       <use xlink:href="#TimesNewRomanPSMT-64" x="704.605469"/>
       <use xlink:href="#TimesNewRomanPSMT-20" x="754.605469"/>
       <use xlink:href="#TimesNewRomanPSMT-73" x="779.605469"/>
       <use xlink:href="#TimesNewRomanPSMT-74" x="818.521484"/>
       <use xlink:href="#TimesNewRomanPSMT-6f" x="846.304688"/>
       <use xlink:href="#TimesNewRomanPSMT-72" x="896.304688"/>
       <use xlink:href="#TimesNewRomanPSMT-61" x="929.605469"/>
       <use xlink:href="#TimesNewRomanPSMT-67" x="973.990234"/>
       <use xlink:href="#TimesNewRomanPSMT-65" x="1023.990234"/>
      </g>
     </g>
    </g>
    <g id="ytick_3">
     <g id="line2d_13">
      <g>
       <use xlink:href="#mc4f3b09b9e" x="151.740833" y="266.292" style="stroke: #000000; stroke-width: 0.8"/>
      </g>
     </g>
     <g id="text_14">
      <!-- Renting and other business support -->
      <g transform="translate(27.666588 269.184072) scale(0.0833 -0.0833)">
       <defs>
        <path id="TimesNewRomanPSMT-52" d="M 4325 0
L 3194 0
L 1759 1981
Q 1600 1975 1500 1975
Q 1459 1975 1412 1976
Q 1366 1978 1316 1981
L 1316 750
Q 1316 350 1403 253
Q 1522 116 1759 116
L 1925 116
L 1925 0
L 109 0
L 109 116
L 269 116
Q 538 116 653 291
Q 719 388 719 750
L 719 3488
Q 719 3888 631 3984
Q 509 4122 269 4122
L 109 4122
L 109 4238
L 1653 4238
Q 2328 4238 2648 4139
Q 2969 4041 3192 3777
Q 3416 3513 3416 3147
Q 3416 2756 3161 2468
Q 2906 2181 2372 2063
L 3247 847
Q 3547 428 3762 290
Q 3978 153 4325 116
L 4325 0
z
M 1316 2178
Q 1375 2178 1419 2176
Q 1463 2175 1491 2175
Q 2097 2175 2405 2437
Q 2713 2700 2713 3106
Q 2713 3503 2464 3751
Q 2216 4000 1806 4000
Q 1625 4000 1316 3941
L 1316 2178
z
" transform="scale(0.015625)"/>
        <path id="TimesNewRomanPSMT-68" d="M 1041 4444
L 1041 2350
Q 1388 2731 1591 2839
Q 1794 2947 1997 2947
Q 2241 2947 2416 2812
Q 2591 2678 2675 2391
Q 2734 2191 2734 1659
L 2734 647
Q 2734 375 2778 275
Q 2809 200 2884 156
Q 2959 113 3159 113
L 3159 0
L 1753 0
L 1753 113
L 1819 113
Q 2019 113 2097 173
Q 2175 234 2206 353
Q 2216 403 2216 647
L 2216 1659
Q 2216 2128 2167 2275
Q 2119 2422 2012 2495
Q 1906 2569 1756 2569
Q 1603 2569 1437 2487
Q 1272 2406 1041 2159
L 1041 647
Q 1041 353 1073 281
Q 1106 209 1195 161
Q 1284 113 1503 113
L 1503 0
L 84 0
L 84 113
Q 275 113 384 172
Q 447 203 484 290
Q 522 378 522 647
L 522 3238
Q 522 3728 498 3840
Q 475 3953 426 3993
Q 378 4034 297 4034
Q 231 4034 84 3984
L 41 4094
L 897 4444
L 1041 4444
z
" transform="scale(0.015625)"/>
        <path id="TimesNewRomanPSMT-62" d="M 984 2369
Q 1400 2947 1881 2947
Q 2322 2947 2650 2570
Q 2978 2194 2978 1541
Q 2978 778 2472 313
Q 2038 -88 1503 -88
Q 1253 -88 995 3
Q 738 94 469 275
L 469 3241
Q 469 3728 445 3840
Q 422 3953 372 3993
Q 322 4034 247 4034
Q 159 4034 28 3984
L -16 4094
L 844 4444
L 984 4444
L 984 2369
z
M 984 2169
L 984 456
Q 1144 300 1314 220
Q 1484 141 1663 141
Q 1947 141 2192 453
Q 2438 766 2438 1363
Q 2438 1913 2192 2208
Q 1947 2503 1634 2503
Q 1469 2503 1303 2419
Q 1178 2356 984 2169
z
" transform="scale(0.015625)"/>
       </defs>
       <use xlink:href="#TimesNewRomanPSMT-52"/>
       <use xlink:href="#TimesNewRomanPSMT-65" x="66.699219"/>
       <use xlink:href="#TimesNewRomanPSMT-6e" x="111.083984"/>
       <use xlink:href="#TimesNewRomanPSMT-74" x="161.083984"/>
       <use xlink:href="#TimesNewRomanPSMT-69" x="188.867188"/>
       <use xlink:href="#TimesNewRomanPSMT-6e" x="216.650391"/>
       <use xlink:href="#TimesNewRomanPSMT-67" x="266.650391"/>
       <use xlink:href="#TimesNewRomanPSMT-20" x="316.650391"/>
       <use xlink:href="#TimesNewRomanPSMT-61" x="341.650391"/>
       <use xlink:href="#TimesNewRomanPSMT-6e" x="386.035156"/>
       <use xlink:href="#TimesNewRomanPSMT-64" x="436.035156"/>
       <use xlink:href="#TimesNewRomanPSMT-20" x="486.035156"/>
       <use xlink:href="#TimesNewRomanPSMT-6f" x="511.035156"/>
       <use xlink:href="#TimesNewRomanPSMT-74" x="561.035156"/>
       <use xlink:href="#TimesNewRomanPSMT-68" x="588.818359"/>
       <use xlink:href="#TimesNewRomanPSMT-65" x="638.818359"/>
       <use xlink:href="#TimesNewRomanPSMT-72" x="683.203125"/>
       <use xlink:href="#TimesNewRomanPSMT-20" x="716.503906"/>
       <use xlink:href="#TimesNewRomanPSMT-62" x="741.503906"/>
       <use xlink:href="#TimesNewRomanPSMT-75" x="791.503906"/>
       <use xlink:href="#TimesNewRomanPSMT-73" x="841.503906"/>
       <use xlink:href="#TimesNewRomanPSMT-69" x="880.419922"/>
       <use xlink:href="#TimesNewRomanPSMT-6e" x="908.203125"/>
       <use xlink:href="#TimesNewRomanPSMT-65" x="958.203125"/>
       <use xlink:href="#TimesNewRomanPSMT-73" x="1002.587891"/>
       <use xlink:href="#TimesNewRomanPSMT-73" x="1041.503906"/>
       <use xlink:href="#TimesNewRomanPSMT-20" x="1080.419922"/>
       <use xlink:href="#TimesNewRomanPSMT-73" x="1105.419922"/>
       <use xlink:href="#TimesNewRomanPSMT-75" x="1144.335938"/>
       <use xlink:href="#TimesNewRomanPSMT-70" x="1194.335938"/>
       <use xlink:href="#TimesNewRomanPSMT-70" x="1244.335938"/>
       <use xlink:href="#TimesNewRomanPSMT-6f" x="1294.335938"/>
       <use xlink:href="#TimesNewRomanPSMT-72" x="1344.335938"/>
       <use xlink:href="#TimesNewRomanPSMT-74" x="1377.636719"/>
      </g>
     </g>
    </g>
    <g id="ytick_4">
     <g id="line2d_14">
      <g>
       <use xlink:href="#mc4f3b09b9e" x="151.740833" y="249.66" style="stroke: #000000; stroke-width: 0.8"/>
      </g>
     </g>
     <g id="text_15">
      <!-- Other service activities -->
      <g transform="translate(67.949947 252.552072) scale(0.0833 -0.0833)">
       <defs>
        <path id="TimesNewRomanPSMT-4f" d="M 2341 4334
Q 3166 4334 3770 3707
Q 4375 3081 4375 2144
Q 4375 1178 3765 540
Q 3156 -97 2291 -97
Q 1416 -97 820 525
Q 225 1147 225 2134
Q 225 3144 913 3781
Q 1509 4334 2341 4334
z
M 2281 4106
Q 1713 4106 1369 3684
Q 941 3159 941 2147
Q 941 1109 1384 550
Q 1725 125 2284 125
Q 2881 125 3270 590
Q 3659 1056 3659 2059
Q 3659 3147 3231 3681
Q 2888 4106 2281 4106
z
" transform="scale(0.015625)"/>
        <path id="TimesNewRomanPSMT-76" d="M 53 2863
L 1400 2863
L 1400 2747
L 1313 2747
Q 1191 2747 1127 2687
Q 1063 2628 1063 2528
Q 1063 2419 1128 2269
L 1794 688
L 2463 2328
Q 2534 2503 2534 2594
Q 2534 2638 2509 2666
Q 2475 2713 2422 2730
Q 2369 2747 2206 2747
L 2206 2863
L 3141 2863
L 3141 2747
Q 2978 2734 2916 2681
Q 2806 2588 2719 2369
L 1703 -88
L 1575 -88
L 553 2328
Q 484 2497 421 2570
Q 359 2644 263 2694
Q 209 2722 53 2747
L 53 2863
z
" transform="scale(0.015625)"/>
        <path id="TimesNewRomanPSMT-63" d="M 2631 1088
Q 2516 522 2178 217
Q 1841 -88 1431 -88
Q 944 -88 581 321
Q 219 731 219 1428
Q 219 2103 620 2525
Q 1022 2947 1584 2947
Q 2006 2947 2278 2723
Q 2550 2500 2550 2259
Q 2550 2141 2473 2067
Q 2397 1994 2259 1994
Q 2075 1994 1981 2113
Q 1928 2178 1911 2362
Q 1894 2547 1784 2644
Q 1675 2738 1481 2738
Q 1169 2738 978 2506
Q 725 2200 725 1697
Q 725 1184 976 792
Q 1228 400 1656 400
Q 1963 400 2206 609
Q 2378 753 2541 1131
L 2631 1088
z
" transform="scale(0.015625)"/>
       </defs>
       <use xlink:href="#TimesNewRomanPSMT-4f"/>
       <use xlink:href="#TimesNewRomanPSMT-74" x="72.216797"/>
       <use xlink:href="#TimesNewRomanPSMT-68" x="100"/>
       <use xlink:href="#TimesNewRomanPSMT-65" x="150"/>
       <use xlink:href="#TimesNewRomanPSMT-72" x="194.384766"/>
       <use xlink:href="#TimesNewRomanPSMT-20" x="227.685547"/>
       <use xlink:href="#TimesNewRomanPSMT-73" x="252.685547"/>
       <use xlink:href="#TimesNewRomanPSMT-65" x="291.601562"/>
       <use xlink:href="#TimesNewRomanPSMT-72" x="335.986328"/>
       <use xlink:href="#TimesNewRomanPSMT-76" x="369.287109"/>
       <use xlink:href="#TimesNewRomanPSMT-69" x="419.287109"/>
       <use xlink:href="#TimesNewRomanPSMT-63" x="447.070312"/>
       <use xlink:href="#TimesNewRomanPSMT-65" x="491.455078"/>
       <use xlink:href="#TimesNewRomanPSMT-20" x="535.839844"/>
       <use xlink:href="#TimesNewRomanPSMT-61" x="560.839844"/>
       <use xlink:href="#TimesNewRomanPSMT-63" x="605.224609"/>
       <use xlink:href="#TimesNewRomanPSMT-74" x="649.609375"/>
       <use xlink:href="#TimesNewRomanPSMT-69" x="677.392578"/>
       <use xlink:href="#TimesNewRomanPSMT-76" x="705.175781"/>
       <use xlink:href="#TimesNewRomanPSMT-69" x="755.175781"/>
       <use xlink:href="#TimesNewRomanPSMT-74" x="782.958984"/>
       <use xlink:href="#TimesNewRomanPSMT-69" x="810.742188"/>
       <use xlink:href="#TimesNewRomanPSMT-65" x="838.525391"/>
       <use xlink:href="#TimesNewRomanPSMT-73" x="882.910156"/>
      </g>
     </g>
    </g>
    <g id="ytick_5">
     <g id="line2d_15">
      <g>
       <use xlink:href="#mc4f3b09b9e" x="151.740833" y="233.028" style="stroke: #000000; stroke-width: 0.8"/>
      </g>
     </g>
     <g id="text_16">
      <!-- Manufacturing -->
      <g transform="translate(95.239808 235.920072) scale(0.0833 -0.0833)">
       <defs>
        <path id="TimesNewRomanPSMT-4d" d="M 2619 0
L 981 3566
L 981 734
Q 981 344 1066 247
Q 1181 116 1431 116
L 1581 116
L 1581 0
L 106 0
L 106 116
L 256 116
Q 525 116 638 278
Q 706 378 706 734
L 706 3503
Q 706 3784 644 3909
Q 600 4000 483 4061
Q 366 4122 106 4122
L 106 4238
L 1306 4238
L 2844 922
L 4356 4238
L 5556 4238
L 5556 4122
L 5409 4122
Q 5138 4122 5025 3959
Q 4956 3859 4956 3503
L 4956 734
Q 4956 344 5044 247
Q 5159 116 5409 116
L 5556 116
L 5556 0
L 3756 0
L 3756 116
L 3906 116
Q 4178 116 4288 278
Q 4356 378 4356 734
L 4356 3566
L 2722 0
L 2619 0
z
" transform="scale(0.015625)"/>
        <path id="TimesNewRomanPSMT-66" d="M 1319 2638
L 1319 756
Q 1319 356 1406 250
Q 1522 113 1716 113
L 1975 113
L 1975 0
L 266 0
L 266 113
L 394 113
Q 519 113 622 175
Q 725 238 764 344
Q 803 450 803 756
L 803 2638
L 247 2638
L 247 2863
L 803 2863
L 803 3050
Q 803 3478 940 3775
Q 1078 4072 1361 4255
Q 1644 4438 1997 4438
Q 2325 4438 2600 4225
Q 2781 4084 2781 3909
Q 2781 3816 2700 3733
Q 2619 3650 2525 3650
Q 2453 3650 2373 3701
Q 2294 3753 2178 3923
Q 2063 4094 1966 4153
Q 1869 4213 1750 4213
Q 1606 4213 1506 4136
Q 1406 4059 1362 3898
Q 1319 3738 1319 3069
L 1319 2863
L 2056 2863
L 2056 2638
L 1319 2638
z
" transform="scale(0.015625)"/>
       </defs>
       <use xlink:href="#TimesNewRomanPSMT-4d"/>
       <use xlink:href="#TimesNewRomanPSMT-61" x="88.916016"/>
       <use xlink:href="#TimesNewRomanPSMT-6e" x="133.300781"/>
       <use xlink:href="#TimesNewRomanPSMT-75" x="183.300781"/>
       <use xlink:href="#TimesNewRomanPSMT-66" x="233.300781"/>
       <use xlink:href="#TimesNewRomanPSMT-61" x="266.601562"/>
       <use xlink:href="#TimesNewRomanPSMT-63" x="310.986328"/>
       <use xlink:href="#TimesNewRomanPSMT-74" x="355.371094"/>
       <use xlink:href="#TimesNewRomanPSMT-75" x="383.154297"/>
       <use xlink:href="#TimesNewRomanPSMT-72" x="433.154297"/>
       <use xlink:href="#TimesNewRomanPSMT-69" x="466.455078"/>
       <use xlink:href="#TimesNewRomanPSMT-6e" x="494.238281"/>
       <use xlink:href="#TimesNewRomanPSMT-67" x="544.238281"/>
      </g>
     </g>
    </g>
    <g id="ytick_6">
     <g id="line2d_16">
      <g>
       <use xlink:href="#mc4f3b09b9e" x="151.740833" y="216.396" style="stroke: #000000; stroke-width: 0.8"/>
      </g>
     </g>
     <g id="text_17">
      <!-- Information and communication -->
      <g transform="translate(36.942823 219.288072) scale(0.0833 -0.0833)">
       <defs>
        <path id="TimesNewRomanPSMT-49" d="M 1975 116
L 1975 0
L 159 0
L 159 116
L 309 116
Q 572 116 691 269
Q 766 369 766 750
L 766 3488
Q 766 3809 725 3913
Q 694 3991 597 4047
Q 459 4122 309 4122
L 159 4122
L 159 4238
L 1975 4238
L 1975 4122
L 1822 4122
Q 1563 4122 1444 3969
Q 1366 3869 1366 3488
L 1366 750
Q 1366 428 1406 325
Q 1438 247 1538 191
Q 1672 116 1822 116
L 1975 116
z
" transform="scale(0.015625)"/>
       </defs>
       <use xlink:href="#TimesNewRomanPSMT-49"/>
       <use xlink:href="#TimesNewRomanPSMT-6e" x="33.300781"/>
       <use xlink:href="#TimesNewRomanPSMT-66" x="83.300781"/>
       <use xlink:href="#TimesNewRomanPSMT-6f" x="116.601562"/>
       <use xlink:href="#TimesNewRomanPSMT-72" x="166.601562"/>
       <use xlink:href="#TimesNewRomanPSMT-6d" x="199.902344"/>
       <use xlink:href="#TimesNewRomanPSMT-61" x="277.685547"/>
       <use xlink:href="#TimesNewRomanPSMT-74" x="322.070312"/>
       <use xlink:href="#TimesNewRomanPSMT-69" x="349.853516"/>
       <use xlink:href="#TimesNewRomanPSMT-6f" x="377.636719"/>
       <use xlink:href="#TimesNewRomanPSMT-6e" x="427.636719"/>
       <use xlink:href="#TimesNewRomanPSMT-20" x="477.636719"/>
       <use xlink:href="#TimesNewRomanPSMT-61" x="502.636719"/>
       <use xlink:href="#TimesNewRomanPSMT-6e" x="547.021484"/>
       <use xlink:href="#TimesNewRomanPSMT-64" x="597.021484"/>
       <use xlink:href="#TimesNewRomanPSMT-20" x="647.021484"/>
       <use xlink:href="#TimesNewRomanPSMT-63" x="672.021484"/>
       <use xlink:href="#TimesNewRomanPSMT-6f" x="716.40625"/>
       <use xlink:href="#TimesNewRomanPSMT-6d" x="766.40625"/>
       <use xlink:href="#TimesNewRomanPSMT-6d" x="844.189453"/>
       <use xlink:href="#TimesNewRomanPSMT-75" x="921.972656"/>
       <use xlink:href="#TimesNewRomanPSMT-6e" x="971.972656"/>
       <use xlink:href="#TimesNewRomanPSMT-69" x="1021.972656"/>
       <use xlink:href="#TimesNewRomanPSMT-63" x="1049.755859"/>
       <use xlink:href="#TimesNewRomanPSMT-61" x="1094.140625"/>
       <use xlink:href="#TimesNewRomanPSMT-74" x="1138.525391"/>
       <use xlink:href="#TimesNewRomanPSMT-69" x="1166.308594"/>
       <use xlink:href="#TimesNewRomanPSMT-6f" x="1194.091797"/>
       <use xlink:href="#TimesNewRomanPSMT-6e" x="1244.091797"/>
      </g>
     </g>
    </g>
    <g id="ytick_7">
     <g id="line2d_17">
      <g>
       <use xlink:href="#mc4f3b09b9e" x="151.740833" y="199.764" style="stroke: #000000; stroke-width: 0.8"/>
      </g>
     </g>
     <g id="text_18">
      <!-- Industry (no construction), energy -->
      <g transform="translate(31.072777 202.656072) scale(0.0833 -0.0833)">
       <defs>
        <path id="TimesNewRomanPSMT-28" d="M 1988 -1253
L 1988 -1369
Q 1516 -1131 1200 -813
Q 750 -359 506 256
Q 263 872 263 1534
Q 263 2503 741 3301
Q 1219 4100 1988 4444
L 1988 4313
Q 1603 4100 1356 3731
Q 1109 3363 987 2797
Q 866 2231 866 1616
Q 866 947 969 400
Q 1050 -31 1165 -292
Q 1281 -553 1476 -793
Q 1672 -1034 1988 -1253
z
" transform="scale(0.015625)"/>
        <path id="TimesNewRomanPSMT-29" d="M 144 4313
L 144 4444
Q 619 4209 934 3891
Q 1381 3434 1625 2820
Q 1869 2206 1869 1541
Q 1869 572 1392 -226
Q 916 -1025 144 -1369
L 144 -1253
Q 528 -1038 776 -670
Q 1025 -303 1145 264
Q 1266 831 1266 1447
Q 1266 2113 1163 2663
Q 1084 3094 967 3353
Q 850 3613 656 3853
Q 463 4094 144 4313
z
" transform="scale(0.015625)"/>
        <path id="TimesNewRomanPSMT-2c" d="M 344 -1066
L 344 -928
Q 666 -822 842 -598
Q 1019 -375 1019 -125
Q 1019 -66 991 -25
Q 969 3 947 3
Q 913 3 797 -59
Q 741 -88 678 -88
Q 525 -88 434 3
Q 344 94 344 253
Q 344 406 461 515
Q 578 625 747 625
Q 953 625 1114 445
Q 1275 266 1275 -31
Q 1275 -353 1051 -629
Q 828 -906 344 -1066
z
" transform="scale(0.015625)"/>
       </defs>
       <use xlink:href="#TimesNewRomanPSMT-49"/>
       <use xlink:href="#TimesNewRomanPSMT-6e" x="33.300781"/>
       <use xlink:href="#TimesNewRomanPSMT-64" x="83.300781"/>
       <use xlink:href="#TimesNewRomanPSMT-75" x="133.300781"/>
       <use xlink:href="#TimesNewRomanPSMT-73" x="183.300781"/>
       <use xlink:href="#TimesNewRomanPSMT-74" x="222.216797"/>
       <use xlink:href="#TimesNewRomanPSMT-72" x="250"/>
       <use xlink:href="#TimesNewRomanPSMT-79" x="283.300781"/>
       <use xlink:href="#TimesNewRomanPSMT-20" x="333.300781"/>
       <use xlink:href="#TimesNewRomanPSMT-28" x="358.300781"/>
       <use xlink:href="#TimesNewRomanPSMT-6e" x="391.601562"/>
       <use xlink:href="#TimesNewRomanPSMT-6f" x="441.601562"/>
       <use xlink:href="#TimesNewRomanPSMT-20" x="491.601562"/>
       <use xlink:href="#TimesNewRomanPSMT-63" x="516.601562"/>
       <use xlink:href="#TimesNewRomanPSMT-6f" x="560.986328"/>
       <use xlink:href="#TimesNewRomanPSMT-6e" x="610.986328"/>
       <use xlink:href="#TimesNewRomanPSMT-73" x="660.986328"/>
       <use xlink:href="#TimesNewRomanPSMT-74" x="699.902344"/>
       <use xlink:href="#TimesNewRomanPSMT-72" x="727.685547"/>
       <use xlink:href="#TimesNewRomanPSMT-75" x="760.986328"/>
       <use xlink:href="#TimesNewRomanPSMT-63" x="810.986328"/>
       <use xlink:href="#TimesNewRomanPSMT-74" x="855.371094"/>
       <use xlink:href="#TimesNewRomanPSMT-69" x="883.154297"/>
       <use xlink:href="#TimesNewRomanPSMT-6f" x="910.9375"/>
       <use xlink:href="#TimesNewRomanPSMT-6e" x="960.9375"/>
       <use xlink:href="#TimesNewRomanPSMT-29" x="1010.9375"/>
       <use xlink:href="#TimesNewRomanPSMT-2c" x="1044.238281"/>
       <use xlink:href="#TimesNewRomanPSMT-20" x="1069.238281"/>
       <use xlink:href="#TimesNewRomanPSMT-65" x="1094.238281"/>
       <use xlink:href="#TimesNewRomanPSMT-6e" x="1138.623047"/>
       <use xlink:href="#TimesNewRomanPSMT-65" x="1188.623047"/>
       <use xlink:href="#TimesNewRomanPSMT-72" x="1233.007812"/>
       <use xlink:href="#TimesNewRomanPSMT-67" x="1264.558594"/>
       <use xlink:href="#TimesNewRomanPSMT-79" x="1314.558594"/>
      </g>
     </g>
    </g>
    <g id="ytick_8">
     <g id="line2d_18">
      <g>
       <use xlink:href="#mc4f3b09b9e" x="151.740833" y="183.132" style="stroke: #000000; stroke-width: 0.8"/>
      </g>
     </g>
     <g id="text_19">
      <!-- Health and social work activities -->
      <g transform="translate(35.556659 186.024072) scale(0.0833 -0.0833)">
       <defs>
        <path id="TimesNewRomanPSMT-48" d="M 1316 2272
L 3284 2272
L 3284 3484
Q 3284 3809 3244 3913
Q 3213 3991 3113 4047
Q 2978 4122 2828 4122
L 2678 4122
L 2678 4238
L 4491 4238
L 4491 4122
L 4341 4122
Q 4191 4122 4056 4050
Q 3956 4000 3920 3898
Q 3884 3797 3884 3484
L 3884 750
Q 3884 428 3925 325
Q 3956 247 4053 191
Q 4191 116 4341 116
L 4491 116
L 4491 0
L 2678 0
L 2678 116
L 2828 116
Q 3088 116 3206 269
Q 3284 369 3284 750
L 3284 2041
L 1316 2041
L 1316 750
Q 1316 428 1356 325
Q 1388 247 1488 191
Q 1622 116 1772 116
L 1925 116
L 1925 0
L 109 0
L 109 116
L 259 116
Q 522 116 641 269
Q 716 369 716 750
L 716 3484
Q 716 3809 675 3913
Q 644 3991 547 4047
Q 409 4122 259 4122
L 109 4122
L 109 4238
L 1925 4238
L 1925 4122
L 1772 4122
Q 1622 4122 1488 4050
Q 1391 4000 1353 3898
Q 1316 3797 1316 3484
L 1316 2272
z
" transform="scale(0.015625)"/>
        <path id="TimesNewRomanPSMT-6b" d="M 1047 4444
L 1047 1594
L 1775 2259
Q 2006 2472 2044 2528
Q 2069 2566 2069 2603
Q 2069 2666 2017 2711
Q 1966 2756 1847 2763
L 1847 2863
L 3091 2863
L 3091 2763
Q 2834 2756 2664 2684
Q 2494 2613 2291 2428
L 1556 1750
L 2291 822
Q 2597 438 2703 334
Q 2853 188 2966 144
Q 3044 113 3238 113
L 3238 0
L 1847 0
L 1847 113
Q 1966 116 2008 148
Q 2050 181 2050 241
Q 2050 313 1925 472
L 1047 1594
L 1047 644
Q 1047 366 1086 278
Q 1125 191 1197 153
Q 1269 116 1509 113
L 1509 0
L 53 0
L 53 113
Q 272 113 381 166
Q 447 200 481 272
Q 528 375 528 628
L 528 3234
Q 528 3731 506 3842
Q 484 3953 434 3995
Q 384 4038 303 4038
Q 238 4038 106 3984
L 53 4094
L 903 4444
L 1047 4444
z
" transform="scale(0.015625)"/>
       </defs>
       <use xlink:href="#TimesNewRomanPSMT-48"/>
       <use xlink:href="#TimesNewRomanPSMT-65" x="72.216797"/>
       <use xlink:href="#TimesNewRomanPSMT-61" x="116.601562"/>
       <use xlink:href="#TimesNewRomanPSMT-6c" x="160.986328"/>
       <use xlink:href="#TimesNewRomanPSMT-74" x="188.769531"/>
       <use xlink:href="#TimesNewRomanPSMT-68" x="216.552734"/>
       <use xlink:href="#TimesNewRomanPSMT-20" x="266.552734"/>
       <use xlink:href="#TimesNewRomanPSMT-61" x="291.552734"/>
       <use xlink:href="#TimesNewRomanPSMT-6e" x="335.9375"/>
       <use xlink:href="#TimesNewRomanPSMT-64" x="385.9375"/>
       <use xlink:href="#TimesNewRomanPSMT-20" x="435.9375"/>
       <use xlink:href="#TimesNewRomanPSMT-73" x="460.9375"/>
       <use xlink:href="#TimesNewRomanPSMT-6f" x="499.853516"/>
       <use xlink:href="#TimesNewRomanPSMT-63" x="549.853516"/>
       <use xlink:href="#TimesNewRomanPSMT-69" x="594.238281"/>
       <use xlink:href="#TimesNewRomanPSMT-61" x="622.021484"/>
       <use xlink:href="#TimesNewRomanPSMT-6c" x="666.40625"/>
       <use xlink:href="#TimesNewRomanPSMT-20" x="694.189453"/>
       <use xlink:href="#TimesNewRomanPSMT-77" x="719.189453"/>
       <use xlink:href="#TimesNewRomanPSMT-6f" x="791.40625"/>
       <use xlink:href="#TimesNewRomanPSMT-72" x="841.40625"/>
       <use xlink:href="#TimesNewRomanPSMT-6b" x="874.707031"/>
       <use xlink:href="#TimesNewRomanPSMT-20" x="924.707031"/>
       <use xlink:href="#TimesNewRomanPSMT-61" x="949.707031"/>
       <use xlink:href="#TimesNewRomanPSMT-63" x="994.091797"/>
       <use xlink:href="#TimesNewRomanPSMT-74" x="1038.476562"/>
       <use xlink:href="#TimesNewRomanPSMT-69" x="1066.259766"/>
       <use xlink:href="#TimesNewRomanPSMT-76" x="1094.042969"/>
       <use xlink:href="#TimesNewRomanPSMT-69" x="1144.042969"/>
       <use xlink:href="#TimesNewRomanPSMT-74" x="1171.826172"/>
       <use xlink:href="#TimesNewRomanPSMT-69" x="1199.609375"/>
       <use xlink:href="#TimesNewRomanPSMT-65" x="1227.392578"/>
       <use xlink:href="#TimesNewRomanPSMT-73" x="1271.777344"/>
      </g>
     </g>
    </g>
    <g id="ytick_9">
     <g id="line2d_19">
      <g>
       <use xlink:href="#mc4f3b09b9e" x="151.740833" y="166.5" style="stroke: #000000; stroke-width: 0.8"/>
      </g>
     </g>
     <g id="text_20">
      <!-- Government and care -->
      <g transform="translate(73.042961 169.392072) scale(0.0833 -0.0833)">
       <defs>
        <path id="TimesNewRomanPSMT-47" d="M 3928 4334
L 4038 2997
L 3928 2997
Q 3763 3497 3500 3750
Q 3122 4116 2528 4116
Q 1719 4116 1297 3475
Q 944 2934 944 2188
Q 944 1581 1178 1081
Q 1413 581 1792 348
Q 2172 116 2572 116
Q 2806 116 3025 175
Q 3244 234 3447 350
L 3447 1575
Q 3447 1894 3398 1992
Q 3350 2091 3248 2142
Q 3147 2194 2891 2194
L 2891 2313
L 4531 2313
L 4531 2194
L 4453 2194
Q 4209 2194 4119 2031
Q 4056 1916 4056 1575
L 4056 278
Q 3697 84 3347 -6
Q 2997 -97 2569 -97
Q 1341 -97 703 691
Q 225 1281 225 2053
Q 225 2613 494 3125
Q 813 3734 1369 4063
Q 1834 4334 2469 4334
Q 2700 4334 2889 4296
Q 3078 4259 3425 4131
Q 3600 4066 3659 4066
Q 3719 4066 3761 4120
Q 3803 4175 3813 4334
L 3928 4334
z
" transform="scale(0.015625)"/>
       </defs>
       <use xlink:href="#TimesNewRomanPSMT-47"/>
       <use xlink:href="#TimesNewRomanPSMT-6f" x="72.216797"/>
       <use xlink:href="#TimesNewRomanPSMT-76" x="122.216797"/>
       <use xlink:href="#TimesNewRomanPSMT-65" x="172.216797"/>
       <use xlink:href="#TimesNewRomanPSMT-72" x="216.601562"/>
       <use xlink:href="#TimesNewRomanPSMT-6e" x="249.902344"/>
       <use xlink:href="#TimesNewRomanPSMT-6d" x="299.902344"/>
       <use xlink:href="#TimesNewRomanPSMT-65" x="377.685547"/>
       <use xlink:href="#TimesNewRomanPSMT-6e" x="422.070312"/>
       <use xlink:href="#TimesNewRomanPSMT-74" x="472.070312"/>
       <use xlink:href="#TimesNewRomanPSMT-20" x="499.853516"/>
       <use xlink:href="#TimesNewRomanPSMT-61" x="524.853516"/>
       <use xlink:href="#TimesNewRomanPSMT-6e" x="569.238281"/>
       <use xlink:href="#TimesNewRomanPSMT-64" x="619.238281"/>
       <use xlink:href="#TimesNewRomanPSMT-20" x="669.238281"/>
       <use xlink:href="#TimesNewRomanPSMT-63" x="694.238281"/>
       <use xlink:href="#TimesNewRomanPSMT-61" x="738.623047"/>
       <use xlink:href="#TimesNewRomanPSMT-72" x="783.007812"/>
       <use xlink:href="#TimesNewRomanPSMT-65" x="816.308594"/>
      </g>
     </g>
    </g>
    <g id="ytick_10">
     <g id="line2d_20">
      <g>
       <use xlink:href="#mc4f3b09b9e" x="151.740833" y="149.868" style="stroke: #000000; stroke-width: 0.8"/>
      </g>
     </g>
     <g id="text_21">
      <!-- Financial institutions -->
      <g transform="translate(74.630867 152.760072) scale(0.0833 -0.0833)">
       <defs>
        <path id="TimesNewRomanPSMT-46" d="M 1309 4006
L 1309 2341
L 2081 2341
Q 2347 2341 2470 2458
Q 2594 2575 2634 2922
L 2750 2922
L 2750 1488
L 2634 1488
Q 2631 1734 2570 1850
Q 2509 1966 2401 2023
Q 2294 2081 2081 2081
L 1309 2081
L 1309 750
Q 1309 428 1350 325
Q 1381 247 1481 191
Q 1619 116 1769 116
L 1922 116
L 1922 0
L 103 0
L 103 116
L 253 116
Q 516 116 634 269
Q 709 369 709 750
L 709 3488
Q 709 3809 669 3913
Q 638 3991 541 4047
Q 406 4122 253 4122
L 103 4122
L 103 4238
L 3256 4238
L 3297 3306
L 3188 3306
Q 3106 3603 2998 3742
Q 2891 3881 2733 3943
Q 2575 4006 2244 4006
L 1309 4006
z
" transform="scale(0.015625)"/>
       </defs>
       <use xlink:href="#TimesNewRomanPSMT-46"/>
       <use xlink:href="#TimesNewRomanPSMT-69" x="55.615234"/>
       <use xlink:href="#TimesNewRomanPSMT-6e" x="83.398438"/>
       <use xlink:href="#TimesNewRomanPSMT-61" x="133.398438"/>
       <use xlink:href="#TimesNewRomanPSMT-6e" x="177.783203"/>
       <use xlink:href="#TimesNewRomanPSMT-63" x="227.783203"/>
       <use xlink:href="#TimesNewRomanPSMT-69" x="272.167969"/>
       <use xlink:href="#TimesNewRomanPSMT-61" x="299.951172"/>
       <use xlink:href="#TimesNewRomanPSMT-6c" x="344.335938"/>
       <use xlink:href="#TimesNewRomanPSMT-20" x="372.119141"/>
       <use xlink:href="#TimesNewRomanPSMT-69" x="397.119141"/>
       <use xlink:href="#TimesNewRomanPSMT-6e" x="424.902344"/>
       <use xlink:href="#TimesNewRomanPSMT-73" x="474.902344"/>
       <use xlink:href="#TimesNewRomanPSMT-74" x="513.818359"/>
       <use xlink:href="#TimesNewRomanPSMT-69" x="541.601562"/>
       <use xlink:href="#TimesNewRomanPSMT-74" x="569.384766"/>
       <use xlink:href="#TimesNewRomanPSMT-75" x="597.167969"/>
       <use xlink:href="#TimesNewRomanPSMT-74" x="647.167969"/>
       <use xlink:href="#TimesNewRomanPSMT-69" x="674.951172"/>
       <use xlink:href="#TimesNewRomanPSMT-6f" x="702.734375"/>
       <use xlink:href="#TimesNewRomanPSMT-6e" x="752.734375"/>
       <use xlink:href="#TimesNewRomanPSMT-73" x="802.734375"/>
      </g>
     </g>
    </g>
    <g id="ytick_11">
     <g id="line2d_21">
      <g>
       <use xlink:href="#mc4f3b09b9e" x="151.740833" y="133.236" style="stroke: #000000; stroke-width: 0.8"/>
      </g>
     </g>
     <g id="text_22">
      <!-- Energy supply -->
      <g transform="translate(96.533561 136.128072) scale(0.0833 -0.0833)">
       <defs>
        <path id="TimesNewRomanPSMT-45" d="M 1338 4006
L 1338 2331
L 2269 2331
Q 2631 2331 2753 2441
Q 2916 2584 2934 2947
L 3050 2947
L 3050 1472
L 2934 1472
Q 2891 1781 2847 1869
Q 2791 1978 2662 2040
Q 2534 2103 2269 2103
L 1338 2103
L 1338 706
Q 1338 425 1363 364
Q 1388 303 1450 267
Q 1513 231 1688 231
L 2406 231
Q 2766 231 2928 281
Q 3091 331 3241 478
Q 3434 672 3638 1063
L 3763 1063
L 3397 0
L 131 0
L 131 116
L 281 116
Q 431 116 566 188
Q 666 238 702 338
Q 738 438 738 747
L 738 3500
Q 738 3903 656 3997
Q 544 4122 281 4122
L 131 4122
L 131 4238
L 3397 4238
L 3444 3309
L 3322 3309
Q 3256 3644 3176 3769
Q 3097 3894 2941 3959
Q 2816 4006 2500 4006
L 1338 4006
z
" transform="scale(0.015625)"/>
       </defs>
       <use xlink:href="#TimesNewRomanPSMT-45"/>
       <use xlink:href="#TimesNewRomanPSMT-6e" x="61.083984"/>
       <use xlink:href="#TimesNewRomanPSMT-65" x="111.083984"/>
       <use xlink:href="#TimesNewRomanPSMT-72" x="155.46875"/>
       <use xlink:href="#TimesNewRomanPSMT-67" x="187.019531"/>
       <use xlink:href="#TimesNewRomanPSMT-79" x="237.019531"/>
       <use xlink:href="#TimesNewRomanPSMT-20" x="287.019531"/>
       <use xlink:href="#TimesNewRomanPSMT-73" x="312.019531"/>
       <use xlink:href="#TimesNewRomanPSMT-75" x="350.935547"/>
       <use xlink:href="#TimesNewRomanPSMT-70" x="400.935547"/>
       <use xlink:href="#TimesNewRomanPSMT-70" x="450.935547"/>
       <use xlink:href="#TimesNewRomanPSMT-6c" x="500.935547"/>
       <use xlink:href="#TimesNewRomanPSMT-79" x="528.71875"/>
      </g>
     </g>
    </g>
    <g id="ytick_12">
     <g id="line2d_22">
      <g>
       <use xlink:href="#mc4f3b09b9e" x="151.740833" y="116.604" style="stroke: #000000; stroke-width: 0.8"/>
      </g>
     </g>
     <g id="text_23">
      <!-- Education -->
      <g transform="translate(110.969191 119.496072) scale(0.0833 -0.0833)">
       <use xlink:href="#TimesNewRomanPSMT-45"/>
       <use xlink:href="#TimesNewRomanPSMT-64" x="61.083984"/>
       <use xlink:href="#TimesNewRomanPSMT-75" x="111.083984"/>
       <use xlink:href="#TimesNewRomanPSMT-63" x="161.083984"/>
       <use xlink:href="#TimesNewRomanPSMT-61" x="205.46875"/>
       <use xlink:href="#TimesNewRomanPSMT-74" x="249.853516"/>
       <use xlink:href="#TimesNewRomanPSMT-69" x="277.636719"/>
       <use xlink:href="#TimesNewRomanPSMT-6f" x="305.419922"/>
       <use xlink:href="#TimesNewRomanPSMT-6e" x="355.419922"/>
      </g>
     </g>
    </g>
    <g id="ytick_13">
     <g id="line2d_23">
      <g>
       <use xlink:href="#mc4f3b09b9e" x="151.740833" y="99.972" style="stroke: #000000; stroke-width: 0.8"/>
      </g>
     </g>
     <g id="text_24">
      <!-- Culture, recreation, other services -->
      <g transform="translate(32.099709 102.864072) scale(0.0833 -0.0833)">
       <defs>
        <path id="TimesNewRomanPSMT-43" d="M 3853 4334
L 3950 2894
L 3853 2894
Q 3659 3541 3300 3825
Q 2941 4109 2438 4109
Q 2016 4109 1675 3895
Q 1334 3681 1139 3212
Q 944 2744 944 2047
Q 944 1472 1128 1050
Q 1313 628 1683 403
Q 2053 178 2528 178
Q 2941 178 3256 354
Q 3572 531 3950 1056
L 4047 994
Q 3728 428 3303 165
Q 2878 -97 2294 -97
Q 1241 -97 663 684
Q 231 1266 231 2053
Q 231 2688 515 3219
Q 800 3750 1298 4042
Q 1797 4334 2388 4334
Q 2847 4334 3294 4109
Q 3425 4041 3481 4041
Q 3566 4041 3628 4100
Q 3709 4184 3744 4334
L 3853 4334
z
" transform="scale(0.015625)"/>
       </defs>
       <use xlink:href="#TimesNewRomanPSMT-43"/>
       <use xlink:href="#TimesNewRomanPSMT-75" x="66.699219"/>
       <use xlink:href="#TimesNewRomanPSMT-6c" x="116.699219"/>
       <use xlink:href="#TimesNewRomanPSMT-74" x="144.482422"/>
       <use xlink:href="#TimesNewRomanPSMT-75" x="172.265625"/>
       <use xlink:href="#TimesNewRomanPSMT-72" x="222.265625"/>
       <use xlink:href="#TimesNewRomanPSMT-65" x="255.566406"/>
       <use xlink:href="#TimesNewRomanPSMT-2c" x="299.951172"/>
       <use xlink:href="#TimesNewRomanPSMT-20" x="324.951172"/>
       <use xlink:href="#TimesNewRomanPSMT-72" x="349.951172"/>
       <use xlink:href="#TimesNewRomanPSMT-65" x="383.251953"/>
       <use xlink:href="#TimesNewRomanPSMT-63" x="427.636719"/>
       <use xlink:href="#TimesNewRomanPSMT-72" x="472.021484"/>
       <use xlink:href="#TimesNewRomanPSMT-65" x="505.322266"/>
       <use xlink:href="#TimesNewRomanPSMT-61" x="549.707031"/>
       <use xlink:href="#TimesNewRomanPSMT-74" x="594.091797"/>
       <use xlink:href="#TimesNewRomanPSMT-69" x="621.875"/>
       <use xlink:href="#TimesNewRomanPSMT-6f" x="649.658203"/>
       <use xlink:href="#TimesNewRomanPSMT-6e" x="699.658203"/>
       <use xlink:href="#TimesNewRomanPSMT-2c" x="749.658203"/>
       <use xlink:href="#TimesNewRomanPSMT-20" x="774.658203"/>
       <use xlink:href="#TimesNewRomanPSMT-6f" x="799.658203"/>
       <use xlink:href="#TimesNewRomanPSMT-74" x="849.658203"/>
       <use xlink:href="#TimesNewRomanPSMT-68" x="877.441406"/>
       <use xlink:href="#TimesNewRomanPSMT-65" x="927.441406"/>
       <use xlink:href="#TimesNewRomanPSMT-72" x="971.826172"/>
       <use xlink:href="#TimesNewRomanPSMT-20" x="1005.126953"/>
       <use xlink:href="#TimesNewRomanPSMT-73" x="1030.126953"/>
       <use xlink:href="#TimesNewRomanPSMT-65" x="1069.042969"/>
       <use xlink:href="#TimesNewRomanPSMT-72" x="1113.427734"/>
       <use xlink:href="#TimesNewRomanPSMT-76" x="1146.728516"/>
       <use xlink:href="#TimesNewRomanPSMT-69" x="1196.728516"/>
       <use xlink:href="#TimesNewRomanPSMT-63" x="1224.511719"/>
       <use xlink:href="#TimesNewRomanPSMT-65" x="1268.896484"/>
       <use xlink:href="#TimesNewRomanPSMT-73" x="1313.28125"/>
      </g>
     </g>
    </g>
    <g id="ytick_14">
     <g id="line2d_24">
      <g>
       <use xlink:href="#mc4f3b09b9e" x="151.740833" y="83.34" style="stroke: #000000; stroke-width: 0.8"/>
      </g>
     </g>
     <g id="text_25">
      <!-- Commercial services -->
      <g transform="translate(74.652994 86.232072) scale(0.0833 -0.0833)">
       <use xlink:href="#TimesNewRomanPSMT-43"/>
       <use xlink:href="#TimesNewRomanPSMT-6f" x="66.699219"/>
       <use xlink:href="#TimesNewRomanPSMT-6d" x="116.699219"/>
       <use xlink:href="#TimesNewRomanPSMT-6d" x="194.482422"/>
       <use xlink:href="#TimesNewRomanPSMT-65" x="272.265625"/>
       <use xlink:href="#TimesNewRomanPSMT-72" x="316.650391"/>
       <use xlink:href="#TimesNewRomanPSMT-63" x="349.951172"/>
       <use xlink:href="#TimesNewRomanPSMT-69" x="394.335938"/>
       <use xlink:href="#TimesNewRomanPSMT-61" x="422.119141"/>
       <use xlink:href="#TimesNewRomanPSMT-6c" x="466.503906"/>
       <use xlink:href="#TimesNewRomanPSMT-20" x="494.287109"/>
       <use xlink:href="#TimesNewRomanPSMT-73" x="519.287109"/>
       <use xlink:href="#TimesNewRomanPSMT-65" x="558.203125"/>
       <use xlink:href="#TimesNewRomanPSMT-72" x="602.587891"/>
       <use xlink:href="#TimesNewRomanPSMT-76" x="635.888672"/>
       <use xlink:href="#TimesNewRomanPSMT-69" x="685.888672"/>
       <use xlink:href="#TimesNewRomanPSMT-63" x="713.671875"/>
       <use xlink:href="#TimesNewRomanPSMT-65" x="758.056641"/>
       <use xlink:href="#TimesNewRomanPSMT-73" x="802.441406"/>
      </g>
     </g>
    </g>
    <g id="ytick_15">
     <g id="line2d_25">
      <g>
       <use xlink:href="#mc4f3b09b9e" x="151.740833" y="66.708" style="stroke: #000000; stroke-width: 0.8"/>
      </g>
     </g>
     <g id="text_26">
      <!-- Agriculture and industry -->
      <g transform="translate(62.847822 69.600072) scale(0.0833 -0.0833)">
       <defs>
        <path id="TimesNewRomanPSMT-41" d="M 2928 1419
L 1288 1419
L 1000 750
Q 894 503 894 381
Q 894 284 986 211
Q 1078 138 1384 116
L 1384 0
L 50 0
L 50 116
Q 316 163 394 238
Q 553 388 747 847
L 2238 4334
L 2347 4334
L 3822 809
Q 4000 384 4145 257
Q 4291 131 4550 116
L 4550 0
L 2878 0
L 2878 116
Q 3131 128 3220 200
Q 3309 272 3309 375
Q 3309 513 3184 809
L 2928 1419
z
M 2841 1650
L 2122 3363
L 1384 1650
L 2841 1650
z
" transform="scale(0.015625)"/>
       </defs>
       <use xlink:href="#TimesNewRomanPSMT-41"/>
       <use xlink:href="#TimesNewRomanPSMT-67" x="72.216797"/>
       <use xlink:href="#TimesNewRomanPSMT-72" x="122.216797"/>
       <use xlink:href="#TimesNewRomanPSMT-69" x="155.517578"/>
       <use xlink:href="#TimesNewRomanPSMT-63" x="183.300781"/>
       <use xlink:href="#TimesNewRomanPSMT-75" x="227.685547"/>
       <use xlink:href="#TimesNewRomanPSMT-6c" x="277.685547"/>
       <use xlink:href="#TimesNewRomanPSMT-74" x="305.46875"/>
       <use xlink:href="#TimesNewRomanPSMT-75" x="333.251953"/>
       <use xlink:href="#TimesNewRomanPSMT-72" x="383.251953"/>
       <use xlink:href="#TimesNewRomanPSMT-65" x="416.552734"/>
       <use xlink:href="#TimesNewRomanPSMT-20" x="460.9375"/>
       <use xlink:href="#TimesNewRomanPSMT-61" x="485.9375"/>
       <use xlink:href="#TimesNewRomanPSMT-6e" x="530.322266"/>
       <use xlink:href="#TimesNewRomanPSMT-64" x="580.322266"/>
       <use xlink:href="#TimesNewRomanPSMT-20" x="630.322266"/>
       <use xlink:href="#TimesNewRomanPSMT-69" x="655.322266"/>
       <use xlink:href="#TimesNewRomanPSMT-6e" x="683.105469"/>
       <use xlink:href="#TimesNewRomanPSMT-64" x="733.105469"/>
       <use xlink:href="#TimesNewRomanPSMT-75" x="783.105469"/>
       <use xlink:href="#TimesNewRomanPSMT-73" x="833.105469"/>
       <use xlink:href="#TimesNewRomanPSMT-74" x="872.021484"/>
       <use xlink:href="#TimesNewRomanPSMT-72" x="899.804688"/>
       <use xlink:href="#TimesNewRomanPSMT-79" x="933.105469"/>
      </g>
     </g>
    </g>
    <g id="ytick_16">
     <g id="line2d_26">
      <g>
       <use xlink:href="#mc4f3b09b9e" x="151.740833" y="50.076" style="stroke: #000000; stroke-width: 0.8"/>
      </g>
     </g>
     <g id="text_27">
      <!-- Accommodation and food serving -->
      <g transform="translate(31.153473 52.968072) scale(0.0833 -0.0833)">
       <use xlink:href="#TimesNewRomanPSMT-41"/>
       <use xlink:href="#TimesNewRomanPSMT-63" x="72.216797"/>
       <use xlink:href="#TimesNewRomanPSMT-63" x="116.601562"/>
       <use xlink:href="#TimesNewRomanPSMT-6f" x="160.986328"/>
       <use xlink:href="#TimesNewRomanPSMT-6d" x="210.986328"/>
       <use xlink:href="#TimesNewRomanPSMT-6d" x="288.769531"/>
       <use xlink:href="#TimesNewRomanPSMT-6f" x="366.552734"/>
       <use xlink:href="#TimesNewRomanPSMT-64" x="416.552734"/>
       <use xlink:href="#TimesNewRomanPSMT-61" x="466.552734"/>
       <use xlink:href="#TimesNewRomanPSMT-74" x="510.9375"/>
       <use xlink:href="#TimesNewRomanPSMT-69" x="538.720703"/>
       <use xlink:href="#TimesNewRomanPSMT-6f" x="566.503906"/>
       <use xlink:href="#TimesNewRomanPSMT-6e" x="616.503906"/>
       <use xlink:href="#TimesNewRomanPSMT-20" x="666.503906"/>
       <use xlink:href="#TimesNewRomanPSMT-61" x="691.503906"/>
       <use xlink:href="#TimesNewRomanPSMT-6e" x="735.888672"/>
       <use xlink:href="#TimesNewRomanPSMT-64" x="785.888672"/>
       <use xlink:href="#TimesNewRomanPSMT-20" x="835.888672"/>
       <use xlink:href="#TimesNewRomanPSMT-66" x="860.888672"/>
       <use xlink:href="#TimesNewRomanPSMT-6f" x="894.189453"/>
       <use xlink:href="#TimesNewRomanPSMT-6f" x="944.189453"/>
       <use xlink:href="#TimesNewRomanPSMT-64" x="994.189453"/>
       <use xlink:href="#TimesNewRomanPSMT-20" x="1044.189453"/>
       <use xlink:href="#TimesNewRomanPSMT-73" x="1069.189453"/>
       <use xlink:href="#TimesNewRomanPSMT-65" x="1108.105469"/>
       <use xlink:href="#TimesNewRomanPSMT-72" x="1152.490234"/>
       <use xlink:href="#TimesNewRomanPSMT-76" x="1185.791016"/>
       <use xlink:href="#TimesNewRomanPSMT-69" x="1235.791016"/>
       <use xlink:href="#TimesNewRomanPSMT-6e" x="1263.574219"/>
       <use xlink:href="#TimesNewRomanPSMT-67" x="1313.574219"/>
      </g>
     </g>
    </g>
    <g id="text_28">
     <!-- Sector -->
     <g transform="translate(13.821875 188.419906) rotate(-90) scale(0.1 -0.1)">
      <use xlink:href="#TimesNewRomanPS-BoldMT-53"/>
      <use xlink:href="#TimesNewRomanPS-BoldMT-65" x="55.615234"/>
      <use xlink:href="#TimesNewRomanPS-BoldMT-63" x="100"/>
      <use xlink:href="#TimesNewRomanPS-BoldMT-74" x="144.384766"/>
      <use xlink:href="#TimesNewRomanPS-BoldMT-6f" x="177.685547"/>
      <use xlink:href="#TimesNewRomanPS-BoldMT-72" x="227.685547"/>
     </g>
    </g>
   </g>
   <g id="patch_35">
    <path d="M 151.740833 307.872
L 151.740833 41.76
" style="fill: none; stroke: #000000; stroke-width: 0.8; stroke-linejoin: miter; stroke-linecap: square"/>
   </g>
   <g id="patch_36">
    <path d="M 151.740833 307.872
L 508.860833 307.872
" style="fill: none; stroke: #000000; stroke-width: 0.8; stroke-linejoin: miter; stroke-linecap: square"/>
   </g>
   <g id="legend_1">
    <g id="patch_37">
     <path d="M 419.87802 78.038125
L 501.860833 78.038125
Q 503.860833 78.038125 503.860833 76.038125
L 503.860833 48.76
Q 503.860833 46.76 501.860833 46.76
L 419.87802 46.76
Q 417.87802 46.76 417.87802 48.76
L 417.87802 76.038125
Q 417.87802 78.038125 419.87802 78.038125
z
" style="fill: #ffffff; opacity: 0.8; stroke: #cccccc; stroke-linejoin: miter"/>
    </g>
    <g id="patch_38">
     <path d="M 421.87802 57.76
L 441.87802 57.76
L 441.87802 50.76
L 421.87802 50.76
z
" style="fill: #006ba4"/>
    </g>
    <g id="text_29">
     <!-- Competence -->
     <g transform="translate(449.87802 57.76) scale(0.1 -0.1)">
      <use xlink:href="#TimesNewRomanPSMT-43"/>
      <use xlink:href="#TimesNewRomanPSMT-6f" x="66.699219"/>
      <use xlink:href="#TimesNewRomanPSMT-6d" x="116.699219"/>
      <use xlink:href="#TimesNewRomanPSMT-70" x="194.482422"/>
      <use xlink:href="#TimesNewRomanPSMT-65" x="244.482422"/>
      <use xlink:href="#TimesNewRomanPSMT-74" x="288.867188"/>
      <use xlink:href="#TimesNewRomanPSMT-65" x="316.650391"/>
      <use xlink:href="#TimesNewRomanPSMT-6e" x="361.035156"/>
      <use xlink:href="#TimesNewRomanPSMT-63" x="411.035156"/>
      <use xlink:href="#TimesNewRomanPSMT-65" x="455.419922"/>
     </g>
    </g>
    <g id="patch_39">
     <path d="M 421.87802 71.899062
L 441.87802 71.899062
L 441.87802 64.899062
L 421.87802 64.899062
z
" style="fill: #c85200"/>
    </g>
    <g id="text_30">
     <!-- Warmth -->
     <g transform="translate(449.87802 71.899062) scale(0.1 -0.1)">
      <use xlink:href="#TimesNewRomanPSMT-57"/>
      <use xlink:href="#TimesNewRomanPSMT-61" x="86.384766"/>
      <use xlink:href="#TimesNewRomanPSMT-72" x="130.769531"/>
      <use xlink:href="#TimesNewRomanPSMT-6d" x="164.070312"/>
      <use xlink:href="#TimesNewRomanPSMT-74" x="241.853516"/>
      <use xlink:href="#TimesNewRomanPSMT-68" x="269.636719"/>
     </g>
    </g>
   </g>
  </g>
  <g id="text_31">
   <!-- Manually Annotated Dataset Warmth and Competence Sentence Percentages per Sector -->
   <g transform="translate(99.390833 15.32625) scale(0.12 -0.12)">
    <defs>
     <path id="TimesNewRomanPS-BoldMT-4d" d="M 3050 1444
L 4200 4238
L 5925 4238
L 5925 4122
L 5788 4122
Q 5600 4122 5488 4056
Q 5409 4013 5363 3909
Q 5328 3834 5328 3519
L 5328 725
Q 5328 400 5362 319
Q 5397 238 5503 177
Q 5609 116 5788 116
L 5925 116
L 5925 0
L 3713 0
L 3713 116
L 3850 116
Q 4038 116 4150 181
Q 4228 225 4275 331
Q 4309 406 4309 725
L 4309 3866
L 2684 0
L 2609 0
L 959 3838
L 959 853
Q 959 541 975 469
Q 1016 313 1152 214
Q 1288 116 1578 116
L 1578 0
L 128 0
L 128 116
L 172 116
Q 313 113 434 161
Q 556 209 618 290
Q 681 372 716 519
Q 722 553 722 838
L 722 3519
Q 722 3841 687 3920
Q 653 4000 547 4061
Q 441 4122 263 4122
L 128 4122
L 128 4238
L 1859 4238
L 3050 1444
z
" transform="scale(0.015625)"/>
     <path id="TimesNewRomanPS-BoldMT-75" d="M 3038 2922
L 3038 634
Q 3038 300 3100 217
Q 3163 134 3353 113
L 3353 0
L 2163 0
L 2163 391
Q 1953 141 1743 26
Q 1534 -88 1275 -88
Q 1028 -88 836 64
Q 644 216 578 419
Q 513 622 513 1128
L 513 2288
Q 513 2619 452 2700
Q 391 2781 197 2806
L 197 2922
L 1388 2922
L 1388 925
Q 1388 613 1417 522
Q 1447 431 1511 384
Q 1575 338 1659 338
Q 1772 338 1863 397
Q 1988 478 2163 725
L 2163 2288
Q 2163 2619 2102 2700
Q 2041 2781 1847 2806
L 1847 2922
L 3038 2922
z
" transform="scale(0.015625)"/>
     <path id="TimesNewRomanPS-BoldMT-6c" d="M 1359 4238
L 1359 606
Q 1359 297 1431 211
Q 1503 125 1713 113
L 1713 0
L 134 0
L 134 113
Q 328 119 422 225
Q 484 297 484 606
L 484 3631
Q 484 3938 412 4023
Q 341 4109 134 4122
L 134 4238
L 1359 4238
z
" transform="scale(0.015625)"/>
     <path id="TimesNewRomanPS-BoldMT-79" d="M 1556 -119
L 613 2047
Q 400 2538 298 2650
Q 197 2763 53 2806
L 53 2922
L 1606 2922
L 1606 2806
Q 1453 2800 1390 2747
Q 1328 2694 1328 2619
Q 1328 2500 1484 2150
L 1984 1006
L 2325 1891
Q 2509 2363 2509 2547
Q 2509 2663 2432 2731
Q 2356 2800 2163 2806
L 2163 2922
L 3141 2922
L 3141 2806
Q 2997 2791 2906 2695
Q 2816 2600 2603 2047
L 1769 -119
Q 1453 -931 1300 -1119
Q 1084 -1381 759 -1381
Q 500 -1381 339 -1232
Q 178 -1084 178 -875
Q 178 -694 289 -575
Q 400 -456 563 -456
Q 719 -456 814 -556
Q 909 -656 913 -866
Q 916 -984 941 -1019
Q 966 -1053 1013 -1053
Q 1088 -1053 1172 -963
Q 1297 -831 1466 -363
L 1556 -119
z
" transform="scale(0.015625)"/>
     <path id="TimesNewRomanPS-BoldMT-44" d="M 84 0
L 84 116
L 225 116
Q 409 116 507 173
Q 606 231 653 331
Q 681 397 681 725
L 681 3513
Q 681 3838 647 3919
Q 613 4000 508 4061
Q 403 4122 225 4122
L 84 4122
L 84 4238
L 1981 4238
Q 2741 4238 3203 4031
Q 3769 3778 4061 3265
Q 4353 2753 4353 2106
Q 4353 1659 4209 1282
Q 4066 906 3837 661
Q 3609 416 3311 267
Q 3013 119 2581 38
Q 2391 0 1981 0
L 84 0
z
M 1700 3997
L 1700 691
Q 1700 428 1725 368
Q 1750 309 1809 278
Q 1894 231 2053 231
Q 2575 231 2850 588
Q 3225 1069 3225 2081
Q 3225 2897 2969 3384
Q 2766 3766 2447 3903
Q 2222 4000 1700 3997
z
" transform="scale(0.015625)"/>
     <path id="TimesNewRomanPS-BoldMT-57" d="M 6344 4238
L 6344 4122
Q 6225 4113 6144 4056
Q 6063 4000 6000 3884
Q 5981 3847 5803 3400
L 4475 -97
L 4353 -97
L 3303 2634
L 2147 -97
L 2031 -97
L 638 3363
Q 425 3884 340 3993
Q 256 4103 56 4122
L 56 4238
L 1894 4238
L 1894 4122
Q 1672 4116 1598 4055
Q 1525 3994 1525 3903
Q 1525 3784 1678 3400
L 2509 1344
L 3175 2950
L 3000 3400
Q 2856 3769 2778 3892
Q 2700 4016 2598 4069
Q 2497 4122 2300 4122
L 2300 4238
L 4353 4238
L 4353 4122
Q 4138 4119 4044 4088
Q 3978 4066 3940 4014
Q 3903 3963 3903 3897
Q 3903 3825 4044 3456
L 4816 1450
L 5506 3266
Q 5616 3547 5641 3650
Q 5666 3753 5666 3841
Q 5666 3969 5578 4042
Q 5491 4116 5244 4122
L 5244 4238
L 6344 4238
z
" transform="scale(0.015625)"/>
     <path id="TimesNewRomanPS-BoldMT-6d" d="M 1428 2922
L 1428 2538
Q 1669 2800 1873 2904
Q 2078 3009 2322 3009
Q 2603 3009 2793 2878
Q 2984 2747 3088 2478
Q 3338 2759 3567 2884
Q 3797 3009 4047 3009
Q 4350 3009 4529 2870
Q 4709 2731 4779 2517
Q 4850 2303 4850 1834
L 4850 638
Q 4850 300 4911 219
Q 4972 138 5166 113
L 5166 0
L 3656 0
L 3656 113
Q 3834 128 3919 250
Q 3975 334 3975 638
L 3975 1894
Q 3975 2284 3944 2390
Q 3913 2497 3845 2548
Q 3778 2600 3688 2600
Q 3553 2600 3415 2501
Q 3278 2403 3138 2206
L 3138 638
Q 3138 322 3191 241
Q 3263 125 3466 113
L 3466 0
L 1953 0
L 1953 113
Q 2075 119 2145 173
Q 2216 228 2239 304
Q 2263 381 2263 638
L 2263 1894
Q 2263 2291 2231 2391
Q 2200 2491 2126 2547
Q 2053 2603 1969 2603
Q 1844 2603 1741 2538
Q 1594 2441 1428 2206
L 1428 638
Q 1428 328 1489 229
Q 1550 131 1744 113
L 1744 0
L 238 0
L 238 113
Q 422 131 500 231
Q 553 300 553 638
L 553 2288
Q 553 2619 492 2700
Q 431 2781 238 2806
L 238 2922
L 1428 2922
z
" transform="scale(0.015625)"/>
     <path id="TimesNewRomanPS-BoldMT-68" d="M 1409 4238
L 1409 2547
Q 1650 2800 1850 2904
Q 2050 3009 2266 3009
Q 2541 3009 2736 2853
Q 2931 2697 2995 2486
Q 3059 2275 3059 1775
L 3059 634
Q 3059 300 3121 217
Q 3184 134 3375 113
L 3375 0
L 1894 0
L 1894 113
Q 2050 134 2128 238
Q 2184 319 2184 634
L 2184 1938
Q 2184 2300 2156 2392
Q 2128 2484 2061 2536
Q 1994 2588 1909 2588
Q 1784 2588 1665 2502
Q 1547 2416 1409 2200
L 1409 634
Q 1409 322 1456 244
Q 1516 138 1700 113
L 1700 0
L 219 0
L 219 113
Q 403 131 481 231
Q 534 300 534 634
L 534 3603
Q 534 3934 473 4015
Q 413 4097 219 4122
L 219 4238
L 1409 4238
z
" transform="scale(0.015625)"/>
     <path id="TimesNewRomanPS-BoldMT-43" d="M 4272 4334
L 4272 2866
L 4150 2866
Q 4013 3441 3638 3747
Q 3263 4053 2788 4053
Q 2391 4053 2059 3825
Q 1728 3597 1575 3228
Q 1378 2756 1378 2178
Q 1378 1609 1522 1142
Q 1666 675 1972 436
Q 2278 197 2766 197
Q 3166 197 3498 372
Q 3831 547 4200 975
L 4200 609
Q 3844 238 3458 70
Q 3072 -97 2556 -97
Q 1878 -97 1351 175
Q 825 447 539 956
Q 253 1466 253 2041
Q 253 2647 570 3190
Q 888 3734 1427 4034
Q 1966 4334 2572 4334
Q 3019 4334 3516 4141
Q 3803 4028 3881 4028
Q 3981 4028 4054 4101
Q 4128 4175 4150 4334
L 4272 4334
z
" transform="scale(0.015625)"/>
     <path id="TimesNewRomanPS-BoldMT-70" d="M 1347 297
L 1347 -791
Q 1347 -1016 1383 -1097
Q 1419 -1178 1494 -1215
Q 1569 -1253 1788 -1253
L 1788 -1369
L 122 -1369
L 122 -1253
Q 316 -1247 409 -1144
Q 472 -1072 472 -772
L 472 2313
Q 472 2622 400 2708
Q 328 2794 122 2806
L 122 2922
L 1347 2922
L 1347 2538
Q 1500 2763 1659 2863
Q 1888 3009 2156 3009
Q 2478 3009 2742 2806
Q 3006 2603 3143 2245
Q 3281 1888 3281 1475
Q 3281 1031 3139 664
Q 2997 297 2726 104
Q 2456 -88 2125 -88
Q 1884 -88 1675 19
Q 1519 100 1347 297
z
M 1347 613
Q 1616 231 1922 231
Q 2091 231 2200 409
Q 2363 672 2363 1409
Q 2363 2166 2184 2444
Q 2066 2628 1866 2628
Q 1550 2628 1347 2172
L 1347 613
z
" transform="scale(0.015625)"/>
    </defs>
    <use xlink:href="#TimesNewRomanPS-BoldMT-4d"/>
    <use xlink:href="#TimesNewRomanPS-BoldMT-61" x="94.384766"/>
    <use xlink:href="#TimesNewRomanPS-BoldMT-6e" x="144.384766"/>
    <use xlink:href="#TimesNewRomanPS-BoldMT-75" x="200"/>
    <use xlink:href="#TimesNewRomanPS-BoldMT-61" x="255.615234"/>
    <use xlink:href="#TimesNewRomanPS-BoldMT-6c" x="305.615234"/>
    <use xlink:href="#TimesNewRomanPS-BoldMT-6c" x="333.398438"/>
    <use xlink:href="#TimesNewRomanPS-BoldMT-79" x="361.181641"/>
    <use xlink:href="#TimesNewRomanPS-BoldMT-20" x="411.181641"/>
    <use xlink:href="#TimesNewRomanPS-BoldMT-41" x="430.681641"/>
    <use xlink:href="#TimesNewRomanPS-BoldMT-6e" x="502.898438"/>
    <use xlink:href="#TimesNewRomanPS-BoldMT-6e" x="558.513672"/>
    <use xlink:href="#TimesNewRomanPS-BoldMT-6f" x="614.128906"/>
    <use xlink:href="#TimesNewRomanPS-BoldMT-74" x="664.128906"/>
    <use xlink:href="#TimesNewRomanPS-BoldMT-61" x="697.429688"/>
    <use xlink:href="#TimesNewRomanPS-BoldMT-74" x="747.429688"/>
    <use xlink:href="#TimesNewRomanPS-BoldMT-65" x="780.730469"/>
    <use xlink:href="#TimesNewRomanPS-BoldMT-64" x="825.115234"/>
    <use xlink:href="#TimesNewRomanPS-BoldMT-20" x="880.730469"/>
    <use xlink:href="#TimesNewRomanPS-BoldMT-44" x="905.730469"/>
    <use xlink:href="#TimesNewRomanPS-BoldMT-61" x="977.947266"/>
    <use xlink:href="#TimesNewRomanPS-BoldMT-74" x="1027.947266"/>
    <use xlink:href="#TimesNewRomanPS-BoldMT-61" x="1061.248047"/>
    <use xlink:href="#TimesNewRomanPS-BoldMT-73" x="1111.248047"/>
    <use xlink:href="#TimesNewRomanPS-BoldMT-65" x="1150.164062"/>
    <use xlink:href="#TimesNewRomanPS-BoldMT-74" x="1194.548828"/>
    <use xlink:href="#TimesNewRomanPS-BoldMT-20" x="1227.849609"/>
    <use xlink:href="#TimesNewRomanPS-BoldMT-57" x="1251.099609"/>
    <use xlink:href="#TimesNewRomanPS-BoldMT-61" x="1345.599609"/>
    <use xlink:href="#TimesNewRomanPS-BoldMT-72" x="1395.599609"/>
    <use xlink:href="#TimesNewRomanPS-BoldMT-6d" x="1439.984375"/>
    <use xlink:href="#TimesNewRomanPS-BoldMT-74" x="1523.285156"/>
    <use xlink:href="#TimesNewRomanPS-BoldMT-68" x="1556.585938"/>
    <use xlink:href="#TimesNewRomanPS-BoldMT-20" x="1612.201172"/>
    <use xlink:href="#TimesNewRomanPS-BoldMT-61" x="1637.201172"/>
    <use xlink:href="#TimesNewRomanPS-BoldMT-6e" x="1687.201172"/>
    <use xlink:href="#TimesNewRomanPS-BoldMT-64" x="1742.816406"/>
    <use xlink:href="#TimesNewRomanPS-BoldMT-20" x="1798.431641"/>
    <use xlink:href="#TimesNewRomanPS-BoldMT-43" x="1823.431641"/>
    <use xlink:href="#TimesNewRomanPS-BoldMT-6f" x="1895.648438"/>
    <use xlink:href="#TimesNewRomanPS-BoldMT-6d" x="1945.648438"/>
    <use xlink:href="#TimesNewRomanPS-BoldMT-70" x="2028.949219"/>
    <use xlink:href="#TimesNewRomanPS-BoldMT-65" x="2084.564453"/>
    <use xlink:href="#TimesNewRomanPS-BoldMT-74" x="2128.949219"/>
    <use xlink:href="#TimesNewRomanPS-BoldMT-65" x="2162.25"/>
    <use xlink:href="#TimesNewRomanPS-BoldMT-6e" x="2206.634766"/>
    <use xlink:href="#TimesNewRomanPS-BoldMT-63" x="2262.25"/>
    <use xlink:href="#TimesNewRomanPS-BoldMT-65" x="2306.634766"/>
    <use xlink:href="#TimesNewRomanPS-BoldMT-20" x="2351.019531"/>
    <use xlink:href="#TimesNewRomanPS-BoldMT-53" x="2376.019531"/>
    <use xlink:href="#TimesNewRomanPS-BoldMT-65" x="2431.634766"/>
    <use xlink:href="#TimesNewRomanPS-BoldMT-6e" x="2476.019531"/>
    <use xlink:href="#TimesNewRomanPS-BoldMT-74" x="2531.634766"/>
    <use xlink:href="#TimesNewRomanPS-BoldMT-65" x="2564.935547"/>
    <use xlink:href="#TimesNewRomanPS-BoldMT-6e" x="2609.320312"/>
    <use xlink:href="#TimesNewRomanPS-BoldMT-63" x="2664.935547"/>
    <use xlink:href="#TimesNewRomanPS-BoldMT-65" x="2709.320312"/>
    <use xlink:href="#TimesNewRomanPS-BoldMT-20" x="2753.705078"/>
    <use xlink:href="#TimesNewRomanPS-BoldMT-50" x="2778.705078"/>
    <use xlink:href="#TimesNewRomanPS-BoldMT-65" x="2839.789062"/>
    <use xlink:href="#TimesNewRomanPS-BoldMT-72" x="2884.173828"/>
    <use xlink:href="#TimesNewRomanPS-BoldMT-63" x="2926.808594"/>
    <use xlink:href="#TimesNewRomanPS-BoldMT-65" x="2971.193359"/>
    <use xlink:href="#TimesNewRomanPS-BoldMT-6e" x="3015.578125"/>
    <use xlink:href="#TimesNewRomanPS-BoldMT-74" x="3071.193359"/>
    <use xlink:href="#TimesNewRomanPS-BoldMT-61" x="3104.494141"/>
    <use xlink:href="#TimesNewRomanPS-BoldMT-67" x="3154.494141"/>
    <use xlink:href="#TimesNewRomanPS-BoldMT-65" x="3204.494141"/>
    <use xlink:href="#TimesNewRomanPS-BoldMT-73" x="3248.878906"/>
    <use xlink:href="#TimesNewRomanPS-BoldMT-20" x="3287.794922"/>
    <use xlink:href="#TimesNewRomanPS-BoldMT-70" x="3312.794922"/>
    <use xlink:href="#TimesNewRomanPS-BoldMT-65" x="3368.410156"/>
    <use xlink:href="#TimesNewRomanPS-BoldMT-72" x="3412.794922"/>
    <use xlink:href="#TimesNewRomanPS-BoldMT-20" x="3455.429688"/>
    <use xlink:href="#TimesNewRomanPS-BoldMT-53" x="3480.429688"/>
    <use xlink:href="#TimesNewRomanPS-BoldMT-65" x="3536.044922"/>
    <use xlink:href="#TimesNewRomanPS-BoldMT-63" x="3580.429688"/>
    <use xlink:href="#TimesNewRomanPS-BoldMT-74" x="3624.814453"/>
    <use xlink:href="#TimesNewRomanPS-BoldMT-6f" x="3658.115234"/>
    <use xlink:href="#TimesNewRomanPS-BoldMT-72" x="3708.115234"/>
   </g>
  </g>
 </g>
 <defs>
  <clipPath id="p5cb1b1b0b9">
   <rect x="151.740833" y="41.76" width="357.12" height="266.112"/>
  </clipPath>
 </defs>
</svg>
