<?xml version="1.0" encoding="utf-8" standalone="no"?>
<!DOCTYPE svg PUBLIC "-//W3C//DTD SVG 1.1//EN"
  "http://www.w3.org/Graphics/SVG/1.1/DTD/svg11.dtd">
<svg xmlns:xlink="http://www.w3.org/1999/xlink" width="404.944688pt" height="346.58693pt" viewBox="0 0 404.944688 346.58693" xmlns="http://www.w3.org/2000/svg" version="1.1">
 <metadata>
  <rdf:RDF xmlns:dc="http://purl.org/dc/elements/1.1/" xmlns:cc="http://creativecommons.org/ns#" xmlns:rdf="http://www.w3.org/1999/02/22-rdf-syntax-ns#">
   <cc:Work>
    <dc:type rdf:resource="http://purl.org/dc/dcmitype/StillImage"/>
    <dc:date>2023-06-03T05:45:06.466655</dc:date>
    <dc:format>image/svg+xml</dc:format>
    <dc:creator>
     <cc:Agent>
      <dc:title>Matplotlib v3.7.1, https://matplotlib.org/</dc:title>
     </cc:Agent>
    </dc:creator>
   </cc:Work>
  </rdf:RDF>
 </metadata>
 <defs>
  <style type="text/css">*{stroke-linejoin: round; stroke-linecap: butt}</style>
 </defs>
 <g id="figure_1">
  <g id="patch_1">
   <path d="M 0 346.58693
L 404.944688 346.58693
L 404.944688 0
L 0 0
z
" style="fill: #ffffff"/>
  </g>
  <g id="axes_1">
   <g id="patch_2">
    <path d="M 40.624688 307.872
L 195.894253 307.872
L 195.894253 41.76
L 40.624688 41.76
z
" style="fill: #ffffff"/>
   </g>
   <g id="patch_3">
    <path d="M 79.442079 307.872
L 157.076861 307.872
L 157.076861 223.780608
L 79.442079 223.780608
z
" clip-path="url(#p2b7d027462)" style="fill: #ababab"/>
   </g>
   <g id="patch_4">
    <path d="M 79.442079 223.780608
L 157.076861 223.780608
L 157.076861 142.483392
L 79.442079 142.483392
z
" clip-path="url(#p2b7d027462)" style="fill: #006ba4"/>
   </g>
   <g id="patch_5">
    <path d="M 79.442079 142.483392
L 157.076861 142.483392
L 157.076861 86.112
L 79.442079 86.112
z
" clip-path="url(#p2b7d027462)" style="fill: #c85200"/>
   </g>
   <g id="matplotlib.axis_1">
    <g id="xtick_1">
     <g id="line2d_1">
      <defs>
       <path id="ma0ff36e43b" d="M 0 0
L 0 3.5
" style="stroke: #000000; stroke-width: 0.8"/>
      </defs>
      <g>
       <use xlink:href="#ma0ff36e43b" x="118.25947" y="307.872" style="stroke: #000000; stroke-width: 0.8"/>
      </g>
     </g>
     <g id="text_1">
      <!-- Gender -->
      <g transform="translate(120.260622 339.38693) rotate(-90) scale(0.0833 -0.0833)">
       <defs>
        <path id="TimesNewRomanPSMT-47" d="M 3928 4334
L 4038 2997
L 3928 2997
Q 3763 3497 3500 3750
Q 3122 4116 2528 4116
Q 1719 4116 1297 3475
Q 944 2934 944 2188
Q 944 1581 1178 1081
Q 1413 581 1792 348
Q 2172 116 2572 116
Q 2806 116 3025 175
Q 3244 234 3447 350
L 3447 1575
Q 3447 1894 3398 1992
Q 3350 2091 3248 2142
Q 3147 2194 2891 2194
L 2891 2313
L 4531 2313
L 4531 2194
L 4453 2194
Q 4209 2194 4119 2031
Q 4056 1916 4056 1575
L 4056 278
Q 3697 84 3347 -6
Q 2997 -97 2569 -97
Q 1341 -97 703 691
Q 225 1281 225 2053
Q 225 2613 494 3125
Q 813 3734 1369 4063
Q 1834 4334 2469 4334
Q 2700 4334 2889 4296
Q 3078 4259 3425 4131
Q 3600 4066 3659 4066
Q 3719 4066 3761 4120
Q 3803 4175 3813 4334
L 3928 4334
z
" transform="scale(0.015625)"/>
        <path id="TimesNewRomanPSMT-65" d="M 681 1784
Q 678 1147 991 784
Q 1303 422 1725 422
Q 2006 422 2214 576
Q 2422 731 2563 1106
L 2659 1044
Q 2594 616 2278 264
Q 1963 -88 1488 -88
Q 972 -88 605 314
Q 238 716 238 1394
Q 238 2128 614 2539
Q 991 2950 1559 2950
Q 2041 2950 2350 2633
Q 2659 2316 2659 1784
L 681 1784
z
M 681 1966
L 2006 1966
Q 1991 2241 1941 2353
Q 1863 2528 1708 2628
Q 1553 2728 1384 2728
Q 1125 2728 920 2526
Q 716 2325 681 1966
z
" transform="scale(0.015625)"/>
        <path id="TimesNewRomanPSMT-6e" d="M 1034 2341
Q 1538 2947 1994 2947
Q 2228 2947 2397 2830
Q 2566 2713 2666 2444
Q 2734 2256 2734 1869
L 2734 647
Q 2734 375 2778 278
Q 2813 200 2889 156
Q 2966 113 3172 113
L 3172 0
L 1756 0
L 1756 113
L 1816 113
Q 2016 113 2095 173
Q 2175 234 2206 353
Q 2219 400 2219 647
L 2219 1819
Q 2219 2209 2117 2386
Q 2016 2563 1775 2563
Q 1403 2563 1034 2156
L 1034 647
Q 1034 356 1069 288
Q 1113 197 1189 155
Q 1266 113 1500 113
L 1500 0
L 84 0
L 84 113
L 147 113
Q 366 113 442 223
Q 519 334 519 647
L 519 1709
Q 519 2225 495 2337
Q 472 2450 423 2490
Q 375 2531 294 2531
Q 206 2531 84 2484
L 38 2597
L 900 2947
L 1034 2947
L 1034 2341
z
" transform="scale(0.015625)"/>
        <path id="TimesNewRomanPSMT-64" d="M 2222 322
Q 2013 103 1813 7
Q 1613 -88 1381 -88
Q 913 -88 563 304
Q 213 697 213 1313
Q 213 1928 600 2439
Q 988 2950 1597 2950
Q 1975 2950 2222 2709
L 2222 3238
Q 2222 3728 2198 3840
Q 2175 3953 2125 3993
Q 2075 4034 2000 4034
Q 1919 4034 1784 3984
L 1744 4094
L 2597 4444
L 2738 4444
L 2738 1134
Q 2738 631 2761 520
Q 2784 409 2836 365
Q 2888 322 2956 322
Q 3041 322 3181 375
L 3216 266
L 2366 -88
L 2222 -88
L 2222 322
z
M 2222 541
L 2222 2016
Q 2203 2228 2109 2403
Q 2016 2578 1861 2667
Q 1706 2756 1559 2756
Q 1284 2756 1069 2509
Q 784 2184 784 1559
Q 784 928 1059 592
Q 1334 256 1672 256
Q 1956 256 2222 541
z
" transform="scale(0.015625)"/>
        <path id="TimesNewRomanPSMT-72" d="M 1038 2947
L 1038 2303
Q 1397 2947 1775 2947
Q 1947 2947 2059 2842
Q 2172 2738 2172 2600
Q 2172 2478 2090 2393
Q 2009 2309 1897 2309
Q 1788 2309 1652 2417
Q 1516 2525 1450 2525
Q 1394 2525 1328 2463
Q 1188 2334 1038 2041
L 1038 669
Q 1038 431 1097 309
Q 1138 225 1241 169
Q 1344 113 1538 113
L 1538 0
L 72 0
L 72 113
Q 291 113 397 181
Q 475 231 506 341
Q 522 394 522 644
L 522 1753
Q 522 2253 501 2348
Q 481 2444 426 2487
Q 372 2531 291 2531
Q 194 2531 72 2484
L 41 2597
L 906 2947
L 1038 2947
z
" transform="scale(0.015625)"/>
       </defs>
       <use xlink:href="#TimesNewRomanPSMT-47"/>
       <use xlink:href="#TimesNewRomanPSMT-65" x="72.216797"/>
       <use xlink:href="#TimesNewRomanPSMT-6e" x="116.601562"/>
       <use xlink:href="#TimesNewRomanPSMT-64" x="166.601562"/>
       <use xlink:href="#TimesNewRomanPSMT-65" x="216.601562"/>
       <use xlink:href="#TimesNewRomanPSMT-72" x="260.986328"/>
      </g>
     </g>
    </g>
   </g>
   <g id="matplotlib.axis_2">
    <g id="ytick_1">
     <g id="line2d_2">
      <defs>
       <path id="me0d2cb6cd4" d="M 0 0
L -3.5 0
" style="stroke: #000000; stroke-width: 0.8"/>
      </defs>
      <g>
       <use xlink:href="#me0d2cb6cd4" x="40.624688" y="307.872" style="stroke: #000000; stroke-width: 0.8"/>
      </g>
     </g>
     <g id="text_2">
      <!-- 0 -->
      <g transform="translate(29.459688 310.764072) scale(0.0833 -0.0833)">
       <defs>
        <path id="TimesNewRomanPSMT-30" d="M 231 2094
Q 231 2819 450 3342
Q 669 3866 1031 4122
Q 1313 4325 1613 4325
Q 2100 4325 2488 3828
Q 2972 3213 2972 2159
Q 2972 1422 2759 906
Q 2547 391 2217 158
Q 1888 -75 1581 -75
Q 975 -75 572 641
Q 231 1244 231 2094
z
M 844 2016
Q 844 1141 1059 588
Q 1238 122 1591 122
Q 1759 122 1940 273
Q 2122 425 2216 781
Q 2359 1319 2359 2297
Q 2359 3022 2209 3506
Q 2097 3866 1919 4016
Q 1791 4119 1609 4119
Q 1397 4119 1231 3928
Q 1006 3669 925 3112
Q 844 2556 844 2016
z
" transform="scale(0.015625)"/>
       </defs>
       <use xlink:href="#TimesNewRomanPSMT-30"/>
      </g>
     </g>
    </g>
    <g id="ytick_2">
     <g id="line2d_3">
      <g>
       <use xlink:href="#me0d2cb6cd4" x="40.624688" y="263.52" style="stroke: #000000; stroke-width: 0.8"/>
      </g>
     </g>
     <g id="text_3">
      <!-- 20 -->
      <g transform="translate(25.294688 266.412072) scale(0.0833 -0.0833)">
       <defs>
        <path id="TimesNewRomanPSMT-32" d="M 2934 816
L 2638 0
L 138 0
L 138 116
Q 1241 1122 1691 1759
Q 2141 2397 2141 2925
Q 2141 3328 1894 3587
Q 1647 3847 1303 3847
Q 991 3847 742 3664
Q 494 3481 375 3128
L 259 3128
Q 338 3706 661 4015
Q 984 4325 1469 4325
Q 1984 4325 2329 3994
Q 2675 3663 2675 3213
Q 2675 2891 2525 2569
Q 2294 2063 1775 1497
Q 997 647 803 472
L 1909 472
Q 2247 472 2383 497
Q 2519 522 2628 598
Q 2738 675 2819 816
L 2934 816
z
" transform="scale(0.015625)"/>
       </defs>
       <use xlink:href="#TimesNewRomanPSMT-32"/>
       <use xlink:href="#TimesNewRomanPSMT-30" x="50"/>
      </g>
     </g>
    </g>
    <g id="ytick_3">
     <g id="line2d_4">
      <g>
       <use xlink:href="#me0d2cb6cd4" x="40.624688" y="219.168" style="stroke: #000000; stroke-width: 0.8"/>
      </g>
     </g>
     <g id="text_4">
      <!-- 40 -->
      <g transform="translate(25.294688 222.060072) scale(0.0833 -0.0833)">
       <defs>
        <path id="TimesNewRomanPSMT-34" d="M 2978 1563
L 2978 1119
L 2409 1119
L 2409 0
L 1894 0
L 1894 1119
L 100 1119
L 100 1519
L 2066 4325
L 2409 4325
L 2409 1563
L 2978 1563
z
M 1894 1563
L 1894 3666
L 406 1563
L 1894 1563
z
" transform="scale(0.015625)"/>
       </defs>
       <use xlink:href="#TimesNewRomanPSMT-34"/>
       <use xlink:href="#TimesNewRomanPSMT-30" x="50"/>
      </g>
     </g>
    </g>
    <g id="ytick_4">
     <g id="line2d_5">
      <g>
       <use xlink:href="#me0d2cb6cd4" x="40.624688" y="174.816" style="stroke: #000000; stroke-width: 0.8"/>
      </g>
     </g>
     <g id="text_5">
      <!-- 60 -->
      <g transform="translate(25.294688 177.708072) scale(0.0833 -0.0833)">
       <defs>
        <path id="TimesNewRomanPSMT-36" d="M 2869 4325
L 2869 4209
Q 2456 4169 2195 4045
Q 1934 3922 1679 3669
Q 1425 3416 1258 3105
Q 1091 2794 978 2366
Q 1428 2675 1881 2675
Q 2316 2675 2634 2325
Q 2953 1975 2953 1425
Q 2953 894 2631 456
Q 2244 -75 1606 -75
Q 1172 -75 869 213
Q 275 772 275 1663
Q 275 2231 503 2743
Q 731 3256 1154 3653
Q 1578 4050 1965 4187
Q 2353 4325 2688 4325
L 2869 4325
z
M 925 2138
Q 869 1716 869 1456
Q 869 1156 980 804
Q 1091 453 1309 247
Q 1469 100 1697 100
Q 1969 100 2183 356
Q 2397 613 2397 1088
Q 2397 1622 2184 2012
Q 1972 2403 1581 2403
Q 1463 2403 1327 2353
Q 1191 2303 925 2138
z
" transform="scale(0.015625)"/>
       </defs>
       <use xlink:href="#TimesNewRomanPSMT-36"/>
       <use xlink:href="#TimesNewRomanPSMT-30" x="50"/>
      </g>
     </g>
    </g>
    <g id="ytick_5">
     <g id="line2d_6">
      <g>
       <use xlink:href="#me0d2cb6cd4" x="40.624688" y="130.464" style="stroke: #000000; stroke-width: 0.8"/>
      </g>
     </g>
     <g id="text_6">
      <!-- 80 -->
      <g transform="translate(25.294688 133.356072) scale(0.0833 -0.0833)">
       <defs>
        <path id="TimesNewRomanPSMT-38" d="M 1228 2134
Q 725 2547 579 2797
Q 434 3047 434 3316
Q 434 3728 753 4026
Q 1072 4325 1600 4325
Q 2113 4325 2425 4047
Q 2738 3769 2738 3413
Q 2738 3175 2569 2928
Q 2400 2681 1866 2347
Q 2416 1922 2594 1678
Q 2831 1359 2831 1006
Q 2831 559 2490 242
Q 2150 -75 1597 -75
Q 994 -75 656 303
Q 388 606 388 966
Q 388 1247 577 1523
Q 766 1800 1228 2134
z
M 1719 2469
Q 2094 2806 2194 3001
Q 2294 3197 2294 3444
Q 2294 3772 2109 3958
Q 1925 4144 1606 4144
Q 1288 4144 1088 3959
Q 888 3775 888 3528
Q 888 3366 970 3203
Q 1053 3041 1206 2894
L 1719 2469
z
M 1375 2016
Q 1116 1797 991 1539
Q 866 1281 866 981
Q 866 578 1086 336
Q 1306 94 1647 94
Q 1984 94 2187 284
Q 2391 475 2391 747
Q 2391 972 2272 1150
Q 2050 1481 1375 2016
z
" transform="scale(0.015625)"/>
       </defs>
       <use xlink:href="#TimesNewRomanPSMT-38"/>
       <use xlink:href="#TimesNewRomanPSMT-30" x="50"/>
      </g>
     </g>
    </g>
    <g id="ytick_6">
     <g id="line2d_7">
      <g>
       <use xlink:href="#me0d2cb6cd4" x="40.624688" y="86.112" style="stroke: #000000; stroke-width: 0.8"/>
      </g>
     </g>
     <g id="text_7">
      <!-- 100 -->
      <g transform="translate(21.129688 89.004072) scale(0.0833 -0.0833)">
       <defs>
        <path id="TimesNewRomanPSMT-31" d="M 750 3822
L 1781 4325
L 1884 4325
L 1884 747
Q 1884 391 1914 303
Q 1944 216 2037 169
Q 2131 122 2419 116
L 2419 0
L 825 0
L 825 116
Q 1125 122 1212 167
Q 1300 213 1334 289
Q 1369 366 1369 747
L 1369 3034
Q 1369 3497 1338 3628
Q 1316 3728 1258 3775
Q 1200 3822 1119 3822
Q 1003 3822 797 3725
L 750 3822
z
" transform="scale(0.015625)"/>
       </defs>
       <use xlink:href="#TimesNewRomanPSMT-31"/>
       <use xlink:href="#TimesNewRomanPSMT-30" x="50"/>
       <use xlink:href="#TimesNewRomanPSMT-30" x="100"/>
      </g>
     </g>
    </g>
    <g id="ytick_7">
     <g id="line2d_8">
      <g>
       <use xlink:href="#me0d2cb6cd4" x="40.624688" y="41.76" style="stroke: #000000; stroke-width: 0.8"/>
      </g>
     </g>
     <g id="text_8">
      <!-- 120 -->
      <g transform="translate(21.129688 44.652072) scale(0.0833 -0.0833)">
       <use xlink:href="#TimesNewRomanPSMT-31"/>
       <use xlink:href="#TimesNewRomanPSMT-32" x="50"/>
       <use xlink:href="#TimesNewRomanPSMT-30" x="100"/>
      </g>
     </g>
    </g>
    <g id="text_9">
     <!-- Job Ad Sentences Percentages (%) -->
     <g transform="translate(13.971875 248.3285) rotate(-90) scale(0.1 -0.1)">
      <defs>
       <path id="TimesNewRomanPS-BoldMT-4a" d="M 909 4122
L 909 4238
L 3163 4238
L 3163 4122
L 3025 4122
Q 2838 4122 2725 4056
Q 2647 4013 2600 3906
Q 2566 3831 2566 3513
L 2566 1438
Q 2566 828 2444 551
Q 2322 275 2011 89
Q 1700 -97 1263 -97
Q 728 -97 398 184
Q 69 466 69 806
Q 69 1025 203 1161
Q 338 1297 531 1297
Q 722 1297 851 1175
Q 981 1053 981 875
Q 981 788 959 722
Q 947 691 861 564
Q 775 438 775 384
Q 775 303 856 244
Q 975 156 1166 156
Q 1300 156 1387 225
Q 1475 294 1511 439
Q 1547 584 1547 1247
L 1547 3513
Q 1547 3838 1511 3919
Q 1475 4000 1370 4061
Q 1266 4122 1088 4122
L 909 4122
z
" transform="scale(0.015625)"/>
       <path id="TimesNewRomanPS-BoldMT-6f" d="M 1594 3009
Q 1975 3009 2303 2812
Q 2631 2616 2801 2253
Q 2972 1891 2972 1459
Q 2972 838 2656 419
Q 2275 -88 1603 -88
Q 944 -88 587 375
Q 231 838 231 1447
Q 231 2075 595 2542
Q 959 3009 1594 3009
z
M 1606 2788
Q 1447 2788 1333 2667
Q 1219 2547 1183 2192
Q 1147 1838 1147 1206
Q 1147 872 1191 581
Q 1225 359 1337 243
Q 1450 128 1594 128
Q 1734 128 1828 206
Q 1950 313 1991 503
Q 2053 800 2053 1703
Q 2053 2234 1993 2432
Q 1934 2631 1819 2722
Q 1738 2788 1606 2788
z
" transform="scale(0.015625)"/>
       <path id="TimesNewRomanPS-BoldMT-62" d="M 1347 4238
L 1347 2628
Q 1716 3009 2153 3009
Q 2453 3009 2718 2832
Q 2984 2656 3134 2331
Q 3284 2006 3284 1581
Q 3284 1103 3093 712
Q 2903 322 2584 117
Q 2266 -88 1856 -88
Q 1619 -88 1434 -12
Q 1250 63 1072 231
L 588 -84
L 481 -84
L 481 3631
Q 481 3884 459 3944
Q 428 4031 361 4073
Q 294 4116 134 4122
L 134 4238
L 1347 4238
z
M 1347 2350
L 1347 1050
Q 1347 653 1366 544
Q 1397 359 1515 245
Q 1634 131 1819 131
Q 1978 131 2092 222
Q 2206 313 2282 581
Q 2359 850 2359 1550
Q 2359 2222 2191 2472
Q 2069 2653 1863 2653
Q 1594 2653 1347 2350
z
" transform="scale(0.015625)"/>
       <path id="TimesNewRomanPS-BoldMT-20" transform="scale(0.015625)"/>
       <path id="TimesNewRomanPS-BoldMT-41" d="M 2663 1206
L 1166 1206
L 988 794
Q 900 588 900 453
Q 900 275 1044 191
Q 1128 141 1459 116
L 1459 0
L 50 0
L 50 116
Q 278 150 425 304
Q 572 459 788 944
L 2303 4325
L 2363 4325
L 3891 850
Q 4109 356 4250 228
Q 4356 131 4550 116
L 4550 0
L 2500 0
L 2500 116
L 2584 116
Q 2831 116 2931 184
Q 3000 234 3000 328
Q 3000 384 2981 444
Q 2975 472 2888 678
L 2663 1206
z
M 2556 1438
L 1925 2897
L 1275 1438
L 2556 1438
z
" transform="scale(0.015625)"/>
       <path id="TimesNewRomanPS-BoldMT-64" d="M 3056 4238
L 3056 875
Q 3056 534 3075 472
Q 3100 369 3170 319
Q 3241 269 3416 256
L 3416 153
L 2181 -88
L 2181 375
Q 1959 106 1786 9
Q 1613 -88 1394 -88
Q 834 -88 509 413
Q 247 819 247 1409
Q 247 1881 409 2254
Q 572 2628 855 2818
Q 1138 3009 1463 3009
Q 1672 3009 1834 2928
Q 1997 2847 2181 2644
L 2181 3525
Q 2181 3859 2153 3928
Q 2116 4019 2041 4062
Q 1966 4106 1759 4106
L 1759 4238
L 3056 4238
z
M 2181 2256
Q 1950 2700 1616 2700
Q 1500 2700 1425 2638
Q 1309 2541 1236 2297
Q 1163 2053 1163 1550
Q 1163 997 1244 731
Q 1325 466 1466 347
Q 1538 288 1663 288
Q 1938 288 2181 719
L 2181 2256
z
" transform="scale(0.015625)"/>
       <path id="TimesNewRomanPS-BoldMT-53" d="M 3006 4334
L 3041 2922
L 2913 2922
Q 2822 3453 2467 3776
Q 2113 4100 1700 4100
Q 1381 4100 1195 3929
Q 1009 3759 1009 3538
Q 1009 3397 1075 3288
Q 1166 3141 1366 2997
Q 1513 2894 2044 2631
Q 2788 2266 3047 1941
Q 3303 1616 3303 1197
Q 3303 666 2889 283
Q 2475 -100 1838 -100
Q 1638 -100 1459 -59
Q 1281 -19 1013 94
Q 863 156 766 156
Q 684 156 593 93
Q 503 31 447 -97
L 331 -97
L 331 1503
L 447 1503
Q 584 828 976 473
Q 1369 119 1822 119
Q 2172 119 2380 309
Q 2588 500 2588 753
Q 2588 903 2508 1043
Q 2428 1184 2265 1311
Q 2103 1438 1691 1641
Q 1113 1925 859 2125
Q 606 2325 470 2572
Q 334 2819 334 3116
Q 334 3622 706 3978
Q 1078 4334 1644 4334
Q 1850 4334 2044 4284
Q 2191 4247 2402 4145
Q 2613 4044 2697 4044
Q 2778 4044 2825 4094
Q 2872 4144 2913 4334
L 3006 4334
z
" transform="scale(0.015625)"/>
       <path id="TimesNewRomanPS-BoldMT-65" d="M 2691 1566
L 1088 1566
Q 1116 984 1397 647
Q 1613 388 1916 388
Q 2103 388 2256 492
Q 2409 597 2584 869
L 2691 800
Q 2453 316 2165 114
Q 1878 -88 1500 -88
Q 850 -88 516 413
Q 247 816 247 1413
Q 247 2144 642 2576
Q 1038 3009 1569 3009
Q 2013 3009 2339 2645
Q 2666 2281 2691 1566
z
M 1922 1775
Q 1922 2278 1867 2465
Q 1813 2653 1697 2750
Q 1631 2806 1522 2806
Q 1359 2806 1256 2647
Q 1072 2369 1072 1884
L 1072 1775
L 1922 1775
z
" transform="scale(0.015625)"/>
       <path id="TimesNewRomanPS-BoldMT-6e" d="M 1409 2922
L 1409 2544
Q 1634 2788 1840 2898
Q 2047 3009 2284 3009
Q 2569 3009 2756 2851
Q 2944 2694 3006 2459
Q 3056 2281 3056 1775
L 3056 638
Q 3056 300 3117 217
Q 3178 134 3372 113
L 3372 0
L 1894 0
L 1894 113
Q 2059 134 2131 250
Q 2181 328 2181 638
L 2181 1938
Q 2181 2297 2153 2390
Q 2125 2484 2058 2536
Q 1991 2588 1909 2588
Q 1641 2588 1409 2203
L 1409 638
Q 1409 309 1470 221
Q 1531 134 1697 113
L 1697 0
L 219 0
L 219 113
Q 403 131 481 231
Q 534 300 534 638
L 534 2288
Q 534 2619 473 2700
Q 413 2781 219 2806
L 219 2922
L 1409 2922
z
" transform="scale(0.015625)"/>
       <path id="TimesNewRomanPS-BoldMT-74" d="M 1375 3991
L 1375 2922
L 2069 2922
L 2069 2613
L 1375 2613
L 1375 809
Q 1375 556 1398 482
Q 1422 409 1481 364
Q 1541 319 1591 319
Q 1794 319 1975 628
L 2069 559
Q 1816 -41 1247 -41
Q 969 -41 776 114
Q 584 269 531 459
Q 500 566 500 1034
L 500 2613
L 119 2613
L 119 2722
Q 513 3000 789 3306
Q 1066 3613 1272 3991
L 1375 3991
z
" transform="scale(0.015625)"/>
       <path id="TimesNewRomanPS-BoldMT-63" d="M 2600 753
L 2697 678
Q 2491 291 2183 101
Q 1875 -88 1528 -88
Q 944 -88 594 353
Q 244 794 244 1413
Q 244 2009 563 2463
Q 947 3009 1622 3009
Q 2075 3009 2342 2781
Q 2609 2553 2609 2272
Q 2609 2094 2501 1987
Q 2394 1881 2219 1881
Q 2034 1881 1914 2003
Q 1794 2125 1766 2438
Q 1747 2634 1675 2713
Q 1603 2791 1506 2791
Q 1356 2791 1250 2631
Q 1088 2391 1088 1894
Q 1088 1481 1219 1104
Q 1350 728 1578 544
Q 1750 409 1984 409
Q 2138 409 2275 481
Q 2413 553 2600 753
z
" transform="scale(0.015625)"/>
       <path id="TimesNewRomanPS-BoldMT-73" d="M 2063 3003
L 2109 2006
L 2003 2006
Q 1813 2450 1608 2612
Q 1403 2775 1200 2775
Q 1072 2775 981 2689
Q 891 2603 891 2491
Q 891 2406 953 2328
Q 1053 2200 1512 1889
Q 1972 1578 2117 1361
Q 2263 1144 2263 875
Q 2263 631 2141 397
Q 2019 163 1797 37
Q 1575 -88 1306 -88
Q 1097 -88 747 44
Q 653 78 619 78
Q 516 78 447 -78
L 344 -78
L 294 972
L 400 972
Q 541 559 786 353
Q 1031 147 1250 147
Q 1400 147 1495 239
Q 1591 331 1591 463
Q 1591 613 1497 722
Q 1403 831 1078 1053
Q 600 1384 459 1559
Q 253 1816 253 2125
Q 253 2463 486 2736
Q 719 3009 1159 3009
Q 1397 3009 1619 2894
Q 1703 2847 1756 2847
Q 1813 2847 1847 2870
Q 1881 2894 1956 3003
L 2063 3003
z
" transform="scale(0.015625)"/>
       <path id="TimesNewRomanPS-BoldMT-50" d="M 1728 1919
L 1728 744
Q 1728 400 1770 311
Q 1813 222 1920 169
Q 2028 116 2316 116
L 2316 0
L 163 0
L 163 116
Q 456 116 561 170
Q 666 225 708 312
Q 750 400 750 744
L 750 3494
Q 750 3838 708 3927
Q 666 4016 559 4069
Q 453 4122 163 4122
L 163 4238
L 2009 4238
Q 2922 4238 3319 3913
Q 3716 3588 3716 3100
Q 3716 2688 3459 2394
Q 3203 2100 2753 1994
Q 2450 1919 1728 1919
z
M 1728 3994
L 1728 2163
Q 1831 2156 1884 2156
Q 2266 2156 2472 2382
Q 2678 2609 2678 3084
Q 2678 3556 2472 3775
Q 2266 3994 1856 3994
L 1728 3994
z
" transform="scale(0.015625)"/>
       <path id="TimesNewRomanPS-BoldMT-72" d="M 1428 2922
L 1428 2259
Q 1719 2713 1937 2861
Q 2156 3009 2359 3009
Q 2534 3009 2639 2901
Q 2744 2794 2744 2597
Q 2744 2388 2642 2272
Q 2541 2156 2397 2156
Q 2231 2156 2109 2262
Q 1988 2369 1966 2381
Q 1934 2400 1894 2400
Q 1803 2400 1722 2331
Q 1594 2225 1528 2028
Q 1428 1725 1428 1359
L 1428 688
L 1431 513
Q 1431 334 1453 284
Q 1491 200 1564 161
Q 1638 122 1813 113
L 1813 0
L 234 0
L 234 113
Q 425 128 492 217
Q 559 306 559 688
L 559 2303
Q 559 2553 534 2622
Q 503 2709 443 2750
Q 384 2791 234 2806
L 234 2922
L 1428 2922
z
" transform="scale(0.015625)"/>
       <path id="TimesNewRomanPS-BoldMT-61" d="M 1828 431
Q 1294 -41 869 -41
Q 619 -41 453 123
Q 288 288 288 534
Q 288 869 575 1136
Q 863 1403 1828 1847
L 1828 2141
Q 1828 2472 1792 2558
Q 1756 2644 1656 2708
Q 1556 2772 1431 2772
Q 1228 2772 1097 2681
Q 1016 2625 1016 2550
Q 1016 2484 1103 2388
Q 1222 2253 1222 2128
Q 1222 1975 1108 1867
Q 994 1759 809 1759
Q 613 1759 480 1878
Q 347 1997 347 2156
Q 347 2381 525 2586
Q 703 2791 1022 2900
Q 1341 3009 1684 3009
Q 2100 3009 2342 2832
Q 2584 2656 2656 2450
Q 2700 2319 2700 1847
L 2700 713
Q 2700 513 2715 461
Q 2731 409 2762 384
Q 2794 359 2834 359
Q 2916 359 3000 475
L 3094 400
Q 2938 169 2770 64
Q 2603 -41 2391 -41
Q 2141 -41 2000 76
Q 1859 194 1828 431
z
M 1828 659
L 1828 1638
Q 1450 1416 1266 1163
Q 1144 994 1144 822
Q 1144 678 1247 569
Q 1325 484 1466 484
Q 1622 484 1828 659
z
" transform="scale(0.015625)"/>
       <path id="TimesNewRomanPS-BoldMT-67" d="M 2091 2888
L 3075 2888
L 3075 2544
L 2516 2544
Q 2669 2391 2728 2266
Q 2803 2097 2803 1913
Q 2803 1600 2629 1370
Q 2456 1141 2157 1011
Q 1859 881 1628 881
Q 1609 881 1253 897
Q 1113 897 1017 805
Q 922 713 922 584
Q 922 472 1008 400
Q 1094 328 1288 328
L 1828 334
Q 2484 334 2731 191
Q 3084 -9 3084 -425
Q 3084 -691 2921 -908
Q 2759 -1125 2494 -1228
Q 2091 -1381 1566 -1381
Q 1172 -1381 847 -1304
Q 522 -1228 381 -1092
Q 241 -956 241 -806
Q 241 -663 348 -548
Q 456 -434 750 -356
Q 344 -156 344 200
Q 344 416 509 619
Q 675 822 1034 972
Q 616 1125 428 1375
Q 241 1625 241 1953
Q 241 2381 591 2695
Q 941 3009 1491 3009
Q 1781 3009 2091 2888
z
M 1550 2816
Q 1369 2816 1244 2633
Q 1119 2450 1119 1875
Q 1119 1409 1242 1236
Q 1366 1063 1534 1063
Q 1722 1063 1847 1234
Q 1972 1406 1972 1903
Q 1972 2463 1831 2666
Q 1731 2816 1550 2816
z
M 1366 -431
Q 1047 -431 944 -484
Q 766 -581 766 -747
Q 766 -906 950 -1036
Q 1134 -1166 1644 -1166
Q 2078 -1166 2326 -1050
Q 2575 -934 2575 -725
Q 2575 -647 2528 -594
Q 2444 -500 2273 -465
Q 2103 -431 1366 -431
z
" transform="scale(0.015625)"/>
       <path id="TimesNewRomanPS-BoldMT-28" d="M 2056 4334
L 2056 4191
Q 1731 3978 1578 3775
Q 1366 3494 1247 3053
Q 1097 2506 1097 1525
Q 1097 600 1233 87
Q 1369 -425 1603 -741
Q 1766 -959 2056 -1125
L 2056 -1281
Q 1303 -1028 779 -248
Q 256 531 256 1544
Q 256 2544 778 3314
Q 1300 4084 2056 4334
z
" transform="scale(0.015625)"/>
       <path id="TimesNewRomanPS-BoldMT-25" d="M 4916 4334
L 1906 -178
L 1488 -178
L 4494 4334
L 4916 4334
z
M 1494 4334
Q 1938 4334 2242 4020
Q 2547 3706 2547 3209
Q 2547 2700 2240 2383
Q 1934 2066 1481 2066
Q 1034 2066 739 2372
Q 444 2678 444 3178
Q 444 3694 747 4014
Q 1050 4334 1494 4334
z
M 1494 4169
Q 1425 4169 1381 4128
Q 1303 4056 1264 3879
Q 1225 3703 1225 3150
Q 1225 2709 1278 2469
Q 1309 2331 1384 2263
Q 1431 2222 1494 2222
Q 1563 2222 1603 2259
Q 1675 2325 1709 2472
Q 1763 2709 1763 3138
Q 1763 3663 1713 3897
Q 1678 4059 1600 4134
Q 1563 4169 1494 4169
z
M 4894 2097
Q 5347 2097 5651 1786
Q 5956 1475 5956 972
Q 5956 463 5647 144
Q 5338 -175 4900 -175
Q 4466 -175 4161 144
Q 3856 463 3856 963
Q 3856 1466 4153 1781
Q 4450 2097 4894 2097
z
M 4903 1934
Q 4841 1934 4797 1897
Q 4722 1828 4681 1658
Q 4641 1488 4641 1006
Q 4641 494 4688 269
Q 4722 109 4803 38
Q 4844 0 4909 0
Q 4969 0 5006 34
Q 5084 106 5122 269
Q 5175 497 5175 959
Q 5175 1447 5125 1672
Q 5088 1834 5013 1900
Q 4975 1934 4903 1934
z
" transform="scale(0.015625)"/>
       <path id="TimesNewRomanPS-BoldMT-29" d="M 78 -1281
L 78 -1138
Q 403 -922 556 -719
Q 766 -438 888 0
Q 1038 550 1038 1531
Q 1038 2456 902 2967
Q 766 3478 531 3794
Q 369 4013 78 4178
L 78 4334
Q 831 4081 1354 3301
Q 1878 2522 1878 1509
Q 1878 513 1354 -257
Q 831 -1028 78 -1281
z
" transform="scale(0.015625)"/>
      </defs>
      <use xlink:href="#TimesNewRomanPS-BoldMT-4a"/>
      <use xlink:href="#TimesNewRomanPS-BoldMT-6f" x="50"/>
      <use xlink:href="#TimesNewRomanPS-BoldMT-62" x="100"/>
      <use xlink:href="#TimesNewRomanPS-BoldMT-20" x="155.615234"/>
      <use xlink:href="#TimesNewRomanPS-BoldMT-41" x="175.115234"/>
      <use xlink:href="#TimesNewRomanPS-BoldMT-64" x="247.332031"/>
      <use xlink:href="#TimesNewRomanPS-BoldMT-20" x="302.947266"/>
      <use xlink:href="#TimesNewRomanPS-BoldMT-53" x="327.947266"/>
      <use xlink:href="#TimesNewRomanPS-BoldMT-65" x="383.5625"/>
      <use xlink:href="#TimesNewRomanPS-BoldMT-6e" x="427.947266"/>
      <use xlink:href="#TimesNewRomanPS-BoldMT-74" x="483.5625"/>
      <use xlink:href="#TimesNewRomanPS-BoldMT-65" x="516.863281"/>
      <use xlink:href="#TimesNewRomanPS-BoldMT-6e" x="561.248047"/>
      <use xlink:href="#TimesNewRomanPS-BoldMT-63" x="616.863281"/>
      <use xlink:href="#TimesNewRomanPS-BoldMT-65" x="661.248047"/>
      <use xlink:href="#TimesNewRomanPS-BoldMT-73" x="705.632812"/>
      <use xlink:href="#TimesNewRomanPS-BoldMT-20" x="744.548828"/>
      <use xlink:href="#TimesNewRomanPS-BoldMT-50" x="769.548828"/>
      <use xlink:href="#TimesNewRomanPS-BoldMT-65" x="830.632812"/>
      <use xlink:href="#TimesNewRomanPS-BoldMT-72" x="875.017578"/>
      <use xlink:href="#TimesNewRomanPS-BoldMT-63" x="917.652344"/>
      <use xlink:href="#TimesNewRomanPS-BoldMT-65" x="962.037109"/>
      <use xlink:href="#TimesNewRomanPS-BoldMT-6e" x="1006.421875"/>
      <use xlink:href="#TimesNewRomanPS-BoldMT-74" x="1062.037109"/>
      <use xlink:href="#TimesNewRomanPS-BoldMT-61" x="1095.337891"/>
      <use xlink:href="#TimesNewRomanPS-BoldMT-67" x="1145.337891"/>
      <use xlink:href="#TimesNewRomanPS-BoldMT-65" x="1195.337891"/>
      <use xlink:href="#TimesNewRomanPS-BoldMT-73" x="1239.722656"/>
      <use xlink:href="#TimesNewRomanPS-BoldMT-20" x="1278.638672"/>
      <use xlink:href="#TimesNewRomanPS-BoldMT-28" x="1303.638672"/>
      <use xlink:href="#TimesNewRomanPS-BoldMT-25" x="1336.939453"/>
      <use xlink:href="#TimesNewRomanPS-BoldMT-29" x="1436.939453"/>
     </g>
    </g>
   </g>
   <g id="patch_6">
    <path d="M 40.624688 307.872
L 40.624688 41.76
" style="fill: none; stroke: #000000; stroke-width: 0.8; stroke-linejoin: miter; stroke-linecap: square"/>
   </g>
   <g id="patch_7">
    <path d="M 40.624688 307.872
L 195.894253 307.872
" style="fill: none; stroke: #000000; stroke-width: 0.8; stroke-linejoin: miter; stroke-linecap: square"/>
   </g>
   <g id="text_10">
    <!-- 37.9% -->
    <g style="fill: #ffffff" transform="translate(104.50947 268.06771) scale(0.1 -0.1)">
     <defs>
      <path id="TimesNewRomanPS-BoldMT-33" d="M 947 2125
L 947 2234
Q 1303 2338 1440 2427
Q 1578 2516 1678 2698
Q 1778 2881 1778 3069
Q 1778 3328 1589 3514
Q 1400 3700 1119 3700
Q 681 3700 375 3238
L 259 3278
Q 484 3800 836 4062
Q 1188 4325 1619 4325
Q 2059 4325 2345 4056
Q 2631 3788 2631 3428
Q 2631 3194 2498 2976
Q 2366 2759 2081 2594
Q 2447 2416 2639 2155
Q 2831 1894 2831 1500
Q 2831 838 2351 373
Q 1872 -91 1066 -91
Q 528 -91 281 88
Q 103 213 103 409
Q 103 553 206 654
Q 309 756 444 756
Q 547 756 638 713
Q 688 688 992 439
Q 1297 191 1563 191
Q 1794 191 1959 373
Q 2125 556 2125 838
Q 2125 1266 1825 1627
Q 1525 1988 947 2125
z
" transform="scale(0.015625)"/>
      <path id="TimesNewRomanPS-BoldMT-37" d="M 1134 -88
L 2288 3409
L 1409 3409
Q 894 3409 634 3275
Q 453 3181 334 2922
L 216 2922
L 522 4238
L 3047 4238
L 1625 -88
L 1134 -88
z
" transform="scale(0.015625)"/>
      <path id="TimesNewRomanPS-BoldMT-2e" d="M 800 963
Q 1019 963 1170 809
Q 1322 656 1322 441
Q 1322 225 1169 73
Q 1016 -78 800 -78
Q 584 -78 432 73
Q 281 225 281 441
Q 281 656 432 809
Q 584 963 800 963
z
" transform="scale(0.015625)"/>
      <path id="TimesNewRomanPS-BoldMT-39" d="M 197 -88
L 197 0
Q 716 119 1077 350
Q 1438 581 1648 922
Q 1859 1263 1944 1706
Q 1750 1606 1614 1567
Q 1478 1528 1328 1528
Q 847 1528 526 1875
Q 206 2222 206 2825
Q 206 3244 379 3592
Q 553 3941 875 4133
Q 1197 4325 1544 4325
Q 1916 4325 2247 4112
Q 2578 3900 2775 3497
Q 2972 3094 2972 2578
Q 2972 1909 2651 1296
Q 2331 684 1697 314
Q 1063 -56 197 -88
z
M 1991 1969
Q 2022 2319 2022 2584
Q 2022 3153 1891 3644
Q 1816 3916 1669 4044
Q 1591 4113 1466 4113
Q 1309 4113 1222 3978
Q 1100 3794 1100 3275
Q 1100 2409 1306 2081
Q 1441 1869 1669 1869
Q 1791 1869 1991 1969
z
" transform="scale(0.015625)"/>
     </defs>
     <use xlink:href="#TimesNewRomanPS-BoldMT-33"/>
     <use xlink:href="#TimesNewRomanPS-BoldMT-37" x="50"/>
     <use xlink:href="#TimesNewRomanPS-BoldMT-2e" x="100"/>
     <use xlink:href="#TimesNewRomanPS-BoldMT-39" x="125"/>
     <use xlink:href="#TimesNewRomanPS-BoldMT-25" x="175"/>
    </g>
   </g>
   <g id="text_11">
    <!-- 36.7% -->
    <g style="fill: #ffffff" transform="translate(104.50947 185.373406) scale(0.1 -0.1)">
     <defs>
      <path id="TimesNewRomanPS-BoldMT-36" d="M 3006 4325
L 3006 4238
Q 2441 4094 2098 3867
Q 1756 3641 1557 3317
Q 1359 2994 1250 2516
Q 1388 2609 1478 2638
Q 1681 2700 1888 2700
Q 2363 2700 2680 2354
Q 2997 2009 2997 1413
Q 2997 994 2825 644
Q 2653 294 2337 103
Q 2022 -88 1663 -88
Q 1272 -88 940 126
Q 609 341 423 753
Q 238 1166 238 1650
Q 238 2363 580 2977
Q 922 3591 1551 3955
Q 2181 4319 3006 4325
z
M 1209 2263
Q 1184 1831 1184 1631
Q 1184 1200 1267 797
Q 1350 394 1494 231
Q 1597 116 1738 116
Q 1881 116 1993 283
Q 2106 450 2106 963
Q 2106 1825 1897 2153
Q 1763 2366 1534 2366
Q 1409 2366 1209 2263
z
" transform="scale(0.015625)"/>
     </defs>
     <use xlink:href="#TimesNewRomanPS-BoldMT-33"/>
     <use xlink:href="#TimesNewRomanPS-BoldMT-36" x="50"/>
     <use xlink:href="#TimesNewRomanPS-BoldMT-2e" x="100"/>
     <use xlink:href="#TimesNewRomanPS-BoldMT-37" x="125"/>
     <use xlink:href="#TimesNewRomanPS-BoldMT-25" x="175"/>
    </g>
   </g>
   <g id="text_12">
    <!-- 25.4% -->
    <g style="fill: #ffffff" transform="translate(104.50947 116.539102) scale(0.1 -0.1)">
     <defs>
      <path id="TimesNewRomanPS-BoldMT-32" d="M 2650 0
L 156 0
L 156 69
Q 1303 1434 1548 1906
Q 1794 2378 1794 2828
Q 1794 3156 1591 3373
Q 1388 3591 1094 3591
Q 613 3591 347 3109
L 231 3150
Q 400 3750 744 4037
Q 1088 4325 1538 4325
Q 1859 4325 2125 4175
Q 2391 4025 2541 3764
Q 2691 3503 2691 3275
Q 2691 2859 2459 2431
Q 2144 1853 1081 819
L 1997 819
Q 2334 819 2436 847
Q 2538 875 2603 942
Q 2669 1009 2775 1225
L 2888 1225
L 2650 0
z
" transform="scale(0.015625)"/>
      <path id="TimesNewRomanPS-BoldMT-35" d="M 975 4238
L 2959 4238
L 2644 3431
L 975 3431
L 816 3009
Q 1894 2969 2475 2472
Q 2953 2063 2953 1453
Q 2953 1063 2731 689
Q 2509 316 2106 114
Q 1703 -88 1222 -88
Q 703 -88 425 106
Q 231 244 231 419
Q 231 553 332 656
Q 434 759 569 759
Q 691 759 816 709
Q 941 659 1244 447
Q 1434 316 1572 266
Q 1669 228 1791 228
Q 2047 228 2226 415
Q 2406 603 2406 866
Q 2406 1416 1856 1759
Q 1306 2103 469 2103
Q 384 2103 216 2100
L 975 4238
z
" transform="scale(0.015625)"/>
      <path id="TimesNewRomanPS-BoldMT-34" d="M 159 1597
L 2172 4325
L 2553 4325
L 2553 1597
L 2941 1597
L 2941 950
L 2553 950
L 2553 0
L 1694 0
L 1694 950
L 159 950
L 159 1597
z
M 463 1597
L 1694 1597
L 1694 3269
L 463 1597
z
" transform="scale(0.015625)"/>
     </defs>
     <use xlink:href="#TimesNewRomanPS-BoldMT-32"/>
     <use xlink:href="#TimesNewRomanPS-BoldMT-35" x="50"/>
     <use xlink:href="#TimesNewRomanPS-BoldMT-2e" x="100"/>
     <use xlink:href="#TimesNewRomanPS-BoldMT-34" x="125"/>
     <use xlink:href="#TimesNewRomanPS-BoldMT-25" x="175"/>
    </g>
   </g>
   <g id="legend_1">
    <g id="patch_8">
     <path d="M 118.263003 82.09375
L 190.294253 82.09375
Q 191.894253 82.09375 191.894253 80.49375
L 191.894253 47.36
Q 191.894253 45.76 190.294253 45.76
L 118.263003 45.76
Q 116.663003 45.76 116.663003 47.36
L 116.663003 80.49375
Q 116.663003 82.09375 118.263003 82.09375
z
" style="fill: #ffffff; opacity: 0.8; stroke: #cccccc; stroke-linejoin: miter"/>
    </g>
    <g id="patch_9">
     <path d="M 119.863003 54.56
L 135.863003 54.56
L 135.863003 48.96
L 119.863003 48.96
z
" style="fill: #c85200"/>
    </g>
    <g id="text_13">
     <!-- Female -->
     <g transform="translate(142.263003 54.56) scale(0.08 -0.08)">
      <defs>
       <path id="TimesNewRomanPSMT-46" d="M 1309 4006
L 1309 2341
L 2081 2341
Q 2347 2341 2470 2458
Q 2594 2575 2634 2922
L 2750 2922
L 2750 1488
L 2634 1488
Q 2631 1734 2570 1850
Q 2509 1966 2401 2023
Q 2294 2081 2081 2081
L 1309 2081
L 1309 750
Q 1309 428 1350 325
Q 1381 247 1481 191
Q 1619 116 1769 116
L 1922 116
L 1922 0
L 103 0
L 103 116
L 253 116
Q 516 116 634 269
Q 709 369 709 750
L 709 3488
Q 709 3809 669 3913
Q 638 3991 541 4047
Q 406 4122 253 4122
L 103 4122
L 103 4238
L 3256 4238
L 3297 3306
L 3188 3306
Q 3106 3603 2998 3742
Q 2891 3881 2733 3943
Q 2575 4006 2244 4006
L 1309 4006
z
" transform="scale(0.015625)"/>
       <path id="TimesNewRomanPSMT-6d" d="M 1050 2338
Q 1363 2650 1419 2697
Q 1559 2816 1721 2881
Q 1884 2947 2044 2947
Q 2313 2947 2506 2790
Q 2700 2634 2766 2338
Q 3088 2713 3309 2830
Q 3531 2947 3766 2947
Q 3994 2947 4170 2830
Q 4347 2713 4450 2447
Q 4519 2266 4519 1878
L 4519 647
Q 4519 378 4559 278
Q 4591 209 4675 161
Q 4759 113 4950 113
L 4950 0
L 3538 0
L 3538 113
L 3597 113
Q 3781 113 3884 184
Q 3956 234 3988 344
Q 4000 397 4000 647
L 4000 1878
Q 4000 2228 3916 2372
Q 3794 2572 3525 2572
Q 3359 2572 3192 2489
Q 3025 2406 2788 2181
L 2781 2147
L 2788 2013
L 2788 647
Q 2788 353 2820 281
Q 2853 209 2943 161
Q 3034 113 3253 113
L 3253 0
L 1806 0
L 1806 113
Q 2044 113 2133 169
Q 2222 225 2256 338
Q 2272 391 2272 647
L 2272 1878
Q 2272 2228 2169 2381
Q 2031 2581 1784 2581
Q 1616 2581 1450 2491
Q 1191 2353 1050 2181
L 1050 647
Q 1050 366 1089 281
Q 1128 197 1204 155
Q 1281 113 1516 113
L 1516 0
L 100 0
L 100 113
Q 297 113 375 155
Q 453 197 493 289
Q 534 381 534 647
L 534 1741
Q 534 2213 506 2350
Q 484 2453 437 2492
Q 391 2531 309 2531
Q 222 2531 100 2484
L 53 2597
L 916 2947
L 1050 2947
L 1050 2338
z
" transform="scale(0.015625)"/>
       <path id="TimesNewRomanPSMT-61" d="M 1822 413
Q 1381 72 1269 19
Q 1100 -59 909 -59
Q 613 -59 420 144
Q 228 347 228 678
Q 228 888 322 1041
Q 450 1253 767 1440
Q 1084 1628 1822 1897
L 1822 2009
Q 1822 2438 1686 2597
Q 1550 2756 1291 2756
Q 1094 2756 978 2650
Q 859 2544 859 2406
L 866 2225
Q 866 2081 792 2003
Q 719 1925 600 1925
Q 484 1925 411 2006
Q 338 2088 338 2228
Q 338 2497 613 2722
Q 888 2947 1384 2947
Q 1766 2947 2009 2819
Q 2194 2722 2281 2516
Q 2338 2381 2338 1966
L 2338 994
Q 2338 584 2353 492
Q 2369 400 2405 369
Q 2441 338 2488 338
Q 2538 338 2575 359
Q 2641 400 2828 588
L 2828 413
Q 2478 -56 2159 -56
Q 2006 -56 1915 50
Q 1825 156 1822 413
z
M 1822 616
L 1822 1706
Q 1350 1519 1213 1441
Q 966 1303 859 1153
Q 753 1003 753 825
Q 753 600 887 451
Q 1022 303 1197 303
Q 1434 303 1822 616
z
" transform="scale(0.015625)"/>
       <path id="TimesNewRomanPSMT-6c" d="M 1184 4444
L 1184 647
Q 1184 378 1223 290
Q 1263 203 1344 158
Q 1425 113 1647 113
L 1647 0
L 244 0
L 244 113
Q 441 113 512 153
Q 584 194 625 287
Q 666 381 666 647
L 666 3247
Q 666 3731 644 3842
Q 622 3953 573 3993
Q 525 4034 450 4034
Q 369 4034 244 3984
L 191 4094
L 1044 4444
L 1184 4444
z
" transform="scale(0.015625)"/>
      </defs>
      <use xlink:href="#TimesNewRomanPSMT-46"/>
      <use xlink:href="#TimesNewRomanPSMT-65" x="55.615234"/>
      <use xlink:href="#TimesNewRomanPSMT-6d" x="100"/>
      <use xlink:href="#TimesNewRomanPSMT-61" x="177.783203"/>
      <use xlink:href="#TimesNewRomanPSMT-6c" x="222.167969"/>
      <use xlink:href="#TimesNewRomanPSMT-65" x="249.951172"/>
     </g>
    </g>
    <g id="patch_10">
     <path d="M 119.863003 65.87125
L 135.863003 65.87125
L 135.863003 60.27125
L 119.863003 60.27125
z
" style="fill: #ababab"/>
    </g>
    <g id="text_14">
     <!-- Mixed Gender -->
     <g transform="translate(142.263003 65.87125) scale(0.08 -0.08)">
      <defs>
       <path id="TimesNewRomanPSMT-4d" d="M 2619 0
L 981 3566
L 981 734
Q 981 344 1066 247
Q 1181 116 1431 116
L 1581 116
L 1581 0
L 106 0
L 106 116
L 256 116
Q 525 116 638 278
Q 706 378 706 734
L 706 3503
Q 706 3784 644 3909
Q 600 4000 483 4061
Q 366 4122 106 4122
L 106 4238
L 1306 4238
L 2844 922
L 4356 4238
L 5556 4238
L 5556 4122
L 5409 4122
Q 5138 4122 5025 3959
Q 4956 3859 4956 3503
L 4956 734
Q 4956 344 5044 247
Q 5159 116 5409 116
L 5556 116
L 5556 0
L 3756 0
L 3756 116
L 3906 116
Q 4178 116 4288 278
Q 4356 378 4356 734
L 4356 3566
L 2722 0
L 2619 0
z
" transform="scale(0.015625)"/>
       <path id="TimesNewRomanPSMT-69" d="M 928 4444
Q 1059 4444 1151 4351
Q 1244 4259 1244 4128
Q 1244 3997 1151 3903
Q 1059 3809 928 3809
Q 797 3809 703 3903
Q 609 3997 609 4128
Q 609 4259 701 4351
Q 794 4444 928 4444
z
M 1188 2947
L 1188 647
Q 1188 378 1227 289
Q 1266 200 1342 156
Q 1419 113 1622 113
L 1622 0
L 231 0
L 231 113
Q 441 113 512 153
Q 584 194 626 287
Q 669 381 669 647
L 669 1750
Q 669 2216 641 2353
Q 619 2453 572 2492
Q 525 2531 444 2531
Q 356 2531 231 2484
L 188 2597
L 1050 2947
L 1188 2947
z
" transform="scale(0.015625)"/>
       <path id="TimesNewRomanPSMT-78" d="M 84 2863
L 1431 2863
L 1431 2747
Q 1303 2747 1251 2703
Q 1200 2659 1200 2588
Q 1200 2513 1309 2356
Q 1344 2306 1413 2200
L 1616 1875
L 1850 2200
Q 2075 2509 2075 2591
Q 2075 2656 2022 2701
Q 1969 2747 1850 2747
L 1850 2863
L 2819 2863
L 2819 2747
Q 2666 2738 2553 2663
Q 2400 2556 2134 2200
L 1744 1678
L 2456 653
Q 2719 275 2831 198
Q 2944 122 3122 113
L 3122 0
L 1772 0
L 1772 113
Q 1913 113 1991 175
Q 2050 219 2050 291
Q 2050 363 1850 653
L 1431 1266
L 972 653
Q 759 369 759 316
Q 759 241 829 180
Q 900 119 1041 113
L 1041 0
L 106 0
L 106 113
Q 219 128 303 191
Q 422 281 703 653
L 1303 1450
L 759 2238
Q 528 2575 401 2661
Q 275 2747 84 2747
L 84 2863
z
" transform="scale(0.015625)"/>
       <path id="TimesNewRomanPSMT-20" transform="scale(0.015625)"/>
      </defs>
      <use xlink:href="#TimesNewRomanPSMT-4d"/>
      <use xlink:href="#TimesNewRomanPSMT-69" x="88.916016"/>
      <use xlink:href="#TimesNewRomanPSMT-78" x="116.699219"/>
      <use xlink:href="#TimesNewRomanPSMT-65" x="166.699219"/>
      <use xlink:href="#TimesNewRomanPSMT-64" x="211.083984"/>
      <use xlink:href="#TimesNewRomanPSMT-20" x="261.083984"/>
      <use xlink:href="#TimesNewRomanPSMT-47" x="286.083984"/>
      <use xlink:href="#TimesNewRomanPSMT-65" x="358.300781"/>
      <use xlink:href="#TimesNewRomanPSMT-6e" x="402.685547"/>
      <use xlink:href="#TimesNewRomanPSMT-64" x="452.685547"/>
      <use xlink:href="#TimesNewRomanPSMT-65" x="502.685547"/>
      <use xlink:href="#TimesNewRomanPSMT-72" x="547.070312"/>
     </g>
    </g>
    <g id="patch_11">
     <path d="M 119.863003 77.1825
L 135.863003 77.1825
L 135.863003 71.5825
L 119.863003 71.5825
z
" style="fill: #006ba4"/>
    </g>
    <g id="text_15">
     <!-- Male -->
     <g transform="translate(142.263003 77.1825) scale(0.08 -0.08)">
      <use xlink:href="#TimesNewRomanPSMT-4d"/>
      <use xlink:href="#TimesNewRomanPSMT-61" x="88.916016"/>
      <use xlink:href="#TimesNewRomanPSMT-6c" x="133.300781"/>
      <use xlink:href="#TimesNewRomanPSMT-65" x="161.083984"/>
     </g>
    </g>
   </g>
  </g>
  <g id="axes_2">
   <g id="patch_12">
    <path d="M 242.475122 307.872
L 397.744688 307.872
L 397.744688 41.76
L 242.475122 41.76
z
" style="fill: #ffffff"/>
   </g>
   <g id="patch_13">
    <path d="M 281.292514 307.872
L 358.927296 307.872
L 358.927296 165.28032
L 281.292514 165.28032
z
" clip-path="url(#pce6d028fb0)" style="fill: #ababab"/>
   </g>
   <g id="patch_14">
    <path d="M 281.292514 165.28032
L 358.927296 165.28032
L 358.927296 120.019104
L 281.292514 120.019104
z
" clip-path="url(#pce6d028fb0)" style="fill: #c85200"/>
   </g>
   <g id="patch_15">
    <path d="M 281.292514 120.019104
L 358.927296 120.019104
L 358.927296 86.134176
L 281.292514 86.134176
z
" clip-path="url(#pce6d028fb0)" style="fill: #006ba4"/>
   </g>
   <g id="matplotlib.axis_3">
    <g id="xtick_2">
     <g id="line2d_9">
      <g>
       <use xlink:href="#ma0ff36e43b" x="320.109905" y="307.872" style="stroke: #000000; stroke-width: 0.8"/>
      </g>
     </g>
     <g id="text_16">
      <!-- Age -->
      <g transform="translate(322.095438 328.750561) rotate(-90) scale(0.0833 -0.0833)">
       <defs>
        <path id="TimesNewRomanPSMT-41" d="M 2928 1419
L 1288 1419
L 1000 750
Q 894 503 894 381
Q 894 284 986 211
Q 1078 138 1384 116
L 1384 0
L 50 0
L 50 116
Q 316 163 394 238
Q 553 388 747 847
L 2238 4334
L 2347 4334
L 3822 809
Q 4000 384 4145 257
Q 4291 131 4550 116
L 4550 0
L 2878 0
L 2878 116
Q 3131 128 3220 200
Q 3309 272 3309 375
Q 3309 513 3184 809
L 2928 1419
z
M 2841 1650
L 2122 3363
L 1384 1650
L 2841 1650
z
" transform="scale(0.015625)"/>
        <path id="TimesNewRomanPSMT-67" d="M 966 1044
Q 703 1172 562 1401
Q 422 1631 422 1909
Q 422 2334 742 2640
Q 1063 2947 1563 2947
Q 1972 2947 2272 2747
L 2878 2747
Q 3013 2747 3034 2739
Q 3056 2731 3066 2713
Q 3084 2684 3084 2613
Q 3084 2531 3069 2500
Q 3059 2484 3036 2475
Q 3013 2466 2878 2466
L 2506 2466
Q 2681 2241 2681 1891
Q 2681 1491 2375 1206
Q 2069 922 1553 922
Q 1341 922 1119 984
Q 981 866 932 777
Q 884 688 884 625
Q 884 572 936 522
Q 988 472 1138 450
Q 1225 438 1575 428
Q 2219 413 2409 384
Q 2700 344 2873 169
Q 3047 -6 3047 -263
Q 3047 -616 2716 -925
Q 2228 -1381 1444 -1381
Q 841 -1381 425 -1109
Q 191 -953 191 -784
Q 191 -709 225 -634
Q 278 -519 444 -313
Q 466 -284 763 25
Q 600 122 533 198
Q 466 275 466 372
Q 466 481 555 628
Q 644 775 966 1044
z
M 1509 2797
Q 1278 2797 1122 2612
Q 966 2428 966 2047
Q 966 1553 1178 1281
Q 1341 1075 1591 1075
Q 1828 1075 1981 1253
Q 2134 1431 2134 1813
Q 2134 2309 1919 2591
Q 1759 2797 1509 2797
z
M 934 0
Q 788 -159 713 -296
Q 638 -434 638 -550
Q 638 -700 819 -813
Q 1131 -1006 1722 -1006
Q 2284 -1006 2551 -807
Q 2819 -609 2819 -384
Q 2819 -222 2659 -153
Q 2497 -84 2016 -72
Q 1313 -53 934 0
z
" transform="scale(0.015625)"/>
       </defs>
       <use xlink:href="#TimesNewRomanPSMT-41"/>
       <use xlink:href="#TimesNewRomanPSMT-67" x="72.216797"/>
       <use xlink:href="#TimesNewRomanPSMT-65" x="122.216797"/>
      </g>
     </g>
    </g>
   </g>
   <g id="matplotlib.axis_4">
    <g id="ytick_8">
     <g id="line2d_10">
      <g>
       <use xlink:href="#me0d2cb6cd4" x="242.475122" y="307.872" style="stroke: #000000; stroke-width: 0.8"/>
      </g>
     </g>
     <g id="text_17">
      <!-- 0 -->
      <g transform="translate(231.310122 310.764072) scale(0.0833 -0.0833)">
       <use xlink:href="#TimesNewRomanPSMT-30"/>
      </g>
     </g>
    </g>
    <g id="ytick_9">
     <g id="line2d_11">
      <g>
       <use xlink:href="#me0d2cb6cd4" x="242.475122" y="263.52" style="stroke: #000000; stroke-width: 0.8"/>
      </g>
     </g>
     <g id="text_18">
      <!-- 20 -->
      <g transform="translate(227.145122 266.412072) scale(0.0833 -0.0833)">
       <use xlink:href="#TimesNewRomanPSMT-32"/>
       <use xlink:href="#TimesNewRomanPSMT-30" x="50"/>
      </g>
     </g>
    </g>
    <g id="ytick_10">
     <g id="line2d_12">
      <g>
       <use xlink:href="#me0d2cb6cd4" x="242.475122" y="219.168" style="stroke: #000000; stroke-width: 0.8"/>
      </g>
     </g>
     <g id="text_19">
      <!-- 40 -->
      <g transform="translate(227.145122 222.060072) scale(0.0833 -0.0833)">
       <use xlink:href="#TimesNewRomanPSMT-34"/>
       <use xlink:href="#TimesNewRomanPSMT-30" x="50"/>
      </g>
     </g>
    </g>
    <g id="ytick_11">
     <g id="line2d_13">
      <g>
       <use xlink:href="#me0d2cb6cd4" x="242.475122" y="174.816" style="stroke: #000000; stroke-width: 0.8"/>
      </g>
     </g>
     <g id="text_20">
      <!-- 60 -->
      <g transform="translate(227.145122 177.708072) scale(0.0833 -0.0833)">
       <use xlink:href="#TimesNewRomanPSMT-36"/>
       <use xlink:href="#TimesNewRomanPSMT-30" x="50"/>
      </g>
     </g>
    </g>
    <g id="ytick_12">
     <g id="line2d_14">
      <g>
       <use xlink:href="#me0d2cb6cd4" x="242.475122" y="130.464" style="stroke: #000000; stroke-width: 0.8"/>
      </g>
     </g>
     <g id="text_21">
      <!-- 80 -->
      <g transform="translate(227.145122 133.356072) scale(0.0833 -0.0833)">
       <use xlink:href="#TimesNewRomanPSMT-38"/>
       <use xlink:href="#TimesNewRomanPSMT-30" x="50"/>
      </g>
     </g>
    </g>
    <g id="ytick_13">
     <g id="line2d_15">
      <g>
       <use xlink:href="#me0d2cb6cd4" x="242.475122" y="86.112" style="stroke: #000000; stroke-width: 0.8"/>
      </g>
     </g>
     <g id="text_22">
      <!-- 100 -->
      <g transform="translate(222.980122 89.004072) scale(0.0833 -0.0833)">
       <use xlink:href="#TimesNewRomanPSMT-31"/>
       <use xlink:href="#TimesNewRomanPSMT-30" x="50"/>
       <use xlink:href="#TimesNewRomanPSMT-30" x="100"/>
      </g>
     </g>
    </g>
    <g id="ytick_14">
     <g id="line2d_16">
      <g>
       <use xlink:href="#me0d2cb6cd4" x="242.475122" y="41.76" style="stroke: #000000; stroke-width: 0.8"/>
      </g>
     </g>
     <g id="text_23">
      <!-- 120 -->
      <g transform="translate(222.980122 44.652072) scale(0.0833 -0.0833)">
       <use xlink:href="#TimesNewRomanPSMT-31"/>
       <use xlink:href="#TimesNewRomanPSMT-32" x="50"/>
       <use xlink:href="#TimesNewRomanPSMT-30" x="100"/>
      </g>
     </g>
    </g>
    <g id="text_24">
     <!-- Job Ad Sentences Percentages (%) -->
     <g transform="translate(215.82231 248.3285) rotate(-90) scale(0.1 -0.1)">
      <use xlink:href="#TimesNewRomanPS-BoldMT-4a"/>
      <use xlink:href="#TimesNewRomanPS-BoldMT-6f" x="50"/>
      <use xlink:href="#TimesNewRomanPS-BoldMT-62" x="100"/>
      <use xlink:href="#TimesNewRomanPS-BoldMT-20" x="155.615234"/>
      <use xlink:href="#TimesNewRomanPS-BoldMT-41" x="175.115234"/>
      <use xlink:href="#TimesNewRomanPS-BoldMT-64" x="247.332031"/>
      <use xlink:href="#TimesNewRomanPS-BoldMT-20" x="302.947266"/>
      <use xlink:href="#TimesNewRomanPS-BoldMT-53" x="327.947266"/>
      <use xlink:href="#TimesNewRomanPS-BoldMT-65" x="383.5625"/>
      <use xlink:href="#TimesNewRomanPS-BoldMT-6e" x="427.947266"/>
      <use xlink:href="#TimesNewRomanPS-BoldMT-74" x="483.5625"/>
      <use xlink:href="#TimesNewRomanPS-BoldMT-65" x="516.863281"/>
      <use xlink:href="#TimesNewRomanPS-BoldMT-6e" x="561.248047"/>
      <use xlink:href="#TimesNewRomanPS-BoldMT-63" x="616.863281"/>
      <use xlink:href="#TimesNewRomanPS-BoldMT-65" x="661.248047"/>
      <use xlink:href="#TimesNewRomanPS-BoldMT-73" x="705.632812"/>
      <use xlink:href="#TimesNewRomanPS-BoldMT-20" x="744.548828"/>
      <use xlink:href="#TimesNewRomanPS-BoldMT-50" x="769.548828"/>
      <use xlink:href="#TimesNewRomanPS-BoldMT-65" x="830.632812"/>
      <use xlink:href="#TimesNewRomanPS-BoldMT-72" x="875.017578"/>
      <use xlink:href="#TimesNewRomanPS-BoldMT-63" x="917.652344"/>
      <use xlink:href="#TimesNewRomanPS-BoldMT-65" x="962.037109"/>
      <use xlink:href="#TimesNewRomanPS-BoldMT-6e" x="1006.421875"/>
      <use xlink:href="#TimesNewRomanPS-BoldMT-74" x="1062.037109"/>
      <use xlink:href="#TimesNewRomanPS-BoldMT-61" x="1095.337891"/>
      <use xlink:href="#TimesNewRomanPS-BoldMT-67" x="1145.337891"/>
      <use xlink:href="#TimesNewRomanPS-BoldMT-65" x="1195.337891"/>
      <use xlink:href="#TimesNewRomanPS-BoldMT-73" x="1239.722656"/>
      <use xlink:href="#TimesNewRomanPS-BoldMT-20" x="1278.638672"/>
      <use xlink:href="#TimesNewRomanPS-BoldMT-28" x="1303.638672"/>
      <use xlink:href="#TimesNewRomanPS-BoldMT-25" x="1336.939453"/>
      <use xlink:href="#TimesNewRomanPS-BoldMT-29" x="1436.939453"/>
     </g>
    </g>
   </g>
   <g id="patch_16">
    <path d="M 242.475122 307.872
L 242.475122 41.76
" style="fill: none; stroke: #000000; stroke-width: 0.8; stroke-linejoin: miter; stroke-linecap: square"/>
   </g>
   <g id="patch_17">
    <path d="M 242.475122 307.872
L 397.744688 307.872
" style="fill: none; stroke: #000000; stroke-width: 0.8; stroke-linejoin: miter; stroke-linecap: square"/>
   </g>
   <g id="text_25">
    <!-- 64.3% -->
    <g style="fill: #ffffff" transform="translate(306.359905 238.817566) scale(0.1 -0.1)">
     <use xlink:href="#TimesNewRomanPS-BoldMT-36"/>
     <use xlink:href="#TimesNewRomanPS-BoldMT-34" x="50"/>
     <use xlink:href="#TimesNewRomanPS-BoldMT-2e" x="100"/>
     <use xlink:href="#TimesNewRomanPS-BoldMT-33" x="125"/>
     <use xlink:href="#TimesNewRomanPS-BoldMT-25" x="175"/>
    </g>
   </g>
   <g id="text_26">
    <!-- 20.4% -->
    <g style="fill: #ffffff" transform="translate(306.359905 144.891118) scale(0.1 -0.1)">
     <defs>
      <path id="TimesNewRomanPS-BoldMT-30" d="M 2966 2119
Q 2966 1484 2788 934
Q 2681 597 2501 381
Q 2322 166 2094 39
Q 1866 -88 1597 -88
Q 1291 -88 1044 68
Q 797 225 606 516
Q 469 728 366 1081
Q 231 1559 231 2069
Q 231 2759 425 3338
Q 584 3816 909 4070
Q 1234 4325 1597 4325
Q 1966 4325 2286 4073
Q 2606 3822 2756 3397
Q 2966 2813 2966 2119
z
M 2003 2125
Q 2003 3238 1991 3422
Q 1959 3856 1841 4009
Q 1763 4109 1588 4109
Q 1453 4109 1375 4034
Q 1259 3925 1218 3648
Q 1178 3372 1178 1719
Q 1178 819 1241 513
Q 1288 291 1375 216
Q 1463 141 1606 141
Q 1763 141 1841 241
Q 1972 416 1991 781
L 2003 2125
z
" transform="scale(0.015625)"/>
     </defs>
     <use xlink:href="#TimesNewRomanPS-BoldMT-32"/>
     <use xlink:href="#TimesNewRomanPS-BoldMT-30" x="50"/>
     <use xlink:href="#TimesNewRomanPS-BoldMT-2e" x="100"/>
     <use xlink:href="#TimesNewRomanPS-BoldMT-34" x="125"/>
     <use xlink:href="#TimesNewRomanPS-BoldMT-25" x="175"/>
    </g>
   </g>
   <g id="text_27">
    <!-- 15.3% -->
    <g style="fill: #ffffff" transform="translate(306.359905 105.318046) scale(0.1 -0.1)">
     <defs>
      <path id="TimesNewRomanPS-BoldMT-31" d="M 2084 4325
L 2084 859
Q 2084 469 2118 361
Q 2153 253 2262 184
Q 2372 116 2613 116
L 2709 116
L 2709 0
L 478 0
L 478 116
L 591 116
Q 863 116 978 178
Q 1094 241 1134 350
Q 1175 459 1175 859
L 1175 3056
Q 1175 3350 1147 3423
Q 1119 3497 1042 3548
Q 966 3600 866 3600
Q 706 3600 478 3500
L 422 3613
L 1981 4325
L 2084 4325
z
" transform="scale(0.015625)"/>
     </defs>
     <use xlink:href="#TimesNewRomanPS-BoldMT-31"/>
     <use xlink:href="#TimesNewRomanPS-BoldMT-35" x="50"/>
     <use xlink:href="#TimesNewRomanPS-BoldMT-2e" x="100"/>
     <use xlink:href="#TimesNewRomanPS-BoldMT-33" x="125"/>
     <use xlink:href="#TimesNewRomanPS-BoldMT-25" x="175"/>
    </g>
   </g>
   <g id="legend_2">
    <g id="patch_18">
     <path d="M 330.768438 82.12375
L 392.144688 82.12375
Q 393.744688 82.12375 393.744688 80.52375
L 393.744688 47.36
Q 393.744688 45.76 392.144688 45.76
L 330.768438 45.76
Q 329.168438 45.76 329.168438 47.36
L 329.168438 80.52375
Q 329.168438 82.12375 330.768438 82.12375
z
" style="fill: #ffffff; opacity: 0.8; stroke: #cccccc; stroke-linejoin: miter"/>
    </g>
    <g id="patch_19">
     <path d="M 332.368438 54.56
L 348.368438 54.56
L 348.368438 48.96
L 332.368438 48.96
z
" style="fill: #c85200"/>
    </g>
    <g id="text_28">
     <!-- Older -->
     <g transform="translate(354.768438 54.56) scale(0.08 -0.08)">
      <defs>
       <path id="TimesNewRomanPSMT-4f" d="M 2341 4334
Q 3166 4334 3770 3707
Q 4375 3081 4375 2144
Q 4375 1178 3765 540
Q 3156 -97 2291 -97
Q 1416 -97 820 525
Q 225 1147 225 2134
Q 225 3144 913 3781
Q 1509 4334 2341 4334
z
M 2281 4106
Q 1713 4106 1369 3684
Q 941 3159 941 2147
Q 941 1109 1384 550
Q 1725 125 2284 125
Q 2881 125 3270 590
Q 3659 1056 3659 2059
Q 3659 3147 3231 3681
Q 2888 4106 2281 4106
z
" transform="scale(0.015625)"/>
      </defs>
      <use xlink:href="#TimesNewRomanPSMT-4f"/>
      <use xlink:href="#TimesNewRomanPSMT-6c" x="72.216797"/>
      <use xlink:href="#TimesNewRomanPSMT-64" x="100"/>
      <use xlink:href="#TimesNewRomanPSMT-65" x="150"/>
      <use xlink:href="#TimesNewRomanPSMT-72" x="194.384766"/>
     </g>
    </g>
    <g id="patch_20">
     <path d="M 332.368438 65.87125
L 348.368438 65.87125
L 348.368438 60.27125
L 332.368438 60.27125
z
" style="fill: #ababab"/>
    </g>
    <g id="text_29">
     <!-- Mixed Age -->
     <g transform="translate(354.768438 65.87125) scale(0.08 -0.08)">
      <use xlink:href="#TimesNewRomanPSMT-4d"/>
      <use xlink:href="#TimesNewRomanPSMT-69" x="88.916016"/>
      <use xlink:href="#TimesNewRomanPSMT-78" x="116.699219"/>
      <use xlink:href="#TimesNewRomanPSMT-65" x="166.699219"/>
      <use xlink:href="#TimesNewRomanPSMT-64" x="211.083984"/>
      <use xlink:href="#TimesNewRomanPSMT-20" x="261.083984"/>
      <use xlink:href="#TimesNewRomanPSMT-41" x="280.583984"/>
      <use xlink:href="#TimesNewRomanPSMT-67" x="352.800781"/>
      <use xlink:href="#TimesNewRomanPSMT-65" x="402.800781"/>
     </g>
    </g>
    <g id="patch_21">
     <path d="M 332.368438 77.1975
L 348.368438 77.1975
L 348.368438 71.5975
L 332.368438 71.5975
z
" style="fill: #006ba4"/>
    </g>
    <g id="text_30">
     <!-- Younger -->
     <g transform="translate(354.768438 77.1975) scale(0.08 -0.08)">
      <defs>
       <path id="TimesNewRomanPSMT-59" d="M 3050 4238
L 4528 4238
L 4528 4122
L 4447 4122
Q 4366 4122 4209 4050
Q 4053 3978 3925 3843
Q 3797 3709 3609 3406
L 2588 1797
L 2588 734
Q 2588 344 2675 247
Q 2794 116 3050 116
L 3188 116
L 3188 0
L 1388 0
L 1388 116
L 1538 116
Q 1806 116 1919 278
Q 1988 378 1988 734
L 1988 1738
L 825 3513
Q 619 3825 545 3903
Q 472 3981 241 4091
Q 178 4122 59 4122
L 59 4238
L 1872 4238
L 1872 4122
L 1778 4122
Q 1631 4122 1507 4053
Q 1384 3984 1384 3847
Q 1384 3734 1575 3441
L 2459 2075
L 3291 3381
Q 3478 3675 3478 3819
Q 3478 3906 3433 3975
Q 3388 4044 3303 4083
Q 3219 4122 3050 4122
L 3050 4238
z
" transform="scale(0.015625)"/>
       <path id="TimesNewRomanPSMT-6f" d="M 1600 2947
Q 2250 2947 2644 2453
Q 2978 2031 2978 1484
Q 2978 1100 2793 706
Q 2609 313 2286 112
Q 1963 -88 1566 -88
Q 919 -88 538 428
Q 216 863 216 1403
Q 216 1797 411 2186
Q 606 2575 925 2761
Q 1244 2947 1600 2947
z
M 1503 2744
Q 1338 2744 1170 2645
Q 1003 2547 900 2300
Q 797 2053 797 1666
Q 797 1041 1045 587
Q 1294 134 1700 134
Q 2003 134 2200 384
Q 2397 634 2397 1244
Q 2397 2006 2069 2444
Q 1847 2744 1503 2744
z
" transform="scale(0.015625)"/>
       <path id="TimesNewRomanPSMT-75" d="M 2709 2863
L 2709 1128
Q 2709 631 2732 520
Q 2756 409 2807 365
Q 2859 322 2928 322
Q 3025 322 3147 375
L 3191 266
L 2334 -88
L 2194 -88
L 2194 519
Q 1825 119 1631 15
Q 1438 -88 1222 -88
Q 981 -88 804 51
Q 628 191 559 409
Q 491 628 491 1028
L 491 2306
Q 491 2509 447 2587
Q 403 2666 317 2708
Q 231 2750 6 2747
L 6 2863
L 1009 2863
L 1009 947
Q 1009 547 1148 422
Q 1288 297 1484 297
Q 1619 297 1789 381
Q 1959 466 2194 703
L 2194 2325
Q 2194 2569 2105 2655
Q 2016 2741 1734 2747
L 1734 2863
L 2709 2863
z
" transform="scale(0.015625)"/>
      </defs>
      <use xlink:href="#TimesNewRomanPSMT-59"/>
      <use xlink:href="#TimesNewRomanPSMT-6f" x="62.216797"/>
      <use xlink:href="#TimesNewRomanPSMT-75" x="112.216797"/>
      <use xlink:href="#TimesNewRomanPSMT-6e" x="162.216797"/>
      <use xlink:href="#TimesNewRomanPSMT-67" x="212.216797"/>
      <use xlink:href="#TimesNewRomanPSMT-65" x="262.216797"/>
      <use xlink:href="#TimesNewRomanPSMT-72" x="306.601562"/>
     </g>
    </g>
   </g>
  </g>
  <g id="text_31">
   <!-- Collected Dataset Categorical Gender and Age Sentence Percentages -->
   <g transform="translate(38.177813 15.33375) scale(0.12 -0.12)">
    <defs>
     <path id="TimesNewRomanPS-BoldMT-43" d="M 4272 4334
L 4272 2866
L 4150 2866
Q 4013 3441 3638 3747
Q 3263 4053 2788 4053
Q 2391 4053 2059 3825
Q 1728 3597 1575 3228
Q 1378 2756 1378 2178
Q 1378 1609 1522 1142
Q 1666 675 1972 436
Q 2278 197 2766 197
Q 3166 197 3498 372
Q 3831 547 4200 975
L 4200 609
Q 3844 238 3458 70
Q 3072 -97 2556 -97
Q 1878 -97 1351 175
Q 825 447 539 956
Q 253 1466 253 2041
Q 253 2647 570 3190
Q 888 3734 1427 4034
Q 1966 4334 2572 4334
Q 3019 4334 3516 4141
Q 3803 4028 3881 4028
Q 3981 4028 4054 4101
Q 4128 4175 4150 4334
L 4272 4334
z
" transform="scale(0.015625)"/>
     <path id="TimesNewRomanPS-BoldMT-6c" d="M 1359 4238
L 1359 606
Q 1359 297 1431 211
Q 1503 125 1713 113
L 1713 0
L 134 0
L 134 113
Q 328 119 422 225
Q 484 297 484 606
L 484 3631
Q 484 3938 412 4023
Q 341 4109 134 4122
L 134 4238
L 1359 4238
z
" transform="scale(0.015625)"/>
     <path id="TimesNewRomanPS-BoldMT-44" d="M 84 0
L 84 116
L 225 116
Q 409 116 507 173
Q 606 231 653 331
Q 681 397 681 725
L 681 3513
Q 681 3838 647 3919
Q 613 4000 508 4061
Q 403 4122 225 4122
L 84 4122
L 84 4238
L 1981 4238
Q 2741 4238 3203 4031
Q 3769 3778 4061 3265
Q 4353 2753 4353 2106
Q 4353 1659 4209 1282
Q 4066 906 3837 661
Q 3609 416 3311 267
Q 3013 119 2581 38
Q 2391 0 1981 0
L 84 0
z
M 1700 3997
L 1700 691
Q 1700 428 1725 368
Q 1750 309 1809 278
Q 1894 231 2053 231
Q 2575 231 2850 588
Q 3225 1069 3225 2081
Q 3225 2897 2969 3384
Q 2766 3766 2447 3903
Q 2222 4000 1700 3997
z
" transform="scale(0.015625)"/>
     <path id="TimesNewRomanPS-BoldMT-69" d="M 919 4338
Q 1122 4338 1262 4195
Q 1403 4053 1403 3853
Q 1403 3653 1261 3512
Q 1119 3372 919 3372
Q 719 3372 578 3512
Q 438 3653 438 3853
Q 438 4053 578 4195
Q 719 4338 919 4338
z
M 1356 2922
L 1356 606
Q 1356 297 1428 211
Q 1500 125 1709 113
L 1709 0
L 131 0
L 131 113
Q 325 119 419 225
Q 481 297 481 606
L 481 2313
Q 481 2622 409 2708
Q 338 2794 131 2806
L 131 2922
L 1356 2922
z
" transform="scale(0.015625)"/>
     <path id="TimesNewRomanPS-BoldMT-47" d="M 4416 4334
L 4416 2841
L 4300 2841
Q 4091 3453 3672 3772
Q 3253 4091 2756 4091
Q 2281 4091 1965 3823
Q 1650 3556 1519 3078
Q 1388 2600 1388 2097
Q 1388 1488 1531 1028
Q 1675 569 1995 353
Q 2316 138 2756 138
Q 2909 138 3070 170
Q 3231 203 3400 266
L 3400 1147
Q 3400 1397 3365 1470
Q 3331 1544 3223 1603
Q 3116 1663 2963 1663
L 2853 1663
L 2853 1778
L 4913 1778
L 4913 1663
Q 4678 1647 4586 1598
Q 4494 1550 4444 1438
Q 4416 1378 4416 1147
L 4416 266
Q 4009 84 3570 -8
Q 3131 -100 2659 -100
Q 2056 -100 1657 64
Q 1259 228 954 495
Q 650 763 478 1097
Q 259 1528 259 2063
Q 259 3019 931 3678
Q 1603 4338 2622 4338
Q 2938 4338 3191 4288
Q 3328 4263 3636 4145
Q 3944 4028 4000 4028
Q 4088 4028 4163 4092
Q 4238 4156 4300 4334
L 4416 4334
z
" transform="scale(0.015625)"/>
    </defs>
    <use xlink:href="#TimesNewRomanPS-BoldMT-43"/>
    <use xlink:href="#TimesNewRomanPS-BoldMT-6f" x="72.216797"/>
    <use xlink:href="#TimesNewRomanPS-BoldMT-6c" x="122.216797"/>
    <use xlink:href="#TimesNewRomanPS-BoldMT-6c" x="150"/>
    <use xlink:href="#TimesNewRomanPS-BoldMT-65" x="177.783203"/>
    <use xlink:href="#TimesNewRomanPS-BoldMT-63" x="222.167969"/>
    <use xlink:href="#TimesNewRomanPS-BoldMT-74" x="266.552734"/>
    <use xlink:href="#TimesNewRomanPS-BoldMT-65" x="299.853516"/>
    <use xlink:href="#TimesNewRomanPS-BoldMT-64" x="344.238281"/>
    <use xlink:href="#TimesNewRomanPS-BoldMT-20" x="399.853516"/>
    <use xlink:href="#TimesNewRomanPS-BoldMT-44" x="424.853516"/>
    <use xlink:href="#TimesNewRomanPS-BoldMT-61" x="497.070312"/>
    <use xlink:href="#TimesNewRomanPS-BoldMT-74" x="547.070312"/>
    <use xlink:href="#TimesNewRomanPS-BoldMT-61" x="580.371094"/>
    <use xlink:href="#TimesNewRomanPS-BoldMT-73" x="630.371094"/>
    <use xlink:href="#TimesNewRomanPS-BoldMT-65" x="669.287109"/>
    <use xlink:href="#TimesNewRomanPS-BoldMT-74" x="713.671875"/>
    <use xlink:href="#TimesNewRomanPS-BoldMT-20" x="746.972656"/>
    <use xlink:href="#TimesNewRomanPS-BoldMT-43" x="771.972656"/>
    <use xlink:href="#TimesNewRomanPS-BoldMT-61" x="844.189453"/>
    <use xlink:href="#TimesNewRomanPS-BoldMT-74" x="894.189453"/>
    <use xlink:href="#TimesNewRomanPS-BoldMT-65" x="927.490234"/>
    <use xlink:href="#TimesNewRomanPS-BoldMT-67" x="971.875"/>
    <use xlink:href="#TimesNewRomanPS-BoldMT-6f" x="1021.875"/>
    <use xlink:href="#TimesNewRomanPS-BoldMT-72" x="1071.875"/>
    <use xlink:href="#TimesNewRomanPS-BoldMT-69" x="1116.259766"/>
    <use xlink:href="#TimesNewRomanPS-BoldMT-63" x="1144.042969"/>
    <use xlink:href="#TimesNewRomanPS-BoldMT-61" x="1188.427734"/>
    <use xlink:href="#TimesNewRomanPS-BoldMT-6c" x="1238.427734"/>
    <use xlink:href="#TimesNewRomanPS-BoldMT-20" x="1266.210938"/>
    <use xlink:href="#TimesNewRomanPS-BoldMT-47" x="1291.210938"/>
    <use xlink:href="#TimesNewRomanPS-BoldMT-65" x="1368.994141"/>
    <use xlink:href="#TimesNewRomanPS-BoldMT-6e" x="1413.378906"/>
    <use xlink:href="#TimesNewRomanPS-BoldMT-64" x="1468.994141"/>
    <use xlink:href="#TimesNewRomanPS-BoldMT-65" x="1524.609375"/>
    <use xlink:href="#TimesNewRomanPS-BoldMT-72" x="1568.994141"/>
    <use xlink:href="#TimesNewRomanPS-BoldMT-20" x="1611.628906"/>
    <use xlink:href="#TimesNewRomanPS-BoldMT-61" x="1636.628906"/>
    <use xlink:href="#TimesNewRomanPS-BoldMT-6e" x="1686.628906"/>
    <use xlink:href="#TimesNewRomanPS-BoldMT-64" x="1742.244141"/>
    <use xlink:href="#TimesNewRomanPS-BoldMT-20" x="1797.859375"/>
    <use xlink:href="#TimesNewRomanPS-BoldMT-41" x="1817.359375"/>
    <use xlink:href="#TimesNewRomanPS-BoldMT-67" x="1889.576172"/>
    <use xlink:href="#TimesNewRomanPS-BoldMT-65" x="1939.576172"/>
    <use xlink:href="#TimesNewRomanPS-BoldMT-20" x="1983.960938"/>
    <use xlink:href="#TimesNewRomanPS-BoldMT-53" x="2008.960938"/>
    <use xlink:href="#TimesNewRomanPS-BoldMT-65" x="2064.576172"/>
    <use xlink:href="#TimesNewRomanPS-BoldMT-6e" x="2108.960938"/>
    <use xlink:href="#TimesNewRomanPS-BoldMT-74" x="2164.576172"/>
    <use xlink:href="#TimesNewRomanPS-BoldMT-65" x="2197.876953"/>
    <use xlink:href="#TimesNewRomanPS-BoldMT-6e" x="2242.261719"/>
    <use xlink:href="#TimesNewRomanPS-BoldMT-63" x="2297.876953"/>
    <use xlink:href="#TimesNewRomanPS-BoldMT-65" x="2342.261719"/>
    <use xlink:href="#TimesNewRomanPS-BoldMT-20" x="2386.646484"/>
    <use xlink:href="#TimesNewRomanPS-BoldMT-50" x="2411.646484"/>
    <use xlink:href="#TimesNewRomanPS-BoldMT-65" x="2472.730469"/>
    <use xlink:href="#TimesNewRomanPS-BoldMT-72" x="2517.115234"/>
    <use xlink:href="#TimesNewRomanPS-BoldMT-63" x="2559.75"/>
    <use xlink:href="#TimesNewRomanPS-BoldMT-65" x="2604.134766"/>
    <use xlink:href="#TimesNewRomanPS-BoldMT-6e" x="2648.519531"/>
    <use xlink:href="#TimesNewRomanPS-BoldMT-74" x="2704.134766"/>
    <use xlink:href="#TimesNewRomanPS-BoldMT-61" x="2737.435547"/>
    <use xlink:href="#TimesNewRomanPS-BoldMT-67" x="2787.435547"/>
    <use xlink:href="#TimesNewRomanPS-BoldMT-65" x="2837.435547"/>
    <use xlink:href="#TimesNewRomanPS-BoldMT-73" x="2881.820312"/>
   </g>
  </g>
 </g>
 <defs>
  <clipPath id="p2b7d027462">
   <rect x="40.624688" y="41.76" width="155.269565" height="266.112"/>
  </clipPath>
  <clipPath id="pce6d028fb0">
   <rect x="242.475122" y="41.76" width="155.269565" height="266.112"/>
  </clipPath>
 </defs>
</svg>
