<?xml version="1.0" encoding="utf-8" standalone="no"?>
<!DOCTYPE svg PUBLIC "-//W3C//DTD SVG 1.1//EN"
  "http://www.w3.org/Graphics/SVG/1.1/DTD/svg11.dtd">
<svg xmlns:xlink="http://www.w3.org/1999/xlink" width="428.009789pt" height="343.569227pt" viewBox="0 0 428.009789 343.569227" xmlns="http://www.w3.org/2000/svg" version="1.1">
 <metadata>
  <rdf:RDF xmlns:dc="http://purl.org/dc/elements/1.1/" xmlns:cc="http://creativecommons.org/ns#" xmlns:rdf="http://www.w3.org/1999/02/22-rdf-syntax-ns#">
   <cc:Work>
    <dc:type rdf:resource="http://purl.org/dc/dcmitype/StillImage"/>
    <dc:date>2023-06-03T05:49:41.731018</dc:date>
    <dc:format>image/svg+xml</dc:format>
    <dc:creator>
     <cc:Agent>
      <dc:title>Matplotlib v3.7.1, https://matplotlib.org/</dc:title>
     </cc:Agent>
    </dc:creator>
   </cc:Work>
  </rdf:RDF>
 </metadata>
 <defs>
  <style type="text/css">*{stroke-linejoin: round; stroke-linecap: butt}</style>
 </defs>
 <g id="figure_1">
  <g id="patch_1">
   <path d="M -0 343.569227
L 428.009789 343.569227
L 428.009789 -0
L -0 -0
z
" style="fill: #ffffff"/>
  </g>
  <g id="axes_1">
   <g id="patch_2">
    <path d="M 41.662344 157.46087
L 196.931909 157.46087
L 196.931909 41.76
L 41.662344 41.76
z
" style="fill: #ffffff"/>
   </g>
   <g id="PolyCollection_1"/>
   <g id="PolyCollection_2"/>
   <g id="matplotlib.axis_1">
    <g id="xtick_1">
     <g id="line2d_1">
      <defs>
       <path id="mc8ba729cfa" d="M 0 0
L 0 3.5
" style="stroke: #000000; stroke-width: 0.8"/>
      </defs>
      <g>
       <use xlink:href="#mc8ba729cfa" x="48.720051" y="157.46087" style="stroke: #000000; stroke-width: 0.8"/>
      </g>
     </g>
     <g id="text_1">
      <!-- Female -->
      <g transform="translate(36.460634 170.245013) scale(0.0833 -0.0833)">
       <defs>
        <path id="TimesNewRomanPSMT-46" d="M 1309 4006
L 1309 2341
L 2081 2341
Q 2347 2341 2470 2458
Q 2594 2575 2634 2922
L 2750 2922
L 2750 1488
L 2634 1488
Q 2631 1734 2570 1850
Q 2509 1966 2401 2023
Q 2294 2081 2081 2081
L 1309 2081
L 1309 750
Q 1309 428 1350 325
Q 1381 247 1481 191
Q 1619 116 1769 116
L 1922 116
L 1922 0
L 103 0
L 103 116
L 253 116
Q 516 116 634 269
Q 709 369 709 750
L 709 3488
Q 709 3809 669 3913
Q 638 3991 541 4047
Q 406 4122 253 4122
L 103 4122
L 103 4238
L 3256 4238
L 3297 3306
L 3188 3306
Q 3106 3603 2998 3742
Q 2891 3881 2733 3943
Q 2575 4006 2244 4006
L 1309 4006
z
" transform="scale(0.015625)"/>
        <path id="TimesNewRomanPSMT-65" d="M 681 1784
Q 678 1147 991 784
Q 1303 422 1725 422
Q 2006 422 2214 576
Q 2422 731 2563 1106
L 2659 1044
Q 2594 616 2278 264
Q 1963 -88 1488 -88
Q 972 -88 605 314
Q 238 716 238 1394
Q 238 2128 614 2539
Q 991 2950 1559 2950
Q 2041 2950 2350 2633
Q 2659 2316 2659 1784
L 681 1784
z
M 681 1966
L 2006 1966
Q 1991 2241 1941 2353
Q 1863 2528 1708 2628
Q 1553 2728 1384 2728
Q 1125 2728 920 2526
Q 716 2325 681 1966
z
" transform="scale(0.015625)"/>
        <path id="TimesNewRomanPSMT-6d" d="M 1050 2338
Q 1363 2650 1419 2697
Q 1559 2816 1721 2881
Q 1884 2947 2044 2947
Q 2313 2947 2506 2790
Q 2700 2634 2766 2338
Q 3088 2713 3309 2830
Q 3531 2947 3766 2947
Q 3994 2947 4170 2830
Q 4347 2713 4450 2447
Q 4519 2266 4519 1878
L 4519 647
Q 4519 378 4559 278
Q 4591 209 4675 161
Q 4759 113 4950 113
L 4950 0
L 3538 0
L 3538 113
L 3597 113
Q 3781 113 3884 184
Q 3956 234 3988 344
Q 4000 397 4000 647
L 4000 1878
Q 4000 2228 3916 2372
Q 3794 2572 3525 2572
Q 3359 2572 3192 2489
Q 3025 2406 2788 2181
L 2781 2147
L 2788 2013
L 2788 647
Q 2788 353 2820 281
Q 2853 209 2943 161
Q 3034 113 3253 113
L 3253 0
L 1806 0
L 1806 113
Q 2044 113 2133 169
Q 2222 225 2256 338
Q 2272 391 2272 647
L 2272 1878
Q 2272 2228 2169 2381
Q 2031 2581 1784 2581
Q 1616 2581 1450 2491
Q 1191 2353 1050 2181
L 1050 647
Q 1050 366 1089 281
Q 1128 197 1204 155
Q 1281 113 1516 113
L 1516 0
L 100 0
L 100 113
Q 297 113 375 155
Q 453 197 493 289
Q 534 381 534 647
L 534 1741
Q 534 2213 506 2350
Q 484 2453 437 2492
Q 391 2531 309 2531
Q 222 2531 100 2484
L 53 2597
L 916 2947
L 1050 2947
L 1050 2338
z
" transform="scale(0.015625)"/>
        <path id="TimesNewRomanPSMT-61" d="M 1822 413
Q 1381 72 1269 19
Q 1100 -59 909 -59
Q 613 -59 420 144
Q 228 347 228 678
Q 228 888 322 1041
Q 450 1253 767 1440
Q 1084 1628 1822 1897
L 1822 2009
Q 1822 2438 1686 2597
Q 1550 2756 1291 2756
Q 1094 2756 978 2650
Q 859 2544 859 2406
L 866 2225
Q 866 2081 792 2003
Q 719 1925 600 1925
Q 484 1925 411 2006
Q 338 2088 338 2228
Q 338 2497 613 2722
Q 888 2947 1384 2947
Q 1766 2947 2009 2819
Q 2194 2722 2281 2516
Q 2338 2381 2338 1966
L 2338 994
Q 2338 584 2353 492
Q 2369 400 2405 369
Q 2441 338 2488 338
Q 2538 338 2575 359
Q 2641 400 2828 588
L 2828 413
Q 2478 -56 2159 -56
Q 2006 -56 1915 50
Q 1825 156 1822 413
z
M 1822 616
L 1822 1706
Q 1350 1519 1213 1441
Q 966 1303 859 1153
Q 753 1003 753 825
Q 753 600 887 451
Q 1022 303 1197 303
Q 1434 303 1822 616
z
" transform="scale(0.015625)"/>
        <path id="TimesNewRomanPSMT-6c" d="M 1184 4444
L 1184 647
Q 1184 378 1223 290
Q 1263 203 1344 158
Q 1425 113 1647 113
L 1647 0
L 244 0
L 244 113
Q 441 113 512 153
Q 584 194 625 287
Q 666 381 666 647
L 666 3247
Q 666 3731 644 3842
Q 622 3953 573 3993
Q 525 4034 450 4034
Q 369 4034 244 3984
L 191 4094
L 1044 4444
L 1184 4444
z
" transform="scale(0.015625)"/>
       </defs>
       <use xlink:href="#TimesNewRomanPSMT-46"/>
       <use xlink:href="#TimesNewRomanPSMT-65" x="55.615234"/>
       <use xlink:href="#TimesNewRomanPSMT-6d" x="100"/>
       <use xlink:href="#TimesNewRomanPSMT-61" x="177.783203"/>
       <use xlink:href="#TimesNewRomanPSMT-6c" x="222.167969"/>
       <use xlink:href="#TimesNewRomanPSMT-65" x="249.951172"/>
      </g>
     </g>
    </g>
    <g id="xtick_2">
     <g id="line2d_2">
      <g>
       <use xlink:href="#mc8ba729cfa" x="119.297126" y="157.46087" style="stroke: #000000; stroke-width: 0.8"/>
      </g>
     </g>
     <g id="text_2">
      <!-- Mixed Gender -->
      <g transform="translate(95.123857 170.245013) scale(0.0833 -0.0833)">
       <defs>
        <path id="TimesNewRomanPSMT-4d" d="M 2619 0
L 981 3566
L 981 734
Q 981 344 1066 247
Q 1181 116 1431 116
L 1581 116
L 1581 0
L 106 0
L 106 116
L 256 116
Q 525 116 638 278
Q 706 378 706 734
L 706 3503
Q 706 3784 644 3909
Q 600 4000 483 4061
Q 366 4122 106 4122
L 106 4238
L 1306 4238
L 2844 922
L 4356 4238
L 5556 4238
L 5556 4122
L 5409 4122
Q 5138 4122 5025 3959
Q 4956 3859 4956 3503
L 4956 734
Q 4956 344 5044 247
Q 5159 116 5409 116
L 5556 116
L 5556 0
L 3756 0
L 3756 116
L 3906 116
Q 4178 116 4288 278
Q 4356 378 4356 734
L 4356 3566
L 2722 0
L 2619 0
z
" transform="scale(0.015625)"/>
        <path id="TimesNewRomanPSMT-69" d="M 928 4444
Q 1059 4444 1151 4351
Q 1244 4259 1244 4128
Q 1244 3997 1151 3903
Q 1059 3809 928 3809
Q 797 3809 703 3903
Q 609 3997 609 4128
Q 609 4259 701 4351
Q 794 4444 928 4444
z
M 1188 2947
L 1188 647
Q 1188 378 1227 289
Q 1266 200 1342 156
Q 1419 113 1622 113
L 1622 0
L 231 0
L 231 113
Q 441 113 512 153
Q 584 194 626 287
Q 669 381 669 647
L 669 1750
Q 669 2216 641 2353
Q 619 2453 572 2492
Q 525 2531 444 2531
Q 356 2531 231 2484
L 188 2597
L 1050 2947
L 1188 2947
z
" transform="scale(0.015625)"/>
        <path id="TimesNewRomanPSMT-78" d="M 84 2863
L 1431 2863
L 1431 2747
Q 1303 2747 1251 2703
Q 1200 2659 1200 2588
Q 1200 2513 1309 2356
Q 1344 2306 1413 2200
L 1616 1875
L 1850 2200
Q 2075 2509 2075 2591
Q 2075 2656 2022 2701
Q 1969 2747 1850 2747
L 1850 2863
L 2819 2863
L 2819 2747
Q 2666 2738 2553 2663
Q 2400 2556 2134 2200
L 1744 1678
L 2456 653
Q 2719 275 2831 198
Q 2944 122 3122 113
L 3122 0
L 1772 0
L 1772 113
Q 1913 113 1991 175
Q 2050 219 2050 291
Q 2050 363 1850 653
L 1431 1266
L 972 653
Q 759 369 759 316
Q 759 241 829 180
Q 900 119 1041 113
L 1041 0
L 106 0
L 106 113
Q 219 128 303 191
Q 422 281 703 653
L 1303 1450
L 759 2238
Q 528 2575 401 2661
Q 275 2747 84 2747
L 84 2863
z
" transform="scale(0.015625)"/>
        <path id="TimesNewRomanPSMT-64" d="M 2222 322
Q 2013 103 1813 7
Q 1613 -88 1381 -88
Q 913 -88 563 304
Q 213 697 213 1313
Q 213 1928 600 2439
Q 988 2950 1597 2950
Q 1975 2950 2222 2709
L 2222 3238
Q 2222 3728 2198 3840
Q 2175 3953 2125 3993
Q 2075 4034 2000 4034
Q 1919 4034 1784 3984
L 1744 4094
L 2597 4444
L 2738 4444
L 2738 1134
Q 2738 631 2761 520
Q 2784 409 2836 365
Q 2888 322 2956 322
Q 3041 322 3181 375
L 3216 266
L 2366 -88
L 2222 -88
L 2222 322
z
M 2222 541
L 2222 2016
Q 2203 2228 2109 2403
Q 2016 2578 1861 2667
Q 1706 2756 1559 2756
Q 1284 2756 1069 2509
Q 784 2184 784 1559
Q 784 928 1059 592
Q 1334 256 1672 256
Q 1956 256 2222 541
z
" transform="scale(0.015625)"/>
        <path id="TimesNewRomanPSMT-20" transform="scale(0.015625)"/>
        <path id="TimesNewRomanPSMT-47" d="M 3928 4334
L 4038 2997
L 3928 2997
Q 3763 3497 3500 3750
Q 3122 4116 2528 4116
Q 1719 4116 1297 3475
Q 944 2934 944 2188
Q 944 1581 1178 1081
Q 1413 581 1792 348
Q 2172 116 2572 116
Q 2806 116 3025 175
Q 3244 234 3447 350
L 3447 1575
Q 3447 1894 3398 1992
Q 3350 2091 3248 2142
Q 3147 2194 2891 2194
L 2891 2313
L 4531 2313
L 4531 2194
L 4453 2194
Q 4209 2194 4119 2031
Q 4056 1916 4056 1575
L 4056 278
Q 3697 84 3347 -6
Q 2997 -97 2569 -97
Q 1341 -97 703 691
Q 225 1281 225 2053
Q 225 2613 494 3125
Q 813 3734 1369 4063
Q 1834 4334 2469 4334
Q 2700 4334 2889 4296
Q 3078 4259 3425 4131
Q 3600 4066 3659 4066
Q 3719 4066 3761 4120
Q 3803 4175 3813 4334
L 3928 4334
z
" transform="scale(0.015625)"/>
        <path id="TimesNewRomanPSMT-6e" d="M 1034 2341
Q 1538 2947 1994 2947
Q 2228 2947 2397 2830
Q 2566 2713 2666 2444
Q 2734 2256 2734 1869
L 2734 647
Q 2734 375 2778 278
Q 2813 200 2889 156
Q 2966 113 3172 113
L 3172 0
L 1756 0
L 1756 113
L 1816 113
Q 2016 113 2095 173
Q 2175 234 2206 353
Q 2219 400 2219 647
L 2219 1819
Q 2219 2209 2117 2386
Q 2016 2563 1775 2563
Q 1403 2563 1034 2156
L 1034 647
Q 1034 356 1069 288
Q 1113 197 1189 155
Q 1266 113 1500 113
L 1500 0
L 84 0
L 84 113
L 147 113
Q 366 113 442 223
Q 519 334 519 647
L 519 1709
Q 519 2225 495 2337
Q 472 2450 423 2490
Q 375 2531 294 2531
Q 206 2531 84 2484
L 38 2597
L 900 2947
L 1034 2947
L 1034 2341
z
" transform="scale(0.015625)"/>
        <path id="TimesNewRomanPSMT-72" d="M 1038 2947
L 1038 2303
Q 1397 2947 1775 2947
Q 1947 2947 2059 2842
Q 2172 2738 2172 2600
Q 2172 2478 2090 2393
Q 2009 2309 1897 2309
Q 1788 2309 1652 2417
Q 1516 2525 1450 2525
Q 1394 2525 1328 2463
Q 1188 2334 1038 2041
L 1038 669
Q 1038 431 1097 309
Q 1138 225 1241 169
Q 1344 113 1538 113
L 1538 0
L 72 0
L 72 113
Q 291 113 397 181
Q 475 231 506 341
Q 522 394 522 644
L 522 1753
Q 522 2253 501 2348
Q 481 2444 426 2487
Q 372 2531 291 2531
Q 194 2531 72 2484
L 41 2597
L 906 2947
L 1038 2947
z
" transform="scale(0.015625)"/>
       </defs>
       <use xlink:href="#TimesNewRomanPSMT-4d"/>
       <use xlink:href="#TimesNewRomanPSMT-69" x="88.916016"/>
       <use xlink:href="#TimesNewRomanPSMT-78" x="116.699219"/>
       <use xlink:href="#TimesNewRomanPSMT-65" x="166.699219"/>
       <use xlink:href="#TimesNewRomanPSMT-64" x="211.083984"/>
       <use xlink:href="#TimesNewRomanPSMT-20" x="261.083984"/>
       <use xlink:href="#TimesNewRomanPSMT-47" x="286.083984"/>
       <use xlink:href="#TimesNewRomanPSMT-65" x="358.300781"/>
       <use xlink:href="#TimesNewRomanPSMT-6e" x="402.685547"/>
       <use xlink:href="#TimesNewRomanPSMT-64" x="452.685547"/>
       <use xlink:href="#TimesNewRomanPSMT-65" x="502.685547"/>
       <use xlink:href="#TimesNewRomanPSMT-72" x="547.070312"/>
      </g>
     </g>
    </g>
    <g id="xtick_3">
     <g id="line2d_3">
      <g>
       <use xlink:href="#mc8ba729cfa" x="189.874201" y="157.46087" style="stroke: #000000; stroke-width: 0.8"/>
      </g>
     </g>
     <g id="text_3">
      <!-- Male -->
      <g transform="translate(181.315777 170.245013) scale(0.0833 -0.0833)">
       <use xlink:href="#TimesNewRomanPSMT-4d"/>
       <use xlink:href="#TimesNewRomanPSMT-61" x="88.916016"/>
       <use xlink:href="#TimesNewRomanPSMT-6c" x="133.300781"/>
       <use xlink:href="#TimesNewRomanPSMT-65" x="161.083984"/>
      </g>
     </g>
    </g>
    <g id="text_4">
     <!-- Gender -->
     <g transform="translate(103.188533 183.648727) scale(0.1 -0.1)">
      <defs>
       <path id="TimesNewRomanPS-BoldMT-47" d="M 4416 4334
L 4416 2841
L 4300 2841
Q 4091 3453 3672 3772
Q 3253 4091 2756 4091
Q 2281 4091 1965 3823
Q 1650 3556 1519 3078
Q 1388 2600 1388 2097
Q 1388 1488 1531 1028
Q 1675 569 1995 353
Q 2316 138 2756 138
Q 2909 138 3070 170
Q 3231 203 3400 266
L 3400 1147
Q 3400 1397 3365 1470
Q 3331 1544 3223 1603
Q 3116 1663 2963 1663
L 2853 1663
L 2853 1778
L 4913 1778
L 4913 1663
Q 4678 1647 4586 1598
Q 4494 1550 4444 1438
Q 4416 1378 4416 1147
L 4416 266
Q 4009 84 3570 -8
Q 3131 -100 2659 -100
Q 2056 -100 1657 64
Q 1259 228 954 495
Q 650 763 478 1097
Q 259 1528 259 2063
Q 259 3019 931 3678
Q 1603 4338 2622 4338
Q 2938 4338 3191 4288
Q 3328 4263 3636 4145
Q 3944 4028 4000 4028
Q 4088 4028 4163 4092
Q 4238 4156 4300 4334
L 4416 4334
z
" transform="scale(0.015625)"/>
       <path id="TimesNewRomanPS-BoldMT-65" d="M 2691 1566
L 1088 1566
Q 1116 984 1397 647
Q 1613 388 1916 388
Q 2103 388 2256 492
Q 2409 597 2584 869
L 2691 800
Q 2453 316 2165 114
Q 1878 -88 1500 -88
Q 850 -88 516 413
Q 247 816 247 1413
Q 247 2144 642 2576
Q 1038 3009 1569 3009
Q 2013 3009 2339 2645
Q 2666 2281 2691 1566
z
M 1922 1775
Q 1922 2278 1867 2465
Q 1813 2653 1697 2750
Q 1631 2806 1522 2806
Q 1359 2806 1256 2647
Q 1072 2369 1072 1884
L 1072 1775
L 1922 1775
z
" transform="scale(0.015625)"/>
       <path id="TimesNewRomanPS-BoldMT-6e" d="M 1409 2922
L 1409 2544
Q 1634 2788 1840 2898
Q 2047 3009 2284 3009
Q 2569 3009 2756 2851
Q 2944 2694 3006 2459
Q 3056 2281 3056 1775
L 3056 638
Q 3056 300 3117 217
Q 3178 134 3372 113
L 3372 0
L 1894 0
L 1894 113
Q 2059 134 2131 250
Q 2181 328 2181 638
L 2181 1938
Q 2181 2297 2153 2390
Q 2125 2484 2058 2536
Q 1991 2588 1909 2588
Q 1641 2588 1409 2203
L 1409 638
Q 1409 309 1470 221
Q 1531 134 1697 113
L 1697 0
L 219 0
L 219 113
Q 403 131 481 231
Q 534 300 534 638
L 534 2288
Q 534 2619 473 2700
Q 413 2781 219 2806
L 219 2922
L 1409 2922
z
" transform="scale(0.015625)"/>
       <path id="TimesNewRomanPS-BoldMT-64" d="M 3056 4238
L 3056 875
Q 3056 534 3075 472
Q 3100 369 3170 319
Q 3241 269 3416 256
L 3416 153
L 2181 -88
L 2181 375
Q 1959 106 1786 9
Q 1613 -88 1394 -88
Q 834 -88 509 413
Q 247 819 247 1409
Q 247 1881 409 2254
Q 572 2628 855 2818
Q 1138 3009 1463 3009
Q 1672 3009 1834 2928
Q 1997 2847 2181 2644
L 2181 3525
Q 2181 3859 2153 3928
Q 2116 4019 2041 4062
Q 1966 4106 1759 4106
L 1759 4238
L 3056 4238
z
M 2181 2256
Q 1950 2700 1616 2700
Q 1500 2700 1425 2638
Q 1309 2541 1236 2297
Q 1163 2053 1163 1550
Q 1163 997 1244 731
Q 1325 466 1466 347
Q 1538 288 1663 288
Q 1938 288 2181 719
L 2181 2256
z
" transform="scale(0.015625)"/>
       <path id="TimesNewRomanPS-BoldMT-72" d="M 1428 2922
L 1428 2259
Q 1719 2713 1937 2861
Q 2156 3009 2359 3009
Q 2534 3009 2639 2901
Q 2744 2794 2744 2597
Q 2744 2388 2642 2272
Q 2541 2156 2397 2156
Q 2231 2156 2109 2262
Q 1988 2369 1966 2381
Q 1934 2400 1894 2400
Q 1803 2400 1722 2331
Q 1594 2225 1528 2028
Q 1428 1725 1428 1359
L 1428 688
L 1431 513
Q 1431 334 1453 284
Q 1491 200 1564 161
Q 1638 122 1813 113
L 1813 0
L 234 0
L 234 113
Q 425 128 492 217
Q 559 306 559 688
L 559 2303
Q 559 2553 534 2622
Q 503 2709 443 2750
Q 384 2791 234 2806
L 234 2922
L 1428 2922
z
" transform="scale(0.015625)"/>
      </defs>
      <use xlink:href="#TimesNewRomanPS-BoldMT-47"/>
      <use xlink:href="#TimesNewRomanPS-BoldMT-65" x="77.783203"/>
      <use xlink:href="#TimesNewRomanPS-BoldMT-6e" x="122.167969"/>
      <use xlink:href="#TimesNewRomanPS-BoldMT-64" x="177.783203"/>
      <use xlink:href="#TimesNewRomanPS-BoldMT-65" x="233.398438"/>
      <use xlink:href="#TimesNewRomanPS-BoldMT-72" x="277.783203"/>
     </g>
    </g>
   </g>
   <g id="matplotlib.axis_2">
    <g id="ytick_1">
     <g id="line2d_4">
      <defs>
       <path id="m9261668f88" d="M 0 0
L -3.5 0
" style="stroke: #000000; stroke-width: 0.8"/>
      </defs>
      <g>
       <use xlink:href="#m9261668f88" x="41.662344" y="157.46087" style="stroke: #000000; stroke-width: 0.8"/>
      </g>
     </g>
     <g id="text_5">
      <!-- 0.2 -->
      <g transform="translate(24.249844 160.352941) scale(0.0833 -0.0833)">
       <defs>
        <path id="TimesNewRomanPSMT-30" d="M 231 2094
Q 231 2819 450 3342
Q 669 3866 1031 4122
Q 1313 4325 1613 4325
Q 2100 4325 2488 3828
Q 2972 3213 2972 2159
Q 2972 1422 2759 906
Q 2547 391 2217 158
Q 1888 -75 1581 -75
Q 975 -75 572 641
Q 231 1244 231 2094
z
M 844 2016
Q 844 1141 1059 588
Q 1238 122 1591 122
Q 1759 122 1940 273
Q 2122 425 2216 781
Q 2359 1319 2359 2297
Q 2359 3022 2209 3506
Q 2097 3866 1919 4016
Q 1791 4119 1609 4119
Q 1397 4119 1231 3928
Q 1006 3669 925 3112
Q 844 2556 844 2016
z
" transform="scale(0.015625)"/>
        <path id="TimesNewRomanPSMT-2e" d="M 800 606
Q 947 606 1047 504
Q 1147 403 1147 259
Q 1147 116 1045 14
Q 944 -88 800 -88
Q 656 -88 554 14
Q 453 116 453 259
Q 453 406 554 506
Q 656 606 800 606
z
" transform="scale(0.015625)"/>
        <path id="TimesNewRomanPSMT-32" d="M 2934 816
L 2638 0
L 138 0
L 138 116
Q 1241 1122 1691 1759
Q 2141 2397 2141 2925
Q 2141 3328 1894 3587
Q 1647 3847 1303 3847
Q 991 3847 742 3664
Q 494 3481 375 3128
L 259 3128
Q 338 3706 661 4015
Q 984 4325 1469 4325
Q 1984 4325 2329 3994
Q 2675 3663 2675 3213
Q 2675 2891 2525 2569
Q 2294 2063 1775 1497
Q 997 647 803 472
L 1909 472
Q 2247 472 2383 497
Q 2519 522 2628 598
Q 2738 675 2819 816
L 2934 816
z
" transform="scale(0.015625)"/>
       </defs>
       <use xlink:href="#TimesNewRomanPSMT-30"/>
       <use xlink:href="#TimesNewRomanPSMT-2e" x="50"/>
       <use xlink:href="#TimesNewRomanPSMT-32" x="75"/>
      </g>
     </g>
    </g>
    <g id="ytick_2">
     <g id="line2d_5">
      <g>
       <use xlink:href="#m9261668f88" x="41.662344" y="128.535652" style="stroke: #000000; stroke-width: 0.8"/>
      </g>
     </g>
     <g id="text_6">
      <!-- 0.3 -->
      <g transform="translate(24.249844 131.427724) scale(0.0833 -0.0833)">
       <defs>
        <path id="TimesNewRomanPSMT-33" d="M 325 3431
Q 506 3859 782 4092
Q 1059 4325 1472 4325
Q 1981 4325 2253 3994
Q 2459 3747 2459 3466
Q 2459 3003 1878 2509
Q 2269 2356 2469 2072
Q 2669 1788 2669 1403
Q 2669 853 2319 450
Q 1863 -75 997 -75
Q 569 -75 414 31
Q 259 138 259 259
Q 259 350 332 419
Q 406 488 509 488
Q 588 488 669 463
Q 722 447 909 348
Q 1097 250 1169 231
Q 1284 197 1416 197
Q 1734 197 1970 444
Q 2206 691 2206 1028
Q 2206 1275 2097 1509
Q 2016 1684 1919 1775
Q 1784 1900 1550 2001
Q 1316 2103 1072 2103
L 972 2103
L 972 2197
Q 1219 2228 1467 2375
Q 1716 2522 1828 2728
Q 1941 2934 1941 3181
Q 1941 3503 1739 3701
Q 1538 3900 1238 3900
Q 753 3900 428 3381
L 325 3431
z
" transform="scale(0.015625)"/>
       </defs>
       <use xlink:href="#TimesNewRomanPSMT-30"/>
       <use xlink:href="#TimesNewRomanPSMT-2e" x="50"/>
       <use xlink:href="#TimesNewRomanPSMT-33" x="75"/>
      </g>
     </g>
    </g>
    <g id="ytick_3">
     <g id="line2d_6">
      <g>
       <use xlink:href="#m9261668f88" x="41.662344" y="99.610435" style="stroke: #000000; stroke-width: 0.8"/>
      </g>
     </g>
     <g id="text_7">
      <!-- 0.4 -->
      <g transform="translate(24.249844 102.502507) scale(0.0833 -0.0833)">
       <defs>
        <path id="TimesNewRomanPSMT-34" d="M 2978 1563
L 2978 1119
L 2409 1119
L 2409 0
L 1894 0
L 1894 1119
L 100 1119
L 100 1519
L 2066 4325
L 2409 4325
L 2409 1563
L 2978 1563
z
M 1894 1563
L 1894 3666
L 406 1563
L 1894 1563
z
" transform="scale(0.015625)"/>
       </defs>
       <use xlink:href="#TimesNewRomanPSMT-30"/>
       <use xlink:href="#TimesNewRomanPSMT-2e" x="50"/>
       <use xlink:href="#TimesNewRomanPSMT-34" x="75"/>
      </g>
     </g>
    </g>
    <g id="ytick_4">
     <g id="line2d_7">
      <g>
       <use xlink:href="#m9261668f88" x="41.662344" y="70.685217" style="stroke: #000000; stroke-width: 0.8"/>
      </g>
     </g>
     <g id="text_8">
      <!-- 0.5 -->
      <g transform="translate(24.249844 73.577289) scale(0.0833 -0.0833)">
       <defs>
        <path id="TimesNewRomanPSMT-35" d="M 2778 4238
L 2534 3706
L 1259 3706
L 981 3138
Q 1809 3016 2294 2522
Q 2709 2097 2709 1522
Q 2709 1188 2573 903
Q 2438 619 2231 419
Q 2025 219 1772 97
Q 1413 -75 1034 -75
Q 653 -75 479 54
Q 306 184 306 341
Q 306 428 378 495
Q 450 563 559 563
Q 641 563 702 538
Q 763 513 909 409
Q 1144 247 1384 247
Q 1750 247 2026 523
Q 2303 800 2303 1197
Q 2303 1581 2056 1914
Q 1809 2247 1375 2428
Q 1034 2569 447 2591
L 1259 4238
L 2778 4238
z
" transform="scale(0.015625)"/>
       </defs>
       <use xlink:href="#TimesNewRomanPSMT-30"/>
       <use xlink:href="#TimesNewRomanPSMT-2e" x="50"/>
       <use xlink:href="#TimesNewRomanPSMT-35" x="75"/>
      </g>
     </g>
    </g>
    <g id="ytick_5">
     <g id="line2d_8">
      <g>
       <use xlink:href="#m9261668f88" x="41.662344" y="41.76" style="stroke: #000000; stroke-width: 0.8"/>
      </g>
     </g>
     <g id="text_9">
      <!-- 0.6 -->
      <g transform="translate(24.249844 44.652072) scale(0.0833 -0.0833)">
       <defs>
        <path id="TimesNewRomanPSMT-36" d="M 2869 4325
L 2869 4209
Q 2456 4169 2195 4045
Q 1934 3922 1679 3669
Q 1425 3416 1258 3105
Q 1091 2794 978 2366
Q 1428 2675 1881 2675
Q 2316 2675 2634 2325
Q 2953 1975 2953 1425
Q 2953 894 2631 456
Q 2244 -75 1606 -75
Q 1172 -75 869 213
Q 275 772 275 1663
Q 275 2231 503 2743
Q 731 3256 1154 3653
Q 1578 4050 1965 4187
Q 2353 4325 2688 4325
L 2869 4325
z
M 925 2138
Q 869 1716 869 1456
Q 869 1156 980 804
Q 1091 453 1309 247
Q 1469 100 1697 100
Q 1969 100 2183 356
Q 2397 613 2397 1088
Q 2397 1622 2184 2012
Q 1972 2403 1581 2403
Q 1463 2403 1327 2353
Q 1191 2303 925 2138
z
" transform="scale(0.015625)"/>
       </defs>
       <use xlink:href="#TimesNewRomanPSMT-30"/>
       <use xlink:href="#TimesNewRomanPSMT-2e" x="50"/>
       <use xlink:href="#TimesNewRomanPSMT-36" x="75"/>
      </g>
     </g>
    </g>
    <g id="text_10">
     <!-- Means -->
     <g transform="translate(17.324688 112.359497) rotate(-90) scale(0.09 -0.09)">
      <defs>
       <path id="TimesNewRomanPS-BoldMT-4d" d="M 3050 1444
L 4200 4238
L 5925 4238
L 5925 4122
L 5788 4122
Q 5600 4122 5488 4056
Q 5409 4013 5363 3909
Q 5328 3834 5328 3519
L 5328 725
Q 5328 400 5362 319
Q 5397 238 5503 177
Q 5609 116 5788 116
L 5925 116
L 5925 0
L 3713 0
L 3713 116
L 3850 116
Q 4038 116 4150 181
Q 4228 225 4275 331
Q 4309 406 4309 725
L 4309 3866
L 2684 0
L 2609 0
L 959 3838
L 959 853
Q 959 541 975 469
Q 1016 313 1152 214
Q 1288 116 1578 116
L 1578 0
L 128 0
L 128 116
L 172 116
Q 313 113 434 161
Q 556 209 618 290
Q 681 372 716 519
Q 722 553 722 838
L 722 3519
Q 722 3841 687 3920
Q 653 4000 547 4061
Q 441 4122 263 4122
L 128 4122
L 128 4238
L 1859 4238
L 3050 1444
z
" transform="scale(0.015625)"/>
       <path id="TimesNewRomanPS-BoldMT-61" d="M 1828 431
Q 1294 -41 869 -41
Q 619 -41 453 123
Q 288 288 288 534
Q 288 869 575 1136
Q 863 1403 1828 1847
L 1828 2141
Q 1828 2472 1792 2558
Q 1756 2644 1656 2708
Q 1556 2772 1431 2772
Q 1228 2772 1097 2681
Q 1016 2625 1016 2550
Q 1016 2484 1103 2388
Q 1222 2253 1222 2128
Q 1222 1975 1108 1867
Q 994 1759 809 1759
Q 613 1759 480 1878
Q 347 1997 347 2156
Q 347 2381 525 2586
Q 703 2791 1022 2900
Q 1341 3009 1684 3009
Q 2100 3009 2342 2832
Q 2584 2656 2656 2450
Q 2700 2319 2700 1847
L 2700 713
Q 2700 513 2715 461
Q 2731 409 2762 384
Q 2794 359 2834 359
Q 2916 359 3000 475
L 3094 400
Q 2938 169 2770 64
Q 2603 -41 2391 -41
Q 2141 -41 2000 76
Q 1859 194 1828 431
z
M 1828 659
L 1828 1638
Q 1450 1416 1266 1163
Q 1144 994 1144 822
Q 1144 678 1247 569
Q 1325 484 1466 484
Q 1622 484 1828 659
z
" transform="scale(0.015625)"/>
       <path id="TimesNewRomanPS-BoldMT-73" d="M 2063 3003
L 2109 2006
L 2003 2006
Q 1813 2450 1608 2612
Q 1403 2775 1200 2775
Q 1072 2775 981 2689
Q 891 2603 891 2491
Q 891 2406 953 2328
Q 1053 2200 1512 1889
Q 1972 1578 2117 1361
Q 2263 1144 2263 875
Q 2263 631 2141 397
Q 2019 163 1797 37
Q 1575 -88 1306 -88
Q 1097 -88 747 44
Q 653 78 619 78
Q 516 78 447 -78
L 344 -78
L 294 972
L 400 972
Q 541 559 786 353
Q 1031 147 1250 147
Q 1400 147 1495 239
Q 1591 331 1591 463
Q 1591 613 1497 722
Q 1403 831 1078 1053
Q 600 1384 459 1559
Q 253 1816 253 2125
Q 253 2463 486 2736
Q 719 3009 1159 3009
Q 1397 3009 1619 2894
Q 1703 2847 1756 2847
Q 1813 2847 1847 2870
Q 1881 2894 1956 3003
L 2063 3003
z
" transform="scale(0.015625)"/>
      </defs>
      <use xlink:href="#TimesNewRomanPS-BoldMT-4d"/>
      <use xlink:href="#TimesNewRomanPS-BoldMT-65" x="94.384766"/>
      <use xlink:href="#TimesNewRomanPS-BoldMT-61" x="138.769531"/>
      <use xlink:href="#TimesNewRomanPS-BoldMT-6e" x="188.769531"/>
      <use xlink:href="#TimesNewRomanPS-BoldMT-73" x="244.384766"/>
     </g>
    </g>
   </g>
   <g id="line2d_9">
    <path d="M 48.720051 124.98945
L 119.297126 118.320995
L 189.874201 133.519552
" clip-path="url(#pce9416bc43)" style="fill: none; stroke: #c85200; stroke-width: 1.5; stroke-linecap: square"/>
    <defs>
     <path id="mce61b1d6f1" d="M 0 3
C 0.795609 3 1.55874 2.683901 2.12132 2.12132
C 2.683901 1.55874 3 0.795609 3 0
C 3 -0.795609 2.683901 -1.55874 2.12132 -2.12132
C 1.55874 -2.683901 0.795609 -3 0 -3
C -0.795609 -3 -1.55874 -2.683901 -2.12132 -2.12132
C -2.683901 -1.55874 -3 -0.795609 -3 0
C -3 0.795609 -2.683901 1.55874 -2.12132 2.12132
C -1.55874 2.683901 -0.795609 3 0 3
z
" style="stroke: #ffffff; stroke-width: 0.75"/>
    </defs>
    <g clip-path="url(#pce9416bc43)">
     <use xlink:href="#mce61b1d6f1" x="48.720051" y="124.98945" style="fill: #c85200; stroke: #ffffff; stroke-width: 0.75"/>
     <use xlink:href="#mce61b1d6f1" x="119.297126" y="118.320995" style="fill: #c85200; stroke: #ffffff; stroke-width: 0.75"/>
     <use xlink:href="#mce61b1d6f1" x="189.874201" y="133.519552" style="fill: #c85200; stroke: #ffffff; stroke-width: 0.75"/>
    </g>
   </g>
   <g id="line2d_10">
    <path d="M 48.720051 75.441144
L 119.297126 65.526475
L 189.874201 59.313336
" clip-path="url(#pce9416bc43)" style="fill: none; stroke: #006ba4; stroke-width: 1.5; stroke-linecap: square"/>
    <defs>
     <path id="m3feab7b50c" d="M 0 3
C 0.795609 3 1.55874 2.683901 2.12132 2.12132
C 2.683901 1.55874 3 0.795609 3 0
C 3 -0.795609 2.683901 -1.55874 2.12132 -2.12132
C 1.55874 -2.683901 0.795609 -3 0 -3
C -0.795609 -3 -1.55874 -2.683901 -2.12132 -2.12132
C -2.683901 -1.55874 -3 -0.795609 -3 0
C -3 0.795609 -2.683901 1.55874 -2.12132 2.12132
C -1.55874 2.683901 -0.795609 3 0 3
z
" style="stroke: #ffffff; stroke-width: 0.75"/>
    </defs>
    <g clip-path="url(#pce9416bc43)">
     <use xlink:href="#m3feab7b50c" x="48.720051" y="75.441144" style="fill: #006ba4; stroke: #ffffff; stroke-width: 0.75"/>
     <use xlink:href="#m3feab7b50c" x="119.297126" y="65.526475" style="fill: #006ba4; stroke: #ffffff; stroke-width: 0.75"/>
     <use xlink:href="#m3feab7b50c" x="189.874201" y="59.313336" style="fill: #006ba4; stroke: #ffffff; stroke-width: 0.75"/>
    </g>
   </g>
   <g id="patch_3">
    <path d="M 41.662344 157.46087
L 41.662344 41.76
" style="fill: none; stroke: #000000; stroke-width: 0.8; stroke-linejoin: miter; stroke-linecap: square"/>
   </g>
   <g id="patch_4">
    <path d="M 41.662344 157.46087
L 196.931909 157.46087
" style="fill: none; stroke: #000000; stroke-width: 0.8; stroke-linejoin: miter; stroke-linecap: square"/>
   </g>
   <g id="text_11">
    <!-- 0.31 -->
    <g transform="translate(41.720051 122.955531) scale(0.08 -0.08)">
     <defs>
      <path id="TimesNewRomanPSMT-31" d="M 750 3822
L 1781 4325
L 1884 4325
L 1884 747
Q 1884 391 1914 303
Q 1944 216 2037 169
Q 2131 122 2419 116
L 2419 0
L 825 0
L 825 116
Q 1125 122 1212 167
Q 1300 213 1334 289
Q 1369 366 1369 747
L 1369 3034
Q 1369 3497 1338 3628
Q 1316 3728 1258 3775
Q 1200 3822 1119 3822
Q 1003 3822 797 3725
L 750 3822
z
" transform="scale(0.015625)"/>
     </defs>
     <use xlink:href="#TimesNewRomanPSMT-30"/>
     <use xlink:href="#TimesNewRomanPSMT-2e" x="50"/>
     <use xlink:href="#TimesNewRomanPSMT-33" x="75"/>
     <use xlink:href="#TimesNewRomanPSMT-31" x="125"/>
    </g>
   </g>
   <g id="text_12">
    <!-- 0.34 -->
    <g transform="translate(112.297126 116.263254) scale(0.08 -0.08)">
     <use xlink:href="#TimesNewRomanPSMT-30"/>
     <use xlink:href="#TimesNewRomanPSMT-2e" x="50"/>
     <use xlink:href="#TimesNewRomanPSMT-33" x="75"/>
     <use xlink:href="#TimesNewRomanPSMT-34" x="125"/>
    </g>
   </g>
   <g id="text_13">
    <!-- 0.28 -->
    <g transform="translate(182.874201 131.516107) scale(0.08 -0.08)">
     <defs>
      <path id="TimesNewRomanPSMT-38" d="M 1228 2134
Q 725 2547 579 2797
Q 434 3047 434 3316
Q 434 3728 753 4026
Q 1072 4325 1600 4325
Q 2113 4325 2425 4047
Q 2738 3769 2738 3413
Q 2738 3175 2569 2928
Q 2400 2681 1866 2347
Q 2416 1922 2594 1678
Q 2831 1359 2831 1006
Q 2831 559 2490 242
Q 2150 -75 1597 -75
Q 994 -75 656 303
Q 388 606 388 966
Q 388 1247 577 1523
Q 766 1800 1228 2134
z
M 1719 2469
Q 2094 2806 2194 3001
Q 2294 3197 2294 3444
Q 2294 3772 2109 3958
Q 1925 4144 1606 4144
Q 1288 4144 1088 3959
Q 888 3775 888 3528
Q 888 3366 970 3203
Q 1053 3041 1206 2894
L 1719 2469
z
M 1375 2016
Q 1116 1797 991 1539
Q 866 1281 866 981
Q 866 578 1086 336
Q 1306 94 1647 94
Q 1984 94 2187 284
Q 2391 475 2391 747
Q 2391 972 2272 1150
Q 2050 1481 1375 2016
z
" transform="scale(0.015625)"/>
     </defs>
     <use xlink:href="#TimesNewRomanPSMT-30"/>
     <use xlink:href="#TimesNewRomanPSMT-2e" x="50"/>
     <use xlink:href="#TimesNewRomanPSMT-32" x="75"/>
     <use xlink:href="#TimesNewRomanPSMT-38" x="125"/>
    </g>
   </g>
   <g id="text_14">
    <!-- 0.48 -->
    <g transform="translate(41.720051 73.230217) scale(0.08 -0.08)">
     <use xlink:href="#TimesNewRomanPSMT-30"/>
     <use xlink:href="#TimesNewRomanPSMT-2e" x="50"/>
     <use xlink:href="#TimesNewRomanPSMT-34" x="75"/>
     <use xlink:href="#TimesNewRomanPSMT-38" x="125"/>
    </g>
   </g>
   <g id="text_15">
    <!-- 0.52 -->
    <g transform="translate(112.297126 63.28013) scale(0.08 -0.08)">
     <use xlink:href="#TimesNewRomanPSMT-30"/>
     <use xlink:href="#TimesNewRomanPSMT-2e" x="50"/>
     <use xlink:href="#TimesNewRomanPSMT-35" x="75"/>
     <use xlink:href="#TimesNewRomanPSMT-32" x="125"/>
    </g>
   </g>
   <g id="text_16">
    <!-- 0.54 -->
    <g transform="translate(182.874201 57.044794) scale(0.08 -0.08)">
     <use xlink:href="#TimesNewRomanPSMT-30"/>
     <use xlink:href="#TimesNewRomanPSMT-2e" x="50"/>
     <use xlink:href="#TimesNewRomanPSMT-35" x="75"/>
     <use xlink:href="#TimesNewRomanPSMT-34" x="125"/>
    </g>
   </g>
  </g>
  <g id="axes_2">
   <g id="patch_5">
    <path d="M 243.512779 157.46087
L 398.782344 157.46087
L 398.782344 41.76
L 243.512779 41.76
z
" style="fill: #ffffff"/>
   </g>
   <g id="PolyCollection_3"/>
   <g id="PolyCollection_4"/>
   <g id="matplotlib.axis_3">
    <g id="xtick_4">
     <g id="line2d_11">
      <g>
       <use xlink:href="#mc8ba729cfa" x="250.570486" y="157.46087" style="stroke: #000000; stroke-width: 0.8"/>
      </g>
     </g>
     <g id="text_17">
      <!-- Older -->
      <g transform="translate(241.087302 170.245013) scale(0.0833 -0.0833)">
       <defs>
        <path id="TimesNewRomanPSMT-4f" d="M 2341 4334
Q 3166 4334 3770 3707
Q 4375 3081 4375 2144
Q 4375 1178 3765 540
Q 3156 -97 2291 -97
Q 1416 -97 820 525
Q 225 1147 225 2134
Q 225 3144 913 3781
Q 1509 4334 2341 4334
z
M 2281 4106
Q 1713 4106 1369 3684
Q 941 3159 941 2147
Q 941 1109 1384 550
Q 1725 125 2284 125
Q 2881 125 3270 590
Q 3659 1056 3659 2059
Q 3659 3147 3231 3681
Q 2888 4106 2281 4106
z
" transform="scale(0.015625)"/>
       </defs>
       <use xlink:href="#TimesNewRomanPSMT-4f"/>
       <use xlink:href="#TimesNewRomanPSMT-6c" x="72.216797"/>
       <use xlink:href="#TimesNewRomanPSMT-64" x="100"/>
       <use xlink:href="#TimesNewRomanPSMT-65" x="150"/>
       <use xlink:href="#TimesNewRomanPSMT-72" x="194.384766"/>
      </g>
     </g>
    </g>
    <g id="xtick_5">
     <g id="line2d_12">
      <g>
       <use xlink:href="#mc8ba729cfa" x="321.147561" y="157.46087" style="stroke: #000000; stroke-width: 0.8"/>
      </g>
     </g>
     <g id="text_18">
      <!-- Mixed Age -->
      <g transform="translate(302.521551 170.245013) scale(0.0833 -0.0833)">
       <defs>
        <path id="TimesNewRomanPSMT-41" d="M 2928 1419
L 1288 1419
L 1000 750
Q 894 503 894 381
Q 894 284 986 211
Q 1078 138 1384 116
L 1384 0
L 50 0
L 50 116
Q 316 163 394 238
Q 553 388 747 847
L 2238 4334
L 2347 4334
L 3822 809
Q 4000 384 4145 257
Q 4291 131 4550 116
L 4550 0
L 2878 0
L 2878 116
Q 3131 128 3220 200
Q 3309 272 3309 375
Q 3309 513 3184 809
L 2928 1419
z
M 2841 1650
L 2122 3363
L 1384 1650
L 2841 1650
z
" transform="scale(0.015625)"/>
        <path id="TimesNewRomanPSMT-67" d="M 966 1044
Q 703 1172 562 1401
Q 422 1631 422 1909
Q 422 2334 742 2640
Q 1063 2947 1563 2947
Q 1972 2947 2272 2747
L 2878 2747
Q 3013 2747 3034 2739
Q 3056 2731 3066 2713
Q 3084 2684 3084 2613
Q 3084 2531 3069 2500
Q 3059 2484 3036 2475
Q 3013 2466 2878 2466
L 2506 2466
Q 2681 2241 2681 1891
Q 2681 1491 2375 1206
Q 2069 922 1553 922
Q 1341 922 1119 984
Q 981 866 932 777
Q 884 688 884 625
Q 884 572 936 522
Q 988 472 1138 450
Q 1225 438 1575 428
Q 2219 413 2409 384
Q 2700 344 2873 169
Q 3047 -6 3047 -263
Q 3047 -616 2716 -925
Q 2228 -1381 1444 -1381
Q 841 -1381 425 -1109
Q 191 -953 191 -784
Q 191 -709 225 -634
Q 278 -519 444 -313
Q 466 -284 763 25
Q 600 122 533 198
Q 466 275 466 372
Q 466 481 555 628
Q 644 775 966 1044
z
M 1509 2797
Q 1278 2797 1122 2612
Q 966 2428 966 2047
Q 966 1553 1178 1281
Q 1341 1075 1591 1075
Q 1828 1075 1981 1253
Q 2134 1431 2134 1813
Q 2134 2309 1919 2591
Q 1759 2797 1509 2797
z
M 934 0
Q 788 -159 713 -296
Q 638 -434 638 -550
Q 638 -700 819 -813
Q 1131 -1006 1722 -1006
Q 2284 -1006 2551 -807
Q 2819 -609 2819 -384
Q 2819 -222 2659 -153
Q 2497 -84 2016 -72
Q 1313 -53 934 0
z
" transform="scale(0.015625)"/>
       </defs>
       <use xlink:href="#TimesNewRomanPSMT-4d"/>
       <use xlink:href="#TimesNewRomanPSMT-69" x="88.916016"/>
       <use xlink:href="#TimesNewRomanPSMT-78" x="116.699219"/>
       <use xlink:href="#TimesNewRomanPSMT-65" x="166.699219"/>
       <use xlink:href="#TimesNewRomanPSMT-64" x="211.083984"/>
       <use xlink:href="#TimesNewRomanPSMT-20" x="261.083984"/>
       <use xlink:href="#TimesNewRomanPSMT-41" x="280.583984"/>
       <use xlink:href="#TimesNewRomanPSMT-67" x="352.800781"/>
       <use xlink:href="#TimesNewRomanPSMT-65" x="402.800781"/>
      </g>
     </g>
    </g>
    <g id="xtick_6">
     <g id="line2d_13">
      <g>
       <use xlink:href="#mc8ba729cfa" x="391.724636" y="157.46087" style="stroke: #000000; stroke-width: 0.8"/>
      </g>
     </g>
     <g id="text_19">
      <!-- Younger -->
      <g transform="translate(377.567541 170.229395) scale(0.0833 -0.0833)">
       <defs>
        <path id="TimesNewRomanPSMT-59" d="M 3050 4238
L 4528 4238
L 4528 4122
L 4447 4122
Q 4366 4122 4209 4050
Q 4053 3978 3925 3843
Q 3797 3709 3609 3406
L 2588 1797
L 2588 734
Q 2588 344 2675 247
Q 2794 116 3050 116
L 3188 116
L 3188 0
L 1388 0
L 1388 116
L 1538 116
Q 1806 116 1919 278
Q 1988 378 1988 734
L 1988 1738
L 825 3513
Q 619 3825 545 3903
Q 472 3981 241 4091
Q 178 4122 59 4122
L 59 4238
L 1872 4238
L 1872 4122
L 1778 4122
Q 1631 4122 1507 4053
Q 1384 3984 1384 3847
Q 1384 3734 1575 3441
L 2459 2075
L 3291 3381
Q 3478 3675 3478 3819
Q 3478 3906 3433 3975
Q 3388 4044 3303 4083
Q 3219 4122 3050 4122
L 3050 4238
z
" transform="scale(0.015625)"/>
        <path id="TimesNewRomanPSMT-6f" d="M 1600 2947
Q 2250 2947 2644 2453
Q 2978 2031 2978 1484
Q 2978 1100 2793 706
Q 2609 313 2286 112
Q 1963 -88 1566 -88
Q 919 -88 538 428
Q 216 863 216 1403
Q 216 1797 411 2186
Q 606 2575 925 2761
Q 1244 2947 1600 2947
z
M 1503 2744
Q 1338 2744 1170 2645
Q 1003 2547 900 2300
Q 797 2053 797 1666
Q 797 1041 1045 587
Q 1294 134 1700 134
Q 2003 134 2200 384
Q 2397 634 2397 1244
Q 2397 2006 2069 2444
Q 1847 2744 1503 2744
z
" transform="scale(0.015625)"/>
        <path id="TimesNewRomanPSMT-75" d="M 2709 2863
L 2709 1128
Q 2709 631 2732 520
Q 2756 409 2807 365
Q 2859 322 2928 322
Q 3025 322 3147 375
L 3191 266
L 2334 -88
L 2194 -88
L 2194 519
Q 1825 119 1631 15
Q 1438 -88 1222 -88
Q 981 -88 804 51
Q 628 191 559 409
Q 491 628 491 1028
L 491 2306
Q 491 2509 447 2587
Q 403 2666 317 2708
Q 231 2750 6 2747
L 6 2863
L 1009 2863
L 1009 947
Q 1009 547 1148 422
Q 1288 297 1484 297
Q 1619 297 1789 381
Q 1959 466 2194 703
L 2194 2325
Q 2194 2569 2105 2655
Q 2016 2741 1734 2747
L 1734 2863
L 2709 2863
z
" transform="scale(0.015625)"/>
       </defs>
       <use xlink:href="#TimesNewRomanPSMT-59"/>
       <use xlink:href="#TimesNewRomanPSMT-6f" x="62.216797"/>
       <use xlink:href="#TimesNewRomanPSMT-75" x="112.216797"/>
       <use xlink:href="#TimesNewRomanPSMT-6e" x="162.216797"/>
       <use xlink:href="#TimesNewRomanPSMT-67" x="212.216797"/>
       <use xlink:href="#TimesNewRomanPSMT-65" x="262.216797"/>
       <use xlink:href="#TimesNewRomanPSMT-72" x="306.601562"/>
      </g>
     </g>
    </g>
    <g id="text_20">
     <!-- Age -->
     <g transform="translate(312.817092 183.800284) scale(0.1 -0.1)">
      <defs>
       <path id="TimesNewRomanPS-BoldMT-41" d="M 2663 1206
L 1166 1206
L 988 794
Q 900 588 900 453
Q 900 275 1044 191
Q 1128 141 1459 116
L 1459 0
L 50 0
L 50 116
Q 278 150 425 304
Q 572 459 788 944
L 2303 4325
L 2363 4325
L 3891 850
Q 4109 356 4250 228
Q 4356 131 4550 116
L 4550 0
L 2500 0
L 2500 116
L 2584 116
Q 2831 116 2931 184
Q 3000 234 3000 328
Q 3000 384 2981 444
Q 2975 472 2888 678
L 2663 1206
z
M 2556 1438
L 1925 2897
L 1275 1438
L 2556 1438
z
" transform="scale(0.015625)"/>
       <path id="TimesNewRomanPS-BoldMT-67" d="M 2091 2888
L 3075 2888
L 3075 2544
L 2516 2544
Q 2669 2391 2728 2266
Q 2803 2097 2803 1913
Q 2803 1600 2629 1370
Q 2456 1141 2157 1011
Q 1859 881 1628 881
Q 1609 881 1253 897
Q 1113 897 1017 805
Q 922 713 922 584
Q 922 472 1008 400
Q 1094 328 1288 328
L 1828 334
Q 2484 334 2731 191
Q 3084 -9 3084 -425
Q 3084 -691 2921 -908
Q 2759 -1125 2494 -1228
Q 2091 -1381 1566 -1381
Q 1172 -1381 847 -1304
Q 522 -1228 381 -1092
Q 241 -956 241 -806
Q 241 -663 348 -548
Q 456 -434 750 -356
Q 344 -156 344 200
Q 344 416 509 619
Q 675 822 1034 972
Q 616 1125 428 1375
Q 241 1625 241 1953
Q 241 2381 591 2695
Q 941 3009 1491 3009
Q 1781 3009 2091 2888
z
M 1550 2816
Q 1369 2816 1244 2633
Q 1119 2450 1119 1875
Q 1119 1409 1242 1236
Q 1366 1063 1534 1063
Q 1722 1063 1847 1234
Q 1972 1406 1972 1903
Q 1972 2463 1831 2666
Q 1731 2816 1550 2816
z
M 1366 -431
Q 1047 -431 944 -484
Q 766 -581 766 -747
Q 766 -906 950 -1036
Q 1134 -1166 1644 -1166
Q 2078 -1166 2326 -1050
Q 2575 -934 2575 -725
Q 2575 -647 2528 -594
Q 2444 -500 2273 -465
Q 2103 -431 1366 -431
z
" transform="scale(0.015625)"/>
      </defs>
      <use xlink:href="#TimesNewRomanPS-BoldMT-41"/>
      <use xlink:href="#TimesNewRomanPS-BoldMT-67" x="72.216797"/>
      <use xlink:href="#TimesNewRomanPS-BoldMT-65" x="122.216797"/>
     </g>
    </g>
   </g>
   <g id="matplotlib.axis_4">
    <g id="ytick_6">
     <g id="line2d_14">
      <g>
       <use xlink:href="#m9261668f88" x="243.512779" y="157.46087" style="stroke: #000000; stroke-width: 0.8"/>
      </g>
     </g>
     <g id="text_21">
      <!-- 0.2 -->
      <g transform="translate(226.100279 160.352941) scale(0.0833 -0.0833)">
       <use xlink:href="#TimesNewRomanPSMT-30"/>
       <use xlink:href="#TimesNewRomanPSMT-2e" x="50"/>
       <use xlink:href="#TimesNewRomanPSMT-32" x="75"/>
      </g>
     </g>
    </g>
    <g id="ytick_7">
     <g id="line2d_15">
      <g>
       <use xlink:href="#m9261668f88" x="243.512779" y="128.535652" style="stroke: #000000; stroke-width: 0.8"/>
      </g>
     </g>
     <g id="text_22">
      <!-- 0.3 -->
      <g transform="translate(226.100279 131.427724) scale(0.0833 -0.0833)">
       <use xlink:href="#TimesNewRomanPSMT-30"/>
       <use xlink:href="#TimesNewRomanPSMT-2e" x="50"/>
       <use xlink:href="#TimesNewRomanPSMT-33" x="75"/>
      </g>
     </g>
    </g>
    <g id="ytick_8">
     <g id="line2d_16">
      <g>
       <use xlink:href="#m9261668f88" x="243.512779" y="99.610435" style="stroke: #000000; stroke-width: 0.8"/>
      </g>
     </g>
     <g id="text_23">
      <!-- 0.4 -->
      <g transform="translate(226.100279 102.502507) scale(0.0833 -0.0833)">
       <use xlink:href="#TimesNewRomanPSMT-30"/>
       <use xlink:href="#TimesNewRomanPSMT-2e" x="50"/>
       <use xlink:href="#TimesNewRomanPSMT-34" x="75"/>
      </g>
     </g>
    </g>
    <g id="ytick_9">
     <g id="line2d_17">
      <g>
       <use xlink:href="#m9261668f88" x="243.512779" y="70.685217" style="stroke: #000000; stroke-width: 0.8"/>
      </g>
     </g>
     <g id="text_24">
      <!-- 0.5 -->
      <g transform="translate(226.100279 73.577289) scale(0.0833 -0.0833)">
       <use xlink:href="#TimesNewRomanPSMT-30"/>
       <use xlink:href="#TimesNewRomanPSMT-2e" x="50"/>
       <use xlink:href="#TimesNewRomanPSMT-35" x="75"/>
      </g>
     </g>
    </g>
    <g id="ytick_10">
     <g id="line2d_18">
      <g>
       <use xlink:href="#m9261668f88" x="243.512779" y="41.76" style="stroke: #000000; stroke-width: 0.8"/>
      </g>
     </g>
     <g id="text_25">
      <!-- 0.6 -->
      <g transform="translate(226.100279 44.652072) scale(0.0833 -0.0833)">
       <use xlink:href="#TimesNewRomanPSMT-30"/>
       <use xlink:href="#TimesNewRomanPSMT-2e" x="50"/>
       <use xlink:href="#TimesNewRomanPSMT-36" x="75"/>
      </g>
     </g>
    </g>
    <g id="text_26">
     <!-- Means -->
     <g transform="translate(219.175122 112.359497) rotate(-90) scale(0.09 -0.09)">
      <use xlink:href="#TimesNewRomanPS-BoldMT-4d"/>
      <use xlink:href="#TimesNewRomanPS-BoldMT-65" x="94.384766"/>
      <use xlink:href="#TimesNewRomanPS-BoldMT-61" x="138.769531"/>
      <use xlink:href="#TimesNewRomanPS-BoldMT-6e" x="188.769531"/>
      <use xlink:href="#TimesNewRomanPS-BoldMT-73" x="244.384766"/>
     </g>
    </g>
   </g>
   <g id="line2d_19">
    <path d="M 250.570486 131.965347
L 321.147561 125.568032
L 391.724636 117.154016
" clip-path="url(#p4d113787dc)" style="fill: none; stroke: #c85200; stroke-width: 1.5; stroke-linecap: square"/>
    <g clip-path="url(#p4d113787dc)">
     <use xlink:href="#mce61b1d6f1" x="250.570486" y="131.965347" style="fill: #c85200; stroke: #ffffff; stroke-width: 0.75"/>
     <use xlink:href="#mce61b1d6f1" x="321.147561" y="125.568032" style="fill: #c85200; stroke: #ffffff; stroke-width: 0.75"/>
     <use xlink:href="#mce61b1d6f1" x="391.724636" y="117.154016" style="fill: #c85200; stroke: #ffffff; stroke-width: 0.75"/>
    </g>
   </g>
   <g id="line2d_20">
    <path d="M 250.570486 56.041552
L 321.147561 67.363779
L 391.724636 72.056387
" clip-path="url(#p4d113787dc)" style="fill: none; stroke: #006ba4; stroke-width: 1.5; stroke-linecap: square"/>
    <g clip-path="url(#p4d113787dc)">
     <use xlink:href="#m3feab7b50c" x="250.570486" y="56.041552" style="fill: #006ba4; stroke: #ffffff; stroke-width: 0.75"/>
     <use xlink:href="#m3feab7b50c" x="321.147561" y="67.363779" style="fill: #006ba4; stroke: #ffffff; stroke-width: 0.75"/>
     <use xlink:href="#m3feab7b50c" x="391.724636" y="72.056387" style="fill: #006ba4; stroke: #ffffff; stroke-width: 0.75"/>
    </g>
   </g>
   <g id="patch_6">
    <path d="M 243.512779 157.46087
L 243.512779 41.76
" style="fill: none; stroke: #000000; stroke-width: 0.8; stroke-linejoin: miter; stroke-linecap: square"/>
   </g>
   <g id="patch_7">
    <path d="M 243.512779 157.46087
L 398.782344 157.46087
" style="fill: none; stroke: #000000; stroke-width: 0.8; stroke-linejoin: miter; stroke-linecap: square"/>
   </g>
   <g id="text_27">
    <!-- 0.29 -->
    <g transform="translate(243.570486 129.956349) scale(0.08 -0.08)">
     <defs>
      <path id="TimesNewRomanPSMT-39" d="M 338 -88
L 338 28
Q 744 34 1094 217
Q 1444 400 1770 856
Q 2097 1313 2225 1859
Q 1734 1544 1338 1544
Q 891 1544 572 1889
Q 253 2234 253 2806
Q 253 3363 572 3797
Q 956 4325 1575 4325
Q 2097 4325 2469 3894
Q 2925 3359 2925 2575
Q 2925 1869 2578 1258
Q 2231 647 1613 244
Q 1109 -88 516 -88
L 338 -88
z
M 2275 2091
Q 2331 2497 2331 2741
Q 2331 3044 2228 3395
Q 2125 3747 1936 3934
Q 1747 4122 1506 4122
Q 1228 4122 1018 3872
Q 809 3622 809 3128
Q 809 2469 1088 2097
Q 1291 1828 1588 1828
Q 1731 1828 1928 1897
Q 2125 1966 2275 2091
z
" transform="scale(0.015625)"/>
     </defs>
     <use xlink:href="#TimesNewRomanPSMT-30"/>
     <use xlink:href="#TimesNewRomanPSMT-2e" x="50"/>
     <use xlink:href="#TimesNewRomanPSMT-32" x="75"/>
     <use xlink:href="#TimesNewRomanPSMT-39" x="125"/>
    </g>
   </g>
   <g id="text_28">
    <!-- 0.31 -->
    <g transform="translate(314.147561 123.53618) scale(0.08 -0.08)">
     <use xlink:href="#TimesNewRomanPSMT-30"/>
     <use xlink:href="#TimesNewRomanPSMT-2e" x="50"/>
     <use xlink:href="#TimesNewRomanPSMT-33" x="75"/>
     <use xlink:href="#TimesNewRomanPSMT-31" x="125"/>
    </g>
   </g>
   <g id="text_29">
    <!-- 0.34 -->
    <g transform="translate(384.724636 115.092106) scale(0.08 -0.08)">
     <use xlink:href="#TimesNewRomanPSMT-30"/>
     <use xlink:href="#TimesNewRomanPSMT-2e" x="50"/>
     <use xlink:href="#TimesNewRomanPSMT-33" x="75"/>
     <use xlink:href="#TimesNewRomanPSMT-34" x="125"/>
    </g>
   </g>
   <g id="text_30">
    <!-- 0.55 -->
    <g transform="translate(243.570486 53.761322) scale(0.08 -0.08)">
     <use xlink:href="#TimesNewRomanPSMT-30"/>
     <use xlink:href="#TimesNewRomanPSMT-2e" x="50"/>
     <use xlink:href="#TimesNewRomanPSMT-35" x="75"/>
     <use xlink:href="#TimesNewRomanPSMT-35" x="125"/>
    </g>
   </g>
   <g id="text_31">
    <!-- 0.51 -->
    <g transform="translate(314.147561 65.123997) scale(0.08 -0.08)">
     <use xlink:href="#TimesNewRomanPSMT-30"/>
     <use xlink:href="#TimesNewRomanPSMT-2e" x="50"/>
     <use xlink:href="#TimesNewRomanPSMT-35" x="75"/>
     <use xlink:href="#TimesNewRomanPSMT-31" x="125"/>
    </g>
   </g>
   <g id="text_32">
    <!-- 0.50 -->
    <g transform="translate(384.724636 69.833369) scale(0.08 -0.08)">
     <use xlink:href="#TimesNewRomanPSMT-30"/>
     <use xlink:href="#TimesNewRomanPSMT-2e" x="50"/>
     <use xlink:href="#TimesNewRomanPSMT-35" x="75"/>
     <use xlink:href="#TimesNewRomanPSMT-30" x="125"/>
    </g>
   </g>
   <g id="legend_1">
    <g id="patch_8">
     <path d="M 326.747561 49.330087
L 392.333811 49.330087
Q 393.933811 49.330087 393.933811 47.730087
L 393.933811 25.907587
Q 393.933811 24.307587 392.333811 24.307587
L 326.747561 24.307587
Q 325.147561 24.307587 325.147561 25.907587
L 325.147561 47.730087
Q 325.147561 49.330087 326.747561 49.330087
z
" style="fill: #ffffff; opacity: 0.8; stroke: #cccccc; stroke-linejoin: miter"/>
    </g>
    <g id="line2d_21">
     <path d="M 328.347561 30.307587
L 336.347561 30.307587
L 344.347561 30.307587
" style="fill: none; stroke: #c85200; stroke-width: 1.5; stroke-linecap: square"/>
     <defs>
      <path id="m2ce6d0ef33" d="M 0 3
C 0.795609 3 1.55874 2.683901 2.12132 2.12132
C 2.683901 1.55874 3 0.795609 3 0
C 3 -0.795609 2.683901 -1.55874 2.12132 -2.12132
C 1.55874 -2.683901 0.795609 -3 0 -3
C -0.795609 -3 -1.55874 -2.683901 -2.12132 -2.12132
C -2.683901 -1.55874 -3 -0.795609 -3 0
C -3 0.795609 -2.683901 1.55874 -2.12132 2.12132
C -1.55874 2.683901 -0.795609 3 0 3
z
" style="stroke: #c85200"/>
     </defs>
     <g>
      <use xlink:href="#m2ce6d0ef33" x="336.347561" y="30.307587" style="fill: #c85200; stroke: #c85200"/>
     </g>
    </g>
    <g id="text_33">
     <!-- Warmth -->
     <g transform="translate(350.747561 33.107587) scale(0.08 -0.08)">
      <defs>
       <path id="TimesNewRomanPSMT-57" d="M 5991 4238
L 5991 4122
Q 5825 4122 5722 4062
Q 5619 4003 5525 3841
Q 5463 3731 5328 3319
L 4147 -97
L 4022 -97
L 3056 2613
L 2097 -97
L 1984 -97
L 725 3422
Q 584 3816 547 3888
Q 484 4006 376 4064
Q 269 4122 84 4122
L 84 4238
L 1653 4238
L 1653 4122
L 1578 4122
Q 1413 4122 1325 4047
Q 1238 3972 1238 3866
Q 1238 3756 1375 3363
L 2209 984
L 2913 3006
L 2788 3363
L 2688 3647
Q 2622 3803 2541 3922
Q 2500 3981 2441 4022
Q 2363 4078 2284 4103
Q 2225 4122 2097 4122
L 2097 4238
L 3747 4238
L 3747 4122
L 3634 4122
Q 3459 4122 3378 4047
Q 3297 3972 3297 3844
Q 3297 3684 3438 3288
L 4250 984
L 5056 3319
Q 5194 3706 5194 3856
Q 5194 3928 5148 3990
Q 5103 4053 5034 4078
Q 4916 4122 4725 4122
L 4725 4238
L 5991 4238
z
" transform="scale(0.015625)"/>
       <path id="TimesNewRomanPSMT-74" d="M 1031 3803
L 1031 2863
L 1700 2863
L 1700 2644
L 1031 2644
L 1031 788
Q 1031 509 1111 412
Q 1191 316 1316 316
Q 1419 316 1516 380
Q 1613 444 1666 569
L 1788 569
Q 1678 263 1478 108
Q 1278 -47 1066 -47
Q 922 -47 784 33
Q 647 113 581 261
Q 516 409 516 719
L 516 2644
L 63 2644
L 63 2747
Q 234 2816 414 2980
Q 594 3144 734 3369
Q 806 3488 934 3803
L 1031 3803
z
" transform="scale(0.015625)"/>
       <path id="TimesNewRomanPSMT-68" d="M 1041 4444
L 1041 2350
Q 1388 2731 1591 2839
Q 1794 2947 1997 2947
Q 2241 2947 2416 2812
Q 2591 2678 2675 2391
Q 2734 2191 2734 1659
L 2734 647
Q 2734 375 2778 275
Q 2809 200 2884 156
Q 2959 113 3159 113
L 3159 0
L 1753 0
L 1753 113
L 1819 113
Q 2019 113 2097 173
Q 2175 234 2206 353
Q 2216 403 2216 647
L 2216 1659
Q 2216 2128 2167 2275
Q 2119 2422 2012 2495
Q 1906 2569 1756 2569
Q 1603 2569 1437 2487
Q 1272 2406 1041 2159
L 1041 647
Q 1041 353 1073 281
Q 1106 209 1195 161
Q 1284 113 1503 113
L 1503 0
L 84 0
L 84 113
Q 275 113 384 172
Q 447 203 484 290
Q 522 378 522 647
L 522 3238
Q 522 3728 498 3840
Q 475 3953 426 3993
Q 378 4034 297 4034
Q 231 4034 84 3984
L 41 4094
L 897 4444
L 1041 4444
z
" transform="scale(0.015625)"/>
      </defs>
      <use xlink:href="#TimesNewRomanPSMT-57"/>
      <use xlink:href="#TimesNewRomanPSMT-61" x="86.384766"/>
      <use xlink:href="#TimesNewRomanPSMT-72" x="130.769531"/>
      <use xlink:href="#TimesNewRomanPSMT-6d" x="164.070312"/>
      <use xlink:href="#TimesNewRomanPSMT-74" x="241.853516"/>
      <use xlink:href="#TimesNewRomanPSMT-68" x="269.636719"/>
     </g>
    </g>
    <g id="line2d_22">
     <path d="M 328.347561 41.618837
L 336.347561 41.618837
L 344.347561 41.618837
" style="fill: none; stroke: #006ba4; stroke-width: 1.5; stroke-linecap: square"/>
     <defs>
      <path id="m98a9c0fadd" d="M 0 3
C 0.795609 3 1.55874 2.683901 2.12132 2.12132
C 2.683901 1.55874 3 0.795609 3 0
C 3 -0.795609 2.683901 -1.55874 2.12132 -2.12132
C 1.55874 -2.683901 0.795609 -3 0 -3
C -0.795609 -3 -1.55874 -2.683901 -2.12132 -2.12132
C -2.683901 -1.55874 -3 -0.795609 -3 0
C -3 0.795609 -2.683901 1.55874 -2.12132 2.12132
C -1.55874 2.683901 -0.795609 3 0 3
z
" style="stroke: #006ba4"/>
     </defs>
     <g>
      <use xlink:href="#m98a9c0fadd" x="336.347561" y="41.618837" style="fill: #006ba4; stroke: #006ba4"/>
     </g>
    </g>
    <g id="text_34">
     <!-- Competence -->
     <g transform="translate(350.747561 44.418837) scale(0.08 -0.08)">
      <defs>
       <path id="TimesNewRomanPSMT-43" d="M 3853 4334
L 3950 2894
L 3853 2894
Q 3659 3541 3300 3825
Q 2941 4109 2438 4109
Q 2016 4109 1675 3895
Q 1334 3681 1139 3212
Q 944 2744 944 2047
Q 944 1472 1128 1050
Q 1313 628 1683 403
Q 2053 178 2528 178
Q 2941 178 3256 354
Q 3572 531 3950 1056
L 4047 994
Q 3728 428 3303 165
Q 2878 -97 2294 -97
Q 1241 -97 663 684
Q 231 1266 231 2053
Q 231 2688 515 3219
Q 800 3750 1298 4042
Q 1797 4334 2388 4334
Q 2847 4334 3294 4109
Q 3425 4041 3481 4041
Q 3566 4041 3628 4100
Q 3709 4184 3744 4334
L 3853 4334
z
" transform="scale(0.015625)"/>
       <path id="TimesNewRomanPSMT-70" d="M -6 2578
L 875 2934
L 994 2934
L 994 2266
Q 1216 2644 1439 2795
Q 1663 2947 1909 2947
Q 2341 2947 2628 2609
Q 2981 2197 2981 1534
Q 2981 794 2556 309
Q 2206 -88 1675 -88
Q 1444 -88 1275 -22
Q 1150 25 994 166
L 994 -706
Q 994 -1000 1030 -1079
Q 1066 -1159 1155 -1206
Q 1244 -1253 1478 -1253
L 1478 -1369
L -22 -1369
L -22 -1253
L 56 -1253
Q 228 -1256 350 -1188
Q 409 -1153 442 -1076
Q 475 -1000 475 -688
L 475 2019
Q 475 2297 450 2372
Q 425 2447 370 2484
Q 316 2522 222 2522
Q 147 2522 31 2478
L -6 2578
z
M 994 2081
L 994 1013
Q 994 666 1022 556
Q 1066 375 1236 237
Q 1406 100 1666 100
Q 1978 100 2172 344
Q 2425 663 2425 1241
Q 2425 1897 2138 2250
Q 1938 2494 1663 2494
Q 1513 2494 1366 2419
Q 1253 2363 994 2081
z
" transform="scale(0.015625)"/>
       <path id="TimesNewRomanPSMT-63" d="M 2631 1088
Q 2516 522 2178 217
Q 1841 -88 1431 -88
Q 944 -88 581 321
Q 219 731 219 1428
Q 219 2103 620 2525
Q 1022 2947 1584 2947
Q 2006 2947 2278 2723
Q 2550 2500 2550 2259
Q 2550 2141 2473 2067
Q 2397 1994 2259 1994
Q 2075 1994 1981 2113
Q 1928 2178 1911 2362
Q 1894 2547 1784 2644
Q 1675 2738 1481 2738
Q 1169 2738 978 2506
Q 725 2200 725 1697
Q 725 1184 976 792
Q 1228 400 1656 400
Q 1963 400 2206 609
Q 2378 753 2541 1131
L 2631 1088
z
" transform="scale(0.015625)"/>
      </defs>
      <use xlink:href="#TimesNewRomanPSMT-43"/>
      <use xlink:href="#TimesNewRomanPSMT-6f" x="66.699219"/>
      <use xlink:href="#TimesNewRomanPSMT-6d" x="116.699219"/>
      <use xlink:href="#TimesNewRomanPSMT-70" x="194.482422"/>
      <use xlink:href="#TimesNewRomanPSMT-65" x="244.482422"/>
      <use xlink:href="#TimesNewRomanPSMT-74" x="288.867188"/>
      <use xlink:href="#TimesNewRomanPSMT-65" x="316.650391"/>
      <use xlink:href="#TimesNewRomanPSMT-6e" x="361.035156"/>
      <use xlink:href="#TimesNewRomanPSMT-63" x="411.035156"/>
      <use xlink:href="#TimesNewRomanPSMT-65" x="455.419922"/>
     </g>
    </g>
   </g>
  </g>
  <g id="axes_3">
   <g id="patch_9">
    <path d="M 41.662344 307.872
L 196.931909 307.872
L 196.931909 192.17113
L 41.662344 192.17113
z
" style="fill: #ffffff"/>
   </g>
   <g id="PolyCollection_5"/>
   <g id="PolyCollection_6"/>
   <g id="matplotlib.axis_5">
    <g id="xtick_7">
     <g id="line2d_23">
      <g>
       <use xlink:href="#mc8ba729cfa" x="48.720051" y="307.872" style="stroke: #000000; stroke-width: 0.8"/>
      </g>
     </g>
     <g id="text_35">
      <!-- Female -->
      <g transform="translate(36.460634 320.656144) scale(0.0833 -0.0833)">
       <use xlink:href="#TimesNewRomanPSMT-46"/>
       <use xlink:href="#TimesNewRomanPSMT-65" x="55.615234"/>
       <use xlink:href="#TimesNewRomanPSMT-6d" x="100"/>
       <use xlink:href="#TimesNewRomanPSMT-61" x="177.783203"/>
       <use xlink:href="#TimesNewRomanPSMT-6c" x="222.167969"/>
       <use xlink:href="#TimesNewRomanPSMT-65" x="249.951172"/>
      </g>
     </g>
    </g>
    <g id="xtick_8">
     <g id="line2d_24">
      <g>
       <use xlink:href="#mc8ba729cfa" x="119.297126" y="307.872" style="stroke: #000000; stroke-width: 0.8"/>
      </g>
     </g>
     <g id="text_36">
      <!-- Mixed Gender -->
      <g transform="translate(95.123857 320.656144) scale(0.0833 -0.0833)">
       <use xlink:href="#TimesNewRomanPSMT-4d"/>
       <use xlink:href="#TimesNewRomanPSMT-69" x="88.916016"/>
       <use xlink:href="#TimesNewRomanPSMT-78" x="116.699219"/>
       <use xlink:href="#TimesNewRomanPSMT-65" x="166.699219"/>
       <use xlink:href="#TimesNewRomanPSMT-64" x="211.083984"/>
       <use xlink:href="#TimesNewRomanPSMT-20" x="261.083984"/>
       <use xlink:href="#TimesNewRomanPSMT-47" x="286.083984"/>
       <use xlink:href="#TimesNewRomanPSMT-65" x="358.300781"/>
       <use xlink:href="#TimesNewRomanPSMT-6e" x="402.685547"/>
       <use xlink:href="#TimesNewRomanPSMT-64" x="452.685547"/>
       <use xlink:href="#TimesNewRomanPSMT-65" x="502.685547"/>
       <use xlink:href="#TimesNewRomanPSMT-72" x="547.070312"/>
      </g>
     </g>
    </g>
    <g id="xtick_9">
     <g id="line2d_25">
      <g>
       <use xlink:href="#mc8ba729cfa" x="189.874201" y="307.872" style="stroke: #000000; stroke-width: 0.8"/>
      </g>
     </g>
     <g id="text_37">
      <!-- Male -->
      <g transform="translate(181.315777 320.656144) scale(0.0833 -0.0833)">
       <use xlink:href="#TimesNewRomanPSMT-4d"/>
       <use xlink:href="#TimesNewRomanPSMT-61" x="88.916016"/>
       <use xlink:href="#TimesNewRomanPSMT-6c" x="133.300781"/>
       <use xlink:href="#TimesNewRomanPSMT-65" x="161.083984"/>
      </g>
     </g>
    </g>
    <g id="text_38">
     <!-- Gender -->
     <g transform="translate(103.188533 334.059858) scale(0.1 -0.1)">
      <use xlink:href="#TimesNewRomanPS-BoldMT-47"/>
      <use xlink:href="#TimesNewRomanPS-BoldMT-65" x="77.783203"/>
      <use xlink:href="#TimesNewRomanPS-BoldMT-6e" x="122.167969"/>
      <use xlink:href="#TimesNewRomanPS-BoldMT-64" x="177.783203"/>
      <use xlink:href="#TimesNewRomanPS-BoldMT-65" x="233.398438"/>
      <use xlink:href="#TimesNewRomanPS-BoldMT-72" x="277.783203"/>
     </g>
    </g>
   </g>
   <g id="matplotlib.axis_6">
    <g id="ytick_11">
     <g id="line2d_26">
      <g>
       <use xlink:href="#m9261668f88" x="41.662344" y="307.872" style="stroke: #000000; stroke-width: 0.8"/>
      </g>
     </g>
     <g id="text_39">
      <!-- 0.25 -->
      <g transform="translate(20.084844 310.764072) scale(0.0833 -0.0833)">
       <use xlink:href="#TimesNewRomanPSMT-30"/>
       <use xlink:href="#TimesNewRomanPSMT-2e" x="50"/>
       <use xlink:href="#TimesNewRomanPSMT-32" x="75"/>
       <use xlink:href="#TimesNewRomanPSMT-35" x="125"/>
      </g>
     </g>
    </g>
    <g id="ytick_12">
     <g id="line2d_27">
      <g>
       <use xlink:href="#m9261668f88" x="41.662344" y="284.731826" style="stroke: #000000; stroke-width: 0.8"/>
      </g>
     </g>
     <g id="text_40">
      <!-- 0.30 -->
      <g transform="translate(20.084844 287.623898) scale(0.0833 -0.0833)">
       <use xlink:href="#TimesNewRomanPSMT-30"/>
       <use xlink:href="#TimesNewRomanPSMT-2e" x="50"/>
       <use xlink:href="#TimesNewRomanPSMT-33" x="75"/>
       <use xlink:href="#TimesNewRomanPSMT-30" x="125"/>
      </g>
     </g>
    </g>
    <g id="ytick_13">
     <g id="line2d_28">
      <g>
       <use xlink:href="#m9261668f88" x="41.662344" y="261.591652" style="stroke: #000000; stroke-width: 0.8"/>
      </g>
     </g>
     <g id="text_41">
      <!-- 0.35 -->
      <g transform="translate(20.084844 264.483724) scale(0.0833 -0.0833)">
       <use xlink:href="#TimesNewRomanPSMT-30"/>
       <use xlink:href="#TimesNewRomanPSMT-2e" x="50"/>
       <use xlink:href="#TimesNewRomanPSMT-33" x="75"/>
       <use xlink:href="#TimesNewRomanPSMT-35" x="125"/>
      </g>
     </g>
    </g>
    <g id="ytick_14">
     <g id="line2d_29">
      <g>
       <use xlink:href="#m9261668f88" x="41.662344" y="238.451478" style="stroke: #000000; stroke-width: 0.8"/>
      </g>
     </g>
     <g id="text_42">
      <!-- 0.40 -->
      <g transform="translate(20.084844 241.34355) scale(0.0833 -0.0833)">
       <use xlink:href="#TimesNewRomanPSMT-30"/>
       <use xlink:href="#TimesNewRomanPSMT-2e" x="50"/>
       <use xlink:href="#TimesNewRomanPSMT-34" x="75"/>
       <use xlink:href="#TimesNewRomanPSMT-30" x="125"/>
      </g>
     </g>
    </g>
    <g id="ytick_15">
     <g id="line2d_30">
      <g>
       <use xlink:href="#m9261668f88" x="41.662344" y="215.311304" style="stroke: #000000; stroke-width: 0.8"/>
      </g>
     </g>
     <g id="text_43">
      <!-- 0.45 -->
      <g transform="translate(20.084844 218.203376) scale(0.0833 -0.0833)">
       <use xlink:href="#TimesNewRomanPSMT-30"/>
       <use xlink:href="#TimesNewRomanPSMT-2e" x="50"/>
       <use xlink:href="#TimesNewRomanPSMT-34" x="75"/>
       <use xlink:href="#TimesNewRomanPSMT-35" x="125"/>
      </g>
     </g>
    </g>
    <g id="ytick_16">
     <g id="line2d_31">
      <g>
       <use xlink:href="#m9261668f88" x="41.662344" y="192.17113" style="stroke: #000000; stroke-width: 0.8"/>
      </g>
     </g>
     <g id="text_44">
      <!-- 0.50 -->
      <g transform="translate(20.084844 195.063202) scale(0.0833 -0.0833)">
       <use xlink:href="#TimesNewRomanPSMT-30"/>
       <use xlink:href="#TimesNewRomanPSMT-2e" x="50"/>
       <use xlink:href="#TimesNewRomanPSMT-35" x="75"/>
       <use xlink:href="#TimesNewRomanPSMT-30" x="125"/>
      </g>
     </g>
    </g>
    <g id="text_45">
     <!-- Means -->
     <g transform="translate(13.159688 262.770628) rotate(-90) scale(0.09 -0.09)">
      <use xlink:href="#TimesNewRomanPS-BoldMT-4d"/>
      <use xlink:href="#TimesNewRomanPS-BoldMT-65" x="94.384766"/>
      <use xlink:href="#TimesNewRomanPS-BoldMT-61" x="138.769531"/>
      <use xlink:href="#TimesNewRomanPS-BoldMT-6e" x="188.769531"/>
      <use xlink:href="#TimesNewRomanPS-BoldMT-73" x="244.384766"/>
     </g>
    </g>
   </g>
   <g id="line2d_32">
    <path d="M 48.720051 277.997982
L 119.297126 267.406623
L 189.874201 289.01873
" clip-path="url(#p432c60c223)" style="fill: none; stroke: #c85200; stroke-width: 1.5; stroke-linecap: square"/>
    <g clip-path="url(#p432c60c223)">
     <use xlink:href="#mce61b1d6f1" x="48.720051" y="277.997982" style="fill: #c85200; stroke: #ffffff; stroke-width: 0.75"/>
     <use xlink:href="#mce61b1d6f1" x="119.297126" y="267.406623" style="fill: #c85200; stroke: #ffffff; stroke-width: 0.75"/>
     <use xlink:href="#mce61b1d6f1" x="189.874201" y="289.01873" style="fill: #c85200; stroke: #ffffff; stroke-width: 0.75"/>
    </g>
   </g>
   <g id="line2d_33">
    <path d="M 48.720051 217.317543
L 119.297126 205.465969
L 189.874201 198.557938
" clip-path="url(#p432c60c223)" style="fill: none; stroke: #006ba4; stroke-width: 1.5; stroke-linecap: square"/>
    <g clip-path="url(#p432c60c223)">
     <use xlink:href="#m3feab7b50c" x="48.720051" y="217.317543" style="fill: #006ba4; stroke: #ffffff; stroke-width: 0.75"/>
     <use xlink:href="#m3feab7b50c" x="119.297126" y="205.465969" style="fill: #006ba4; stroke: #ffffff; stroke-width: 0.75"/>
     <use xlink:href="#m3feab7b50c" x="189.874201" y="198.557938" style="fill: #006ba4; stroke: #ffffff; stroke-width: 0.75"/>
    </g>
   </g>
   <g id="patch_10">
    <path d="M 41.662344 307.872
L 41.662344 192.17113
" style="fill: none; stroke: #000000; stroke-width: 0.8; stroke-linejoin: miter; stroke-linecap: square"/>
   </g>
   <g id="patch_11">
    <path d="M 41.662344 307.872
L 196.931909 307.872
" style="fill: none; stroke: #000000; stroke-width: 0.8; stroke-linejoin: miter; stroke-linecap: square"/>
   </g>
   <g id="text_46">
    <!-- 0.31 -->
    <g transform="translate(41.720051 275.961697) scale(0.08 -0.08)">
     <use xlink:href="#TimesNewRomanPSMT-30"/>
     <use xlink:href="#TimesNewRomanPSMT-2e" x="50"/>
     <use xlink:href="#TimesNewRomanPSMT-33" x="75"/>
     <use xlink:href="#TimesNewRomanPSMT-31" x="125"/>
    </g>
   </g>
   <g id="text_47">
    <!-- 0.34 -->
    <g transform="translate(112.297126 265.34669) scale(0.08 -0.08)">
     <use xlink:href="#TimesNewRomanPSMT-30"/>
     <use xlink:href="#TimesNewRomanPSMT-2e" x="50"/>
     <use xlink:href="#TimesNewRomanPSMT-33" x="75"/>
     <use xlink:href="#TimesNewRomanPSMT-34" x="125"/>
    </g>
   </g>
   <g id="text_48">
    <!-- 0.29 -->
    <g transform="translate(182.874201 287.007052) scale(0.08 -0.08)">
     <use xlink:href="#TimesNewRomanPSMT-30"/>
     <use xlink:href="#TimesNewRomanPSMT-2e" x="50"/>
     <use xlink:href="#TimesNewRomanPSMT-32" x="75"/>
     <use xlink:href="#TimesNewRomanPSMT-39" x="125"/>
    </g>
   </g>
   <g id="text_49">
    <!-- 0.45 -->
    <g transform="translate(41.720051 215.145772) scale(0.08 -0.08)">
     <use xlink:href="#TimesNewRomanPSMT-30"/>
     <use xlink:href="#TimesNewRomanPSMT-2e" x="50"/>
     <use xlink:href="#TimesNewRomanPSMT-34" x="75"/>
     <use xlink:href="#TimesNewRomanPSMT-35" x="125"/>
    </g>
   </g>
   <g id="text_50">
    <!-- 0.47 -->
    <g transform="translate(112.297126 203.267737) scale(0.08 -0.08)">
     <defs>
      <path id="TimesNewRomanPSMT-37" d="M 644 4238
L 2916 4238
L 2916 4119
L 1503 -88
L 1153 -88
L 2419 3728
L 1253 3728
Q 900 3728 750 3644
Q 488 3500 328 3200
L 238 3234
L 644 4238
z
" transform="scale(0.015625)"/>
     </defs>
     <use xlink:href="#TimesNewRomanPSMT-30"/>
     <use xlink:href="#TimesNewRomanPSMT-2e" x="50"/>
     <use xlink:href="#TimesNewRomanPSMT-34" x="75"/>
     <use xlink:href="#TimesNewRomanPSMT-37" x="125"/>
    </g>
   </g>
   <g id="text_51">
    <!-- 0.49 -->
    <g transform="translate(182.874201 196.344282) scale(0.08 -0.08)">
     <use xlink:href="#TimesNewRomanPSMT-30"/>
     <use xlink:href="#TimesNewRomanPSMT-2e" x="50"/>
     <use xlink:href="#TimesNewRomanPSMT-34" x="75"/>
     <use xlink:href="#TimesNewRomanPSMT-39" x="125"/>
    </g>
   </g>
  </g>
  <g id="axes_4">
   <g id="patch_12">
    <path d="M 243.512779 307.872
L 398.782344 307.872
L 398.782344 192.17113
L 243.512779 192.17113
z
" style="fill: #ffffff"/>
   </g>
   <g id="PolyCollection_7"/>
   <g id="PolyCollection_8"/>
   <g id="matplotlib.axis_7">
    <g id="xtick_10">
     <g id="line2d_34">
      <g>
       <use xlink:href="#mc8ba729cfa" x="250.570486" y="307.872" style="stroke: #000000; stroke-width: 0.8"/>
      </g>
     </g>
     <g id="text_52">
      <!-- Older -->
      <g transform="translate(241.087302 320.656144) scale(0.0833 -0.0833)">
       <use xlink:href="#TimesNewRomanPSMT-4f"/>
       <use xlink:href="#TimesNewRomanPSMT-6c" x="72.216797"/>
       <use xlink:href="#TimesNewRomanPSMT-64" x="100"/>
       <use xlink:href="#TimesNewRomanPSMT-65" x="150"/>
       <use xlink:href="#TimesNewRomanPSMT-72" x="194.384766"/>
      </g>
     </g>
    </g>
    <g id="xtick_11">
     <g id="line2d_35">
      <g>
       <use xlink:href="#mc8ba729cfa" x="321.147561" y="307.872" style="stroke: #000000; stroke-width: 0.8"/>
      </g>
     </g>
     <g id="text_53">
      <!-- Mixed Age -->
      <g transform="translate(302.521551 320.656144) scale(0.0833 -0.0833)">
       <use xlink:href="#TimesNewRomanPSMT-4d"/>
       <use xlink:href="#TimesNewRomanPSMT-69" x="88.916016"/>
       <use xlink:href="#TimesNewRomanPSMT-78" x="116.699219"/>
       <use xlink:href="#TimesNewRomanPSMT-65" x="166.699219"/>
       <use xlink:href="#TimesNewRomanPSMT-64" x="211.083984"/>
       <use xlink:href="#TimesNewRomanPSMT-20" x="261.083984"/>
       <use xlink:href="#TimesNewRomanPSMT-41" x="280.583984"/>
       <use xlink:href="#TimesNewRomanPSMT-67" x="352.800781"/>
       <use xlink:href="#TimesNewRomanPSMT-65" x="402.800781"/>
      </g>
     </g>
    </g>
    <g id="xtick_12">
     <g id="line2d_36">
      <g>
       <use xlink:href="#mc8ba729cfa" x="391.724636" y="307.872" style="stroke: #000000; stroke-width: 0.8"/>
      </g>
     </g>
     <g id="text_54">
      <!-- Younger -->
      <g transform="translate(377.567541 320.640525) scale(0.0833 -0.0833)">
       <use xlink:href="#TimesNewRomanPSMT-59"/>
       <use xlink:href="#TimesNewRomanPSMT-6f" x="62.216797"/>
       <use xlink:href="#TimesNewRomanPSMT-75" x="112.216797"/>
       <use xlink:href="#TimesNewRomanPSMT-6e" x="162.216797"/>
       <use xlink:href="#TimesNewRomanPSMT-67" x="212.216797"/>
       <use xlink:href="#TimesNewRomanPSMT-65" x="262.216797"/>
       <use xlink:href="#TimesNewRomanPSMT-72" x="306.601562"/>
      </g>
     </g>
    </g>
    <g id="text_55">
     <!-- Age -->
     <g transform="translate(312.817092 334.211414) scale(0.1 -0.1)">
      <use xlink:href="#TimesNewRomanPS-BoldMT-41"/>
      <use xlink:href="#TimesNewRomanPS-BoldMT-67" x="72.216797"/>
      <use xlink:href="#TimesNewRomanPS-BoldMT-65" x="122.216797"/>
     </g>
    </g>
   </g>
   <g id="matplotlib.axis_8">
    <g id="ytick_17">
     <g id="line2d_37">
      <g>
       <use xlink:href="#m9261668f88" x="243.512779" y="288.588522" style="stroke: #000000; stroke-width: 0.8"/>
      </g>
     </g>
     <g id="text_56">
      <!-- 0.3 -->
      <g transform="translate(226.100279 291.480594) scale(0.0833 -0.0833)">
       <use xlink:href="#TimesNewRomanPSMT-30"/>
       <use xlink:href="#TimesNewRomanPSMT-2e" x="50"/>
       <use xlink:href="#TimesNewRomanPSMT-33" x="75"/>
      </g>
     </g>
    </g>
    <g id="ytick_18">
     <g id="line2d_38">
      <g>
       <use xlink:href="#m9261668f88" x="243.512779" y="250.021565" style="stroke: #000000; stroke-width: 0.8"/>
      </g>
     </g>
     <g id="text_57">
      <!-- 0.4 -->
      <g transform="translate(226.100279 252.913637) scale(0.0833 -0.0833)">
       <use xlink:href="#TimesNewRomanPSMT-30"/>
       <use xlink:href="#TimesNewRomanPSMT-2e" x="50"/>
       <use xlink:href="#TimesNewRomanPSMT-34" x="75"/>
      </g>
     </g>
    </g>
    <g id="ytick_19">
     <g id="line2d_39">
      <g>
       <use xlink:href="#m9261668f88" x="243.512779" y="211.454609" style="stroke: #000000; stroke-width: 0.8"/>
      </g>
     </g>
     <g id="text_58">
      <!-- 0.5 -->
      <g transform="translate(226.100279 214.346681) scale(0.0833 -0.0833)">
       <use xlink:href="#TimesNewRomanPSMT-30"/>
       <use xlink:href="#TimesNewRomanPSMT-2e" x="50"/>
       <use xlink:href="#TimesNewRomanPSMT-35" x="75"/>
      </g>
     </g>
    </g>
    <g id="text_59">
     <!-- Means -->
     <g transform="translate(219.175122 262.770628) rotate(-90) scale(0.09 -0.09)">
      <use xlink:href="#TimesNewRomanPS-BoldMT-4d"/>
      <use xlink:href="#TimesNewRomanPS-BoldMT-65" x="94.384766"/>
      <use xlink:href="#TimesNewRomanPS-BoldMT-61" x="138.769531"/>
      <use xlink:href="#TimesNewRomanPS-BoldMT-6e" x="188.769531"/>
      <use xlink:href="#TimesNewRomanPS-BoldMT-73" x="244.384766"/>
     </g>
    </g>
   </g>
   <g id="line2d_40">
    <path d="M 250.570486 290.526204
L 321.147561 282.803233
L 391.724636 273.756557
" clip-path="url(#p97011a2ed7)" style="fill: none; stroke: #c85200; stroke-width: 1.5; stroke-linecap: square"/>
    <g clip-path="url(#p97011a2ed7)">
     <use xlink:href="#mce61b1d6f1" x="250.570486" y="290.526204" style="fill: #c85200; stroke: #ffffff; stroke-width: 0.75"/>
     <use xlink:href="#mce61b1d6f1" x="321.147561" y="282.803233" style="fill: #c85200; stroke: #ffffff; stroke-width: 0.75"/>
     <use xlink:href="#mce61b1d6f1" x="391.724636" y="273.756557" style="fill: #c85200; stroke: #ffffff; stroke-width: 0.75"/>
    </g>
   </g>
   <g id="line2d_41">
    <path d="M 250.570486 212.759222
L 321.147561 224.733738
L 391.724636 228.95488
" clip-path="url(#p97011a2ed7)" style="fill: none; stroke: #006ba4; stroke-width: 1.5; stroke-linecap: square"/>
    <g clip-path="url(#p97011a2ed7)">
     <use xlink:href="#m3feab7b50c" x="250.570486" y="212.759222" style="fill: #006ba4; stroke: #ffffff; stroke-width: 0.75"/>
     <use xlink:href="#m3feab7b50c" x="321.147561" y="224.733738" style="fill: #006ba4; stroke: #ffffff; stroke-width: 0.75"/>
     <use xlink:href="#m3feab7b50c" x="391.724636" y="228.95488" style="fill: #006ba4; stroke: #ffffff; stroke-width: 0.75"/>
    </g>
   </g>
   <g id="patch_13">
    <path d="M 243.512779 307.872
L 243.512779 192.17113
" style="fill: none; stroke: #000000; stroke-width: 0.8; stroke-linejoin: miter; stroke-linecap: square"/>
   </g>
   <g id="patch_14">
    <path d="M 243.512779 307.872
L 398.782344 307.872
" style="fill: none; stroke: #000000; stroke-width: 0.8; stroke-linejoin: miter; stroke-linecap: square"/>
   </g>
   <g id="text_60">
    <!-- 0.29 -->
    <g transform="translate(243.570486 288.510145) scale(0.08 -0.08)">
     <use xlink:href="#TimesNewRomanPSMT-30"/>
     <use xlink:href="#TimesNewRomanPSMT-2e" x="50"/>
     <use xlink:href="#TimesNewRomanPSMT-32" x="75"/>
     <use xlink:href="#TimesNewRomanPSMT-39" x="125"/>
    </g>
   </g>
   <g id="text_61">
    <!-- 0.32 -->
    <g transform="translate(314.147561 280.766483) scale(0.08 -0.08)">
     <use xlink:href="#TimesNewRomanPSMT-30"/>
     <use xlink:href="#TimesNewRomanPSMT-2e" x="50"/>
     <use xlink:href="#TimesNewRomanPSMT-33" x="75"/>
     <use xlink:href="#TimesNewRomanPSMT-32" x="125"/>
    </g>
   </g>
   <g id="text_62">
    <!-- 0.34 -->
    <g transform="translate(384.724636 271.695568) scale(0.08 -0.08)">
     <use xlink:href="#TimesNewRomanPSMT-30"/>
     <use xlink:href="#TimesNewRomanPSMT-2e" x="50"/>
     <use xlink:href="#TimesNewRomanPSMT-33" x="75"/>
     <use xlink:href="#TimesNewRomanPSMT-34" x="125"/>
    </g>
   </g>
   <g id="text_63">
    <!-- 0.50 -->
    <g transform="translate(243.570486 210.5348) scale(0.08 -0.08)">
     <use xlink:href="#TimesNewRomanPSMT-30"/>
     <use xlink:href="#TimesNewRomanPSMT-2e" x="50"/>
     <use xlink:href="#TimesNewRomanPSMT-35" x="75"/>
     <use xlink:href="#TimesNewRomanPSMT-30" x="125"/>
    </g>
   </g>
   <g id="text_64">
    <!-- 0.47 -->
    <g transform="translate(314.147561 222.5414) scale(0.08 -0.08)">
     <use xlink:href="#TimesNewRomanPSMT-30"/>
     <use xlink:href="#TimesNewRomanPSMT-2e" x="50"/>
     <use xlink:href="#TimesNewRomanPSMT-34" x="75"/>
     <use xlink:href="#TimesNewRomanPSMT-37" x="125"/>
    </g>
   </g>
   <g id="text_65">
    <!-- 0.45 -->
    <g transform="translate(384.724636 226.773852) scale(0.08 -0.08)">
     <use xlink:href="#TimesNewRomanPSMT-30"/>
     <use xlink:href="#TimesNewRomanPSMT-2e" x="50"/>
     <use xlink:href="#TimesNewRomanPSMT-34" x="75"/>
     <use xlink:href="#TimesNewRomanPSMT-35" x="125"/>
    </g>
   </g>
   <g id="legend_2">
    <g id="patch_15">
     <path d="M 334.511039 211.311304
L 419.209789 211.311304
Q 420.809789 211.311304 420.809789 209.711304
L 420.809789 187.888804
Q 420.809789 186.288804 419.209789 186.288804
L 334.511039 186.288804
Q 332.911039 186.288804 332.911039 187.888804
L 332.911039 209.711304
Q 332.911039 211.311304 334.511039 211.311304
z
" style="fill: #ffffff; opacity: 0.8; stroke: #cccccc; stroke-linejoin: miter"/>
    </g>
    <g id="line2d_42">
     <path d="M 336.111039 192.288804
L 344.111039 192.288804
L 352.111039 192.288804
" style="fill: none; stroke: #c85200; stroke-width: 1.5; stroke-linecap: square"/>
     <g>
      <use xlink:href="#m2ce6d0ef33" x="344.111039" y="192.288804" style="fill: #c85200; stroke: #c85200"/>
     </g>
    </g>
    <g id="text_66">
     <!-- Warmth Prob. -->
     <g transform="translate(358.511039 195.088804) scale(0.08 -0.08)">
      <defs>
       <path id="TimesNewRomanPSMT-50" d="M 1313 1984
L 1313 750
Q 1313 350 1400 253
Q 1519 116 1759 116
L 1922 116
L 1922 0
L 106 0
L 106 116
L 266 116
Q 534 116 650 291
Q 713 388 713 750
L 713 3488
Q 713 3888 628 3984
Q 506 4122 266 4122
L 106 4122
L 106 4238
L 1659 4238
Q 2228 4238 2556 4120
Q 2884 4003 3109 3725
Q 3334 3447 3334 3066
Q 3334 2547 2992 2222
Q 2650 1897 2025 1897
Q 1872 1897 1694 1919
Q 1516 1941 1313 1984
z
M 1313 2163
Q 1478 2131 1606 2115
Q 1734 2100 1825 2100
Q 2150 2100 2386 2351
Q 2622 2603 2622 3003
Q 2622 3278 2509 3514
Q 2397 3750 2190 3867
Q 1984 3984 1722 3984
Q 1563 3984 1313 3925
L 1313 2163
z
" transform="scale(0.015625)"/>
       <path id="TimesNewRomanPSMT-62" d="M 984 2369
Q 1400 2947 1881 2947
Q 2322 2947 2650 2570
Q 2978 2194 2978 1541
Q 2978 778 2472 313
Q 2038 -88 1503 -88
Q 1253 -88 995 3
Q 738 94 469 275
L 469 3241
Q 469 3728 445 3840
Q 422 3953 372 3993
Q 322 4034 247 4034
Q 159 4034 28 3984
L -16 4094
L 844 4444
L 984 4444
L 984 2369
z
M 984 2169
L 984 456
Q 1144 300 1314 220
Q 1484 141 1663 141
Q 1947 141 2192 453
Q 2438 766 2438 1363
Q 2438 1913 2192 2208
Q 1947 2503 1634 2503
Q 1469 2503 1303 2419
Q 1178 2356 984 2169
z
" transform="scale(0.015625)"/>
      </defs>
      <use xlink:href="#TimesNewRomanPSMT-57"/>
      <use xlink:href="#TimesNewRomanPSMT-61" x="86.384766"/>
      <use xlink:href="#TimesNewRomanPSMT-72" x="130.769531"/>
      <use xlink:href="#TimesNewRomanPSMT-6d" x="164.070312"/>
      <use xlink:href="#TimesNewRomanPSMT-74" x="241.853516"/>
      <use xlink:href="#TimesNewRomanPSMT-68" x="269.636719"/>
      <use xlink:href="#TimesNewRomanPSMT-20" x="319.636719"/>
      <use xlink:href="#TimesNewRomanPSMT-50" x="344.636719"/>
      <use xlink:href="#TimesNewRomanPSMT-72" x="400.251953"/>
      <use xlink:href="#TimesNewRomanPSMT-6f" x="433.552734"/>
      <use xlink:href="#TimesNewRomanPSMT-62" x="483.552734"/>
      <use xlink:href="#TimesNewRomanPSMT-2e" x="533.552734"/>
     </g>
    </g>
    <g id="line2d_43">
     <path d="M 336.111039 203.600054
L 344.111039 203.600054
L 352.111039 203.600054
" style="fill: none; stroke: #006ba4; stroke-width: 1.5; stroke-linecap: square"/>
     <g>
      <use xlink:href="#m98a9c0fadd" x="344.111039" y="203.600054" style="fill: #006ba4; stroke: #006ba4"/>
     </g>
    </g>
    <g id="text_67">
     <!-- Competence Prob. -->
     <g transform="translate(358.511039 206.400054) scale(0.08 -0.08)">
      <use xlink:href="#TimesNewRomanPSMT-43"/>
      <use xlink:href="#TimesNewRomanPSMT-6f" x="66.699219"/>
      <use xlink:href="#TimesNewRomanPSMT-6d" x="116.699219"/>
      <use xlink:href="#TimesNewRomanPSMT-70" x="194.482422"/>
      <use xlink:href="#TimesNewRomanPSMT-65" x="244.482422"/>
      <use xlink:href="#TimesNewRomanPSMT-74" x="288.867188"/>
      <use xlink:href="#TimesNewRomanPSMT-65" x="316.650391"/>
      <use xlink:href="#TimesNewRomanPSMT-6e" x="361.035156"/>
      <use xlink:href="#TimesNewRomanPSMT-63" x="411.035156"/>
      <use xlink:href="#TimesNewRomanPSMT-65" x="455.419922"/>
      <use xlink:href="#TimesNewRomanPSMT-20" x="499.804688"/>
      <use xlink:href="#TimesNewRomanPSMT-50" x="524.804688"/>
      <use xlink:href="#TimesNewRomanPSMT-72" x="580.419922"/>
      <use xlink:href="#TimesNewRomanPSMT-6f" x="613.720703"/>
      <use xlink:href="#TimesNewRomanPSMT-62" x="663.720703"/>
      <use xlink:href="#TimesNewRomanPSMT-2e" x="713.720703"/>
     </g>
    </g>
   </g>
  </g>
  <g id="text_68">
   <!-- Classifier Labeled Probabilities of Warmth and Competence x Gender and Age -->
   <g transform="translate(12.556719 15.33375) scale(0.12 -0.12)">
    <defs>
     <path id="TimesNewRomanPS-BoldMT-43" d="M 4272 4334
L 4272 2866
L 4150 2866
Q 4013 3441 3638 3747
Q 3263 4053 2788 4053
Q 2391 4053 2059 3825
Q 1728 3597 1575 3228
Q 1378 2756 1378 2178
Q 1378 1609 1522 1142
Q 1666 675 1972 436
Q 2278 197 2766 197
Q 3166 197 3498 372
Q 3831 547 4200 975
L 4200 609
Q 3844 238 3458 70
Q 3072 -97 2556 -97
Q 1878 -97 1351 175
Q 825 447 539 956
Q 253 1466 253 2041
Q 253 2647 570 3190
Q 888 3734 1427 4034
Q 1966 4334 2572 4334
Q 3019 4334 3516 4141
Q 3803 4028 3881 4028
Q 3981 4028 4054 4101
Q 4128 4175 4150 4334
L 4272 4334
z
" transform="scale(0.015625)"/>
     <path id="TimesNewRomanPS-BoldMT-6c" d="M 1359 4238
L 1359 606
Q 1359 297 1431 211
Q 1503 125 1713 113
L 1713 0
L 134 0
L 134 113
Q 328 119 422 225
Q 484 297 484 606
L 484 3631
Q 484 3938 412 4023
Q 341 4109 134 4122
L 134 4238
L 1359 4238
z
" transform="scale(0.015625)"/>
     <path id="TimesNewRomanPS-BoldMT-69" d="M 919 4338
Q 1122 4338 1262 4195
Q 1403 4053 1403 3853
Q 1403 3653 1261 3512
Q 1119 3372 919 3372
Q 719 3372 578 3512
Q 438 3653 438 3853
Q 438 4053 578 4195
Q 719 4338 919 4338
z
M 1356 2922
L 1356 606
Q 1356 297 1428 211
Q 1500 125 1709 113
L 1709 0
L 131 0
L 131 113
Q 325 119 419 225
Q 481 297 481 606
L 481 2313
Q 481 2622 409 2708
Q 338 2794 131 2806
L 131 2922
L 1356 2922
z
" transform="scale(0.015625)"/>
     <path id="TimesNewRomanPS-BoldMT-66" d="M 1497 2616
L 1497 588
Q 1497 294 1559 219
Q 1659 103 1928 113
L 1928 0
L 206 0
L 206 113
Q 403 116 486 158
Q 569 200 600 275
Q 631 350 631 588
L 631 2616
L 206 2616
L 206 2922
L 631 2922
L 631 3138
L 628 3284
Q 628 3734 958 4034
Q 1288 4334 1850 4334
Q 2234 4334 2420 4190
Q 2606 4047 2606 3872
Q 2606 3731 2490 3628
Q 2375 3525 2184 3525
Q 2022 3525 1926 3609
Q 1831 3694 1831 3797
Q 1831 3825 1850 3913
Q 1863 3966 1863 4013
Q 1863 4078 1825 4109
Q 1775 4156 1703 4156
Q 1613 4156 1552 4081
Q 1491 4006 1491 3841
L 1497 3294
L 1497 2922
L 1928 2922
L 1928 2616
L 1497 2616
z
" transform="scale(0.015625)"/>
     <path id="TimesNewRomanPS-BoldMT-20" transform="scale(0.015625)"/>
     <path id="TimesNewRomanPS-BoldMT-4c" d="M 4041 1488
L 3881 0
L 119 0
L 119 116
L 259 116
Q 444 116 556 181
Q 638 225 681 331
Q 716 406 716 725
L 716 3513
Q 716 3838 681 3919
Q 647 4000 542 4061
Q 438 4122 259 4122
L 119 4122
L 119 4238
L 2378 4238
L 2378 4122
L 2194 4122
Q 2009 4122 1897 4056
Q 1816 4013 1769 3906
Q 1734 3831 1734 3513
L 1734 813
Q 1734 488 1771 398
Q 1809 309 1919 266
Q 1997 238 2297 238
L 2650 238
Q 2988 238 3213 356
Q 3438 475 3602 731
Q 3766 988 3913 1488
L 4041 1488
z
" transform="scale(0.015625)"/>
     <path id="TimesNewRomanPS-BoldMT-62" d="M 1347 4238
L 1347 2628
Q 1716 3009 2153 3009
Q 2453 3009 2718 2832
Q 2984 2656 3134 2331
Q 3284 2006 3284 1581
Q 3284 1103 3093 712
Q 2903 322 2584 117
Q 2266 -88 1856 -88
Q 1619 -88 1434 -12
Q 1250 63 1072 231
L 588 -84
L 481 -84
L 481 3631
Q 481 3884 459 3944
Q 428 4031 361 4073
Q 294 4116 134 4122
L 134 4238
L 1347 4238
z
M 1347 2350
L 1347 1050
Q 1347 653 1366 544
Q 1397 359 1515 245
Q 1634 131 1819 131
Q 1978 131 2092 222
Q 2206 313 2282 581
Q 2359 850 2359 1550
Q 2359 2222 2191 2472
Q 2069 2653 1863 2653
Q 1594 2653 1347 2350
z
" transform="scale(0.015625)"/>
     <path id="TimesNewRomanPS-BoldMT-50" d="M 1728 1919
L 1728 744
Q 1728 400 1770 311
Q 1813 222 1920 169
Q 2028 116 2316 116
L 2316 0
L 163 0
L 163 116
Q 456 116 561 170
Q 666 225 708 312
Q 750 400 750 744
L 750 3494
Q 750 3838 708 3927
Q 666 4016 559 4069
Q 453 4122 163 4122
L 163 4238
L 2009 4238
Q 2922 4238 3319 3913
Q 3716 3588 3716 3100
Q 3716 2688 3459 2394
Q 3203 2100 2753 1994
Q 2450 1919 1728 1919
z
M 1728 3994
L 1728 2163
Q 1831 2156 1884 2156
Q 2266 2156 2472 2382
Q 2678 2609 2678 3084
Q 2678 3556 2472 3775
Q 2266 3994 1856 3994
L 1728 3994
z
" transform="scale(0.015625)"/>
     <path id="TimesNewRomanPS-BoldMT-6f" d="M 1594 3009
Q 1975 3009 2303 2812
Q 2631 2616 2801 2253
Q 2972 1891 2972 1459
Q 2972 838 2656 419
Q 2275 -88 1603 -88
Q 944 -88 587 375
Q 231 838 231 1447
Q 231 2075 595 2542
Q 959 3009 1594 3009
z
M 1606 2788
Q 1447 2788 1333 2667
Q 1219 2547 1183 2192
Q 1147 1838 1147 1206
Q 1147 872 1191 581
Q 1225 359 1337 243
Q 1450 128 1594 128
Q 1734 128 1828 206
Q 1950 313 1991 503
Q 2053 800 2053 1703
Q 2053 2234 1993 2432
Q 1934 2631 1819 2722
Q 1738 2788 1606 2788
z
" transform="scale(0.015625)"/>
     <path id="TimesNewRomanPS-BoldMT-74" d="M 1375 3991
L 1375 2922
L 2069 2922
L 2069 2613
L 1375 2613
L 1375 809
Q 1375 556 1398 482
Q 1422 409 1481 364
Q 1541 319 1591 319
Q 1794 319 1975 628
L 2069 559
Q 1816 -41 1247 -41
Q 969 -41 776 114
Q 584 269 531 459
Q 500 566 500 1034
L 500 2613
L 119 2613
L 119 2722
Q 513 3000 789 3306
Q 1066 3613 1272 3991
L 1375 3991
z
" transform="scale(0.015625)"/>
     <path id="TimesNewRomanPS-BoldMT-57" d="M 6344 4238
L 6344 4122
Q 6225 4113 6144 4056
Q 6063 4000 6000 3884
Q 5981 3847 5803 3400
L 4475 -97
L 4353 -97
L 3303 2634
L 2147 -97
L 2031 -97
L 638 3363
Q 425 3884 340 3993
Q 256 4103 56 4122
L 56 4238
L 1894 4238
L 1894 4122
Q 1672 4116 1598 4055
Q 1525 3994 1525 3903
Q 1525 3784 1678 3400
L 2509 1344
L 3175 2950
L 3000 3400
Q 2856 3769 2778 3892
Q 2700 4016 2598 4069
Q 2497 4122 2300 4122
L 2300 4238
L 4353 4238
L 4353 4122
Q 4138 4119 4044 4088
Q 3978 4066 3940 4014
Q 3903 3963 3903 3897
Q 3903 3825 4044 3456
L 4816 1450
L 5506 3266
Q 5616 3547 5641 3650
Q 5666 3753 5666 3841
Q 5666 3969 5578 4042
Q 5491 4116 5244 4122
L 5244 4238
L 6344 4238
z
" transform="scale(0.015625)"/>
     <path id="TimesNewRomanPS-BoldMT-6d" d="M 1428 2922
L 1428 2538
Q 1669 2800 1873 2904
Q 2078 3009 2322 3009
Q 2603 3009 2793 2878
Q 2984 2747 3088 2478
Q 3338 2759 3567 2884
Q 3797 3009 4047 3009
Q 4350 3009 4529 2870
Q 4709 2731 4779 2517
Q 4850 2303 4850 1834
L 4850 638
Q 4850 300 4911 219
Q 4972 138 5166 113
L 5166 0
L 3656 0
L 3656 113
Q 3834 128 3919 250
Q 3975 334 3975 638
L 3975 1894
Q 3975 2284 3944 2390
Q 3913 2497 3845 2548
Q 3778 2600 3688 2600
Q 3553 2600 3415 2501
Q 3278 2403 3138 2206
L 3138 638
Q 3138 322 3191 241
Q 3263 125 3466 113
L 3466 0
L 1953 0
L 1953 113
Q 2075 119 2145 173
Q 2216 228 2239 304
Q 2263 381 2263 638
L 2263 1894
Q 2263 2291 2231 2391
Q 2200 2491 2126 2547
Q 2053 2603 1969 2603
Q 1844 2603 1741 2538
Q 1594 2441 1428 2206
L 1428 638
Q 1428 328 1489 229
Q 1550 131 1744 113
L 1744 0
L 238 0
L 238 113
Q 422 131 500 231
Q 553 300 553 638
L 553 2288
Q 553 2619 492 2700
Q 431 2781 238 2806
L 238 2922
L 1428 2922
z
" transform="scale(0.015625)"/>
     <path id="TimesNewRomanPS-BoldMT-68" d="M 1409 4238
L 1409 2547
Q 1650 2800 1850 2904
Q 2050 3009 2266 3009
Q 2541 3009 2736 2853
Q 2931 2697 2995 2486
Q 3059 2275 3059 1775
L 3059 634
Q 3059 300 3121 217
Q 3184 134 3375 113
L 3375 0
L 1894 0
L 1894 113
Q 2050 134 2128 238
Q 2184 319 2184 634
L 2184 1938
Q 2184 2300 2156 2392
Q 2128 2484 2061 2536
Q 1994 2588 1909 2588
Q 1784 2588 1665 2502
Q 1547 2416 1409 2200
L 1409 634
Q 1409 322 1456 244
Q 1516 138 1700 113
L 1700 0
L 219 0
L 219 113
Q 403 131 481 231
Q 534 300 534 634
L 534 3603
Q 534 3934 473 4015
Q 413 4097 219 4122
L 219 4238
L 1409 4238
z
" transform="scale(0.015625)"/>
     <path id="TimesNewRomanPS-BoldMT-70" d="M 1347 297
L 1347 -791
Q 1347 -1016 1383 -1097
Q 1419 -1178 1494 -1215
Q 1569 -1253 1788 -1253
L 1788 -1369
L 122 -1369
L 122 -1253
Q 316 -1247 409 -1144
Q 472 -1072 472 -772
L 472 2313
Q 472 2622 400 2708
Q 328 2794 122 2806
L 122 2922
L 1347 2922
L 1347 2538
Q 1500 2763 1659 2863
Q 1888 3009 2156 3009
Q 2478 3009 2742 2806
Q 3006 2603 3143 2245
Q 3281 1888 3281 1475
Q 3281 1031 3139 664
Q 2997 297 2726 104
Q 2456 -88 2125 -88
Q 1884 -88 1675 19
Q 1519 100 1347 297
z
M 1347 613
Q 1616 231 1922 231
Q 2091 231 2200 409
Q 2363 672 2363 1409
Q 2363 2166 2184 2444
Q 2066 2628 1866 2628
Q 1550 2628 1347 2172
L 1347 613
z
" transform="scale(0.015625)"/>
     <path id="TimesNewRomanPS-BoldMT-63" d="M 2600 753
L 2697 678
Q 2491 291 2183 101
Q 1875 -88 1528 -88
Q 944 -88 594 353
Q 244 794 244 1413
Q 244 2009 563 2463
Q 947 3009 1622 3009
Q 2075 3009 2342 2781
Q 2609 2553 2609 2272
Q 2609 2094 2501 1987
Q 2394 1881 2219 1881
Q 2034 1881 1914 2003
Q 1794 2125 1766 2438
Q 1747 2634 1675 2713
Q 1603 2791 1506 2791
Q 1356 2791 1250 2631
Q 1088 2391 1088 1894
Q 1088 1481 1219 1104
Q 1350 728 1578 544
Q 1750 409 1984 409
Q 2138 409 2275 481
Q 2413 553 2600 753
z
" transform="scale(0.015625)"/>
     <path id="TimesNewRomanPS-BoldMT-78" d="M 1944 1791
L 2450 828
Q 2713 325 2866 191
Q 2950 119 3097 113
L 3097 0
L 1469 0
L 1469 113
Q 1659 128 1704 162
Q 1750 197 1750 256
Q 1750 344 1650 531
L 1397 1006
L 1181 691
Q 1034 475 1016 434
Q 991 375 991 328
Q 991 256 1020 207
Q 1050 159 1101 136
Q 1153 113 1291 113
L 1291 0
L 147 0
L 147 113
Q 359 113 536 230
Q 713 347 1050 844
L 1291 1200
L 788 2131
Q 541 2588 419 2691
Q 297 2794 147 2806
L 147 2922
L 1766 2922
L 1766 2806
L 1681 2803
L 1519 2747
Q 1494 2725 1494 2675
Q 1494 2628 1509 2578
Q 1519 2556 1597 2409
L 1825 1984
L 1944 2153
Q 2194 2497 2194 2634
Q 2194 2700 2139 2745
Q 2084 2791 1944 2806
L 1944 2922
L 2978 2922
L 2978 2806
Q 2788 2800 2622 2689
Q 2456 2578 2250 2259
L 1944 1791
z
" transform="scale(0.015625)"/>
    </defs>
    <use xlink:href="#TimesNewRomanPS-BoldMT-43"/>
    <use xlink:href="#TimesNewRomanPS-BoldMT-6c" x="72.216797"/>
    <use xlink:href="#TimesNewRomanPS-BoldMT-61" x="100"/>
    <use xlink:href="#TimesNewRomanPS-BoldMT-73" x="150"/>
    <use xlink:href="#TimesNewRomanPS-BoldMT-73" x="188.916016"/>
    <use xlink:href="#TimesNewRomanPS-BoldMT-69" x="227.832031"/>
    <use xlink:href="#TimesNewRomanPS-BoldMT-66" x="255.615234"/>
    <use xlink:href="#TimesNewRomanPS-BoldMT-69" x="288.916016"/>
    <use xlink:href="#TimesNewRomanPS-BoldMT-65" x="316.699219"/>
    <use xlink:href="#TimesNewRomanPS-BoldMT-72" x="361.083984"/>
    <use xlink:href="#TimesNewRomanPS-BoldMT-20" x="403.71875"/>
    <use xlink:href="#TimesNewRomanPS-BoldMT-4c" x="428.71875"/>
    <use xlink:href="#TimesNewRomanPS-BoldMT-61" x="495.417969"/>
    <use xlink:href="#TimesNewRomanPS-BoldMT-62" x="545.417969"/>
    <use xlink:href="#TimesNewRomanPS-BoldMT-65" x="601.033203"/>
    <use xlink:href="#TimesNewRomanPS-BoldMT-6c" x="645.417969"/>
    <use xlink:href="#TimesNewRomanPS-BoldMT-65" x="673.201172"/>
    <use xlink:href="#TimesNewRomanPS-BoldMT-64" x="717.585938"/>
    <use xlink:href="#TimesNewRomanPS-BoldMT-20" x="773.201172"/>
    <use xlink:href="#TimesNewRomanPS-BoldMT-50" x="798.201172"/>
    <use xlink:href="#TimesNewRomanPS-BoldMT-72" x="859.285156"/>
    <use xlink:href="#TimesNewRomanPS-BoldMT-6f" x="901.919922"/>
    <use xlink:href="#TimesNewRomanPS-BoldMT-62" x="951.919922"/>
    <use xlink:href="#TimesNewRomanPS-BoldMT-61" x="1007.535156"/>
    <use xlink:href="#TimesNewRomanPS-BoldMT-62" x="1057.535156"/>
    <use xlink:href="#TimesNewRomanPS-BoldMT-69" x="1113.150391"/>
    <use xlink:href="#TimesNewRomanPS-BoldMT-6c" x="1140.933594"/>
    <use xlink:href="#TimesNewRomanPS-BoldMT-69" x="1168.716797"/>
    <use xlink:href="#TimesNewRomanPS-BoldMT-74" x="1196.5"/>
    <use xlink:href="#TimesNewRomanPS-BoldMT-69" x="1229.800781"/>
    <use xlink:href="#TimesNewRomanPS-BoldMT-65" x="1257.583984"/>
    <use xlink:href="#TimesNewRomanPS-BoldMT-73" x="1301.96875"/>
    <use xlink:href="#TimesNewRomanPS-BoldMT-20" x="1340.884766"/>
    <use xlink:href="#TimesNewRomanPS-BoldMT-6f" x="1365.884766"/>
    <use xlink:href="#TimesNewRomanPS-BoldMT-66" x="1415.884766"/>
    <use xlink:href="#TimesNewRomanPS-BoldMT-20" x="1449.185547"/>
    <use xlink:href="#TimesNewRomanPS-BoldMT-57" x="1472.435547"/>
    <use xlink:href="#TimesNewRomanPS-BoldMT-61" x="1566.935547"/>
    <use xlink:href="#TimesNewRomanPS-BoldMT-72" x="1616.935547"/>
    <use xlink:href="#TimesNewRomanPS-BoldMT-6d" x="1661.320312"/>
    <use xlink:href="#TimesNewRomanPS-BoldMT-74" x="1744.621094"/>
    <use xlink:href="#TimesNewRomanPS-BoldMT-68" x="1777.921875"/>
    <use xlink:href="#TimesNewRomanPS-BoldMT-20" x="1833.537109"/>
    <use xlink:href="#TimesNewRomanPS-BoldMT-61" x="1858.537109"/>
    <use xlink:href="#TimesNewRomanPS-BoldMT-6e" x="1908.537109"/>
    <use xlink:href="#TimesNewRomanPS-BoldMT-64" x="1964.152344"/>
    <use xlink:href="#TimesNewRomanPS-BoldMT-20" x="2019.767578"/>
    <use xlink:href="#TimesNewRomanPS-BoldMT-43" x="2044.767578"/>
    <use xlink:href="#TimesNewRomanPS-BoldMT-6f" x="2116.984375"/>
    <use xlink:href="#TimesNewRomanPS-BoldMT-6d" x="2166.984375"/>
    <use xlink:href="#TimesNewRomanPS-BoldMT-70" x="2250.285156"/>
    <use xlink:href="#TimesNewRomanPS-BoldMT-65" x="2305.900391"/>
    <use xlink:href="#TimesNewRomanPS-BoldMT-74" x="2350.285156"/>
    <use xlink:href="#TimesNewRomanPS-BoldMT-65" x="2383.585938"/>
    <use xlink:href="#TimesNewRomanPS-BoldMT-6e" x="2427.970703"/>
    <use xlink:href="#TimesNewRomanPS-BoldMT-63" x="2483.585938"/>
    <use xlink:href="#TimesNewRomanPS-BoldMT-65" x="2527.970703"/>
    <use xlink:href="#TimesNewRomanPS-BoldMT-20" x="2572.355469"/>
    <use xlink:href="#TimesNewRomanPS-BoldMT-78" x="2597.355469"/>
    <use xlink:href="#TimesNewRomanPS-BoldMT-20" x="2647.355469"/>
    <use xlink:href="#TimesNewRomanPS-BoldMT-47" x="2672.355469"/>
    <use xlink:href="#TimesNewRomanPS-BoldMT-65" x="2750.138672"/>
    <use xlink:href="#TimesNewRomanPS-BoldMT-6e" x="2794.523438"/>
    <use xlink:href="#TimesNewRomanPS-BoldMT-64" x="2850.138672"/>
    <use xlink:href="#TimesNewRomanPS-BoldMT-65" x="2905.753906"/>
    <use xlink:href="#TimesNewRomanPS-BoldMT-72" x="2950.138672"/>
    <use xlink:href="#TimesNewRomanPS-BoldMT-20" x="2992.773438"/>
    <use xlink:href="#TimesNewRomanPS-BoldMT-61" x="3017.773438"/>
    <use xlink:href="#TimesNewRomanPS-BoldMT-6e" x="3067.773438"/>
    <use xlink:href="#TimesNewRomanPS-BoldMT-64" x="3123.388672"/>
    <use xlink:href="#TimesNewRomanPS-BoldMT-20" x="3179.003906"/>
    <use xlink:href="#TimesNewRomanPS-BoldMT-41" x="3198.503906"/>
    <use xlink:href="#TimesNewRomanPS-BoldMT-67" x="3270.720703"/>
    <use xlink:href="#TimesNewRomanPS-BoldMT-65" x="3320.720703"/>
   </g>
  </g>
 </g>
 <defs>
  <clipPath id="pce9416bc43">
   <rect x="41.662344" y="41.76" width="155.269565" height="115.70087"/>
  </clipPath>
  <clipPath id="p4d113787dc">
   <rect x="243.512779" y="41.76" width="155.269565" height="115.70087"/>
  </clipPath>
  <clipPath id="p432c60c223">
   <rect x="41.662344" y="192.17113" width="155.269565" height="115.70087"/>
  </clipPath>
  <clipPath id="p97011a2ed7">
   <rect x="243.512779" y="192.17113" width="155.269565" height="115.70087"/>
  </clipPath>
 </defs>
</svg>
